<svg xmlns="http://www.w3.org/2000/svg" width="18.226" height="21.666" viewBox="0 0 18.226 21.666"><g data-name="Group 272"><g data-name="Group 103" fill="#fff" stroke="#372E75"><path data-name="Path 124" d="M1.361.5h4.265l.928.861c6.233 6.215 11.154 11.275 11.167 11.315s0 1.076 0 1.076v3.108a.861.861 0 0 1-.861.861H1.361a.861.861 0 0 1-.861-.86v-15.5A.861.861 0 0 1 1.361.5z"/><g data-name="Group 102" transform="translate(2.222 2.222)"><rect data-name="Rectangle 222" width="13.777" height="12.916" rx="1"/><path data-name="Path 120" d="M1.849 3.186h9.613" stroke-linecap="round"/><path data-name="Path 121" d="M1.849 4.908h9.613" stroke-linecap="round"/><path data-name="Path 122" d="M1.849 6.631h9.613" stroke-linecap="round"/><path data-name="Path 123" d="M1.849 8.353h9.613" stroke-linecap="round"/></g><path data-name="Path 119" d="M1.361 3.944h4.265l.928.861C12.787 11.02 17.708 16.08 17.721 16.12s0 1.076 0 1.076v3.108a.861.861 0 0 1-.861.861H1.361a.861.861 0 0 1-.861-.86v-15.5a.861.861 0 0 1 .861-.861z"/></g></g></svg>