<?xml version="1.0" encoding="utf-8"?>
<!-- Generator: Adobe Illustrator 23.0.1, SVG Export Plug-In . SVG Version: 6.00 Build 0)  -->
<svg version="1.1" id="Layer_1" xmlns="http://www.w3.org/2000/svg" xmlns:xlink="http://www.w3.org/1999/xlink" x="0px" y="0px"
	 viewBox="0 0 100 100" style="enable-background:new 0 0 100 100;" xml:space="preserve">
<style type="text/css">
	.st0{fill:#372E75;}
</style>
<g>
	<g>
		<path class="st0" d="M48.5,69.71c-2.59-2.85-5.05-5.57-7.64-8.43c0.5-0.61,0.95-1.26,1.47-1.85c6.59-7.36,13.2-14.71,19.79-22.05
			c2.13-2.38,2.17-4.73,0.13-6.97c-2-2.21-4.11-2.13-6.26,0.26C45.71,42.09,35.78,53.94,25.07,64.83
			c-7.95,8.07-2.22,19.98,5.49,22.48c3.91,1.26,7.23,0.37,10.17-2.93C51.8,71.93,62.91,59.53,74.1,47.2
			c4.68-5.16,5.82-11.16,4.06-18c-2.96-11.44-13.81-19.2-23.3-16.32c-2.53,0.77-5.09,2.54-7,4.57
			c-7.49,7.97-14.73,16.26-22.07,24.41c-0.42,0.47-0.88,0.89-1.32,1.32c-2.53-2.84-5.03-5.61-7.68-8.54
			c0.61-0.71,1.21-1.5,1.85-2.22c6.78-7.56,13.83-14.85,20.29-22.72C49.4-3.06,65.58-2.25,76.37,6.45
			C87.5,15.41,92.57,30.75,88.73,44c-1.32,4.59-3.67,8.43-6.74,11.81c-10.85,12.01-22,23.72-32.37,36.23
			c-11.15,13.45-29.34,8.82-36.69-6.06c-4.94-10-3.58-20.83,3.62-28.84c10.63-11.85,21.26-23.71,31.91-35.54
			c5.23-5.83,11.97-6.85,18.21-2.84c6.21,3.98,9.53,12.05,7.66,19.39c-0.59,2.32-1.71,4.74-3.19,6.46
			c-7.2,8.31-14.6,16.4-21.94,24.57C49.05,69.39,48.79,69.51,48.5,69.71z"/>
	</g>
</g>
</svg>
