<svg xmlns="http://www.w3.org/2000/svg" width="26.554" height="26.885" viewBox="0 0 26.554 26.885"><defs><style>
.cls-1{fill:#372E75}</style>
</defs><path id="attachment" d="M6.2 20.011a5.018 5.018 0 0 1-3.549-8.562L13.031 1.07a3.717 3.717 0 0 1 5.367.157 3.717 3.717 0 0 1 .157 5.367l-9.75 9.751a2.35 2.35 0 0 1-3.323-3.323l6.605-6.605a.57.57 0 0 1 .807.807l-6.605 6.605A1.209 1.209 0 0 0 8 15.539l9.751-9.751a2.6 2.6 0 0 0-.157-3.754 2.6 2.6 0 0 0-3.754-.157L3.458 12.256a3.878 3.878 0 0 0 5.484 5.484l10.38-10.379a.57.57 0 0 1 .807.807L9.749 18.547A4.983 4.983 0 0 1 6.2 20.011z" class="cls-1" transform="rotate(-30 18.422 6.992)"/></svg>