<?xml version="1.0" encoding="utf-8"?>
<!-- Generator: Adobe Illustrator 23.0.1, SVG Export Plug-In . SVG Version: 6.00 Build 0)  -->
<svg version="1.1" id="Layer_1" xmlns="http://www.w3.org/2000/svg" xmlns:xlink="http://www.w3.org/1999/xlink" x="0px" y="0px"
	 viewBox="0 0 200 56" style="enable-background:new 0 0 200 56;" xml:space="preserve">
<style type="text/css">
	.st0{fill:#372E75;}
</style>
<g>
	<path class="st0" d="M170,28.9c-1.59,1.34-3.87,1.69-6.74,1.68c-38.5-0.04-77-0.02-115.5-0.02c-1.23,0-2.47,0-3.7,0
		c-0.17,0.14-0.34,0.28-0.51,0.42c4.28,2.25,8.59,4.47,12.82,6.75c8.56,4.61,17.12,9.21,25.53,13.89c1.18,0.66,2.06,1.77,2.04,2.66
		c-0.02,0.61-1.78,1.64-2.9,1.7c-1.62,0.09-3.84-0.27-5.01-0.89c-9.4-4.96-18.61-10.02-27.89-15.05
		c-5.98-3.25-11.98-6.48-17.95-9.74c-2.94-1.61-2.93-2.78,0.05-4.4C45.41,17.67,60.6,9.44,75.79,1.21c0.45-0.24,0.88-0.51,1.4-0.7
		c1.89-0.7,3.83-0.7,5.52,0.14c1.79,0.89,2.08,2,0.69,3.1c-0.83,0.65-1.99,1.19-3.03,1.75C68.93,11.71,57.5,17.92,46.01,24.1
		c-0.78,0.42-2.03,0.59-3.06,0.88c0.35,0.26,0.7,0.51,1.06,0.77c1.11,0,2.23,0,3.34,0c38.71,0,77.42,0.01,116.13-0.02
		c2.9,0,5.19,0.3,6.52,1.8C170,27.98,170,28.44,170,28.9z"/>
</g>
</svg>
