<svg xmlns="http://www.w3.org/2000/svg" width="120.255" height="217.437" viewBox="0 0 120.255 217.437"><g data-name="Group 9"><g data-name="Group 2"><path data-name="Path 13" d="M101.967 207.136a.233.233 0 0 0 .053-.459s-.319-.075-.9-.24a.232.232 0 1 0-.128.447c.6.17.919.246.919.246a.246.246 0 0 0 .056.006zm-4.455-1.41a.233.233 0 0 0 .08-.452q-.417-.153-.869-.327a.233.233 0 0 0-.167.435c.3.117.595.226.876.329a.231.231 0 0 0 .08.015zm-4.315-1.764a.233.233 0 0 0 .1-.445q-.416-.187-.845-.386a.233.233 0 1 0-.2.422q.43.2.85.388a.215.215 0 0 0 .095.021zm-4.185-2.05a.232.232 0 0 0 .109-.438l-.817-.44a.233.233 0 0 0-.224.408q.416.226.823.443a.226.226 0 0 0 .109.027zm-4.042-2.317a.233.233 0 0 0 .123-.431q-.391-.242-.787-.492a.232.232 0 0 0-.25.392q.4.254.792.5a.237.237 0 0 0 .122.031zm-3.88-2.575a.233.233 0 0 0 .135-.423q-.375-.267-.752-.543a.233.233 0 1 0-.275.375q.379.277.757.548a.235.235 0 0 0 .135.042zm-3.7-2.829a.233.233 0 0 0 .148-.413q-.357-.293-.714-.594a.233.233 0 0 0-.3.357l.719.6a.227.227 0 0 0 .148.05zm-3.494-3.076a.233.233 0 0 0 .159-.4q-.335-.316-.669-.642a.233.233 0 0 0-.325.334q.337.327.675.646a.231.231 0 0 0 .161.066zm-3.268-3.315a.23.23 0 0 0 .157-.061.233.233 0 0 0 .014-.329q-.312-.34-.622-.688a.233.233 0 0 0-.348.311c.209.233.417.464.627.692a.233.233 0 0 0 .173.075zm-3.02-3.54a.233.233 0 0 0 .182-.378q-.287-.361-.57-.731a.233.233 0 1 0-.369.283q.287.374.575.737a.232.232 0 0 0 .183.089zm-2.752-3.752a.232.232 0 0 0 .192-.363q-.26-.382-.515-.772a.233.233 0 1 0-.389.256q.258.392.519.777a.233.233 0 0 0 .19.102zm-2.469-3.943a.233.233 0 0 0 .2-.349q-.231-.4-.458-.808a.233.233 0 1 0-.406.227q.228.409.46.813a.232.232 0 0 0 .205.117zm-2.174-4.113a.229.229 0 0 0 .1-.023.232.232 0 0 0 .108-.311l-.4-.838a.229.229 0 0 0-.309-.113.232.232 0 0 0-.112.309l.4.844a.231.231 0 0 0 .214.132zm-1.875-4.258a.224.224 0 0 0 .087-.017.232.232 0 0 0 .129-.3 59.394 59.394 0 0 1-.337-.863.233.233 0 0 0-.435.165q.168.438.34.871a.233.233 0 0 0 .217.144zm-1.559-4.386a.235.235 0 0 0 .069-.01.231.231 0 0 0 .153-.291c-.091-.3-.18-.592-.265-.889a.23.23 0 0 0-.289-.158.233.233 0 0 0-.159.288q.131.448.269.9a.233.233 0 0 0 .223.16zm-1.188-4.5a.212.212 0 0 0 .05-.005.232.232 0 0 0 .177-.277c-.066-.3-.13-.6-.192-.908a.233.233 0 0 0-.457.093c.063.305.128.611.195.915a.233.233 0 0 0 .228.181zm-.826-4.581h.033a.232.232 0 0 0 .2-.263 48.188 48.188 0 0 1-.123-.919.229.229 0 0 0-.26-.2.232.232 0 0 0-.2.26q.059.464.124.926a.232.232 0 0 0 .227.195zm-.487-4.629h.017a.234.234 0 0 0 .216-.249 70.765 70.765 0 0 1-.059-.926.232.232 0 1 0-.464.026q.025.466.058.933a.233.233 0 0 0 .233.215zm-.175-4.651a.233.233 0 0 0 .231-.235v-.928a.233.233 0 0 0-.232-.234.233.233 0 0 0-.233.232v.934a.233.233 0 0 0 .235.23zm.1-4.655a.233.233 0 0 0 .232-.221q.022-.463.05-.927a.233.233 0 0 0-.218-.247.222.222 0 0 0-.246.219q-.028.465-.051.932a.233.233 0 0 0 .221.244zm.342-4.643a.233.233 0 0 0 .231-.211q.045-.462.094-.924a.233.233 0 1 0-.463-.05c-.033.31-.064.62-.1.93a.234.234 0 0 0 .21.254zm.549-4.625a.232.232 0 0 0 .23-.2c.043-.307.087-.615.132-.921a.233.233 0 0 0-.46-.068q-.069.462-.133.925a.233.233 0 0 0 .2.263zm.725-4.6a.233.233 0 0 0 .229-.193l.163-.918a.233.233 0 0 0-.187-.271.235.235 0 0 0-.271.188l-.164.921a.233.233 0 0 0 .189.269.191.191 0 0 0 .042-.001zm.869-4.581a.234.234 0 0 0 .228-.186l.188-.911a.233.233 0 0 0-.455-.1l-.189.913a.233.233 0 0 0 .181.275.255.255 0 0 0 .048.005zm.982-4.552a.233.233 0 0 0 .227-.182l.207-.907a.233.233 0 0 0-.454-.1l-.207.909a.232.232 0 0 0 .175.278.237.237 0 0 0 .053-.002zm1.066-4.533a.233.233 0 0 0 .226-.179l.22-.9a.232.232 0 0 0-.451-.111l-.221.906a.232.232 0 0 0 .171.281.267.267 0 0 0 .056-.001zm1.121-4.521a.235.235 0 0 0 .226-.176l.227-.9a.233.233 0 0 0-.169-.283.23.23 0 0 0-.282.169l-.228.9a.232.232 0 0 0 .169.283.223.223 0 0 0 .053.003zm1.141-4.515a.231.231 0 0 0 .225-.176l.229-.9a.233.233 0 0 0-.452-.114l-.228.9a.233.233 0 0 0 .169.283.223.223 0 0 0 .058.004zm1.124-4.52a.233.233 0 0 0 .226-.178l.219-.906a.233.233 0 1 0-.453-.108l-.218.9a.232.232 0 0 0 .171.281.267.267 0 0 0 .056.007zm1.061-4.535a.232.232 0 0 0 .227-.182c.068-.3.134-.609.2-.911a.233.233 0 1 0-.456-.1c-.064.3-.131.6-.2.908a.233.233 0 0 0 .176.278.226.226 0 0 0 .054.003zm.933-4.562a.234.234 0 0 0 .229-.191q.084-.462.164-.919a.232.232 0 0 0-.458-.08c-.053.3-.108.609-.164.915a.232.232 0 0 0 .187.271.2.2 0 0 0 .043 0zm.712-4.6a.232.232 0 0 0 .231-.2q.057-.468.1-.929a.233.233 0 0 0-.463-.049q-.048.457-.1.922a.233.233 0 0 0 .2.259zm.345-4.64a.234.234 0 0 0 .233-.228c0-.232.007-.462.007-.691V80.2a.233.233 0 0 0-.233-.232.232.232 0 0 0-.231.234v.243c0 .226 0 .453-.007.683a.234.234 0 0 0 .228.237zm-.265-4.646a.2.2 0 0 0 .035 0 .233.233 0 0 0 .2-.265c-.047-.313-.1-.623-.16-.928a.23.23 0 0 0-.273-.183.232.232 0 0 0-.184.273q.089.447.157.907a.231.231 0 0 0 .225.196zm-1.255-4.47a.229.229 0 0 0 .1-.02.232.232 0 0 0 .117-.307q-.194-.435-.415-.851a.233.233 0 1 0-.411.219c.143.268.276.542.4.822a.231.231 0 0 0 .209.137z" fill="#372E75"/></g><g data-name="Group 3"><path data-name="Path 14" d="M79.367 217.438a.234.234 0 0 0 .18-.085s.212-.256.576-.754a.233.233 0 0 0-.377-.275c-.351.481-.556.73-.558.733a.233.233 0 0 0 .179.381zm2.609-3.863a.233.233 0 0 0 .2-.114q.231-.387.471-.81a.233.233 0 0 0-.4-.23q-.238.419-.466.8a.234.234 0 0 0 .2.352zm2.194-4.109a.233.233 0 0 0 .21-.132q.2-.414.4-.848a.233.233 0 0 0-.424-.193c-.131.286-.262.567-.393.84a.233.233 0 0 0 .11.31.222.222 0 0 0 .097.023zm1.834-4.281a.231.231 0 0 0 .217-.15c.11-.287.218-.579.326-.876a.233.233 0 0 0-.437-.159c-.107.295-.215.584-.324.87a.231.231 0 0 0 .135.3.238.238 0 0 0 .083.015zm1.479-4.414a.233.233 0 0 0 .223-.167l.255-.9a.233.233 0 0 0-.45-.123q-.123.452-.252.892a.233.233 0 0 0 .159.289.237.237 0 0 0 .065.009zm1.121-4.518a.231.231 0 0 0 .227-.186q.094-.453.182-.917a.233.233 0 0 0-.458-.086q-.087.459-.179.91a.231.231 0 0 0 .181.274.183.183 0 0 0 .047.005zm.758-4.592a.232.232 0 0 0 .23-.2c.038-.307.075-.617.108-.929a.232.232 0 0 0-.462-.05c-.034.31-.069.616-.108.922a.233.233 0 0 0 .2.259.137.137 0 0 0 .032-.002zm.392-4.637a.232.232 0 0 0 .232-.223q.022-.463.036-.934a.232.232 0 0 0-.226-.239.242.242 0 0 0-.24.226c-.009.31-.021.619-.034.926a.231.231 0 0 0 .222.243zm.031-4.655h.008a.233.233 0 0 0 .225-.24q-.015-.463-.037-.934a.233.233 0 0 0-.465.022c.014.311.027.62.037.927a.232.232 0 0 0 .232.225zm-.323-4.643h.025a.234.234 0 0 0 .207-.256 61.52 61.52 0 0 0-.107-.929.238.238 0 0 0-.259-.2.234.234 0 0 0-.2.26q.057.462.106.921a.233.233 0 0 0 .228.204zm-.664-4.607a.283.283 0 0 0 .041 0 .233.233 0 0 0 .188-.271q-.083-.457-.173-.918a.228.228 0 0 0-.273-.183.232.232 0 0 0-.184.273c.06.3.117.609.172.911a.232.232 0 0 0 .229.189zm-.988-4.548a.235.235 0 0 0 .226-.29c-.076-.3-.155-.6-.235-.9a.233.233 0 0 0-.45.12c.08.3.158.6.234.9a.232.232 0 0 0 .225.17zm-1.243-4.485a.2.2 0 0 0 .065-.009.232.232 0 0 0 .159-.288l-.262-.9a.233.233 0 0 0-.446.132l.261.893a.233.233 0 0 0 .223.172zm-1.341-4.456a.207.207 0 0 0 .069-.011.232.232 0 0 0 .153-.291l-.279-.889a.232.232 0 1 0-.443.14l.277.888a.235.235 0 0 0 .223.163zm-1.424-4.431a.207.207 0 0 0 .073-.012.232.232 0 0 0 .148-.294l-.293-.883a.233.233 0 0 0-.442.147l.293.883a.235.235 0 0 0 .221.159zm-1.488-4.409a.23.23 0 0 0 .076-.013.233.233 0 0 0 .144-.3l-.3-.879a.233.233 0 1 0-.44.151l.3.88a.231.231 0 0 0 .22.161zm-1.517-4.4a.225.225 0 0 0 .076-.013.234.234 0 0 0 .145-.3l-.3-.88a.233.233 0 0 0-.44.151l.3.881a.235.235 0 0 0 .219.162zm-1.482-4.41a.226.226 0 0 0 .072-.012.233.233 0 0 0 .15-.293l-.284-.885a.233.233 0 0 0-.444.141l.285.888a.233.233 0 0 0 .221.162zm-1.344-4.454a.27.27 0 0 0 .063-.006.233.233 0 0 0 .163-.286q-.123-.45-.24-.9a.233.233 0 1 0-.45.118q.117.449.241.9a.233.233 0 0 0 .223.175zm-1.063-4.529a.343.343 0 0 0 .044 0 .233.233 0 0 0 .182-.277q-.087-.455-.164-.911a.237.237 0 0 0-.268-.191.232.232 0 0 0-.191.268q.078.462.166.922a.233.233 0 0 0 .231.19zm-.633-4.606h.02a.232.232 0 0 0 .212-.251 46.061 46.061 0 0 1-.065-.923.221.221 0 0 0-.246-.218.232.232 0 0 0-.219.246c.019.313.041.623.067.933a.232.232 0 0 0 .231.214zm-.116-4.648a.233.233 0 0 0 .232-.226q.015-.459.038-.925a.232.232 0 0 0-.22-.244.226.226 0 0 0-.244.22q-.025.471-.039.935a.233.233 0 0 0 .225.24zm.381-4.638a.232.232 0 0 0 .23-.2c.039-.3.082-.61.127-.918a.23.23 0 0 0-.2-.264.233.233 0 0 0-.265.2q-.069.468-.129.927a.234.234 0 0 0 .2.261zm.788-4.586a.232.232 0 0 0 .227-.185c.064-.3.129-.6.2-.906a.233.233 0 1 0-.455-.1l-.2.913a.232.232 0 0 0 .18.275.2.2 0 0 0 .048.004zm1.1-4.523a.233.233 0 0 0 .225-.171c.08-.3.163-.6.248-.9a.233.233 0 0 0-.449-.127c-.085.3-.168.6-.248.9a.231.231 0 0 0 .163.285.218.218 0 0 0 .057.014zm1.322-4.463a.233.233 0 0 0 .222-.162l.285-.885a.233.233 0 0 0-.443-.144l-.286.888a.233.233 0 0 0 .151.292.255.255 0 0 0 .067.012z" fill="#372E75"/></g><g data-name="Group 4"><path data-name="Path 15" d="M92.074 215.866a.234.234 0 0 0 .226-.177s.081-.324.2-.922a.233.233 0 1 0-.457-.091c-.116.581-.194.9-.2.9a.234.234 0 0 0 .169.283.286.286 0 0 0 .062.007zm.769-4.594a.233.233 0 0 0 .231-.206c.035-.3.068-.608.1-.929a.233.233 0 0 0-.209-.255.236.236 0 0 0-.254.209c-.033.318-.066.626-.1.922a.234.234 0 0 0 .205.258zm.348-4.642a.234.234 0 0 0 .233-.225q.015-.461.023-.935a.232.232 0 0 0-.229-.236.244.244 0 0 0-.236.229 45.71 45.71 0 0 1-.024.926.234.234 0 0 0 .225.241zm-.035-4.655h.012a.231.231 0 0 0 .22-.244q-.023-.462-.054-.933a.248.248 0 0 0-.247-.218.234.234 0 0 0-.218.248q.032.468.055.927a.232.232 0 0 0 .232.22zm-.438-4.635h.033a.233.233 0 0 0 .2-.263q-.064-.461-.139-.926a.233.233 0 0 0-.46.074c.05.307.1.612.138.916a.232.232 0 0 0 .228.199zm-.871-4.573a.267.267 0 0 0 .055-.007.232.232 0 0 0 .171-.281q-.109-.453-.23-.907a.233.233 0 1 0-.45.119q.119.45.228.9a.233.233 0 0 0 .226.176zm-1.339-4.456a.244.244 0 0 0 .079-.014.233.233 0 0 0 .14-.3q-.159-.439-.329-.878a.233.233 0 0 0-.434.169q.168.434.325.867a.233.233 0 0 0 .219.156zm-1.835-4.276a.226.226 0 0 0 .1-.024.234.234 0 0 0 .1-.313q-.21-.417-.431-.832a.233.233 0 0 0-.411.219q.219.41.425.822a.233.233 0 0 0 .217.128zm-2.34-4.02a.233.233 0 0 0 .193-.362 34.235 34.235 0 0 0-.531-.772.233.233 0 0 0-.38.269q.269.38.525.762a.23.23 0 0 0 .193.107zm-2.829-3.692a.233.233 0 0 0 .175-.386q-.306-.351-.625-.7a.233.233 0 1 0-.343.315q.315.343.617.689a.233.233 0 0 0 .176.078zm-3.272-3.307a.233.233 0 0 0 .158-.4q-.341-.313-.68-.633a.233.233 0 0 0-.319.339q.342.321.684.636a.231.231 0 0 0 .157.061zm-3.351-3.235a.232.232 0 0 0 .164-.067.235.235 0 0 0 0-.33q-.327-.328-.653-.663a.233.233 0 0 0-.333.326l.655.665a.232.232 0 0 0 .167.069zm-3.216-3.37a.232.232 0 0 0 .172-.39q-.313-.341-.626-.686a.233.233 0 0 0-.346.312q.313.347.629.689a.232.232 0 0 0 .171.075zm-3.09-3.485a.232.232 0 0 0 .177-.384l-.6-.708a.232.232 0 1 0-.355.3l.6.711a.231.231 0 0 0 .178.081zm-2.971-3.587a.232.232 0 0 0 .181-.378l-.579-.727a.233.233 0 0 0-.365.289l.581.729a.233.233 0 0 0 .182.087zm-2.856-3.681a.232.232 0 0 0 .186-.372l-.555-.743a.233.233 0 0 0-.374.277l.557.746a.232.232 0 0 0 .186.092zm-2.737-3.762a.232.232 0 0 0 .191-.367l-.533-.761a.232.232 0 0 0-.382.265l.534.765a.233.233 0 0 0 .19.098zm-2.623-3.848a.233.233 0 0 0 .194-.361q-.257-.39-.51-.779a.233.233 0 1 0-.391.253q.255.392.512.782a.233.233 0 0 0 .195.105zm-2.506-3.934a.232.232 0 0 0 .2-.354l-.485-.794a.234.234 0 0 0-.4.242l.486.795a.233.233 0 0 0 .198.111zm-2.376-4.006a.238.238 0 0 0 .115-.03.234.234 0 0 0 .087-.318q-.231-.4-.459-.809a.233.233 0 0 0-.4.229c.151.27.3.541.459.811a.234.234 0 0 0 .198.117zm-2.239-4.084a.233.233 0 0 0 .206-.341l-.429-.825a.233.233 0 1 0-.414.214l.431.827a.232.232 0 0 0 .206.12zm-2.086-4.163a.244.244 0 0 0 .1-.023.233.233 0 0 0 .109-.311l-.4-.84a.233.233 0 0 0-.422.2c.132.281.264.562.4.844a.232.232 0 0 0 .213.13zm-1.92-4.242a.227.227 0 0 0 .091-.018.232.232 0 0 0 .123-.3c-.121-.286-.242-.571-.36-.857a.233.233 0 1 0-.43.178q.179.431.362.861a.233.233 0 0 0 .214.136zm-1.722-4.327a.221.221 0 0 0 .08-.014.233.233 0 0 0 .138-.3l-.317-.873a.232.232 0 1 0-.438.156q.156.438.318.878a.233.233 0 0 0 .219.15zm-1.49-4.412a.224.224 0 0 0 .068-.01.233.233 0 0 0 .155-.29c-.091-.3-.179-.594-.265-.891a.233.233 0 0 0-.447.13c.086.3.176.6.266.9a.233.233 0 0 0 .223.158zm-1.2-4.5a.237.237 0 0 0 .052-.006.234.234 0 0 0 .175-.279l-.2-.906a.239.239 0 0 0-.277-.179.233.233 0 0 0-.179.276c.065.3.132.608.2.913a.233.233 0 0 0 .225.181zm-.846-4.578h.032a.234.234 0 0 0 .2-.262 44.475 44.475 0 0 1-.116-.92.239.239 0 0 0-.258-.2.233.233 0 0 0-.205.258q.054.462.118.928a.233.233 0 0 0 .225.196z" fill="#372E75"/></g><path data-name="Path 16" d="M62.591 71.7a18.56 18.56 0 0 0-.627 2.967 5.04 5.04 0 0 0 2.181-.253 4.645 4.645 0 0 0 1.924-.805 12.83 12.83 0 0 0-2-2.3c5.269-2.764 22.275-21.954 15.94-46.529C75.602 7.688 59.975-3.06 45.102.78s-23.356 20.8-18.95 37.889C32.627 63.777 56.694 71.891 62.591 71.7z" fill="#372E75" opacity=".33"/><g data-name="Group 5"><path data-name="Path 17" d="M80.277 101.108a18.543 18.543 0 0 0-2.031 2.252 5.039 5.039 0 0 0 2.013.875 4.664 4.664 0 0 0 2.068.27 12.8 12.8 0 0 0-.574-2.992c5.943.253 30.284-7.809 37.138-32.245 4.767-16.995-3.355-34.133-18.144-38.282s-30.639 6.267-35.406 23.262c-7.004 24.971 9.739 44.066 14.936 46.86z" fill="#372E75" opacity=".35"/></g><g data-name="Group 6"><path data-name="Path 18" d="M40.964 105.146a18.43 18.43 0 0 0-.387 3.008 5.084 5.084 0 0 0 2.153-.427 4.671 4.671 0 0 0 1.854-.956 12.8 12.8 0 0 0-2.177-2.132c5.031-3.177 20.448-23.665 12.167-47.655-5.759-16.685-22.2-26.148-36.715-21.136s-21.618 22.6-15.858 39.284c8.457 24.513 33.1 30.676 38.963 30.014z" fill="#372E75" opacity=".54"/></g></g></svg>