<?xml version="1.0" encoding="utf-8"?>
<!-- Generator: Adobe Illustrator 23.0.1, SVG Export Plug-In . SVG Version: 6.00 Build 0)  -->
<svg version="1.1" id="Layer_1" xmlns="http://www.w3.org/2000/svg" xmlns:xlink="http://www.w3.org/1999/xlink" x="0px" y="0px"
	 viewBox="0 0 100 100" style="enable-background:new 0 0 100 100;" xml:space="preserve">
<style type="text/css">
	.st0{fill:#372E75;}
</style>
<g>
	<path class="st0" d="M49.97,88.94c-13.42,0-26.84-0.14-40.25,0.06c-6.23,0.1-9.65-3.78-9.7-8.55c-0.02-1.91,0-3.82,0-5.73
		c0-14.19-0.03-28.38,0.05-42.57c0.01-1.54,0.41-3.19,1.11-4.6c1.34-2.74,3.91-4.04,7.33-4.02c4.61,0.03,9.22-0.11,13.81,0.07
		c1.87,0.07,2.92-0.62,3.95-1.73c1.46-1.57,2.97-3.1,4.47-4.64c1.37-1.41,2.65-2.89,4.14-4.18c1.31-1.14,2.93-1.99,4.85-2
		c6.93-0.04,13.86-0.09,20.79,0.01c2.93,0.04,4.88,1.82,6.66,3.66c1.34,1.38,2.65,2.79,4,4.17c1.33,1.35,2.67,2.7,4.06,4
		c0.35,0.32,0.94,0.62,1.43,0.63c4.65,0.05,9.3,0.19,13.94-0.01c6.29-0.28,9.32,3.75,9.38,8.28c0.06,5.09,0.01,10.19,0.01,15.29
		c0,11.01,0,22.01,0,33.02c0,2.28-0.53,4.42-2.22,6.22c-1.65,1.75-3.74,2.64-6.34,2.64c-5.01-0.02-10.01-0.01-15.02-0.01
		C67.59,88.94,58.78,88.94,49.97,88.94z M72.21,53.9c-0.16-4.17-1.15-8.27-3.66-12.08c-2.53-3.85-5.91-6.92-10.47-8.71
		c-3.09-1.21-6.44-1.84-9.99-1.39c-3.83,0.49-7.27,1.51-10.36,3.65c-3.08,2.13-5.56,4.7-7.14,7.78c-3.99,7.81-3.89,15.58,0.85,23.19
		c2.45,3.94,5.94,7.05,10.57,8.75c5.63,2.06,11.42,2.04,17.03-0.5c3.52-1.59,6.22-3.93,8.45-6.77C70.76,63.68,72.1,59.04,72.21,53.9
		z M93.73,33.1c0.02-1.84-1.55-3.54-3.28-3.56c-1.31-0.02-3.39,1.36-3.43,3.48c-0.03,1.91,1.38,3.33,3.34,3.34
		C92.33,36.38,93.71,35.05,93.73,33.1z"/>
	<path class="st0" d="M50.06,37.11c5.63,0.09,9.9,2.38,13.04,6.43c4.01,5.18,4.63,10.8,2.53,16.68c-1.1,3.06-3.06,5.66-5.95,7.73
		c-4.32,3.1-9.14,3.92-14.34,2.5c-3.55-0.98-6.34-3.02-8.47-5.79c-2.54-3.3-3.71-6.94-3.65-10.88c0.07-4.77,1.93-8.96,5.62-12.45
		c0.91-0.86,2.04-1.57,3.17-2.2C44.45,37.75,47.11,36.99,50.06,37.11z"/>
</g>
</svg>
