<svg xmlns="http://www.w3.org/2000/svg" width="146.25" height="29.746" viewBox="0 0 146.25 29.746"><g data-name="Group 323"><path data-name="Rectangle 330" fill="#ff5f00" d="M16.557 5.182h11.864V24.56H16.557z"/><path data-name="Path 178" d="M17.779 14.873a12.3 12.3 0 0 1 4.707-9.687 12.323 12.323 0 1 0 0 19.378 12.3 12.3 0 0 1-4.707-9.691z" fill="#eb001b"/><path data-name="Path 179" d="M41.247 22.509v-.4h.171v-.079h-.407v.082h.161v.4zm.791 0v-.479h-.123l-.144.342-.144-.342h-.126v.479h.089v-.363l.134.312h.092l.133-.312v.363z" fill="#f79e1b"/><path data-name="Path 180" d="M42.425 14.873a12.323 12.323 0 0 1-19.939 9.687 12.323 12.323 0 0 0 0-19.378 12.323 12.323 0 0 1 19.939 9.687z" fill="#f79e1b"/><path d="M96.35 26.771l3.9-22.884h6.237l-3.9 22.884zm28.857-22.32a16.09 16.09 0 0 0-5.59-.961c-6.163 0-10.5 3.1-10.541 7.552-.035 3.288 3.1 5.122 5.465 6.217 2.428 1.121 3.244 1.837 3.232 2.839-.015 1.533-1.939 2.234-3.732 2.234a13.079 13.079 0 0 1-5.871-1.2l-.8-.364-.879 5.122a19.742 19.742 0 0 0 6.948 1.221c6.557 0 10.813-3.068 10.861-7.818.024-2.6-1.638-4.584-5.237-6.217-2.18-1.06-3.515-1.766-3.5-2.838 0-.951 1.13-1.968 3.572-1.968a11.492 11.492 0 0 1 4.668.877l.559.264.845-4.96zm15.995-.543h-4.82a3.1 3.1 0 0 0-3.266 1.9l-9.264 20.97h6.55s1.071-2.819 1.313-3.438c.716 0 7.078.01 7.988.01.187.8.759 3.429.759 3.429h5.788l-5.048-22.871m-7.692 14.75c.516-1.319 2.485-6.4 2.485-6.4-.037.06.512-1.325.827-2.184l.422 1.972 1.444 6.608zM91.118 3.904l-6.106 15.605-.651-3.171c-1.137-3.656-4.679-7.616-8.639-9.6l5.584 20.013 6.6-.008 9.819-22.839h-6.607z" fill="#004686"/><path d="M79.347 3.89H69.29l-.08.476c7.825 1.894 13 6.472 15.152 11.972L82.175 5.822c-.378-1.449-1.473-1.881-2.828-1.932z" fill="#ef9b11"/></g></svg>