<?xml version="1.0" encoding="utf-8"?>
<!-- Generator: Adobe Illustrator 23.0.1, SVG Export Plug-In . SVG Version: 6.00 Build 0)  -->
<svg version="1.1" id="Layer_1" xmlns="http://www.w3.org/2000/svg" xmlns:xlink="http://www.w3.org/1999/xlink" x="0px" y="0px"
	 viewBox="0 0 100 100" style="enable-background:new 0 0 100 100;" xml:space="preserve">
<style type="text/css">
	.st0{fill:#B1B1B4;}
</style>
<g>
	<path class="st0" d="M44.3,91.5c-3.2-0.4-6.3-0.7-9.5-1.1c-6.1-0.9-11.8-2.6-16.7-6.5c-0.7-0.6-1.4-1.7-1.4-2.6
		c0.2-5,0.2-10.1,1.1-15c1-5.3,3.7-9.9,9.2-11.9c3.9-1.4,7.8-2.4,11.8-3.4c0.6-0.2,1.5,0.1,2,0.4c4.5,3.3,11.5,3.9,16.3,0.9
		c1.8-1.1,3.5-1.7,5.6-1c4,1.4,8.3,2.4,12.1,4.3c4.2,2.1,5.9,6.2,6.7,10.7c0.4,2.4,0.6,4.9,0.8,7.3c0.2,2.4,0.5,4.9,0.6,7.3
		c0,0.6-0.3,1.4-0.7,1.8c-4.1,4.8-9.9,6.2-15.6,7.3c-3.7,0.7-7.5,1-11.3,1.5C51.6,91.5,48,91.5,44.3,91.5z"/>
	<path class="st0" d="M32.2,27c0.1-1.3,0.3-3.6,0.6-5.8c0.9-6.3,5.4-11.4,12-12.3c4.3-0.6,8.5-0.5,12.8,0.7c3.7,1.1,6.1,3.5,7.6,6.9
		c2.1,4.5,2.5,9.3,2.1,14.1c-0.3,4.3-2.1,8.2-4.6,11.6c-6.6,9-19.5,9.1-25.9,0C33.2,37,32.4,35.4,32.2,27z"/>
</g>
</svg>
