<?xml version="1.0" encoding="utf-8"?>
<!-- Generator: Adobe Illustrator 23.0.1, SVG Export Plug-In . SVG Version: 6.00 Build 0)  -->
<svg version="1.1" id="Layer_1" xmlns="http://www.w3.org/2000/svg" xmlns:xlink="http://www.w3.org/1999/xlink" x="0px" y="0px"
	 viewBox="0 0 100 100" style="enable-background:new 0 0 100 100;" xml:space="preserve">
<style type="text/css">
	.st0{fill:#372E75;}
	.st1{font-weight: bold;font-family:-apple-system, BlinkMacSystemFont, 'Segoe UI', Roboto, Oxygen, Ubuntu, Cantarell, 'Open Sans', 'Helvetica Neue', sans-serif;}
	.st2{font-size:14.4583px;}
</style>
<g>
	<g>
		<path class="st0" d="M50.33,31.26c-15.49,0-30.98-0.01-46.47,0.01c-1.87,0-2.73-0.54-3.42-2.24c-0.64-1.58,0.4-2.98,1.91-3.95
			c0.93-0.59,1.98-1.02,2.98-1.54c4.29-2.23,8.58-4.47,12.86-6.71c2.8-1.47,5.59-2.96,8.38-4.43c2.95-1.56,5.9-3.12,8.85-4.68
			C38.2,6.24,41,4.77,43.79,3.28c1.53-0.82,3.03-1.66,4.55-2.49c1.27-0.69,2.54-0.67,3.82,0.01C56.1,2.86,60.06,4.91,64,6.98
			c2.27,1.19,4.52,2.43,6.79,3.63c3.44,1.82,6.89,3.62,10.34,5.44c2.86,1.51,5.71,3.02,8.56,4.54c2.82,1.5,5.71,2.89,8.45,4.52
			c1.99,1.19,2.98,2.95,1.12,5.24c-0.36,0.45-1.11,0.66-1.73,0.86c-0.42,0.13-0.91,0.06-1.37,0.06
			C80.88,31.26,65.61,31.26,50.33,31.26z M16.21,24.85c22.74,0,45.31,0,68.05,0c-3.46-1.85-6.76-3.62-10.07-5.38
			c-2.11-1.13-4.21-2.27-6.33-3.4c-2.98-1.58-5.95-3.17-8.94-4.72c-2.29-1.19-4.71-2.19-6.88-3.55c-1.37-0.86-2.22-0.87-3.61-0.01
			c-2.7,1.68-5.61,3.05-8.43,4.54c-3.16,1.67-6.32,3.35-9.5,5.01c-4.62,2.42-9.26,4.82-13.89,7.23
			C16.52,24.61,16.44,24.68,16.21,24.85z"/>
		<path class="st0" d="M77.26,80.35c-2.5,0-5.01-0.02-7.51,0.01c-2.59,0.03-4.54-2.29-3.27-4.66c0.17-0.32,0.37-0.72,0.67-0.86
			c0.89-0.42,0.93-1.1,0.93-1.92c-0.02-10.35-0.02-20.7,0-31.05c0-0.75-0.11-1.26-0.85-1.76c-1.02-0.68-1.28-1.83-1.08-2.98
			c0.19-1.12,0.91-1.92,2.06-2.22c0.9-0.23,1.84-0.4,2.77-0.41c4.13-0.04,8.25-0.04,12.38,0c0.93,0.01,1.86,0.16,2.77,0.35
			c1.31,0.27,2.11,1.11,2.3,2.35c0.18,1.19-0.14,2.34-1.24,3.02c-0.66,0.41-0.75,0.86-0.75,1.5c0.01,10.45,0.01,20.9,0,31.35
			c0,0.71,0.12,1.2,0.82,1.66c1.51,0.98,1.93,3.95-0.44,5.06c-0.68,0.32-1.5,0.52-2.26,0.54C82.13,80.4,79.69,80.35,77.26,80.35z
			 M80.19,73.96c0-11.08,0-22.05,0-33.03c-1.99,0-3.9,0-5.82,0c0,11.04,0,22.01,0,33.03C76.33,73.96,78.22,73.96,80.19,73.96z"/>
		<path class="st0" d="M23.11,80.35c-2.47,0-4.94-0.04-7.41,0.01c-2.47,0.05-4.57-2.13-3.34-4.64c0.19-0.38,0.47-0.82,0.83-1
			c0.79-0.38,0.82-0.96,0.81-1.66c-0.01-10.42-0.01-20.83,0-31.25c0-0.71-0.11-1.2-0.82-1.66c-1.06-0.7-1.33-1.86-1.12-3.06
			c0.21-1.18,0.98-1.95,2.17-2.23c0.9-0.21,1.84-0.36,2.76-0.37c4.13-0.04,8.25-0.04,12.38,0c0.89,0.01,1.8,0.17,2.67,0.36
			c1.25,0.27,2.05,1.06,2.25,2.27c0.21,1.27-0.19,2.36-1.29,3.21c-0.32,0.25-0.6,0.74-0.61,1.12c-0.03,10.65-0.02,21.31-0.04,31.96
			c0,0.56,0.17,0.88,0.67,1.22c1.99,1.35,1.74,4.21-0.47,5.24c-0.62,0.29-1.37,0.45-2.07,0.46C28.05,80.39,25.58,80.35,23.11,80.35z
			 M26.09,73.94c0-11.05,0-22.02,0-33c-1.99,0-3.9,0-5.84,0c0,11.04,0,21.98,0,33C22.2,73.94,24.08,73.94,26.09,73.94z"/>
		<path class="st0" d="M59.4,57.39c0,5.23,0.01,10.45-0.01,15.68c0,0.72,0.14,1.19,0.84,1.66c1.85,1.25,1.59,4.1-0.44,5.06
			c-0.68,0.32-1.5,0.53-2.25,0.54c-5.01,0.05-10.02,0.03-15.03,0.02c-1.45,0-2.84-0.93-3.3-2.21c-0.46-1.28,0.08-2.71,1.3-3.65
			c0.27-0.21,0.51-0.65,0.51-0.98c0.03-10.72,0.03-21.44,0-32.16c0-0.33-0.24-0.78-0.52-0.97c-1.16-0.8-1.59-1.91-1.41-3.17
			c0.19-1.32,1.08-2.16,2.49-2.42c0.71-0.13,1.43-0.3,2.15-0.31c4.27-0.03,8.54-0.04,12.8,0c0.93,0.01,1.87,0.17,2.77,0.4
			c1.19,0.31,1.93,1.14,2.1,2.31c0.16,1.19-0.12,2.35-1.24,3.02c-0.67,0.4-0.76,0.85-0.76,1.49C59.41,46.94,59.4,52.17,59.4,57.39z
			 M53.14,73.96c0-11.06,0-22.03,0-33.03c-1.97,0-3.88,0-5.83,0c0,11.04,0,22,0,33.03C49.26,73.96,51.15,73.96,53.14,73.96z"/>
		<path class="st0" d="M50.3,94.14c15.21,0,30.42,0,45.62,0c1.94,0,3.13,0.76,3.5,2.29c0.4,1.63-0.57,3.65-2.74,3.79
			c-0.46,0.03-0.92,0.05-1.37,0.05c-30.06,0-60.13,0-90.19,0c-0.35,0-0.71,0-1.06-0.02c-1.98-0.13-3.21-1.41-3.13-3.25
			c0.08-1.68,1.41-2.86,3.31-2.86c5.01-0.01,10.02,0,15.03,0C29.63,94.14,39.97,94.14,50.3,94.14z"/>
		<path class="st0" d="M50.2,90.27c-14.04,0-28.08-0.01-42.11,0.02c-1.61,0-2.78-0.43-3.47-1.9c-0.66-1.41-0.16-2.58,0.77-3.61
			c0.35-0.39,1-0.6,1.56-0.74c0.53-0.13,1.12-0.1,1.68-0.1c27.72,0,55.45,0,83.17,0c0.39,0,0.78,0,1.16,0.03
			c1.81,0.13,3.26,1.56,3.17,3.22c-0.09,1.56-1.22,3.12-3.4,3.11C78.56,90.25,64.38,90.27,50.2,90.27z"/>
	</g>
</g>
<text transform="matrix(1.0463 0 0 1 45.2007 21.4834)" class="st0 st1 st2">$</text>
</svg>
