<?xml version="1.0" encoding="utf-8"?>
<!-- Generator: Adobe Illustrator 23.0.1, SVG Export Plug-In . SVG Version: 6.00 Build 0)  -->
<svg version="1.1" id="Layer_1" xmlns="http://www.w3.org/2000/svg" xmlns:xlink="http://www.w3.org/1999/xlink" x="0px" y="0px"
	 viewBox="0 0 100 100" style="enable-background:new 0 0 100 100;" xml:space="preserve">
<style type="text/css">
	.st0{fill:#372E75;}
	.st1{fill:#FFFFFF;}
</style>
<g>
	<path class="st0" d="M50.63,100c-1.05-1-2.03-1.91-2.99-2.84c-1.97-1.93-3.93-3.86-5.88-5.8c-2.13-2.11-4.23-4.25-6.37-6.36
		c-2.36-2.33-4.75-4.64-7.11-6.96c-2.81-2.76-5.59-5.54-8.41-8.3c-3.33-3.26-6.7-6.5-10.02-9.76c-2.38-2.34-4.72-4.73-7.08-7.09
		c-0.93-0.93-1.91-1.82-2.82-2.76c-0.14-0.14-0.12-0.58,0.02-0.72c2.78-2.71,5.6-5.39,8.38-8.1c2.39-2.34,4.72-4.72,7.12-7.06
		c2.49-2.43,5.03-4.81,7.52-7.24c2.15-2.09,4.26-4.22,6.41-6.32c2.2-2.14,4.43-4.26,6.63-6.4c2.15-2.09,4.27-4.22,6.41-6.31
		c1.88-1.84,3.79-3.66,5.68-5.49c0.8-0.78,1.59-1.57,2.51-2.49C50.63,33.38,50.63,66.61,50.63,100z"/>
</g>
<path class="st0" d="M64.58,86.09l-14.39,0.2l-0.95-74.43l14.39-0.2c19.66-0.27,35.96,16.25,36.22,36.72v0
	C100.11,68.85,84.24,85.82,64.58,86.09z"/>
<g>
	<g>
		<path class="st1" d="M53.54,36.93h4.86c4.34,0,5.97,1.82,5.97,4.84v1c0,3.13-1.19,4.08-2.59,4.5c1.51,0.38,3.16,1.44,3.16,4.46
			v1.64c0,3.88-1.68,5.8-6.44,5.8h-4.96V36.93z M58.28,46.35c2.5,0,3.26-0.81,3.26-3.39v-1c0-2.02-0.93-3.01-3.33-3.01h-1.76v7.4
			H58.28z M56.44,57.19h1.79c3,0,3.75-1.14,3.75-3.85V51.8c0-2.43-1.06-3.47-3.76-3.47h-1.79V57.19z"/>
		<path class="st1" d="M70.48,39.12h-4.52v-2.19h11.99v2.19h-4.5v20.06h-2.97V39.12z"/>
		<path class="st1" d="M89.12,48.41h-6.27V57h7.12l-0.4,2.18h-9.69V36.93h9.6v2.19h-6.63v7.11h6.27V48.41z"/>
	</g>
</g>
</svg>
