<?xml version="1.0" encoding="utf-8"?>
<!-- Generator: Adobe Illustrator 23.0.1, SVG Export Plug-In . SVG Version: 6.00 Build 0)  -->
<svg version="1.1" id="Layer_1" xmlns="http://www.w3.org/2000/svg" xmlns:xlink="http://www.w3.org/1999/xlink" x="0px" y="0px"
	 viewBox="0 0 100 100" style="enable-background:new 0 0 100 100;" xml:space="preserve">
<style type="text/css">
	path{fill:#372E75;}
	path{font-family:sans-serif;font-weight: 900;}
	path{font-size:15.3756px;}
</style>
<g>
	<g>
		<path d="M74.68,76.21c-7.49,0-15,0-22.55,0c-1.4-5.57-2.81-10.96-4.04-16.39c-0.14-0.62,0.54-1.74,1.18-2.12
			c3.7-2.18,7.49-4.24,11.3-6.27c0.63-0.33,1.56-0.57,2.21-0.4c6.59,1.79,13.12,3.78,19.73,5.5c2.05,0.53,3.12,1.75,3.82,3.14
			c0.89-0.19,1.82-0.27,2.74-0.27c-1.01-2.29-2.64-3.88-5.11-4.61c-7.14-2.1-14.32-4.11-21.5-6.07c-0.72-0.2-1.76,0-2.43,0.36
			c-3.95,2.11-7.81,4.38-11.77,6.47C47.41,56,46,56.4,45.29,56.05c-3.18-1.56-6.16-3.46-9.29-5.11c-1.78-0.93-3.95-2.56-5.54-2.23
			c-6.69,1.41-13.2,3.53-19.83,5.22c-5.33,1.36-7.86,4.74-8.78,9.56c-0.45,2.33-1.31,4.61-1.57,6.95c-0.26,2.32-1.4,5.09,1.55,6.68
			c1.35,0.73,3.1,1.15,4.67,1.16c13.2,0.09,26.39,0.05,39.59,0.05c7.44,0,14.88,0,22.32,0c2.29,0,4.59,0,6.88,0.01
			C75,77.64,74.8,76.92,74.68,76.21z M44.14,62.35c-0.67,2.35-1.37,4.69-2.05,7.03c-0.57,1.96-1.02,3.96-1.82,5.84
			c-0.23,0.53-1.5,0.94-2.3,0.95c-5.31,0.08-10.62,0.04-15.93,0.04c-5.13,0-10.27,0.02-15.4-0.01c-3.45-0.02-4.3-0.66-3.74-3.77
			c0.75-4.17,1.77-8.33,3.12-12.37c0.45-1.33,2.1-2.79,3.54-3.25c6.66-2.12,13.39-4.1,20.22-5.66c1.53-0.35,3.65,1.1,5.36,1.96
			c2.39,1.2,4.52,2.94,7,3.89C45.3,58.21,44.76,60.18,44.14,62.35z"/>
		<path d="M45.88,11.37c9.57,0.12,16.32,3.91,19.92,12.12c1.45,3.31,1.24,7.05-0.62,10.47c-1.53,2.82-2.58,5.95-4.56,8.46
			c-4.5,5.73-11.48,9.84-19.83,6.86c-4.15-1.48-7.28-4.33-9.68-7.62c-3.45-4.74-5.62-9.97-4.8-15.96
			c1.09-7.93,9.46-13.68,17.43-14.23C44.55,11.42,45.35,11.39,45.88,11.37z M46.07,13.48c-7.9-0.2-16.68,5.41-17.03,13.66
			c-0.24,5.6,1.92,10.45,5.58,14.66c1.72,1.98,3.94,3.84,6.35,4.99c7.13,3.42,12.39-0.11,16.67-4.9c1.91-2.13,3.08-4.85,4.5-7.35
			c2.11-3.71,2.33-7.76,0.54-11.4C59.51,16.69,53.65,13.63,46.07,13.48z"/>
	</g>
	<g>
		<path d="M99.83,67.25c0,0.1,0,0.19,0,0.28c0,3.69-0.01,7.38,0.01,11.07c0.01,1.02-0.38,1.65-1.03,2.12
			c-0.67,0.48-1.4,0.65-2.16,0.65c-4.25,0-8.5,0-12.75,0c-5.64,0-11.28,0-16.91,0c-0.81,0-1.6-0.16-2.3-0.7
			c-0.58-0.45-0.96-1.03-0.95-2c0.03-3.66,0.01-7.32,0.01-10.98c0-0.11,0-0.22,0-0.38c5.23,1.07,10.44,2.14,15.64,3.21
			c0.06,0.75,0.25,0.97,0.83,0.97c0.9,0,1.79,0.01,2.69-0.01c0.2,0,0.42-0.08,0.61-0.19c0.1-0.06,0.21-0.24,0.21-0.37
			c0.01-0.25,0.11-0.29,0.26-0.32c1.16-0.24,2.32-0.49,3.47-0.74c2.97-0.63,5.95-1.27,8.92-1.9c1.11-0.24,2.23-0.47,3.34-0.7
			C99.76,67.25,99.78,67.25,99.83,67.25z"/>
		<path d="M63.77,66.52c0-0.69-0.04-1.37,0.01-2.03c0.04-0.56,0.38-0.93,0.72-1.24c0.67-0.6,1.43-0.84,2.23-0.85
			c1.96-0.02,3.91-0.01,5.87-0.01c0.09,0,0.19,0,0.31,0c0-0.31,0.01-0.58,0-0.86c-0.04-0.96,0.35-1.61,0.92-2.14
			c0.87-0.8,1.86-1.14,2.91-1.14c3.36-0.03,6.72-0.02,10.08,0c0.96,0,1.87,0.31,2.7,0.94c0.47,0.36,0.83,0.86,1.08,1.49
			c0.06,0.15,0.06,0.35,0.06,0.52c0.01,0.38,0,0.76,0,1.17c0.11,0.01,0.21,0.02,0.3,0.02c1.91,0,3.82,0,5.73,0
			c0.74,0,1.44,0.18,2.09,0.63c0.49,0.34,0.87,0.81,1.03,1.51c0.01,0.04,0.01,0.09,0.01,0.14c0,0.58,0,1.16,0,1.77
			c-0.43,0.09-0.85,0.19-1.28,0.28c-1.89,0.4-3.79,0.81-5.68,1.21c-2,0.42-3.99,0.85-5.99,1.27c-0.99,0.21-1.98,0.43-2.97,0.63
			c-0.07,0.01-0.17-0.01-0.2-0.06c-0.18-0.3-0.43-0.38-0.69-0.39c-0.94-0.01-1.88-0.01-2.82,0c-0.24,0-0.48,0.08-0.66,0.31
			c-0.04,0.04-0.12,0.05-0.18,0.04c-3.35-0.68-6.71-1.37-10.06-2.06C67.45,67.28,65.62,66.9,63.77,66.52z M88.04,62.37
			c0-0.3-0.01-0.58,0-0.85c0.02-0.39-0.14-0.64-0.37-0.85c-0.34-0.31-0.74-0.38-1.15-0.38c-3.17,0-6.33,0-9.5,0.01
			c-0.28,0-0.57,0.07-0.84,0.18c-0.3,0.12-0.59,0.33-0.64,0.77c-0.04,0.36-0.01,0.74-0.01,1.13C79.71,62.37,83.86,62.37,88.04,62.37
			z"/>
	</g>
</g>
</svg>
