<svg xmlns="http://www.w3.org/2000/svg" width="21.625" height="12.89" viewBox="0 0 21.625 12.89"><defs>
<style>.cls-1{fill:#ced4da}</style></defs><g id="eye" transform="translate(0 -98.725)"><path id="Path_7" d="M10.812 98.725c-4.132 0-7.878 2.26-10.643 5.932a.856.856 0 0 0 0 1.022c2.765 3.676 6.512 5.936 10.643 5.936s7.878-2.26 10.643-5.932a.856.856 0 0 0 0-1.022c-2.764-3.676-6.511-5.936-10.643-5.936zm.3 10.984a4.548 4.548 0 1 1 4.242-4.242 4.551 4.551 0 0 1-4.245 4.242zm-.137-2.1a2.449 2.449 0 1 1 2.287-2.287 2.445 2.445 0 0 1-2.29 2.29z" class="cls-1" data-name="Path 7"/></g></svg>