<?xml version="1.0" encoding="utf-8"?>
<!-- Generator: Adobe Illustrator 23.0.1, SVG Export Plug-In . SVG Version: 6.00 Build 0)  -->
<svg version="1.1" id="Layer_1" xmlns="http://www.w3.org/2000/svg" xmlns:xlink="http://www.w3.org/1999/xlink" x="0px" y="0px"
	 viewBox="0 0 100 100" style="enable-background:new 0 0 100 100;" xml:space="preserve">
<style type="text/css">
	.st0{fill:#372E75;}
</style>
<g>
	<g>
		<path class="st0" d="M11.7,50.15c0-12.07-0.01-24.15,0.01-36.22c0.01-6.85,3.88-12.05,9.99-13.42c1.09-0.25,2.24-0.29,3.37-0.29
			c12.85-0.02,25.7-0.03,38.55,0.02c0.7,0,1.6,0.34,2.05,0.86c7.41,8.52,14.79,17.08,22.11,25.69c0.52,0.62,0.88,1.62,0.88,2.45
			c0.05,19.16,0.05,38.32,0.03,57.48c-0.01,7.81-5.37,13.43-12.88,13.45c-17.04,0.04-34.08,0.04-51.11,0
			c-7.67-0.02-12.98-5.66-12.98-13.65C11.69,74.39,11.7,62.27,11.7,50.15C11.7,50.15,11.7,50.15,11.7,50.15z M60.57,6.46
			c-0.7,0-1.25,0-1.8,0c-11.2,0-22.41,0-33.61,0c-4.88,0-7.46,2.69-7.46,7.8c0,24,0,48.01,0,72.01c0,4.9,2.62,7.65,7.31,7.65
			c16.8,0,33.61,0,50.41,0c4.59,0,7.25-2.79,7.25-7.57c0-17.5,0-35,0-52.5c0-0.52,0-1.05,0-1.74c-7.42,0-14.69,0-22.11,0
			C60.57,23.5,60.57,15.07,60.57,6.46z M78.89,25.8c-4.16-4.82-8.11-9.4-12.2-14.15c0,4.95,0,9.56,0,14.15
			C70.73,25.8,74.65,25.8,78.89,25.8z"/>
		<path class="st0" d="M49.06,71.46c-1.41-1.45-2.75-2.83-4.16-4.28c0.27-0.31,0.52-0.64,0.8-0.94c3.59-3.74,7.19-7.47,10.78-11.2
			c1.16-1.21,1.18-2.4,0.07-3.54c-1.09-1.12-2.24-1.08-3.41,0.13c-5.6,5.8-11.01,11.82-16.84,17.35c-4.33,4.1-1.21,10.15,2.99,11.42
			c2.13,0.64,3.94,0.19,5.54-1.49c6.03-6.32,12.08-12.62,18.17-18.88c2.55-2.62,3.17-5.67,2.21-9.14
			c-1.61-5.81-7.52-9.75-12.69-8.29c-1.38,0.39-2.77,1.29-3.81,2.32c-4.08,4.05-8.02,8.26-12.02,12.4
			c-0.23,0.24-0.48,0.45-0.72,0.67c-1.38-1.44-2.74-2.85-4.18-4.34c0.33-0.36,0.66-0.76,1.01-1.13c3.69-3.84,7.53-7.54,11.05-11.54
			c5.7-6.48,14.51-6.07,20.39-1.65c6.06,4.55,8.82,12.34,6.73,19.07c-0.72,2.33-2,4.28-3.67,6c-5.91,6.1-11.98,12.05-17.63,18.4
			c-6.07,6.83-15.98,4.48-19.98-3.08c-2.69-5.08-1.95-10.58,1.97-14.65c5.79-6.02,11.58-12.04,17.38-18.05
			c2.85-2.96,6.52-3.48,9.92-1.44c3.38,2.02,5.19,6.12,4.17,9.85c-0.32,1.18-0.93,2.41-1.74,3.28c-3.92,4.22-7.95,8.33-11.95,12.48
			C49.36,71.3,49.22,71.36,49.06,71.46z"/>
	</g>
</g>
</svg>
