<?xml version="1.0" encoding="utf-8"?>
<!-- Generator: Adobe Illustrator 23.0.3, SVG Export Plug-In . SVG Version: 6.00 Build 0)  -->
<svg version="1.1" id="Layer_1" xmlns="http://www.w3.org/2000/svg" xmlns:xlink="http://www.w3.org/1999/xlink" x="0px" y="0px"
	 viewBox="0 0 25 25" style="enable-background:new 0 0 25 25;" xml:space="preserve">
<style type="text/css">
	.st0{fill:none;stroke:#372E75;stroke-width:0.5;stroke-miterlimit:10;}
	.st1{fill:none;stroke:#372E75;stroke-width:0.6033;stroke-miterlimit:10;}
	.st2{fill:#372E75;}
	.st3{fill:#6C757D;}
</style>
<g>
	<g>
		<g>
			<path class="st2" d="M23.8,12.1c-0.1-0.1-1.5-1.7-3.6-3.4c-2.8-2.3-5.5-3.5-7.8-3.5S7.6,6.3,4.7,8.6c-2.1,1.7-3.5,3.4-3.6,3.4
				c-0.2,0.2-0.2,0.6,0,0.9c0.1,0.1,1.5,1.7,3.6,3.4c2.8,2.3,5.5,3.5,7.8,3.5s4.9-1.2,7.8-3.5c2.1-1.7,3.5-3.4,3.6-3.4
				C24,12.7,24,12.3,23.8,12.1z M12.5,18.5c-4,0-8.6-4.6-9.9-6c2.4-2.6,6.4-6,9.9-6c4,0,8.6,4.6,9.9,6C20,15.1,16,18.5,12.5,18.5z"
				/>
		</g>
	</g>
	<g>
		<g>
			<path class="st2" d="M16.5,11.8c-0.4,0-0.7,0.3-0.7,0.7c0,1.9-1.5,3.4-3.4,3.4s-3.4-1.5-3.4-3.4c0-1.9,1.5-3.4,3.4-3.4
				c0.4,0,0.7-0.3,0.7-0.7c0-0.4-0.3-0.7-0.7-0.7c-2.6,0-4.7,2.1-4.7,4.7s2.1,4.7,4.7,4.7s4.7-2.1,4.7-4.7
				C17.2,12.1,16.9,11.8,16.5,11.8z"/>
		</g>
	</g>
	<g>
		<g>
			<path class="st2" d="M5.8,19.2c-0.3-0.3-0.7-0.3-0.9,0l-3.6,3.6c-0.3,0.3-0.3,0.7,0,0.9c0.3,0.3,0.7,0.3,0.9,0l3.6-3.6
				C6.1,19.9,6.1,19.4,5.8,19.2z"/>
		</g>
	</g>
	<g>
		<g>
			<path class="st2" d="M23.8,22.8l-3.6-3.6c-0.3-0.3-0.7-0.3-0.9,0c-0.3,0.3-0.3,0.7,0,0.9l3.6,3.6c0.3,0.3,0.7,0.3,0.9,0
				C24,23.5,24,23.1,23.8,22.8z"/>
		</g>
	</g>
	<g>
		<g>
			<path class="st2" d="M5.8,4.9L2.2,1.2C1.9,1,1.5,1,1.2,1.2S1,1.9,1.2,2.2l3.6,3.6c0.3,0.3,0.7,0.3,0.9,0C6.1,5.6,6.1,5.1,5.8,4.9
				z"/>
		</g>
	</g>
	<g>
		<g>
			<path class="st2" d="M23.8,1.2c-0.3-0.3-0.7-0.3-0.9,0l-3.6,3.6c-0.3,0.3-0.3,0.7,0,0.9c0.3,0.3,0.7,0.3,0.9,0l3.6-3.6
				C24,1.9,24,1.5,23.8,1.2z"/>
		</g>
	</g>
	<g>
		<g>
			<path class="st2" d="M12.5,10.5c-1.1,0-2,0.9-2,2s0.9,2,2,2s2-0.9,2-2S13.6,10.5,12.5,10.5z M12.5,13.2c-0.4,0-0.7-0.3-0.7-0.7
				c0-0.4,0.3-0.7,0.7-0.7c0.4,0,0.7,0.3,0.7,0.7C13.2,12.9,12.9,13.2,12.5,13.2z"/>
		</g>
	</g>
</g>
</svg>
