<?xml version="1.0" encoding="utf-8"?>
<!-- Generator: Adobe Illustrator 23.0.3, SVG Export Plug-In . SVG Version: 6.00 Build 0)  -->
<svg version="1.1" id="Layer_1" xmlns="http://www.w3.org/2000/svg" xmlns:xlink="http://www.w3.org/1999/xlink" x="0px" y="0px"
	 viewBox="0 0 25 25" style="enable-background:new 0 0 25 25;" xml:space="preserve">
<style type="text/css">
	.st0{fill:none;stroke:#372E75;stroke-width:0.5;stroke-miterlimit:10;}
	.st1{fill:none;stroke:#372E75;stroke-width:0.6033;stroke-miterlimit:10;}
	.st2{fill:#372E75;}
	.st3{fill:#6C757D;}
</style>
<g>
	<path class="st2" d="M23.5,4.6h-1.1V2.8c0-0.6-0.5-1.1-1.1-1.1h-0.8c-0.6,0-1.1,0.5-1.1,1.1v1.8h-2.5V2.8c0-0.6-0.5-1.1-1.1-1.1
		h-0.8c-0.6,0-1.1,0.5-1.1,1.1v1.8h-2.5V2.8c0-0.6-0.5-1.1-1.1-1.1H9.3c-0.6,0-1.1,0.5-1.1,1.1v1.8H5.6V2.8c0-0.6-0.5-1.1-1.1-1.1
		H3.7c-0.6,0-1.1,0.5-1.1,1.1v1.8H1.5C0.7,4.6,0,5.3,0,6.1V22c0,0.7,0.6,1.3,1.3,1.3h22.4c0.7,0,1.3-0.6,1.3-1.3V6.1
		C25,5.3,24.3,4.6,23.5,4.6z M20,2.8c0-0.2,0.2-0.4,0.4-0.4h0.8c0.2,0,0.4,0.2,0.4,0.4v1.8H20V2.8z M14.5,2.8c0-0.2,0.2-0.4,0.4-0.4
		h0.8c0.2,0,0.4,0.2,0.4,0.4v1.8h-1.7L14.5,2.8z M8.9,2.8c0-0.2,0.2-0.4,0.4-0.4h0.8c0.2,0,0.4,0.2,0.4,0.4v1.8H8.9L8.9,2.8z
		 M3.3,2.8c0-0.2,0.2-0.4,0.4-0.4h0.8C4.8,2.4,5,2.6,5,2.8v1.8H3.3L3.3,2.8z M0.7,6.1c0-0.5,0.4-0.8,0.8-0.8h22
		c0.5,0,0.8,0.4,0.8,0.8v2.2H0.7V6.1z M24.3,22c0,0.4-0.3,0.6-0.6,0.6H1.3c-0.4,0-0.6-0.3-0.6-0.6V9h23.6V22z"/>
	<path class="st2" d="M2.7,13.3h2.1c0.4,0,0.7-0.3,0.7-0.7V11c0-0.4-0.3-0.7-0.7-0.7H2.7C2.3,10.3,2,10.6,2,11v1.5
		C2,13,2.3,13.3,2.7,13.3z M2.6,11C2.6,11,2.7,11,2.6,11l2.1,0c0,0,0,0,0,0v1.5c0,0,0,0,0,0H2.7c0,0,0,0,0,0V11z"/>
	<path class="st2" d="M8.5,13.3h2.1c0.4,0,0.7-0.3,0.7-0.7V11c0-0.4-0.3-0.7-0.7-0.7H8.5c-0.4,0-0.7,0.3-0.7,0.7v1.5
		C7.8,13,8.1,13.3,8.5,13.3z M8.5,11C8.5,11,8.5,11,8.5,11l2.1,0c0,0,0,0,0,0v1.5c0,0,0,0,0,0H8.5c0,0,0,0,0,0V11z"/>
	<path class="st2" d="M14.4,13.3h2.1c0.4,0,0.7-0.3,0.7-0.7V11c0-0.4-0.3-0.7-0.7-0.7h-2.1c-0.4,0-0.7,0.3-0.7,0.7v1.5
		C13.6,13,14,13.3,14.4,13.3z M14.3,11C14.3,11,14.3,11,14.3,11l2.1,0c0,0,0,0,0,0v1.5c0,0,0,0,0,0h-2.1c0,0,0,0,0,0V11z"/>
	<path class="st2" d="M20.2,13.3h2.1c0.4,0,0.7-0.3,0.7-0.7V11c0-0.4-0.3-0.7-0.7-0.7h-2.1c-0.4,0-0.7,0.3-0.7,0.7v1.5
		C19.5,13,19.8,13.3,20.2,13.3z M20.2,11C20.2,11,20.2,11,20.2,11l2.1,0c0,0,0,0,0,0v1.5c0,0,0,0,0,0h-2.1c0,0,0,0,0,0V11z"/>
	<path class="st2" d="M2.7,17.3h2.1c0.4,0,0.7-0.3,0.7-0.7V15c0-0.4-0.3-0.7-0.7-0.7H2.7C2.3,14.3,2,14.6,2,15v1.5
		C2,17,2.3,17.3,2.7,17.3z M2.6,15C2.6,15,2.7,15,2.6,15l2.1,0c0,0,0,0,0,0v1.5c0,0,0,0,0,0H2.7c0,0,0,0,0,0V15z"/>
	<path class="st2" d="M8.5,17.3h2.1c0.4,0,0.7-0.3,0.7-0.7V15c0-0.4-0.3-0.7-0.7-0.7H8.5c-0.4,0-0.7,0.3-0.7,0.7v1.5
		C7.8,17,8.1,17.3,8.5,17.3z M8.5,15C8.5,15,8.5,15,8.5,15l2.1,0c0,0,0,0,0,0v1.5c0,0,0,0,0,0H8.5c0,0,0,0,0,0V15z"/>
	<path class="st2" d="M14.4,17.3h2.1c0.4,0,0.7-0.3,0.7-0.7V15c0-0.4-0.3-0.7-0.7-0.7h-2.1c-0.4,0-0.7,0.3-0.7,0.7v1.5
		C13.6,17,14,17.3,14.4,17.3z M14.3,15C14.3,15,14.3,15,14.3,15l2.1,0c0,0,0,0,0,0v1.5c0,0,0,0,0,0h-2.1c0,0,0,0,0,0V15z"/>
	<path class="st2" d="M20.2,17.3h2.1c0.4,0,0.7-0.3,0.7-0.7V15c0-0.4-0.3-0.7-0.7-0.7h-2.1c-0.4,0-0.7,0.3-0.7,0.7v1.5
		C19.5,17,19.8,17.3,20.2,17.3z M20.2,15C20.2,15,20.2,15,20.2,15l2.1,0c0,0,0,0,0,0v1.5c0,0,0,0,0,0h-2.1c0,0,0,0,0,0V15z"/>
	<path class="st2" d="M2.7,21.4h2.1c0.4,0,0.7-0.3,0.7-0.7v-1.5c0-0.4-0.3-0.7-0.7-0.7H2.7c-0.4,0-0.7,0.3-0.7,0.7v1.5
		C2,21,2.3,21.4,2.7,21.4z M2.6,19.1C2.6,19.1,2.7,19,2.6,19.1l2.1,0c0,0,0,0,0,0v1.5c0,0,0,0,0,0H2.7c0,0,0,0,0,0V19.1z"/>
	<path class="st2" d="M8.5,21.4h2.1c0.4,0,0.7-0.3,0.7-0.7v-1.5c0-0.4-0.3-0.7-0.7-0.7H8.5c-0.4,0-0.7,0.3-0.7,0.7v1.5
		C7.8,21,8.1,21.4,8.5,21.4z M8.5,19.1C8.5,19.1,8.5,19,8.5,19.1l2.1,0c0,0,0,0,0,0v1.5c0,0,0,0,0,0H8.5c0,0,0,0,0,0V19.1z"/>
	<path class="st2" d="M17,18.5c-0.1-0.1-0.4-0.1-0.5,0.1l-1.4,1.9l-0.8-1c-0.1-0.1-0.3-0.2-0.5-0.1c-0.1,0.1-0.2,0.3-0.1,0.5
		l1.1,1.4c0.1,0.1,0.2,0.1,0.3,0.1h0c0.1,0,0.2-0.1,0.3-0.1L17,19C17.1,18.9,17.1,18.7,17,18.5C17,18.5,17,18.5,17,18.5z"/>
	<path class="st2" d="M22.8,18.5c-0.1-0.1-0.4-0.1-0.5,0.1l-1.4,1.9l-0.8-1c-0.1-0.1-0.3-0.2-0.5-0.1s-0.2,0.3-0.1,0.5l1.1,1.4
		c0.1,0.1,0.2,0.1,0.3,0.1h0c0.1,0,0.2-0.1,0.3-0.1l1.7-2.2C23,18.9,23,18.7,22.8,18.5C22.8,18.5,22.8,18.5,22.8,18.5z"/>
</g>
</svg>
