<?xml version="1.0" encoding="utf-8"?>
<!-- Generator: Adobe Illustrator 23.0.3, SVG Export Plug-In . SVG Version: 6.00 Build 0)  -->
<svg version="1.1" id="Layer_1" xmlns="http://www.w3.org/2000/svg" xmlns:xlink="http://www.w3.org/1999/xlink" x="0px" y="0px"
	 viewBox="0 0 25 25" style="enable-background:new 0 0 25 25;" xml:space="preserve">
<style type="text/css">
	.st0{fill:none;stroke:#372E75;stroke-width:0.5;stroke-miterlimit:10;}
	.st1{fill:none;stroke:#372E75;stroke-width:0.6033;stroke-miterlimit:10;}
	.st2{fill:#372E75;}
	.st3{fill:#6C757D;}
</style>
<g id="outline">
	<path class="st2" d="M6.5,5.5h9.1c0.2,0,0.4-0.2,0.4-0.4s-0.2-0.4-0.4-0.4H6.5c-0.2,0-0.4,0.2-0.4,0.4S6.3,5.5,6.5,5.5z"/>
	<path class="st2" d="M6.5,8h9.1C15.8,8,16,7.8,16,7.5c0-0.2-0.2-0.4-0.4-0.4H6.5c-0.2,0-0.4,0.2-0.4,0.4C6.1,7.8,6.3,8,6.5,8z"/>
	<path class="st2" d="M6.5,10.4h9.1c0.2,0,0.4-0.2,0.4-0.4s-0.2-0.4-0.4-0.4H6.5c-0.2,0-0.4,0.2-0.4,0.4S6.3,10.4,6.5,10.4z"/>
	<path class="st2" d="M6.5,12.9h9.1c0.2,0,0.4-0.2,0.4-0.4c0-0.2-0.2-0.4-0.4-0.4H6.5c-0.2,0-0.4,0.2-0.4,0.4
		C6.1,12.7,6.3,12.9,6.5,12.9z"/>
	<path class="st2" d="M6.5,15.4h3.3c0.2,0,0.4-0.2,0.4-0.4c0-0.2-0.2-0.4-0.4-0.4H6.5c-0.2,0-0.4,0.2-0.4,0.4
		C6.1,15.2,6.3,15.4,6.5,15.4z"/>
	<path class="st2" d="M22.8,9.9c-0.6-0.3-1.3-0.1-1.7,0.4l-1,1.7V1.8c0-0.2-0.2-0.4-0.4-0.4h-3.1c0,0-1.2-1.3-1.3-1.2
		c0,0-0.1,0-0.1,0h-12C3,0.1,2.8,0.3,2.8,0.5v1.3C1.9,2,1.4,2.9,1.6,3.8c0.2,0.6,0.6,1,1.2,1.2v0.9C1.9,6.2,1.4,7.1,1.6,8
		c0.2,0.6,0.6,1,1.2,1.2v0.9c-0.9,0.2-1.4,1.1-1.2,2c0.2,0.6,0.6,1,1.2,1.2v0.5c-0.9,0.2-1.4,1.1-1.2,2c0.2,0.6,0.6,1,1.2,1.2v2.5
		c0,0.2,0.2,0.4,0.4,0.4h0.4v1.2c0,0.2,0.2,0.4,0.4,0.4h10.5l-0.3,0.5c0,0,0,0.1-0.1,0.1c0,0,0,0,0,0l0,0v0l-0.3,2.2
		c0,0.2,0.1,0.4,0.3,0.5c0.1,0,0.2,0,0.3-0.1l1.8-1.4c0.1-0.1,0.2-0.1,0.2-0.2l1-1.6h2.3c0.2,0,0.4-0.2,0.4-0.4v-4.3l3.1-5.3
		C23.6,11,23.4,10.2,22.8,9.9z M22.1,10.5c0.2-0.1,0.4,0.1,0.5,0.3c0,0.1,0,0.2,0,0.3l-0.2,0.4l-0.7-0.4l0.2-0.4
		C21.9,10.6,22,10.6,22.1,10.5z M15.9,22.5l-0.7-0.4l5.4-9.3l0.7,0.4L15.9,22.5z M15.6,1.5L17.1,3h-1.5V1.5z M21,12.2l0.2-0.4
		l0.7,0.4l-0.2,0.4L21,12.2z M19.3,2.2v11.2c0,0,0,0.1,0,0.1l-0.8,1.4V3.4c0-0.1,0-0.2-0.1-0.3l0,0l-0.9-0.9H19.3z M3.6,0.9h11.2
		v2.5c0,0.2,0.2,0.4,0.4,0.4h2.5v12.4L16,19.1H3.6V17c0.6-0.1,1-0.6,1.2-1.2c0.1-0.2-0.1-0.4-0.3-0.5c-0.2-0.1-0.4,0.1-0.5,0.3l0,0
		C4,15.8,3.8,16,3.6,16.1v-2.8c0.6-0.1,1-0.6,1.2-1.2c0.1-0.2-0.1-0.4-0.3-0.5c-0.2-0.1-0.4,0.1-0.5,0.3l0,0
		c-0.1,0.2-0.2,0.4-0.4,0.5V9.1C4.2,9,4.7,8.5,4.8,8c0.1-0.2-0.1-0.4-0.3-0.5C4.3,7.4,4.1,7.5,4,7.8l0,0C4,8,3.8,8.1,3.6,8.3V5
		c0.6-0.1,1-0.6,1.2-1.2c0.1-0.2-0.1-0.4-0.3-0.5C4.3,3.3,4.1,3.4,4,3.6C4,3.8,3.8,4,3.6,4.1V0.9z M2.4,3.4c0-0.3,0.2-0.6,0.4-0.7
		v1.4C2.5,4,2.4,3.7,2.4,3.4z M2.4,7.5c0-0.3,0.2-0.6,0.4-0.7v1.4C2.5,8.1,2.4,7.8,2.4,7.5z M2.4,11.7c0-0.3,0.2-0.6,0.4-0.7v1.4
		C2.5,12.2,2.4,12,2.4,11.7z M2.4,15.4c0-0.3,0.2-0.6,0.4-0.7v1.4C2.5,16,2.4,15.7,2.4,15.4z M4.4,20.8v-0.8h11.1L15,20.8H4.4z
		 M14.9,22.9l0.4,0.2l-0.5,0.4L14.9,22.9z M19.3,20.8h-1.4l1.4-2.4V20.8z"/>
</g>
</svg>
