<?xml version="1.0" encoding="utf-8"?>
<!-- Generator: Adobe Illustrator 23.0.3, SVG Export Plug-In . SVG Version: 6.00 Build 0)  -->
<svg version="1.1" id="Layer_1" xmlns="http://www.w3.org/2000/svg" xmlns:xlink="http://www.w3.org/1999/xlink" x="0px" y="0px"
	 viewBox="0 0 25 25" style="enable-background:new 0 0 25 25;" xml:space="preserve">
<style type="text/css">
	.st0{fill:none;stroke:#372E75;stroke-width:0.5;stroke-miterlimit:10;}
	.st1{fill:none;stroke:#372E75;stroke-width:0.6033;stroke-miterlimit:10;}
	.st2{fill:#372E75;}
	.st3{fill:#6C757D;}
</style>
<g id="XMLID_1064_">
	<g id="XMLID_122_">
		<path id="XMLID_792_" class="st2" d="M12,10.1c-0.1,0-0.2-0.1-0.3-0.1V8.4c0.3,0.1,0.5,0.3,0.5,0.3c0.2,0.2,0.5,0.1,0.7-0.1
			c0.2-0.2,0.1-0.5-0.1-0.7c0,0-0.5-0.4-1.1-0.5V7.2c0-0.3-0.2-0.5-0.5-0.5c-0.3,0-0.5,0.2-0.5,0.5v0.2c-0.1,0-0.1,0-0.2,0
			c-0.6,0.2-1,0.6-1.1,1.3c-0.1,0.6,0.1,1.2,0.5,1.5c0.2,0.2,0.4,0.3,0.7,0.4v2.1c-0.2,0-0.4-0.1-0.7-0.3c-0.2-0.1-0.5-0.1-0.7,0.1
			c-0.1,0.2-0.1,0.5,0.1,0.7c0.5,0.3,0.8,0.4,1.2,0.4V14c0,0.3,0.2,0.5,0.5,0.5c0.3,0,0.5-0.2,0.5-0.5v-0.4c0.8-0.2,1.3-0.9,1.4-1.6
			C13.4,11.2,12.9,10.4,12,10.1L12,10.1z M10.8,9.6c0,0-0.1-0.1-0.1-0.1c-0.1-0.1-0.2-0.3-0.1-0.6c0-0.1,0.1-0.3,0.3-0.5V9.6z
			 M12.3,11.9c0,0.3-0.2,0.5-0.5,0.7v-1.6C12.3,11.3,12.3,11.7,12.3,11.9L12.3,11.9z"/>
		<path id="XMLID_905_" class="st2" d="M23.1,10.4l-3.1-2V0.5C20,0.2,19.8,0,19.5,0H7.8C7.5,0,7.3,0.2,7.3,0.5v1.9H5.5
			C5.2,2.3,5,2.6,5,2.8v5.6l-3.1,2c-0.1,0.1-0.2,0.2-0.2,0.4v13.7c0,0.3,0.2,0.5,0.5,0.5h8.2c0.3,0,0.5-0.2,0.5-0.5S10.6,24,10.3,24
			h-7l7.1-7.1l1.8,1.2c0.1,0.1,0.2,0.1,0.3,0.1c0.1,0,0.2,0,0.3-0.1l1.8-1.2l7.1,7.1h-7c-0.3,0-0.5,0.2-0.5,0.5s0.2,0.5,0.5,0.5h8.2
			c0.3,0,0.5-0.2,0.5-0.5V10.8C23.3,10.7,23.3,10.5,23.1,10.4L23.1,10.4z M22,10.8L20,12.1V9.6L22,10.8z M8.3,1H19v11.8l-1.4,0.9
			V2.8c0-0.3-0.2-0.5-0.5-0.5H8.3V1z M5,9.6v2.6L3,10.8L5,9.6z M2.6,23.3V11.7l7,4.6L2.6,23.3z M12.5,17.1L6,12.8V3.3h10.7v11
			L12.5,17.1z M22.4,11.7v11.6l-7-7L22.4,11.7z"/>
		<path id="XMLID_1112_" class="st2" d="M12.5,24c-0.1,0-0.3,0.1-0.3,0.1c-0.1,0.1-0.1,0.2-0.1,0.3s0.1,0.3,0.1,0.3
			c0.1,0.1,0.2,0.1,0.3,0.1s0.3-0.1,0.3-0.1c0.1-0.1,0.1-0.2,0.1-0.3s-0.1-0.3-0.1-0.3C12.8,24.1,12.6,24,12.5,24z"/>
	</g>
</g>
</svg>
