<?xml version="1.0" encoding="utf-8"?>
<!-- Generator: Adobe Illustrator 23.0.3, SVG Export Plug-In . SVG Version: 6.00 Build 0)  -->
<svg version="1.1" id="Layer_1" xmlns="http://www.w3.org/2000/svg" xmlns:xlink="http://www.w3.org/1999/xlink" x="0px" y="0px"
	 viewBox="0 0 25 25" style="enable-background:new 0 0 25 25;" xml:space="preserve">
<style type="text/css">
	.st0{fill:none;stroke:#372E75;stroke-width:0.5;stroke-miterlimit:10;}
	.st1{fill:none;stroke:#372E75;stroke-width:0.6033;stroke-miterlimit:10;}
	.st2{fill:#372E75;}
	.st3{fill:#6C757D;}
	.st4{fill:none;}
	.st5{fill:none;stroke:#372E75;stroke-width:2.3375;}
	.st6{fill:#372E75;}
	.st7{fill:none;stroke:#372E75;stroke-width:1.1687;}
	.st8{fill:none;stroke:#231F20;stroke-width:2.2791;stroke-miterlimit:10;}
	.st9{fill:none;stroke:#212529;stroke-width:2.2791;stroke-miterlimit:10;}
	.st10{fill:none;stroke:#372E75;stroke-width:1.8486;}
</style>
<path class="st6" d="M17.7,1.2c-1.2,0-2.3,0.3-3.3,0.8c-0.7,0.4-1.3,0.8-1.9,1.4c-0.6-0.6-1.2-1-1.9-1.4c-1-0.5-2.1-0.8-3.3-0.8
	C3.3,1.2,0,4.4,0,8.5c0,2.8,1.5,5.9,4.5,9c2.5,2.6,5.5,4.8,7.6,6.1l0.4,0.3l0.4-0.3c2.1-1.4,5.1-3.5,7.6-6.1c3-3.1,4.5-6.1,4.5-9
	C25,4.4,21.7,1.2,17.7,1.2z"/>
</svg>
