<?xml version="1.0" encoding="utf-8"?>
<!-- Generator: Adobe Illustrator 23.0.3, SVG Export Plug-In . SVG Version: 6.00 Build 0)  -->
<svg version="1.1" id="Layer_1" xmlns="http://www.w3.org/2000/svg" xmlns:xlink="http://www.w3.org/1999/xlink" x="0px" y="0px"
	 viewBox="0 0 25 25" style="enable-background:new 0 0 25 25;" xml:space="preserve">
<style type="text/css">
	.st0{fill:none;stroke:#372E75;stroke-width:0.5;stroke-miterlimit:10;}
	.st1{fill:none;stroke:#372E75;stroke-width:0.6033;stroke-miterlimit:10;}
	.st2{fill:#372E75;}
	.st3{fill:#6C757D;}
</style>
<g id="Outline">
	<path class="st2" d="M10.4,22.5v-2c0-0.4-0.2-0.9-0.5-1.2L7.6,17c-0.2-0.2-0.2-0.4,0-0.6c0,0,0,0,0,0L9.9,14
		c0.3-0.3,0.5-0.7,0.5-1.2v-2c0.7,0,1.3-0.6,1.3-1.3s-0.6-1.3-1.3-1.3H1.3C0.6,8.3,0,8.9,0,9.6s0.6,1.3,1.3,1.3v2
		c0,0.4,0.2,0.9,0.5,1.2l2.4,2.4c0.2,0.2,0.2,0.4,0,0.6c0,0,0,0,0,0l-2.4,2.4c-0.3,0.3-0.5,0.7-0.5,1.2v2c-0.7,0-1.3,0.6-1.3,1.3
		S0.6,25,1.3,25h9.2c0.7,0,1.3-0.6,1.3-1.3S11.1,22.5,10.4,22.5z M0.8,9.6c0-0.2,0.2-0.4,0.4-0.4h9.2c0.2,0,0.4,0.2,0.4,0.4
		c0,0.2-0.2,0.4-0.4,0.4H1.3C1,10,0.8,9.8,0.8,9.6z M2.1,20.5c0-0.2,0.1-0.4,0.2-0.6l2.4-2.4c0.5-0.5,0.5-1.3,0-1.8l-2.4-2.4
		c-0.2-0.2-0.2-0.4-0.2-0.6v-2h7.5v2c0,0.2-0.1,0.4-0.2,0.6L7,15.8c-0.5,0.5-0.5,1.3,0,1.8l2.4,2.4c0.2,0.2,0.2,0.4,0.2,0.6v2H9.4
		l-2-2.2c-0.8-0.9-2.1-0.9-2.9-0.2c-0.1,0.1-0.1,0.1-0.2,0.2l-2,2.2H2.1L2.1,20.5z M8.2,22.5H3.4l1.5-1.7c0.5-0.5,1.3-0.6,1.8-0.1
		c0,0,0.1,0.1,0.1,0.1L8.2,22.5z M10.4,24.2H1.3c-0.2,0-0.4-0.2-0.4-0.4s0.2-0.4,0.4-0.4h9.2c0.2,0,0.4,0.2,0.4,0.4
		S10.6,24.2,10.4,24.2z"/>
	<path class="st2" d="M24.6,2.1h-2.1V1.7c0-0.9-0.7-1.7-1.7-1.7s-1.7,0.7-1.7,1.7v0.4h-1.3V1.7c0-0.9-0.7-1.7-1.7-1.7
		s-1.7,0.7-1.7,1.7v0.4h-1.3V1.7c0-0.9-0.7-1.7-1.7-1.7S10,0.7,10,1.7v0.4H7.9c-0.2,0-0.4,0.2-0.4,0.4v0.8H6.3
		C6,3.3,5.8,3.5,5.8,3.8v3.8h0.8V4.2h0.8v3.3h0.8V2.9H10v1.2c0,0.7,0.6,1.3,1.3,1.3s1.3-0.6,1.3-1.3V3.8h-0.8v0.4
		c0,0.2-0.2,0.4-0.4,0.4s-0.4-0.2-0.4-0.4V1.7c0-0.5,0.4-0.8,0.8-0.8s0.8,0.4,0.8,0.8v0.4h-0.8v0.8h2.9v1.2c0,0.7,0.6,1.3,1.3,1.3
		c0.7,0,1.3-0.6,1.3-1.3V3.8h-0.8v0.4c0,0.2-0.2,0.4-0.4,0.4c-0.2,0-0.4-0.2-0.4-0.4V1.7c0-0.5,0.4-0.8,0.8-0.8
		c0.5,0,0.8,0.4,0.8,0.8v0.4h-0.8v0.8h2.9v1.2c0,0.7,0.6,1.3,1.3,1.3s1.3-0.6,1.3-1.3V3.8h-0.8v0.4c0,0.2-0.2,0.4-0.4,0.4
		c-0.2,0-0.4-0.2-0.4-0.4V1.7c0-0.5,0.4-0.8,0.8-0.8c0.5,0,0.8,0.4,0.8,0.8v0.4h-0.8v0.8h3.3v17.9H11.3v0.8h11.3v0.8h-10v0.8h10.4
		c0.2,0,0.4-0.2,0.4-0.4v-1.3h1.3c0.2,0,0.4-0.2,0.4-0.4V2.5C25,2.3,24.8,2.1,24.6,2.1z"/>
	<path class="st2" d="M18.5,14.6c0.9-0.1,1.7,0.1,2.3,0.5l0.5-0.7c-0.8-0.6-1.8-0.8-2.9-0.7c-1.8,0.2-3.2,1.7-3.2,3.2l-1.4,0.1
		l0,0.8l1.6-0.1c0.2,0.5,0.6,1,1.2,1.3c0.6,0.3,1.3,0.5,1.9,0.5c0.2,0,0.4,0,0.6,0c1.5-0.2,2.3-0.9,2.5-2l1.4-0.1l0-0.8l-1.4,0.1
		c-0.2-0.8-1.2-1.3-2.2-1.2l0.1,0.8c0.5-0.1,0.9,0.1,1.1,0.4L16,17C16,16,17,14.8,18.5,14.6L18.5,14.6z M19,18.7
		c-1.2,0.2-2.3-0.2-2.8-0.9l4.5-0.2C20.6,18.2,20,18.6,19,18.7L19,18.7z"/>
	<path class="st2" d="M13.8,7.1h0.8v0.8h-0.8V7.1z"/>
	<path class="st2" d="M15.4,7.1h7.1v0.8h-7.1V7.1z"/>
	<path class="st2" d="M12.9,8.8h9.6v0.8h-9.6V8.8z"/>
	<path class="st2" d="M12.9,10.4h9.6v0.8h-9.6V10.4z"/>
	<path class="st2" d="M12.9,12.1h3.7v0.8h-3.7V12.1z"/>
	<path class="st2" d="M3.3,12.9h5v0.8h-5V12.9z"/>
	<path class="st2" d="M5.4,17.9h0.8v0.8H5.4V17.9z"/>
</g>
</svg>
