<?xml version="1.0" encoding="utf-8"?>
<!-- Generator: Adobe Illustrator 23.0.3, SVG Export Plug-In . SVG Version: 6.00 Build 0)  -->
<svg version="1.1" id="Layer_1" xmlns="http://www.w3.org/2000/svg" xmlns:xlink="http://www.w3.org/1999/xlink" x="0px" y="0px"
	 viewBox="0 0 25 25" style="enable-background:new 0 0 25 25;" xml:space="preserve">
<style type="text/css">
	.st0{fill:none;stroke:#372E75;stroke-width:0.5;stroke-miterlimit:10;}
	.st1{fill:none;stroke:#372E75;stroke-width:0.6033;stroke-miterlimit:10;}
	.st2{fill:#372E75;}
	.st3{fill:#6C757D;}
</style>
<g>
	<path class="st2" d="M24.1,3.8H8.3C7.9,2.7,6.9,2,5.7,2S3.5,2.7,3.1,3.8H0.9C0.4,3.8,0,4.2,0,4.7s0.4,0.9,0.9,0.9h2.2
		c0.4,1.1,1.4,1.9,2.6,1.9s2.2-0.8,2.6-1.9h15.8c0.5,0,0.9-0.4,0.9-0.9S24.6,3.8,24.1,3.8z M5.7,5.8C5.4,5.8,5.2,5.6,5,5.5
		c0,0-0.1-0.1-0.1-0.1C4.9,5.3,4.8,5.2,4.8,5.2c0,0,0-0.1,0-0.1c0-0.1-0.1-0.2-0.1-0.4c0-0.1,0-0.3,0.1-0.4c0,0,0-0.1,0-0.1
		c0-0.1,0.1-0.1,0.1-0.2C4.9,4,5,4,5,3.9c0.2-0.2,0.4-0.3,0.7-0.3c0.2,0,0.3,0,0.5,0.1h0C6.3,3.9,6.4,4,6.5,4.1c0,0,0.1,0.1,0.1,0.1
		c0,0,0,0.1,0.1,0.1c0,0.1,0.1,0.2,0.1,0.3c0,0,0,0,0,0.1c0,0,0,0,0,0.1c0,0.1,0,0.2-0.1,0.3c0,0.1,0,0.1-0.1,0.1
		c0,0-0.1,0.1-0.1,0.1C6.4,5.5,6.3,5.6,6.2,5.6h0C6,5.7,5.9,5.8,5.7,5.8z"/>
	<path class="st2" d="M24.1,11.7h-2.2c-0.4-1.1-1.4-1.9-2.6-1.9s-2.2,0.8-2.6,1.9H0.9c-0.5,0-0.9,0.4-0.9,0.9v0.1
		c0,0.5,0.4,0.9,0.9,0.9h15.7c0.4,1.1,1.4,1.9,2.6,1.9s2.2-0.8,2.6-1.9h2.2c0.5,0,0.9-0.4,0.9-0.9v-0.1C25,12.1,24.6,11.7,24.1,11.7
		z M19.2,13.6c-0.3,0-0.5-0.1-0.7-0.3c0,0-0.1-0.1-0.1-0.1c0-0.1-0.1-0.1-0.1-0.2c-0.1-0.1-0.1-0.3-0.1-0.4c0-0.4,0.2-0.7,0.6-0.9h0
		c0.2-0.1,0.3-0.1,0.5-0.1c0.6,0,1,0.5,1,1C20.3,13.1,19.8,13.6,19.2,13.6z"/>
	<path class="st2" d="M24,19.3H12.1c-0.4-1.1-1.4-1.9-2.6-1.9s-2.2,0.8-2.6,1.9H1c-0.5,0-0.9,0.4-0.9,0.9c0,0.5,0.4,0.9,0.9,0.9h5.9
		C7.3,22.3,8.3,23,9.5,23s2.2-0.8,2.6-1.9H24c0.5,0,0.9-0.4,0.9-0.9C24.9,19.8,24.5,19.3,24,19.3z M8.8,21c-0.1-0.1-0.1-0.1-0.2-0.2
		c0,0,0,0,0,0c-0.1-0.2-0.2-0.3-0.2-0.5c0-0.4,0.2-0.7,0.6-0.9h0c0.1-0.1,0.3-0.1,0.5-0.1c0.6,0,1,0.5,1,1c0,0.6-0.5,1-1,1
		C9.3,21.3,9,21.2,8.8,21z"/>
</g>
</svg>
