<svg xmlns="http://www.w3.org/2000/svg" width="35.476" height="38.674" viewBox="0 0 35.476 38.674"><defs><filter id="a" x=".574" y="2.08" width="34.257" height="36.594" filterUnits="userSpaceOnUse"><feOffset dy="3"/><feGaussianBlur stdDeviation="3" result="blur"/><feFlood flood-opacity=".161"/><feComposite operator="in" in2="blur"/><feComposite in="SourceGraphic"/></filter><filter id="b" x="0" y="0" width="35.476" height="36.909" filterUnits="userSpaceOnUse"><feOffset dy="3"/><feGaussianBlur stdDeviation="3" result="blur-2"/><feFlood flood-opacity=".161"/><feComposite operator="in" in2="blur-2"/><feComposite in="SourceGraphic"/></filter><filter id="c" x="8.742" y=".081" width="25.463" height="35.698" filterUnits="userSpaceOnUse"><feOffset dy="3"/><feGaussianBlur stdDeviation="3" result="blur-3"/><feFlood flood-opacity=".161"/><feComposite operator="in" in2="blur-3"/><feComposite in="SourceGraphic"/></filter></defs><g data-name="Group 78" fill="#ffa200"><path data-name="Path 106" d="M10.856 10.862h13.727s1.68 6.944 0 11.228S17.862 28 17.862 28s-5.255-1.626-7.006-5.91 0-11.228 0-11.228z"/><path data-name="Path 105" d="M-1.082 0H13.55s1.791 7.534 0 12.182-7.163 6.412-7.163 6.412-5.6-1.763-7.468-6.412S-1.082 0-1.082 0z" transform="translate(11.486 8.075)" filter="url(#a)"/><path data-name="Path 104" d="M-1.4-1.79c.674-1.076 14.362-1.089 15.34 0s1.878 7.333 0 11.857-7.51 6.241-7.51 6.241-5.873-1.716-7.83-6.241-.675-10.781 0-11.857z" transform="translate(11.436 8.595)" filter="url(#b)"/><path data-name="Subtraction 1" d="M.108 16.693l-.1-.035V-1.005c2.943.005 6.1.243 6.526.76A9.687 9.687 0 0 1 7.447 4.1a17.783 17.783 0 0 1-.916 6.755 9.755 9.755 0 0 1-3.814 4.509 12.583 12.583 0 0 1-2.609 1.329z" transform="translate(17.736 7.085)" filter="url(#c)"/></g></svg>