<?xml version="1.0" encoding="utf-8"?>
<!-- Generator: Adobe Illustrator 23.0.1, SVG Export Plug-In . SVG Version: 6.00 Build 0)  -->
<svg version="1.1" id="Layer_1" xmlns="http://www.w3.org/2000/svg" xmlns:xlink="http://www.w3.org/1999/xlink" x="0px" y="0px"
	 viewBox="0 0 100 100" style="enable-background:new 0 0 100 100;" xml:space="preserve">
<style type="text/css">
	.st0{fill:#372E75;}
</style>
<g>
	<path class="st0" d="M88.39,73.26c0.68-0.66,0.96-0.17,1.32,0.22c0.84,0.89,1.7,1.76,2.61,2.69c-0.64,0.46-1.26,0.92-1.89,1.35
		c-0.58,0.39-1.2,0.73-1.74,1.16c-0.19,0.15-0.28,0.5-0.28,0.76c-0.02,5.49-0.08,10.98,0.02,16.46c0.04,2.51-2.07,4.02-4.22,4.02
		c-12.16,0-24.32,0-36.49,0c-4.05,0-8.09,0-12.14,0c-7.54,0-15.09-0.01-22.63,0c-2.02,0-3.65-1.3-4.06-2.85
		c-0.09-0.34-0.09-0.7-0.09-1.05c-0.01-5.66,0-11.33,0-16.99c0-15.89,0-31.78,0-47.67c0-9.13,0.05-18.26-0.04-27.39
		C8.73,1.62,10.8-0.1,12.96-0.08c4.56,0.06,9.11,0.05,13.67,0.05c5.12,0,10.25-0.03,15.37-0.04c9.68-0.01,19.36,0,29.04,0
		c4.35,0,8.7,0.02,13.05-0.01c1.59-0.01,2.86,0.56,3.72,1.82c0.32,0.47,0.52,1.08,0.55,1.64c0.08,1.5,0.03,3.01,0.03,4.52
		c0,13.58,0,27.16,0,40.74c0,7.95,0,15.9,0,23.86C88.39,72.71,88.39,72.92,88.39,73.26z M74.74,82.11c1.2-0.73,2.37-1.49,3.55-2.25
		c2.29-1.48,4.56-2.97,6.86-4.44c0.43-0.28,0.62-0.57,0.61-1.09c-0.02-8.6-0.01-17.2-0.01-25.8c0-13.68,0-27.36,0-41.04
		c0-1.21,0.03-2.43,0.05-3.64c0.01-0.78-0.28-1.35-0.83-1.48c-0.41-0.1-0.84-0.17-1.26-0.17c-1.28-0.01-2.56,0.03-3.84,0.03
		c-2.96,0.01-5.93,0-8.89,0c-11.45,0-22.89,0-34.34,0c-2.38,0-4.75-0.04-7.13-0.04c-3.19,0-6.38,0.03-9.57,0.04
		c-2.28,0.01-4.56-0.01-6.83,0c-1.18,0.01-1.66,0.48-1.69,1.61c0,0.22,0,0.43,0,0.65c0,8.66,0,17.31,0,25.97
		c0,15.36,0,30.72,0,46.08c0,6.41,0,12.82,0,19.22c0,1.4,0.43,1.83,1.88,1.83c4.74,0,9.47,0,14.21,0c1.79,0,3.57,0.05,5.36,0.04
		c2.07,0,4.14-0.04,6.21-0.04c2.37-0.01,4.75,0,7.12,0c8.42,0,16.84,0,25.26,0c1.62,0,3.25,0.03,4.87,0.03
		c1.38,0,2.76-0.02,4.14-0.02c1.22,0,2.44,0.06,3.65,0.02c1.21-0.04,1.62-0.5,1.62-1.67c0-4.88,0-9.76,0-14.64
		c0-0.18-0.02-0.36-0.04-0.64c-1.61,1.1-3.11,2.13-4.61,3.15c-2.76,1.87-5.52,3.75-8.3,5.61c-0.57,0.38-1.16,0.85-1.81,0.99
		c-1.5,0.32-3.05,0.47-4.58,0.68c-0.18,0.02-0.38-0.03-0.57-0.05c0.03-0.18,0.02-0.39,0.1-0.55c0.63-1.27,1.27-2.52,1.92-3.78
		c0.05-0.1,0.11-0.22,0.21-0.28c1.03-0.66,2.06-1.31,3.09-1.97c0.9-0.58,1.79-1.17,2.7-1.76 M73.39,81.68 M66.47,90.61
		c1.48-0.21,2.81-0.4,4.25-0.6c-0.78-0.94-1.48-1.78-2.21-2.61c-0.05-0.06-0.37-0.04-0.4,0.02C67.57,88.43,67.06,89.46,66.47,90.61z
		"/>
	<path class="st0" d="M92.72,75.82c-1.04-1.07-2.08-2.14-3.12-3.21c0.94-1.02,1.71-0.99,2.55,0.04c0.37,0.46,0.77,0.9,1.17,1.33
		C94.05,74.77,93.87,75.35,92.72,75.82z"/>
	<path class="st0" d="M66.47,90.61c0.58-1.15,1.1-2.18,1.64-3.19c0.03-0.06,0.35-0.09,0.4-0.02c0.72,0.83,1.42,1.68,2.21,2.61
		C69.28,90.21,67.95,90.4,66.47,90.61z"/>
</g>
<path class="st0" d="M43.9,12.2c-4.3,0-8.5,0-12.8,0c-0.3,0-0.7-0.1-0.9-0.4c-0.6-0.7-0.6-1.3,0-2c0.3-0.3,0.6-0.4,0.9-0.4
	c2.1,0,4.3,0,6.4,0c4.2,0,9.6,0,16.1,0c1,0,2.1,0,3.1,0c0.3,0,0.7,0.1,1,0.4c0.5,0.5,0.5,1.4,0,1.9c-0.3,0.3-0.7,0.4-1,0.4
	c-4,0-8,0-12,0C44.4,12.2,44.2,12.2,43.9,12.2L43.9,12.2z"/>
<circle class="st0" cx="22.3" cy="10.8" r="5"/>
<path class="st0" d="M28.6,23.4c-3.3,0-6.7,0-10,0c-0.2,0-0.5-0.1-0.7-0.4c-0.5-0.7-0.5-1.3,0-2c0.2-0.3,0.5-0.4,0.7-0.4
	c1.7,0,3.3,0,5,0c3.3,0,7.5,0,12.6,0c0.8,0,1.6,0,2.4,0c0.3,0,0.6,0.1,0.8,0.4c0.4,0.5,0.4,1.4,0,1.9c-0.2,0.3-0.5,0.4-0.8,0.4
	c-3.1,0-6.3,0-9.4,0C29,23.4,28.8,23.4,28.6,23.4L28.6,23.4z"/>
<rect x="17" y="28.5" class="st0" width="64" height="13"/>
<rect x="17" y="50" class="st0" width="64" height="13"/>
<path class="st0" d="M27.6,47.4c-3.3,0-6.7,0-10,0c-0.2,0-0.5-0.1-0.7-0.4c-0.5-0.7-0.5-1.3,0-2c0.2-0.3,0.5-0.4,0.7-0.4
	c1.7,0,3.3,0,5,0c3.3,0,7.5,0,12.6,0c0.8,0,1.6,0,2.4,0c0.3,0,0.6,0.1,0.8,0.4c0.4,0.5,0.4,1.4,0,1.9c-0.2,0.3-0.5,0.4-0.8,0.4
	c-3.1,0-6.3,0-9.4,0C28,47.4,27.8,47.4,27.6,47.4L27.6,47.4z"/>
<path class="st0" d="M40.82,91.4c-6.8,0-13.81,0-20.61,0c-0.41,0-1.03-0.1-1.44-0.4c-1.03-0.7-1.03-1.3,0-2
	c0.41-0.3,1.03-0.4,1.44-0.4c3.5,0,6.8,0,10.3,0c6.8,0,15.46,0,25.97,0c1.65,0,3.3,0,4.95,0c0.62,0,1.24,0.1,1.65,0.4
	c0.82,0.5,0.82,1.4,0,1.9c-0.41,0.3-1.03,0.4-1.65,0.4c-6.39,0-12.98,0-19.37,0C41.65,91.4,41.24,91.4,40.82,91.4L40.82,91.4z"/>
<path class="st0" d="M28.6,69.4c-3.3,0-6.7,0-10,0c-0.2,0-0.5-0.1-0.7-0.4c-0.5-0.7-0.5-1.3,0-2c0.2-0.3,0.5-0.4,0.7-0.4
	c1.7,0,3.3,0,5,0c3.3,0,7.5,0,12.6,0c0.8,0,1.6,0,2.4,0c0.3,0,0.6,0.1,0.8,0.4c0.4,0.5,0.4,1.4,0,1.9c-0.2,0.3-0.5,0.4-0.8,0.4
	c-3.1,0-6.3,0-9.4,0C29,69.4,28.8,69.4,28.6,69.4L28.6,69.4z"/>
<circle class="st0" cx="23" cy="78" r="4"/>
<circle class="st0" cx="35" cy="78" r="4"/>
</svg>
