<?xml version="1.0" encoding="utf-8"?>
<!-- Generator: Adobe Illustrator 23.0.1, SVG Export Plug-In . SVG Version: 6.00 Build 0)  -->
<svg version="1.1" id="Layer_1" xmlns="http://www.w3.org/2000/svg" xmlns:xlink="http://www.w3.org/1999/xlink" x="0px" y="0px"
	 viewBox="0 0 100 100" style="enable-background:new 0 0 100 100;" xml:space="preserve">
<style type="text/css">
	.st0{fill:#372E75;}
	.st1{font-family:sans-serif;font-weight: 900;}
	.st2{font-size:15.3756px;}
</style>
<g>
	<path class="st0" d="M93.2,95.42c-4.23-5.22-8.03-9.91-11.84-14.59c-3.48-4.27-6.88-8.61-10.5-12.76
		c-0.83-0.95-2.39-1.77-3.62-1.78c-11.84-0.12-23.68-0.06-35.51,0.01c-0.91,0.01-2.16,0.3-2.68,0.93
		c-7.56,9.22-15.03,18.51-22.8,28.14c1.18,0.09,1.96,0.2,2.73,0.2c3.49,0.02,6.98-0.11,10.46,0.1c0.77,0.05,1.79,1.12,2.07,1.93
		c0.15,0.43-1.06,1.9-1.68,1.91C13.77,99.68,7.71,99.7,1.65,99.6c-2.08-0.03-1.94-1.82-1.95-3.31c-0.02-10.02-0.04-20.04-0.05-30.06
		c-0.01-7.17-0.11-14.34,0.04-21.51c0.03-1.27,0.77-2.82,1.69-3.71c2.9-2.81,6.12-5.27,9.03-8.07c0.86-0.83,1.51-2.3,1.54-3.49
		c0.16-5.33,0.14-10.66,0.02-15.99c-0.05-2.52,0.96-3.44,3.43-3.41c6.42,0.07,12.85,0.07,19.27-0.08c1.23-0.03,2.66-0.63,3.63-1.41
		c3.07-2.47,6.02-5.1,8.92-7.78c1.61-1.49,2.91-1.45,4.5,0.04c2.35,2.19,5,4.06,7.24,6.35c2.17,2.22,4.51,3,7.59,2.87
		C72.23,9.78,77.93,10,83.62,9.91c2.51-0.04,3.42,0.99,3.37,3.47c-0.1,5.15,0.08,10.3-0.04,15.44c-0.05,1.95,0.61,3.27,2.07,4.47
		c2.97,2.45,5.93,4.93,8.72,7.59c0.88,0.84,1.67,2.28,1.68,3.45c0.14,17.28,0.1,34.57,0.2,51.85c0.01,2.55-0.99,3.36-3.43,3.36
		c-19.55-0.02-39.09,0.03-58.64,0.08c-1.58,0-3.18-0.09-3.12-2.13c0.06-2.09,1.8-1.95,3.28-1.96c16.98-0.03,33.95-0.06,50.93-0.1
		C89.91,95.43,91.18,95.43,93.2,95.42z M16.41,14.26c-0.11,0.56-0.21,0.83-0.21,1.09c0,11.58-0.02,23.16,0.09,34.74
		c0.01,0.89,0.77,2.03,1.52,2.61c3.77,2.93,7.61,5.77,11.52,8.49c0.89,0.62,2.19,0.92,3.3,0.92c11.37,0.04,22.75,0.03,34.12-0.07
		c1.1-0.01,2.36-0.41,3.26-1.04c3.74-2.65,7.45-5.36,11-8.26c0.95-0.78,1.78-2.33,1.81-3.54c0.15-7.07,0.05-14.15,0.03-21.23
		c-0.01-4.56-0.02-9.13-0.03-13.84C60.52,14.18,38.55,14.22,16.41,14.26z M95.24,91.37c-0.03-14.94-0.05-29.22-0.08-43.9
		C87.56,53.13,80.33,58.52,72.97,64C80.41,73.15,87.62,82.01,95.24,91.37z M26.2,64.09c-7.44-5.49-14.73-10.87-22.34-16.48
		c0.03,14.85,0.05,29.08,0.08,44.01C11.58,82.18,18.8,73.24,26.2,64.09z M11.93,37.17c-2.6,2.29-4.68,4.12-6.95,6.12
		c2.42,1.76,4.57,3.32,6.97,5.07C11.94,44.56,11.94,41.2,11.93,37.17z M87.17,37.07c0.01,4.02,0.01,7.44,0.02,11.17
		c2.39-1.78,4.55-3.39,6.92-5.15C91.79,41.08,89.73,39.29,87.17,37.07z M43.32,9.72c4.33-0.01,8.01-0.01,12.32-0.02
		c-2.34-2.03-4.18-3.63-6.16-5.35C47.47,6.1,45.59,7.74,43.32,9.72z"/>
	<path class="st0" d="M55.63,9.7c-4.3,0.01-7.99,0.01-12.32,0.02"/>
	<path class="st0" d="M54.5,49.47c-5.5,0.01-11,0.01-16.5,0.04c-1.49,0.01-2.97-0.17-2.93-2.03c0.03-1.81,1.49-2.04,2.98-2.04
		c11.09,0,22.19-0.08,33.28,0.04c1.05,0.01,2.88,1.08,2.99,1.86c0.29,2-1.51,2.09-3.04,2.09c-5.59,0.01-11.18,0.02-16.78,0.03
		C54.5,49.46,54.5,49.47,54.5,49.47z"/>
	<path class="st0" d="M49.56,57.81c-5.23,0.01-10.45,0.01-15.68,0.03c-1.45,0.01-2.96-0.05-2.95-1.99c0.01-1.87,1.47-2.05,2.95-2.05
		c10.45-0.01,20.9-0.03,31.36-0.07c1.51-0.01,2.94,0.23,2.96,2.05c0.02,1.9-1.49,2-2.96,2C60.01,57.79,54.78,57.81,49.56,57.81
		C49.56,57.82,49.56,57.81,49.56,57.81z"/>
</g>
<ellipse class="st0" cx="28.44" cy="97.33" rx="2.2" ry="2.21"/>
<ellipse class="st0" cx="31.65" cy="47.67" rx="2.2" ry="2.21"/>
<text transform="matrix(0.7135 -1.335769e-03 1.865166e-03 1 30.5325 38.3265)" class="st0 st1 st2">OFFER</text>
</svg>
