<?xml version="1.0" encoding="utf-8"?>
<!-- Generator: Adobe Illustrator 23.0.1, SVG Export Plug-In . SVG Version: 6.00 Build 0)  -->
<svg version="1.1" id="Layer_1" xmlns="http://www.w3.org/2000/svg" xmlns:xlink="http://www.w3.org/1999/xlink" x="0px" y="0px"
	 viewBox="0 0 100 100" style="enable-background:new 0 0 100 100;" xml:space="preserve">
<style type="text/css">
	path{fill:#372E75;}
	path{font-family:sans-serif;font-weight: 900;}
	path{font-size:15.3756px;}
</style>
<g>
	<path d="M48.38,100.13c-1.55-0.68-3.11-1.35-4.66-2.03c-1.32-0.58-1.64-1.17-2.95-1.77c-2.31-1.05-4.62-2.1-6.93-3.17
		c-1.92-0.88-3.83-1.79-5.75-2.68c-2.24-1.04-4.47-2.06-6.71-3.1c-1.6-0.74-3.19-1.5-4.79-2.24c-2.29-1.07-4.59-2.13-6.87-3.2
		c-1.93-0.91-3.85-1.82-5.77-2.75c-1.26-0.61-2.52-1.23-3.77-1.84c-0.53-0.26-0.54-0.79-0.54-1.3c0.01-0.47,0.03-0.94,0.54-1.18
		c1.73-0.83,3.46-1.68,5.19-2.52c1.3-0.63,2.61-1.25,3.93-1.86c2.29-1.07,4.58-2.12,6.87-3.19c1.63-0.76,3.25-1.53,4.88-2.3
		c1.05-0.49,2.1-0.99,3.14-1.48c0.23-0.11,0.45-0.24,0.76-0.42c-0.9-0.45-1.72-0.86-2.54-1.25c-1.36-0.65-2.73-1.29-4.1-1.92
		c-1.96-0.91-3.92-1.8-5.88-2.71c-1.6-0.74-3.2-1.49-4.79-2.25c-1.97-0.93-3.93-1.86-5.89-2.82c-0.61-0.3-1.2-0.66-1.78-1.04
		c-0.53-0.36-0.49-1.74,0.09-2.11c0.81-0.51,1.66-0.95,2.52-1.37c1.66-0.81,3.33-1.59,5-2.37c1.96-0.91,3.92-1.81,5.88-2.73
		c1.6-0.75,3.2-1.5,4.79-2.26c1.99-0.95,3.98-1.91,5.97-2.87c0.17-0.08,0.32-0.2,0.57-0.35c-0.53-0.28-0.99-0.53-1.46-0.76
		c-2.34-1.12-4.67-2.24-7.02-3.34c-2.79-1.31-5.6-2.58-8.39-3.89c-2.29-1.08-4.56-2.19-6.84-3.29c-0.29-0.14-0.58-0.27-0.84-0.45
		c-0.6-0.41-0.87-1.25-0.5-1.9c0.22-0.38,0.66-0.66,1.05-0.86c2.02-1.02,4.04-2.02,6.08-2.99c2.8-1.33,5.62-2.62,8.43-3.93
		c2.25-1.05,4.49-2.11,6.74-3.16c2.54-1.18,5.08-2.34,7.62-3.51c1.95-0.9,3.88-1.82,5.83-2.71c2.5-1.14,5-2.27,7.5-3.4
		c1.59-0.72,3.19-1.43,4.78-2.14c0.39-0.17,0.8-0.32,1.18-0.51c0.42-0.21,0.82-0.15,1.23,0.03c1.59,0.69,3.18,1.36,4.76,2.06
		c1.97,0.87,3.94,1.76,5.9,2.66c1.6,0.73,3.2,1.49,4.8,2.22c2.27,1.05,4.53,2.08,6.8,3.13c1.64,0.76,3.28,1.53,4.93,2.3
		c1.94,0.9,3.89,1.8,5.84,2.7c1.62,0.75,3.23,1.51,4.84,2.26c1.96,0.92,3.93,1.8,5.87,2.76c1.74,0.86,3.46,1.76,5.16,2.69
		c0.59,0.32,0.66,1.53,0.12,1.97c-0.51,0.41-1.08,0.74-1.66,1.03c-1.38,0.69-2.78,1.33-4.18,1.99c-1.96,0.92-3.92,1.83-5.88,2.74
		c-1.55,0.72-3.11,1.44-4.66,2.18c-2.33,1.1-4.65,2.2-6.98,3.31c-0.47,0.22-0.93,0.48-1.48,0.76c0.19,0.13,0.31,0.23,0.44,0.3
		c1.56,0.76,3.11,1.53,4.68,2.28c1.36,0.65,2.73,1.28,4.1,1.92c2.25,1.05,4.5,2.08,6.74,3.13c1.32,0.62,2.64,1.25,3.96,1.88
		c1.35,0.64,2.7,1.28,4.04,1.95c0.61,0.3,1.16,0.65,1.21,1.52c0.05,0.94-0.55,1.3-1.16,1.59c-2.93,1.44-5.87,2.85-8.81,4.24
		c-2.4,1.14-4.81,2.24-7.22,3.37c-2.49,1.17-4.97,2.34-7.46,3.51c-0.21,0.1-0.41,0.24-0.7,0.4c0.9,0.44,1.72,0.85,2.55,1.24
		c1.37,0.65,2.73,1.29,4.1,1.92c1.96,0.91,3.92,1.8,5.88,2.71c1.61,0.75,3.22,1.51,4.84,2.27c2,0.94,3.99,1.89,5.98,2.84
		c0.47,0.23,0.95,0.46,1.39,0.74c0.81,0.52,0.81,2.01-0.02,2.49c-0.76,0.44-1.55,0.82-2.34,1.19c-1.38,0.66-2.76,1.31-4.14,1.95
		c-1.96,0.92-3.91,1.83-5.87,2.75c-1.3,0.61-2.59,1.22-3.89,1.83c-2.26,1.05-4.53,2.09-6.79,3.14c-1.57,0.73-3.14,1.47-4.71,2.19
		c-2.32,1.07-4.65,2.14-6.97,3.21c-1.64,0.76-3.28,1.54-4.93,2.29c-2.52,1.14-6.04,2.25-8.57,3.37c-0.65,0.29-1.31,0.56-1.96,0.84
		C48.63,100.13,48.5,100.13,48.38,100.13z M6.21,23.93c0.25,0.17,0.42,0.33,0.61,0.43c0.99,0.51,1.98,1.02,2.98,1.5
		c1.95,0.93,3.9,1.85,5.86,2.77c1.31,0.62,2.61,1.24,3.93,1.85c1.96,0.91,3.92,1.81,5.88,2.72c1.62,0.75,3.22,1.51,4.84,2.26
		c2.22,1.03,4.44,2.04,6.66,3.07c1.64,0.76,3.28,1.54,4.93,2.3c2.29,1.06,4.6,2.1,6.88,3.19c0.58,0.28,1.05,0.28,1.63-0.01
		c1.64-0.81,3.31-1.57,4.96-2.34c1.97-0.92,3.95-1.82,5.93-2.73c1.59-0.73,3.17-1.48,4.75-2.21c2.26-1.05,4.53-2.09,6.79-3.14
		c1.61-0.75,3.22-1.51,4.83-2.26c2.25-1.05,4.49-2.09,6.74-3.14c1.37-0.64,2.74-1.28,4.1-1.93c1.5-0.72,3-1.46,4.55-2.21
		c-0.18-0.11-0.3-0.19-0.43-0.25c-0.98-0.47-1.95-0.93-2.93-1.4c-1.25-0.59-2.5-1.18-3.75-1.76c-2.24-1.03-4.48-2.06-6.71-3.09
		c-1.93-0.9-3.85-1.81-5.78-2.7c-2.26-1.05-4.53-2.08-6.8-3.13c-1.62-0.75-3.23-1.51-4.84-2.25c-2.24-1.03-4.48-2.04-6.72-3.06
		c-1.76-0.8-3.53-1.6-5.3-2.38c-0.15-0.07-0.37-0.07-0.53,0c-1.51,0.67-3.01,1.36-4.51,2.05c-2.51,1.15-5.03,2.3-7.54,3.45
		c-1.96,0.9-3.91,1.83-5.87,2.74c-2.24,1.03-4.48,2.06-6.71,3.09c-1.61,0.75-3.22,1.51-4.83,2.26c-2.03,0.94-4.06,1.88-6.1,2.82
		c-1.31,0.61-2.63,1.2-3.94,1.82C8.59,22.78,7.43,23.34,6.21,23.93z M5.95,76.1c0.11,0.07,0.17,0.12,0.24,0.15
		c1.34,0.63,2.67,1.26,4.01,1.89c1.61,0.76,3.22,1.52,4.83,2.27c2.28,1.06,4.56,2.11,6.83,3.17c1.6,0.74,3.19,1.5,4.79,2.24
		c2.27,1.05,4.54,2.08,6.8,3.13c1.62,0.75,3.22,1.51,4.84,2.25c2.31,1.06,4.62,2.12,6.94,3.14c1.38,0.61,2.78,1.16,4.18,1.71
		c0.23,0.09,0.55,0.1,0.77,0c1.57-0.69,3.13-1.41,4.68-2.12c1.33-0.61,2.65-1.23,3.98-1.84c1.96-0.9,3.93-1.8,5.89-2.71
		c1.63-0.75,3.26-1.52,4.89-2.28c2.25-1.04,4.5-2.07,6.75-3.11c1.63-0.76,3.25-1.53,4.88-2.29c1.99-0.93,3.98-1.84,5.96-2.76
		c1.36-0.63,2.71-1.25,4.07-1.88c0.62-0.29,1.23-0.61,1.93-0.96c-2.33-1.08-4.56-2.13-6.79-3.17c-2.97-1.38-5.94-2.75-8.9-4.13
		c-2.54-1.18-5.07-2.37-7.62-3.53c-0.17-0.08-0.43-0.06-0.61,0.02c-1.03,0.46-2.04,0.95-3.07,1.42c-2.8,1.28-5.6,2.57-8.4,3.84
		c-2.52,1.14-5.05,2.24-7.57,3.37c-0.48,0.21-0.93,0.22-1.41,0c-0.55-0.25-1.12-0.45-1.67-0.69c-3.6-1.63-7.21-3.27-10.81-4.91
		c-2.21-1.01-4.41-2.04-6.62-3.05c-0.14-0.06-0.35-0.08-0.49-0.02c-0.95,0.41-1.88,0.84-2.82,1.27c-1.93,0.9-3.86,1.8-5.79,2.7
		c-2.61,1.22-5.21,2.43-7.82,3.64c-1.35,0.63-2.71,1.25-4.06,1.88C7.84,75.17,6.93,75.63,5.95,76.1z M93.11,50.15
		c-1.74-0.84-3.36-1.63-4.98-2.41c-1.62-0.78-3.24-1.57-4.86-2.33c-2.53-1.19-5.07-2.36-7.61-3.53c-1.89-0.87-3.78-1.73-5.68-2.58
		c-0.17-0.08-0.4-0.07-0.58-0.02c-0.29,0.08-0.56,0.22-0.84,0.34c-3.28,1.5-6.56,3.01-9.84,4.5c-2.79,1.27-5.6,2.51-8.39,3.77
		c-0.51,0.23-0.98,0.26-1.49,0.01c-0.54-0.26-1.11-0.46-1.66-0.71c-3-1.36-5.99-2.72-8.99-4.08c-2.78-1.26-5.56-2.52-8.35-3.76
		c-0.2-0.09-0.48-0.13-0.67-0.05c-1.23,0.52-2.45,1.06-3.66,1.62c-1.63,0.75-3.26,1.52-4.89,2.28c-1.97,0.92-3.94,1.84-5.92,2.76
		c-1.35,0.63-2.71,1.26-4.05,1.91c-1.52,0.73-3.03,1.49-4.62,2.28c1.9,0.9,3.71,1.76,5.52,2.61c2.25,1.05,4.5,2.08,6.75,3.12
		c1.6,0.74,3.19,1.49,4.79,2.23c2.25,1.04,4.5,2.07,6.75,3.11c1.93,0.9,3.86,1.81,5.79,2.7c2.51,1.16,5.02,2.31,7.53,3.46
		c2.05,0.95,4.1,1.9,6.15,2.83c0.15,0.07,0.37,0.06,0.52,0c0.83-0.36,1.65-0.74,2.48-1.12c1.61-0.75,3.23-1.51,4.84-2.26
		c1.94-0.9,3.89-1.79,5.84-2.69c1.62-0.75,3.23-1.51,4.84-2.26c2.23-1.03,4.47-2.06,6.71-3.1c1.64-0.76,3.28-1.53,4.92-2.3
		c1.93-0.9,3.87-1.78,5.8-2.68c1.4-0.65,2.8-1.29,4.19-1.94C90.64,51.35,91.81,50.78,93.11,50.15z"/>
</g>
</svg>
