<svg xmlns="http://www.w3.org/2000/svg" width="20.702" height="22.18" viewBox="0 0 20.702 22.18">
    <g id="notification-bell-outline-interface-symbol" transform="translate(-21.857)">
        <g id="_x36__27_" transform="translate(21.857)">
            <g id="Group_14" data-name="Group 14">
                <path id="Path_42" d="M39.6 13.308V7.393a7.393 7.393 0 1 0-14.787 0v5.915l-2.957 5.915h6.729a3.7 3.7 0 0 0 7.244 0h6.729zM32.208 20.7a2.211 2.211 0 0 1-2.082-1.479h4.165a2.212 2.212 0 0 1-2.083 1.479zm-8.133-2.957l2.218-4.436V7.393a5.915 5.915 0 1 1 11.83 0v5.915l2.218 4.436H24.075z" data-name="Path 42" transform="translate(-21.857)" style="fill:#6c757d"/>
            </g>
        </g>
    </g>
</svg>
