<?xml version="1.0" encoding="utf-8"?>
<!-- Generator: Adobe Illustrator 23.0.1, SVG Export Plug-In . SVG Version: 6.00 Build 0)  -->
<svg version="1.1" id="Layer_1" xmlns="http://www.w3.org/2000/svg" xmlns:xlink="http://www.w3.org/1999/xlink" x="0px" y="0px"
	 viewBox="0 0 100 100" style="enable-background:new 0 0 100 100;" xml:space="preserve">
<style type="text/css">
	.st0{fill:#372E75;}
</style>
<g>
	<path class="st0" d="M36.61,81.72c-0.24,1.23-1.03,1.58-2.16,1.58c-5.08-0.02-10.16-0.03-15.24,0.01
		c-2.73,0.02-5.45-2.18-5.35-5.35c0.17-5.91,0.05-11.83,0.05-17.75c0-1.75,0.9-2.42,2.58-1.91c7.29,2.21,14.48,1.94,21.55-0.9
		c2.83-1.14,5.44-2.69,7.73-4.71c0.64-0.56,1.3-0.79,2.13-0.79c13.8,0.01,27.6,0.01,41.41,0.01c1.74,0,3.48,0.02,5.21-0.01
		c1.51-0.02,2.01-0.53,2.01-2.01c0.01-2.29,0-4.58,0-6.86c0-1.59-0.5-2.1-2.13-2.1c-9.47,0-18.95,0-28.42,0
		c-3.15,0-6.29,0-9.44-0.01c-1.63,0-2.16-0.69-1.91-2.28c0.25-1.64,0.46-3.3,0.58-4.96c0.12-1.69,0.54-2.17,2.3-2.17
		c4.33-0.01,8.65-0.01,12.98-0.01c7.9,0,15.8,0,23.7,0c3.55,0,4.72,1.24,5.79,3.94c0.12,0.29,0.1,0.64,0.1,0.97
		c0.01,14.02,0.07,28.05-0.05,42.07c-0.02,2.66-1.87,4.72-5.06,4.78c-5.01,0.09-10.03,0.03-15.05,0.03c-12.62,0-25.24-0.01-37.86,0
		c-0.79,0-1.53-0.05-1.96-0.82c-0.36-0.64-0.87-0.84-1.58-0.77C37.92,81.77,37.33,81.72,36.61,81.72z M32.93,61.32
		c-4.27-0.24-8.41,4.26-6.47,8.47c0.89,1.94,2.28,3.18,4.24,3.75c2.39,0.69,4.67,0.39,6.64-1.29c0.49-0.42,0.84-0.46,1.39,0.02
		c0.57,0.5,1.3,0.88,2.02,1.14c3.66,1.35,7.65-0.43,8.96-3.78c1.15-2.92-0.11-5.88-3.09-7.44c-2.72-1.43-5.38-1.19-7.82,0.64
		c-0.63,0.47-1,0.51-1.54,0.02C36.04,61.75,34.54,61.4,32.93,61.32z M79.38,58.19c-1.84,0-3.57-0.03-5.3,0.01
		c-0.92,0.02-1.53,0.64-1.53,1.57c-0.02,4.18-0.02,8.35,0,12.53c0,0.82,0.48,1.47,1.26,1.51c1.85,0.1,3.7,0.03,5.58,0.03
		C79.38,68.59,79.38,63.45,79.38,58.19z M82.82,58.21c0,2.15,0,4.16,0,6.18c2.3,0,4.53,0,6.82,0c0-1.6,0.03-3.13-0.01-4.65
		c-0.02-0.86-0.52-1.47-1.38-1.51C86.46,58.16,84.67,58.21,82.82,58.21z M89.63,67.68c-2.37,0-4.6,0-6.81,0c0,2.09,0,4.1,0,6.18
		c1.82,0,3.58,0.03,5.34-0.01c0.86-0.02,1.42-0.58,1.46-1.43C89.68,70.85,89.63,69.29,89.63,67.68z"/>
	<path class="st0" d="M24.96,56.61c-4.72-0.11-9.95-1.57-14.62-4.88c-2.8-1.98-5.11-4.36-6.92-7.3c-1.17-1.89-1.8-3.93-2.5-6
		c-1.02-3.03-1.03-6.11-0.44-9.16c0.72-3.7,2.16-7.21,4.64-10.08c6.58-7.64,15.02-10.61,24.99-9.36c3.62,0.46,6.96,1.75,10.1,3.55
		c1.04,0.59,2.1,1.23,1.48,2.77c-0.05,0.13,0.19,0.44,0.36,0.6c0.28,0.27,0.59,0.53,0.93,0.7c0.27,0.13,0.63,0.23,0.91,0.16
		c0.88-0.19,1.56-0.03,2.19,0.68c2.69,3.05,4.38,6.53,5.26,10.51c0.53,2.37,0.79,4.73,0.3,7.05c-0.52,2.47-1.2,4.97-2.29,7.22
		c-1.54,3.17-3.86,5.86-6.71,7.98C37.9,54.61,32.43,56.61,24.96,56.61z M24.24,23.02c-0.21,0.04-0.43,0.07-0.64,0.12
		c-2.73,0.72-4.25,2.49-4.76,4.78c-0.65,2.93,1.94,6.04,4.84,6.53c1.06,0.18,2.15,0.14,3.23,0.2c1.94,0.11,3.15,1.6,2.73,3.37
		c-0.28,1.2-1.38,2-2.89,2.05c-1.31,0.04-2.62,0.01-3.93,0.01c-0.36,0-0.72,0.01-1.08,0.05c-0.85,0.09-1.3,0.61-1.35,1.42
		c-0.05,0.82,0.36,1.43,1.18,1.55c0.89,0.14,1.8,0.13,2.69,0.18c0.21,2.24,0.51,2.73,1.68,2.76c1.21,0.03,1.54-0.48,1.81-2.9
		c0.29-0.07,0.61-0.14,0.92-0.22c3.03-0.72,5.75-4.66,4-7.8c-1.29-2.31-3.13-3.4-5.64-3.6c-0.65-0.05-1.31,0.01-1.97-0.03
		c-1.94-0.12-3.13-1.62-2.7-3.38c0.3-1.21,1.37-1.98,2.9-2.03c1.24-0.04,2.49,0.01,3.74-0.02c0.98-0.02,1.73-0.66,1.78-1.49
		c0.05-0.82-0.75-1.58-1.74-1.64c-0.44-0.02-0.88,0-1.31,0c-0.16-2.25-0.52-2.81-1.69-2.83C24.86,20.09,24.59,20.52,24.24,23.02z"/>
	<path class="st0" d="M38.52,89.57c-4.95,0-9.9,0-14.85,0c-0.16,0-0.33,0-0.49,0c-1.05-0.04-1.93-0.75-1.94-1.55
		c-0.01-0.83,0.84-1.56,1.91-1.58c2.13-0.03,4.26-0.01,6.39-0.01c8.03,0,16.06,0,24.1,0.01c0.38,0,0.8,0.04,1.14,0.19
		c0.71,0.32,1,0.95,0.83,1.7c-0.2,0.9-0.85,1.25-1.75,1.24c-3.84-0.01-7.67,0-11.51,0C41.08,89.57,39.8,89.57,38.52,89.57z"/>
	<path class="st0" d="M69.95,25.23c3.99,0,7.99,0,11.98,0c0.26,0,0.52-0.01,0.79,0c1.11,0.07,1.79,0.66,1.8,1.55
		c0.01,0.9-0.65,1.53-1.77,1.57c-1.18,0.05-2.36,0.02-3.54,0.02c-7.2,0-14.41,0-21.61-0.01c-0.51,0-1.11-0.02-1.5-0.28
		c-0.4-0.26-0.82-0.83-0.82-1.26c-0.01-0.44,0.39-1.02,0.79-1.29c0.39-0.26,0.99-0.28,1.5-0.29C61.7,25.22,65.83,25.23,69.95,25.23z
		"/>
	<path class="st0" d="M90.94,22.03c0-1.11-0.02-2.06,0-3c0.03-1.06,0.64-1.68,1.62-1.7c1.02-0.02,1.67,0.62,1.71,1.71
		c0.02,0.49,0.01,0.98,0.01,1.47c0,0.45,0,0.91,0,1.52c0.89,0,1.72,0,2.56,0c0.33,0,0.66-0.02,0.98,0.01
		c0.84,0.06,1.75,0.87,1.76,1.55c0.01,0.68-0.89,1.54-1.73,1.57c-1.14,0.04-2.28,0.01-3.57,0.01c0,0.99,0.01,1.92,0,2.85
		c-0.02,1.19-0.63,1.86-1.67,1.86c-1.04,0-1.66-0.69-1.67-1.86c-0.01-0.85-0.01-1.7-0.02-2.55c0-0.06-0.04-0.12-0.11-0.31
		c-0.99,0-2.02,0-3.06,0c-1.19-0.01-1.95-0.64-1.93-1.6c0.02-0.93,0.74-1.52,1.89-1.53C88.76,22.02,89.8,22.03,90.94,22.03z"/>
</g>
</svg>
