<?xml version="1.0" encoding="utf-8"?>
<!-- Generator: Adobe Illustrator 23.0.1, SVG Export Plug-In . SVG Version: 6.00 Build 0)  -->
<svg version="1.1" id="Layer_1" xmlns="http://www.w3.org/2000/svg" xmlns:xlink="http://www.w3.org/1999/xlink" x="0px" y="0px"
	 viewBox="0 0 100 100" style="enable-background:new 0 0 100 100;" xml:space="preserve">
<style type="text/css">
	.st0{fill:#372E75;}
</style>
<g>
	<g>
		<path class="st0" d="M100,14.61c-0.82,3.91-3.56,6.65-6.5,9.25C87.77,18.14,82,12.37,76.22,6.59c2.5-3.17,5.22-5.89,9.51-6.59
			c0.89,0,1.78,0,2.67,0c3.86,3.9,7.72,7.79,11.59,11.69C100,12.67,100,13.64,100,14.61z"/>
		<path class="st0" d="M32.52,85.18c-5.95-5.97-11.74-11.76-17.54-17.58c2.14-2.2,4.13-4.31,6.2-6.36
			C26.86,55.6,32.59,50,38.28,44.36c4.41-4.38,8.8-8.78,13.18-13.18c5.08-5.11,10.13-10.25,15.19-15.37
			c0.15-0.15,0.35-0.25,0.71-0.51c5.78,5.76,11.56,11.52,17.38,17.31c-1.62,1.74-3.11,3.43-4.7,5.02c-3.29,3.28-6.66,6.5-9.96,9.77
			C62.71,54.7,55.37,62,48.03,69.31c-4.35,4.33-8.69,8.68-13.01,13.03C34.18,83.2,33.43,84.14,32.52,85.18z"/>
		<path class="st0" d="M12.79,69.86c5.91,5.93,11.49,11.53,17.25,17.31C20,91.53,10.24,95.77,0.48,100
			C0.32,99.86,0.16,99.72,0,99.58C4.21,89.8,8.41,80.03,12.79,69.86z"/>
		<path class="st0" d="M91.26,26.22c-1.56,1.54-2.87,2.84-4.29,4.23c-5.72-5.71-11.5-11.48-17.37-17.34
			c1.37-1.45,2.7-2.87,4.13-4.38C79.62,14.6,85.4,20.37,91.26,26.22z"/>
	</g>
</g>
</svg>
