<?xml version="1.0" encoding="utf-8"?>
<!-- Generator: Adobe Illustrator 23.0.3, SVG Export Plug-In . SVG Version: 6.00 Build 0)  -->
<svg version="1.1" id="Layer_1" xmlns="http://www.w3.org/2000/svg" xmlns:xlink="http://www.w3.org/1999/xlink" x="0px" y="0px"
	 viewBox="0 0 25 25" style="enable-background:new 0 0 25 25;" xml:space="preserve">
<style type="text/css">
	.st0{fill:#372E75;}
</style>
<g>
	<path class="st0" d="M12.5,2L15,9.8l0.1,0.3h0.3h8.2L17,15l-0.3,0.2l0.1,0.3l2.5,7.8l-6.7-4.8l-0.3-0.2l-0.3,0.2l-6.7,4.8l2.5-7.8
		l0.1-0.3L8,15l-6.7-4.8h8.2h0.3L10,9.8L12.5,2 M12.5,0.6l-3,9.1H0l7.7,5.6l-3,9.1l7.7-5.6l7.7,5.6l-3-9.1L25,9.7h-9.5L12.5,0.6
		L12.5,0.6z"/>
</g>
</svg>
