<?xml version="1.0" encoding="utf-8"?>
<!-- Generator: Adobe Illustrator 23.0.1, SVG Export Plug-In . SVG Version: 6.00 Build 0)  -->
<svg version="1.1" id="Layer_1" xmlns="http://www.w3.org/2000/svg" xmlns:xlink="http://www.w3.org/1999/xlink" x="0px" y="0px"
	 viewBox="0 0 100 100" style="enable-background:new 0 0 100 100;" xml:space="preserve">
<style type="text/css">
	path{fill:#372E75;}
	path{font-family:sans-serif;font-weight: 900;}
	path{font-size:15.3756px;}
</style>
<g>
	<path d="M27.99,41.18c-5.57-0.05-10.26-0.43-14.73-2.22c-2.46-0.99-4.9-2.16-7.16-3.63C4.06,34,2.27,32.19,1.09,29.77
		c-1.53-3.14-1.53-6.2,0.12-9.29c0.88-1.66,2.11-2.9,3.43-4.1c2.14-1.95,4.61-3.14,7.16-4.2c6.81-2.84,13.86-3.32,21.01-2.5
		c2.64,0.3,5.29,0.87,7.84,1.67c2.78,0.87,5.53,2.01,7.94,3.87c2.3,1.78,4.42,3.79,5.51,6.82c0.83,2.3,0.75,4.58-0.13,6.81
		c-0.61,1.53-1.5,2.87-2.61,4.05c-2.43,2.58-5.39,4.06-8.46,5.44C37.82,40.62,32.5,40.98,27.99,41.18z"/>
	<path d="M72.55,33.19c3.26,0.43,6.56,0.63,9.77,1.35c3.36,0.76,6.73,1.72,9.72,3.68c1.61,1.05,3.23,2.2,4.57,3.63
		c2.39,2.54,3.91,5.62,3.04,9.48c-0.29,1.28-0.81,2.56-1.5,3.63c-1.24,1.92-2.82,3.51-4.67,4.73c-4.99,3.3-10.43,4.89-16.17,5.39
		c-2.09,0.18-4.19,0.47-6.27,0.3c-5.24-0.43-10.5-1-15.38-3.36c-2.12-1.03-4.17-2.36-6.04-3.87c-1.51-1.23-2.8-2.82-3.64-4.82
		c-1.2-2.88-1.04-5.66,0.29-8.35c0.81-1.65,1.92-3.09,3.31-4.23c2.35-1.93,4.85-3.51,7.65-4.51c4.98-1.79,10.04-2.94,15.3-2.76
		C72.54,33.38,72.55,33.29,72.55,33.19z"/>
	<path d="M45.51,58.25c1.26,1.24,2.3,2.31,3.4,3.3c0.66,0.6,1.41,1.1,2.16,1.57c3.9,2.41,8.1,3.77,12.49,4.57
		c8.17,1.49,16.26,1.27,24.14-1.6c2.82-1.03,5.46-2.75,8.09-4.35c1.32-0.8,2.42-2.03,3.66-3.1c0.47,1.34,0.64,2.77,0.3,4.11
		c-0.36,1.44-0.86,2.94-1.64,4.13c-0.94,1.41-2.14,2.69-3.43,3.73c-4.37,3.54-9.41,5.07-14.69,6c-4.43,0.79-8.85,1-13.26,0.33
		c-4.21-0.64-8.41-1.54-12.27-3.64c-1.82-0.99-3.6-2.18-5.16-3.6c-2.28-2.09-4.04-4.67-4.1-8.18
		C45.18,60.49,45.39,59.47,45.51,58.25z"/>
	<path d="M45.18,40.92c-1.8,2.84-2.79,5.76-2.79,9.04c0,0.52-0.24,0.64-0.6,0.77c-3.31,1.18-6.71,1.81-10.15,2.11
		c-6.02,0.54-11.98,0.04-17.8-1.79c-3.08-0.97-6.03-2.44-8.64-4.52c-1.79-1.44-3.46-3.1-4.44-5.45c-0.92-2.21-1.03-4.41-0.35-6.84
		c1.45,2.18,3.54,3.29,5.46,4.57c1.94,1.3,4.13,2.19,6.28,3.04c7.46,2.97,15.13,3.13,22.88,1.91c1.63-0.26,3.26-0.56,4.85-1.01
		c1.61-0.45,3.17-1.1,4.76-1.66C44.75,41.06,44.87,41.02,45.18,40.92z"/>
	<path d="M42.96,53.59c0.09,0.13,0.11,0.15,0.13,0.18c0.68,1.11,0.37,2.1-0.02,3.28c-0.46,1.4-0.55,2.97-0.64,4.48
		c-0.04,0.65-0.16,0.92-0.72,1.11c-5.43,1.83-10.99,2.39-16.63,2.18c-4.8-0.18-9.52-0.95-13.99-2.97c-2.15-0.97-4.27-2.18-6.15-3.67
		c-1.92-1.51-3.6-3.41-4.44-6.01c-0.66-2.05-0.78-4.06-0.09-5.99c1.2,1.08,2.4,2.17,3.62,3.24c2.32,2.03,5.06,3.09,7.78,4.23
		c6.06,2.54,12.37,2.68,18.71,2.51c3.7-0.1,7.36-0.7,10.92-1.88C41.96,54.11,42.45,53.82,42.96,53.59z"/>
</g>
<path d="M45.51,70.23c1.26,1.24,2.3,2.31,3.4,3.3c0.66,0.6,1.41,1.1,2.16,1.57c3.9,2.41,8.1,3.77,12.49,4.57
	c8.17,1.49,16.26,1.27,24.14-1.6c2.82-1.03,5.46-2.75,8.09-4.35c1.32-0.8,2.42-2.03,3.66-3.1c0.47,1.34,0.64,2.77,0.3,4.11
	c-0.36,1.44-0.86,2.94-1.64,4.13c-0.94,1.41-2.14,2.69-3.43,3.73c-4.37,3.54-9.41,5.07-14.69,6c-4.43,0.79-8.85,1-13.26,0.33
	c-4.21-0.64-8.41-1.54-12.27-3.64c-1.82-0.99-3.6-2.18-5.16-3.6c-2.28-2.09-4.04-4.67-4.1-8.18C45.18,72.48,45.39,71.46,45.51,70.23
	z"/>
<path d="M42.96,65.57c0.09,0.13,0.11,0.15,0.13,0.18c0.68,1.11,0.37,2.1-0.02,3.28c-0.46,1.4-0.55,2.97-0.64,4.48
	c-0.04,0.65-0.16,0.92-0.72,1.11c-5.43,1.83-10.99,2.39-16.63,2.18c-4.8-0.18-9.52-0.95-13.99-2.97c-2.15-0.97-4.27-2.18-6.15-3.67
	c-1.92-1.51-3.6-3.41-4.44-6.01c-0.66-2.05-0.78-4.06-0.09-5.99c1.2,1.08,2.4,2.17,3.62,3.24c2.32,2.03,5.06,3.09,7.78,4.23
	c6.06,2.54,12.37,2.68,18.71,2.51c3.7-0.1,7.36-0.7,10.92-1.88C41.96,66.09,42.45,65.81,42.96,65.57z"/>
</svg>
