<?xml version="1.0" encoding="utf-8"?>
<!-- Generator: Adobe Illustrator 23.0.1, SVG Export Plug-In . SVG Version: 6.00 Build 0)  -->
<svg version="1.1" id="Layer_1" xmlns="http://www.w3.org/2000/svg" xmlns:xlink="http://www.w3.org/1999/xlink" x="0px" y="0px"
	 viewBox="0 0 100 100" style="enable-background:new 0 0 100 100;" xml:space="preserve">
<style type="text/css">
	.st0{fill:#372E75;}
</style>
<g>
	<g>
		<g>
			<path class="st0" d="M14.1,52.66c0,12.9,0,25.81,0,38.71c0,2.48,0.61,3.16,2.91,3.16c17.65,0.01,35.3,0,52.94,0.01
				c2.16,0,3.25-0.9,3.06-3.28c-0.05-0.63,0.04-1.27-0.02-1.9c-0.17-1.75,1.49-2.9,2.86-2.9c1.79,0,2.97,1.06,3.03,2.83
				c0.03,0.88,0.03,1.76,0,2.64c-0.12,2.84-1.64,4.77-3.71,6.3c-1.88,1.39-4.02,1.76-6.29,1.76c-17.02-0.03-34.04-0.04-51.06,0.01
				c-3.52,0.01-6.41-1.33-8.42-4.31c-0.83-1.23-1.32-2.99-1.32-4.51C7.99,68.96,8.01,46.73,8.01,24.51c0-3.13-0.04-6.26,0.02-9.39
				c0.02-1.17,0.22-2.35,0.48-3.5c0.69-3.16,4.76-6.14,8.06-6.17c1.88-0.02,3.77-0.08,5.65,0.02c0.93,0.05,1.43-0.37,1.9-1.09
				c1.9-2.93,4.58-4.34,7.88-4.36c7.63-0.04,15.27-0.04,22.9,0c3.61,0.02,6.45,1.61,8.39,4.93c0.16,0.27,0.62,0.46,0.95,0.47
				c1.82,0.04,3.63,0.01,5.45,0.02c3.55,0.04,6.3,1.57,8.24,4.81c0.66,1.1,0.93,2.22,0.93,3.45c0.02,9.74-0.02,19.48,0.03,29.22
				c0.01,1.99-1.66,3.08-2.99,3.02c-1.56-0.06-2.95-1.12-2.94-3.06c0.06-9.6-0.01-19.2,0.05-28.8c0.01-2.3-0.74-3.2-3-3.25
				c-1.95-0.05-3.9-0.03-5.85,0.01c-0.3,0.01-0.73,0.2-0.87,0.45c-1.96,3.36-4.82,4.93-8.48,4.94c-7.54,0.01-15.07,0-22.61,0.01
				c-3.44,0.01-6.18-1.4-8.13-4.44c-0.46-0.72-0.99-1.05-1.85-1c-1.75,0.09-3.5,0-5.25,0.03c-2.25,0.04-2.87,0.73-2.87,3.12
				C14.09,26.86,14.1,39.76,14.1,52.66z M43.45,5.45c0,0.01,0,0.01,0,0.02c-4.06,0-8.13-0.03-12.19,0.01
				c-1.75,0.02-2.48,0.87-2.48,2.67c0,1.73,0.68,2.5,2.3,2.63c0.33,0.03,0.66,0.04,0.99,0.04c7.63,0,15.27,0.01,22.9-0.01
				c0.62,0,1.26-0.05,1.86-0.23c1.19-0.35,1.8-2.27,1.31-3.46c-0.56-1.36-1.56-1.67-2.79-1.67C51.38,5.46,47.41,5.45,43.45,5.45z"/>
			<path class="st0" d="M47.91,43.25c-5.29,0-10.58,0.02-15.86-0.02c-0.69-0.01-1.45-0.21-2.06-0.55c-1.02-0.57-1.38-1.55-1.19-2.62
				c0.21-1.19,1.04-1.74,2.01-2.07c0.43-0.15,0.91-0.15,1.37-0.15c10.51-0.01,21.02-0.01,31.53,0c0.97,0,1.86,0.17,2.63,0.96
				c1.51,1.53,0.64,3.52-1.02,4.21c-0.5,0.21-1.1,0.23-1.65,0.23C58.42,43.25,53.17,43.25,47.91,43.25z"/>
			<path class="st0" d="M42.75,83.76c-3.56,0-7.13,0.02-10.69-0.02c-0.66-0.01-1.39-0.17-1.98-0.49c-1.08-0.6-1.47-1.58-1.27-2.67
				c0.19-1.05,1.06-1.91,2.19-2.11c0.39-0.07,0.79-0.11,1.18-0.12c7.1-0.01,14.19-0.01,21.29,0c1.75,0,2.57,0.52,3.07,1.91
				c0.45,1.23-0.24,2.83-1.45,3.23c-0.53,0.17-1.1,0.26-1.65,0.26C49.88,83.77,46.31,83.76,42.75,83.76z"/>
			<path class="st0" d="M41.95,56.75c-3.37,0-6.74-0.01-10.1,0c-1.09,0-2.04-0.37-2.67-1.29c-1.02-1.49-0.15-3.56,1.63-3.98
				c0.45-0.11,0.92-0.14,1.38-0.14c6.6-0.01,13.21-0.01,19.81,0c1.16,0,2.21,0.24,2.9,1.42c0.78,1.34,0.3,3.07-1.1,3.64
				c-0.54,0.22-1.15,0.34-1.73,0.34C48.69,56.77,45.32,56.75,41.95,56.75z"/>
			<path class="st0" d="M31.65,29.74c-2.94,0-5.88,0.02-8.82-0.01c-1.6-0.01-2.68-0.95-2.82-2.36c-0.15-1.5,0.62-2.59,2.1-2.93
				c0.32-0.08,0.66-0.11,0.98-0.11c5.78-0.01,11.57-0.01,17.35,0.01c0.42,0,0.87,0.07,1.26,0.23c1.31,0.54,1.93,1.65,1.72,2.93
				c-0.22,1.29-1.31,2.22-2.75,2.23C37.66,29.76,34.66,29.74,31.65,29.74z"/>
			<path class="st0" d="M40.52,70.25c-2.87,0-5.75-0.01-8.62,0.01c-1.12,0.01-2.11-0.36-2.74-1.34c-0.98-1.53-0.07-3.55,1.72-3.94
				c0.45-0.1,0.92-0.13,1.38-0.13c5.55-0.01,11.1-0.01,16.65,0c0.3,0,0.6,0,0.89,0.04c1.62,0.23,2.52,1.31,2.44,2.86
				c-0.08,1.46-1.12,2.48-2.69,2.5C46.53,70.28,43.52,70.25,40.52,70.25C40.52,70.25,40.52,70.25,40.52,70.25z"/>
			<path class="st0" d="M22.82,43.24c-1.67,0-2.82-1.08-2.83-2.67c-0.02-1.63,1.16-2.74,2.87-2.74c1.65,0.01,2.95,1.18,2.96,2.67
				C25.83,42.06,24.53,43.25,22.82,43.24z"/>
			<path class="st0" d="M22.81,56.75c-1.67-0.01-2.81-1.09-2.82-2.68c-0.01-1.62,1.17-2.74,2.89-2.72c1.65,0.01,2.94,1.19,2.94,2.69
				C25.82,55.58,24.52,56.76,22.81,56.75z"/>
			<path class="st0" d="M22.78,70.25c-1.67-0.02-2.8-1.11-2.79-2.71c0-1.62,1.21-2.73,2.91-2.69c1.66,0.03,2.92,1.21,2.92,2.72
				C25.81,69.11,24.49,70.27,22.78,70.25z"/>
			<path class="st0" d="M22.84,83.75c-1.67,0.01-2.83-1.07-2.85-2.65c-0.02-1.63,1.13-2.75,2.85-2.76c1.64-0.01,2.96,1.16,2.98,2.65
				C25.84,82.56,24.55,83.75,22.84,83.75z"/>
		</g>
	</g>
	<g>
		<g>
			<path class="st0" d="M88.51,65.05c-0.24,4.91-2.21,9.44-7.02,13.02c-4.07,3.03-12.21,3.59-16.96,0.62
				c-7.29-4.56-9.48-12.69-6.83-19.75c1.98-5.28,5.76-9.07,12.05-10.2c3.35-0.6,6.78-0.39,9.73,1.22
				C85.47,53.23,88.36,58.22,88.51,65.05z M85.91,64.64c-0.12-5.43-2.49-9.43-7.47-12.22c-2.79-1.56-6.06-1.8-9.25-0.89
				c-5.27,1.51-8.25,4.98-9.52,9.73c-1.53,5.75,0.72,11.46,5.66,14.79c3.44,2.32,7.46,2.6,11.57,1.38
				C82.15,75.87,85.98,70.17,85.91,64.64z"/>
			<path class="st0" d="M77.74,81.8c2.31-1.4,4.51-2.72,6.78-4.1c0.92,1.6,1.8,3.12,2.67,4.65c0.85,1.5,1.68,3.01,2.59,4.64
				c-2.23,1.31-4.4,2.59-6.78,3.99C81.22,87.87,79.51,84.89,77.74,81.8z"/>
			<path class="st0" d="M83.82,92.31c2.27-1.34,4.46-2.64,6.66-3.93c1.09,2.25,0.44,4.57-1.56,5.61
				C87.12,94.92,85.34,94.36,83.82,92.31z"/>
		</g>
	</g>
</g>
</svg>
