<svg xmlns="http://www.w3.org/2000/svg" width="16.112" height="16.112" viewBox="0 0 16.112 16.112"><defs><style>.cls-1{fill:#fff}</style></defs><g id="settings_2_" data-name="settings (2)" transform="translate(0 -.001)"><g id="Group_227" data-name="Group 227" transform="translate(0 .001)"><path id="Path_164" d="M15.287 6.366l-1.131-.192a6.386 6.386 0 0 0-.454-1.1l.666-.932a.992.992 0 0 0-.108-1.282l-1-1a.988.988 0 0 0-.7-.293.978.978 0 0 0-.576.185l-.936.666a6.319 6.319 0 0 0-1.142-.468L9.717.832A.994.994 0 0 0 8.734 0H7.317a.994.994 0 0 0-.983.831l-.2 1.144a6.228 6.228 0 0 0-1.094.461l-.92-.665a.994.994 0 0 0-1.282.108l-1.006 1a1 1 0 0 0-.108 1.282l.676.949a6.237 6.237 0 0 0-.448 1.1L.831 6.4A.994.994 0 0 0 0 7.382V8.8a.994.994 0 0 0 .831.983l1.144.2a6.228 6.228 0 0 0 .461 1.094l-.663.922a.992.992 0 0 0 .108 1.282l1 1a.988.988 0 0 0 .7.293.978.978 0 0 0 .576-.185l.946-.673a6.367 6.367 0 0 0 1.064.438l.188 1.131a.994.994 0 0 0 .983.831h1.42a.994.994 0 0 0 .983-.831l.192-1.131a6.386 6.386 0 0 0 1.1-.454l.932.666a.988.988 0 0 0 .579.185.988.988 0 0 0 .7-.293l1-1a1 1 0 0 0 .108-1.282l-.666-.936a6.34 6.34 0 0 0 .454-1.1l1.131-.188a.994.994 0 0 0 .831-.983v-1.42a.982.982 0 0 0-.815-.983zm-.077 2.4a.087.087 0 0 1-.074.088l-1.414.236a.452.452 0 0 0-.364.333 5.388 5.388 0 0 1-.586 1.41.455.455 0 0 0 .02.495l.831 1.171a.092.092 0 0 1-.01.114l-1 1a.085.085 0 0 1-.064.027.083.083 0 0 1-.05-.017l-1.168-.831a.455.455 0 0 0-.495-.02 5.388 5.388 0 0 1-1.41.586.447.447 0 0 0-.333.364l-.239 1.414a.087.087 0 0 1-.088.074H7.348a.087.087 0 0 1-.088-.074l-.236-1.414a.452.452 0 0 0-.333-.364 5.6 5.6 0 0 1-1.38-.565.466.466 0 0 0-.229-.061.443.443 0 0 0-.263.084l-1.178.838a.1.1 0 0 1-.05.017.09.09 0 0 1-.064-.027l-1-1a.091.091 0 0 1-.01-.114l.828-1.161a.461.461 0 0 0 .02-.5 5.337 5.337 0 0 1-.595-1.407.461.461 0 0 0-.364-.333L.983 8.887A.087.087 0 0 1 .909 8.8V7.382a.087.087 0 0 1 .074-.088l1.4-.236a.455.455 0 0 0 .367-.337 5.383 5.383 0 0 1 .576-1.414.449.449 0 0 0-.024-.491l-.835-1.177a.092.092 0 0 1 .01-.114l1-1a.085.085 0 0 1 .067-.025.083.083 0 0 1 .05.017l1.161.828a.461.461 0 0 0 .5.02 5.337 5.337 0 0 1 1.407-.592.461.461 0 0 0 .332-.373L7.236.98a.087.087 0 0 1 .088-.074h1.417a.087.087 0 0 1 .087.074l.236 1.4a.455.455 0 0 0 .337.367 5.463 5.463 0 0 1 1.444.592.455.455 0 0 0 .495-.02l1.16-.831a.1.1 0 0 1 .05-.017.09.09 0 0 1 .064.027l1 1a.091.091 0 0 1 .01.114L12.8 4.784a.455.455 0 0 0-.02.495 5.388 5.388 0 0 1 .586 1.41.447.447 0 0 0 .364.333l1.414.239a.087.087 0 0 1 .074.088v1.417z" class="cls-1" data-name="Path 164" transform="translate(0 -.001)"/><path id="Path_165" d="M139.577 136a3.477 3.477 0 1 0 3.477 3.477 3.479 3.479 0 0 0-3.477-3.477zm0 6.045a2.568 2.568 0 1 1 2.568-2.568 2.57 2.57 0 0 1-2.568 2.569z" class="cls-1" data-name="Path 165" transform="translate(-131.519 -131.424)"/></g></g></svg>