<svg xmlns="http://www.w3.org/2000/svg" width="53.964" height="53.964" viewBox="0 0 53.964 53.964">
    <g fill="#372E75">
        <path data-name="Path 83" d="M26.982 15.667a1.743 1.743 0 0 1 1.741 1.741h1.741a3.477 3.477 0 0 0-2.611-3.358v-1.865h-1.741v1.864a3.474 3.474 0 0 0 .87 6.839 1.741 1.741 0 1 1-1.741 1.741H23.5a3.477 3.477 0 0 0 2.611 3.358v1.864h1.741v-1.866a3.474 3.474 0 0 0-.87-6.839 1.741 1.741 0 0 1 0-3.482zm0 0"/>
        <path data-name="Path 84" d="M53.964 22.63v-6.963h-5.223V0h-35.2L5.222 9.24v6.427H0v6.963h5.222v2.952l-3.329-1.211H0V43.52h7.6l.456-1.461 3.678 2.207 2.439.635a2.7 2.7 0 0 0 2.371 3.831 2.68 2.68 0 0 0 3.609 2.455 2.688 2.688 0 0 0 4.186 1.368l.644.644a2.592 2.592 0 0 0 1.846.765h.15a2.607 2.607 0 0 0 2.445-1.723 2.584 2.584 0 0 0 4.422-1.091 2.556 2.556 0 0 0 3.482-1.741A2.574 2.574 0 0 0 40.908 47v-.29a2.62 2.62 0 0 0-.523-1.567l-.288-.384 3.232-2.586.422 1.345h10.213V24.371h-1.741l-3.482.985V22.63zM13.926 2.172V8.7h-5.88zm-6.963 8.273h8.7v-8.7H47v13.922h-5.222V12.3L31.5 19.149 41.778 26v-3.37H47v3.219l-8.06 2.281.754 2.412-10.852.723a6.064 6.064 0 0 0-2.32.629l-1.863.931A6.086 6.086 0 0 0 22 32.2h-6.13l-4.094-2.047.615-1.968-5.43-1.975v-3.58h5.222V26l10.273-6.849L12.185 12.3v3.368H6.963zM1.74 20.889v-3.481h12.186v-1.855l5.394 3.6-5.394 3.6v-1.864zm4.583 20.89H1.74V26.167l8.5 3.089zm6.2.928L8.594 40.35l2.659-8.509 4.208 2.1H22a4.35 4.35 0 0 1 2.306.661l4.733 2.958a1.168 1.168 0 0 1 .551 1v.3a1.174 1.174 0 0 1-1.778 1.007l-3.266-1.957a3.455 3.455 0 0 0-4.14.51L15.4 43.427zm15.33 8.647a.872.872 0 0 1-.87.87h-.15a.877.877 0 0 1-.615-.255l-.721-.721a.866.866 0 0 1-.255-.616v-.149a.872.872 0 0 1 .87-.87h.15a.877.877 0 0 1 .615.255l.721.721a.866.866 0 0 1 .255.616zm4.352-.87a.87.87 0 0 1-1.567.522L28.9 48.684a.874.874 0 0 1-.174-.522v-.29a.87.87 0 0 1 1.567-.522l1.741 2.321a.874.874 0 0 1 .174.522zm3.482-1.741a.87.87 0 0 1-1.567.522l-1.741-2.321a.874.874 0 0 1-.174-.522v-.29a.87.87 0 0 1 1.567-.522l1.741 2.321a.874.874 0 0 1 .174.522zM39.167 47a.87.87 0 0 1-1.567.522L35.86 45.2a.874.874 0 0 1-.174-.522v-.29a.87.87 0 0 1 1.567-.522l1.741 2.321a.874.874 0 0 1 .174.522zm-.115-3.634l-.408-.544a2.6 2.6 0 0 0-4.6.9 2.556 2.556 0 0 0-3.482 1.741 2.574 2.574 0 0 0-3.578 2.408v.113a2.6 2.6 0 0 0-.721-.113h-.15a2.615 2.615 0 0 0-2.613 2.612v.149a2.581 2.581 0 0 0 .032.329l-.107.107a.976.976 0 0 1-1.666-.69.969.969 0 0 1 .286-.69l3.811-3.811-1.231-1.231-4.682 4.682a.976.976 0 0 1-1.666-.69.969.969 0 0 1 .286-.69l4.682-4.682-1.231-1.231-4.682 4.682a.976.976 0 0 1-1.666-.69.969.969 0 0 1 .286-.69l5.684-5.684a1.679 1.679 0 0 1 2.014-.253l3.268 1.961a2.916 2.916 0 0 0 4.416-2.5v-.3a2.9 2.9 0 0 0-1.37-2.472l-3.526-2.2.864-.432A4.318 4.318 0 0 1 28.957 33l11.271-.751 2.543 8.14zm13.171-17.219v15.632h-7.194l-3.9-12.464zm-12.185-5.258v1.855l-5.394-3.6 5.394-3.6v1.855h12.185v3.482zm0 0"/>
        <path data-name="Path 85" d="M17.407 3.482H45.26v1.741H17.407zm0 0"/>
        <path data-name="Path 86" d="M17.407 6.963H45.26v1.741H17.407zm0 0"/>
    </g>
</svg>
