<?xml version="1.0" encoding="utf-8"?>
<!-- Generator: Adobe Illustrator 23.0.1, SVG Export Plug-In . SVG Version: 6.00 Build 0)  -->
<svg version="1.1" id="Layer_1" xmlns="http://www.w3.org/2000/svg" xmlns:xlink="http://www.w3.org/1999/xlink" x="0px" y="0px"
	 viewBox="0 0 100 100" style="enable-background:new 0 0 100 100;" xml:space="preserve">
<style type="text/css">
	path{fill:#372E75;}
	path{font-family:sans-serif;font-weight: 900;}
	path{font-size:15.3756px;}
</style>
<g>
	<path d="M51.18,100.5c-6.88-0.07-12.43-0.94-17.83-2.88c-2.82-1.01-5.53-2.24-8.14-3.74c-3.04-1.75-5.92-3.73-8.48-6.18
		c-1.44-1.38-2.9-2.75-4.2-4.27c-1.5-1.75-2.82-3.66-4.24-5.49c-1.8-2.32-2.93-5.02-4.14-7.68C0.6,62.52-0.34,54.33,0.3,45.88
		c0.36-4.7,1.32-9.29,3.12-13.62c1.2-2.87,2.65-5.65,4.21-8.33c1.15-1.97,2.57-3.81,4.03-5.55c2.48-2.95,5.24-5.62,8.31-7.89
		c7.89-5.84,16.68-9.15,26.36-9.85C53,0.16,59.52,0.94,65.88,3.07c4.38,1.47,8.5,3.49,12.34,6.15c3.1,2.14,6,4.52,8.49,7.41
		c1.43,1.66,2.76,3.42,4.16,5.11c1.84,2.21,2.99,4.85,4.32,7.38c2.34,4.48,3.38,9.34,4.28,14.29c0.77,4.24,0.84,8.48,0.26,12.69
		c-0.7,5.08-1.8,10.11-3.99,14.76c-1.17,2.48-2.49,4.92-3.99,7.2c-2.4,3.66-5.21,7.01-8.53,9.79c-2.51,2.11-5.17,4.09-7.96,5.77
		c-5.59,3.38-11.67,5.47-18.1,6.32C54.8,100.26,52.4,100.39,51.18,100.5z M48.75,8.52c-1.42,0.18-4.26,0.37-7.04,0.91
		c-8.4,1.62-15.63,5.69-21.75,11.85c-1.42,1.43-2.8,2.97-3.91,4.67c-1.62,2.47-3.3,4.98-4.41,7.72C6.8,45.5,6.81,57.31,12.46,68.93
		c1.18,2.43,2.52,4.73,4.19,6.87c2.53,3.24,5.36,6.09,8.64,8.49c2.51,1.84,5.16,3.36,7.98,4.6c6.2,2.72,12.64,3.83,19.35,3.43
		c8.21-0.49,15.67-3.26,22.39-8.16c3.11-2.27,5.88-4.98,8.22-8.09c1.57-2.09,2.96-4.35,4.23-6.65c2.04-3.7,3.16-7.8,3.93-11.94
		c0.95-5.07,0.93-10.19-0.31-15.27c-1-4.14-2.05-8.24-4.36-11.84c-1.37-2.14-2.75-4.28-4.26-6.31c-2.34-3.14-5.24-5.66-8.4-7.88
		c-2.59-1.82-5.33-3.3-8.23-4.51C60.8,9.58,55.57,8.64,48.75,8.52z"/>
	<path d="M46.04,36.2c0-4.66-0.01-9.33,0.01-13.99c0.01-1.82,0.78-3.22,2.43-3.89c1.56-0.63,3.08-0.42,4.33,0.84
		c0.88,0.89,1.37,1.95,1.37,3.31c-0.04,8.36-0.01,16.72-0.03,25.08c0,0.65,0.19,1.03,0.7,1.39c3.71,2.64,7.39,5.33,11.1,7.98
		c1.97,1.41,4.01,2.73,5.94,4.2c2.41,1.83,2.06,5.61-0.61,6.89c-1.23,0.58-2.5,0.59-3.7-0.12c-0.68-0.4-1.34-0.86-1.99-1.32
		c-2.4-1.73-4.79-3.47-7.19-5.2c-2.73-1.96-5.48-3.92-8.22-5.87c-0.72-0.51-1.44-1.01-2.18-1.5c-1.39-0.93-1.96-2.28-1.95-3.98
		C46.05,45.41,46.04,40.81,46.04,36.2z"/>
</g>
</svg>
