<svg xmlns="http://www.w3.org/2000/svg" id="undraw_code_typing_7jnv" width="379.86" height="288.489" viewBox="0 0 379.86 288.489">
    <defs>
        <style>
            .cls-2{opacity:.1}.cls-3{fill:#372e75}.cls-4{fill:#372E75}.cls-7{fill:#ffb9b9}.cls-8{fill:#d0cde1}.cls-9{fill:#2f2e41}.cls-10{fill:#a0616a}
        </style>
    </defs>
    <path id="Path_219" d="M500.7 151.854C484.005 86.2 426.317 38.812 358.6 36.911c-35.8-1-73.468 10.868-100.9 52.415-49.021 74.274 3.02 125.593 39.3 149.981a227.023 227.023 0 0 1 46.925 42.176c24.507 29.082 71.653 65.219 127.8 8.6 40.698-41.044 40.097-94.498 28.975-138.229z" data-name="Path 219" transform="translate(-174.264 -36.853)" style="fill:#f2f2f2"/>
    <path id="Path_220" d="M719.6 360.234l34.355-34.25-34.355-34.251 10.474-10.439 44.826 44.689-44.829 44.689-10.471-10.438z" class="cls-2" data-name="Path 220" transform="translate(-468.362 -183.084)"/>
    <path id="Path_221" d="M494.6 427.112h13.965v-13.965H494.6zm70.106-13.965h-13.965v13.965h13.965zm-42.036 13.965h13.965v-13.965h-13.964z" class="cls-2" data-name="Path 221" transform="translate(-341.469 -281.769)"/>
    <path id="Path_222" d="M281.3 359.234l-34.39-34.25 34.355-34.25-10.474-10.439L226 324.983l44.829 44.689z" class="cls-2" data-name="Path 222" transform="translate(-147.095 -182.433)"/>
    <path id="Path_223" d="M435.86 785.943c0 5.785-85.035 25.836-189.93 25.836S56 791.728 56 785.943s85.035 4.888 189.93 4.888 189.93-10.673 189.93-4.888z" class="cls-3" data-name="Path 223" transform="translate(-56 -523.29)"/>
    <path id="Path_224" d="M435.86 785.943c0 5.785-85.035 25.836-189.93 25.836S56 791.728 56 785.943s85.035 4.888 189.93 4.888 189.93-10.673 189.93-4.888z" class="cls-2" data-name="Path 224" transform="translate(-56 -523.29)"/>
    <ellipse id="Ellipse_91" cx="189.93" cy="10.474" class="cls-3" data-name="Ellipse 91" rx="189.93" ry="10.474" transform="translate(0 252.179)"/>
    <path id="Path_225" d="M688.7 644.806c0 22.35 14.021 40.436 31.349 40.436" class="cls-3" data-name="Path 225" transform="translate(-467.799 -432.548)"/>
    <path id="Path_226" d="M778.487 684.4c0-22.6 15.647-40.89 34.984-40.89" class="cls-4" data-name="Path 226" transform="translate(-526.241 -431.701)"/>
    <path id="Path_227" d="M721.229 650.609c0 21.23 8.941 38.41 19.991 38.41" class="cls-4" data-name="Path 227" transform="translate(-488.974 -436.325)"/>
    <path id="Path_228" d="M778.487 663.221c0-28.88 18.085-52.249 40.436-52.249" class="cls-3" data-name="Path 228" transform="translate(-526.241 -410.526)"/>
    <path id="Path_229" d="M759.6 756.962s4.446-.137 5.786-1.091 6.839-2.093 7.171-.563 6.681 7.61 1.662 7.651-11.663-.782-13-1.6-1.619-4.397-1.619-4.397z" data-name="Path 229" transform="translate(-513.946 -503.982)" style="fill:#a8a8a8"/>
    <path id="Path_230" d="M774.305 766.893c-5.019.04-11.663-.782-13-1.6-1.018-.62-1.424-2.846-1.56-3.873l-.148.006s.282 3.586 1.619 4.4 7.981 1.637 13 1.6c1.449-.012 1.949-.527 1.922-1.291-.201.465-.754.75-1.833.758z" data-name="Path 230" transform="translate(-513.946 -508.45)" style="opacity:.2"/>
    <path id="Path_231" d="M899.872 408.84s-10.75-8.161-11.565-5.17 7.887 9.791 7.887 9.791z" class="cls-7" data-name="Path 231" transform="translate(-597.684 -275.172)"/>
    <path id="Path_232" d="M899.872 408.84s-10.75-8.161-11.565-5.17 7.887 9.791 7.887 9.791z" class="cls-2" data-name="Path 232" transform="translate(-597.684 -275.172)"/>
    <path id="Path_233" d="M948.358 345.695S935.575 368.541 935.3 371.8s-.272 3.536-1.36 3.264-16.046-1.9-17.406-1.36-4.08-3.264-4.08-3.264-5.167 5.168-4.08 6.255 4.352 1.632 4.9 2.992 1.36 2.72 3.808 2.448 19.038 4.352 21.214 3.536 2.72-2.176 3.808-2.176 3.264-1.088 3.264-1.36 7.615-14.686 7.615-14.686 8.974-19.578-4.625-21.754z" class="cls-8" data-name="Path 233" transform="translate(-610.684 -237.867)"/>
    <path id="Path_234" d="M948.358 345.695S935.575 368.541 935.3 371.8s-.272 3.536-1.36 3.264-16.046-1.9-17.406-1.36-4.08-3.264-4.08-3.264-5.167 5.168-4.08 6.255 4.352 1.632 4.9 2.992 1.36 2.72 3.808 2.448 19.038 4.352 21.214 3.536 2.72-2.176 3.808-2.176 3.264-1.088 3.264-1.36 7.615-14.686 7.615-14.686 8.974-19.578-4.625-21.754z" class="cls-2" data-name="Path 234" transform="translate(-610.684 -237.867)"/>
    <path id="Path_235" d="M957.728 294.322a22.62 22.62 0 0 0 .07 4.336c.413 3.125 1.852 6.382.493 9.3-.493 1.059-1.329 1.981-1.784 3.053-.963 2.268-.09 4.784-.221 7.2a9.893 9.893 0 0 1-5.17 7.832 17.958 17.958 0 0 0 13.3-5.861c3.243-3.473 5.05-7.78 6.4-12.09a26.28 26.28 0 0 0 1.328-6.257 9.02 9.02 0 0 0-.422-3.626 13.816 13.816 0 0 0-1.865-3.185 12.562 12.562 0 0 0-2.845-3.156 11.427 11.427 0 0 0-6.279-1.945c-2.398.182-2.904 2.732-3.005 4.399z" class="cls-9" data-name="Path 235" transform="translate(-638.599 -201.555)"/>
    <path id="Path_236" d="M992.792 323.958s2.992 10.607.544 13.6 14.687-1.36 14.687-1.36-8.431-8.431-4.352-13.871z" class="cls-7" data-name="Path 236" transform="translate(-665.724 -222.657)"/>
    <path id="Path_237" d="M992.792 323.958s2.992 10.607.544 13.6 14.687-1.36 14.687-1.36-8.431-8.431-4.352-13.871z" class="cls-2" data-name="Path 237" transform="translate(-665.724 -222.657)"/>
    <path id="Path_238" d="M719.6 341.234l34.355-34.25-34.355-34.251 10.474-10.439 44.826 44.689-44.829 44.689-10.471-10.438z" class="cls-4" data-name="Path 238" transform="translate(-468.362 -170.718)"/>
    <path id="Path_239" d="M908.748 694.714v7.886l4.08 4.9 3.536-1.632-1.088-11.423z" class="cls-7" data-name="Path 239" transform="translate(-591.471 -451.987)"/>
    <path id="Path_240" d="M946.453 749.253s-1.088-3.808-2.992-1.088-3.808 8.7-4.9 8.975-8.7 8.7-1.088 8.7 10.063-3.536 10.063-3.536 7.615-2.992 7.615-3.536-1.088-10.607-1.632-10.607-.816 1.9-2.176 1.9a35.262 35.262 0 0 1-4.89-.808z" class="cls-9" data-name="Path 240" transform="translate(-627.545 -499.183)"/>
    <path id="Path_241" d="M960.434 698.1l-.272 7.343 6.527 2.719v-10.604z" class="cls-7" data-name="Path 241" transform="translate(-624.935 -454.015)"/>
    <path id="Path_242" d="M1015.791 751.211s-3.536-3.808-5.439-2.992a18.8 18.8 0 0 0-2.72 1.36s-1.088 3.536-1.632 6.527-.816 4.352-1.36 5.439-1.088 5.167 4.352 5.711 7.071-2.448 7.071-2.448l1.36-7.071s-.543-6.526-1.632-6.526z" class="cls-9" data-name="Path 242" transform="translate(-673.222 -499.781)"/>
    <path id="Path_243" d="M959.2 496.917s-7.887 17.678-6.8 33.725c0 0-2.72 6.255-1.088 16.046s3.808 29.373 3.808 29.373 7.343.816 7.887-.544c0 0 .544-13.6 1.088-14.143s-.272-13.055-1.088-15.5 7.615-26.653 7.615-26.653l-2.176-30.189z" class="cls-9" data-name="Path 243" transform="translate(-638.387 -331.158)"/>
    <path id="Path_244" d="M959.2 496.917s-7.887 17.678-6.8 33.725c0 0-2.72 6.255-1.088 16.046s3.808 29.373 3.808 29.373 7.343.816 7.887-.544c0 0 .544-13.6 1.088-14.143s-.272-13.055-1.088-15.5 7.615-26.653 7.615-26.653l-2.176-30.189z" class="cls-2" data-name="Path 244" transform="translate(-638.387 -331.158)"/>
    <path id="Path_245" d="M968.643 491.772l5.168 11.151s2.448 25.293 3.808 28.557c0 0 .544 9.247 2.992 12.239s4.352 29.373 4.352 29.373 6.8 1.9 7.343 0 2.176-14.958 2.176-14.958.544-11.151-2.448-18.494 3.536-33.725 3.536-33.725 6.8-12.783-2.992-23.118z" class="cls-9" data-name="Path 245" transform="translate(-650.006 -327.102)"/>
    <circle id="Ellipse_92" cx="11.151" cy="11.151" r="11.151" class="cls-7" data-name="Ellipse 92" transform="translate(321.9 82.263)"/>
    <path id="Path_246" d="M985.774 352.706s-11.695 0-13.327 1.36a2.17 2.17 0 0 1-2.992 0s-4.079.272-5.167 3.536-4.352 7.615-4.352 7.615-4.9 3.536-2.176 12.783.544 24.206.544 24.206-2.176 3.264 0 4.624 2.992 1.9 2.72 2.992 24.75-8.975 24.75-10.879-.544-3.536 0-4.352a3.881 3.881 0 0 0 .544-3.536c-.544-1.36.544-1.632.272-2.992s1.36-11.423 2.448-15.774.817-19.311-3.264-19.583z" class="cls-8" data-name="Path 246" transform="translate(-642.388 -242.43)"/>
    <path id="Path_247" d="M899.872 418.188s-10.75-8.161-11.565-5.17 7.887 9.791 7.887 9.791z" class="cls-7" data-name="Path 247" transform="translate(-597.684 -281.256)"/>
    <path id="Path_248" d="M948.36 356.6s-12.783 22.847-13.06 26.11-.272 3.536-1.36 3.264-16.047-1.9-17.406-1.36-4.08-3.264-4.08-3.264-5.167 5.168-4.079 6.255 4.352 1.632 4.9 2.992 1.36 2.72 3.807 2.448 19.038 4.352 21.214 3.536 2.72-2.176 3.808-2.176 3.264-1.088 3.264-1.36 7.615-14.687 7.615-14.687 8.976-19.581-4.623-21.758z" class="cls-8" data-name="Path 248" transform="translate(-610.686 -244.966)"/>
    <path id="Path_249" d="M977.839 279.454a27.039 27.039 0 0 0-1.01-3.183 6.608 6.608 0 0 1 .752-5.131c1.6-2.583 4.74-3.728 6.93-5.834a3.936 3.936 0 0 0 1.613 2.679 19.35 19.35 0 0 1 2.463 2.067 8.1 8.1 0 0 1 1.435 2.906 10.213 10.213 0 0 1 .567 3.812 4.779 4.779 0 0 1-1.652 3.387c-.816.645-1.956 1.013-2.35 1.975a3.368 3.368 0 0 0-.131 1.491 30.1 30.1 0 0 1-.343 8.952 10.287 10.287 0 0 1-5.136 7.021 20.612 20.612 0 0 0 6.651-.25 6.978 6.978 0 0 0 4.964-4.076 21.579 21.579 0 0 1 .923-3.158c1.319-2.45 4.963-2.562 6.752-4.693a7.21 7.21 0 0 0 1.319-3.036c1.511-6.377.449-13.148-1.851-19.284a13.8 13.8 0 0 0-3.481-5.731 14.354 14.354 0 0 0-5.123-2.557 29.885 29.885 0 0 0-8.219-1.672 10.437 10.437 0 0 0-3.608.421 10.723 10.723 0 0 0-3.174 1.808c-4.392 3.417-7.382 8.879-6.985 14.43a20.209 20.209 0 0 0 3.491 9.365c.639.989 2.15 3.1 3.554 2.476 1.273-.563 1.816-2.993 1.649-4.185z" class="cls-9" data-name="Path 249" transform="translate(-650.309 -178.916)"/>
    <path id="Path_250" d="M494.6 408.112h13.965v-13.965H494.6zm70.106-13.965h-13.965v13.965h13.965zm-42.036 13.965h13.965v-13.965h-13.964z" class="cls-4" data-name="Path 250" transform="translate(-341.469 -269.403)"/>
    <ellipse id="Ellipse_93" cx="11.751" cy="9.166" class="cls-9" data-name="Ellipse 93" rx="11.751" ry="9.166" transform="translate(60.243 64.795)"/>
    <path id="Path_251" d="M266.176 427.478s10.576.705 12.456-.705 9.871 1.88 10.576 3.76-11.281 2.115-13.161 2.115-10.811 2.82-10.811 2.82z" class="cls-10" data-name="Path 251" transform="translate(-192.184 -290.415)"/>
    <path id="Path_252" d="M199.772 741.1s-4.929 12.429-2.357 13.929 29.572.429 29.572.429 4.5-2.786-.643-4.714c0 0-4.286-.214-7.072-1.929a40.979 40.979 0 0 1-6-4.929s-.214-4.714-1.929-3.643a4.4 4.4 0 0 0-1.929 3z" class="cls-9" data-name="Path 252" transform="translate(-147.559 -494.56)"/>
    <path id="Path_253" d="M199.772 741.1s-4.929 12.429-2.357 13.929 29.572.429 29.572.429 4.5-2.786-.643-4.714c0 0-4.286-.214-7.072-1.929a40.979 40.979 0 0 1-6-4.929s-.214-4.714-1.929-3.643a4.4 4.4 0 0 0-1.929 3z" class="cls-2" data-name="Path 253" transform="translate(-147.559 -494.56)"/>
    <path id="Path_254" d="M281.3 340.234l-34.39-34.25 34.355-34.25-10.474-10.439L226 305.983l44.829 44.689z" class="cls-4" data-name="Path 254" transform="translate(-147.095 -170.067)"/>
    <path id="Path_255" d="M177.447 751.806s-5.405 13.631-2.585 15.276 32.432.47 32.432.47 4.935-3.055-.705-5.17c0 0-4.7-.235-7.756-2.115a44.937 44.937 0 0 1-6.58-5.405s-.235-5.17-2.115-4a4.83 4.83 0 0 0-2.115 3.29z" class="cls-9" data-name="Path 255" transform="translate(-132.832 -501.465)"/>
    <path id="Path_256" d="M227.29 495.214L224 524.826s-1.175 14.1-4.7 17.156c0 0 0 4.465-1.175 5.875l-1.645 18.566s2.35 6.815 2.115 7.991.94 4.935.705 5.405-11.281 0-11.281 0l2.35-37.837 7.286-52.644z" class="cls-9" data-name="Path 256" transform="translate(-154.943 -331.36)"/>
    <path id="Path_257" d="M227.29 495.214L224 524.826s-1.175 14.1-4.7 17.156c0 0 0 4.465-1.175 5.875l-1.645 18.566s2.35 6.815 2.115 7.991.94 4.935.705 5.405-11.281 0-11.281 0l2.35-37.837 7.286-52.644z" class="cls-2" data-name="Path 257" transform="translate(-154.943 -331.36)"/>
    <path id="Path_258" d="M198.641 492.084s-2.585 24.207-3.76 29.377a66.84 66.84 0 0 0-1.41 10.341s-.235 7.521-2.35 9.636a6.352 6.352 0 0 0-1.88 4.7s-2.115 23.737-.94 26.557 2.35 5.17 1.175 7.05-14.1 1.88-14.1.47 0-2.585-.705-3.29 0-5.17 0-5.17-2.82-20.917-.235-27.027 3.76-22.8 3.76-22.8-1.88-19.036-4.23-22.092.47-13.866.47-13.866z" class="cls-9" data-name="Path 258" transform="translate(-132.17 -329.169)"/>
    <path id="Path_259" d="M227.436 275.563a3.159 3.159 0 0 0 1.523 1.3 45.532 45.532 0 0 1 9.184 7.381 10.782 10.782 0 0 1 .428-7.292 3.759 3.759 0 0 0 .542-2.454 3.056 3.056 0 0 0-1.192-1.426 36.958 36.958 0 0 0-3.634-2.48c-.88-.526-2.689-1.928-3.7-1.775a9.38 9.38 0 0 1-.678 3.859c-.141.3-2.369 3.124-2.473 2.887z" class="cls-10" data-name="Path 259" transform="translate(-167.582 -187.821)"/>
    <circle id="Ellipse_94" cx="9.636" cy="9.636" r="9.636" class="cls-10" data-name="Ellipse 94" transform="translate(62.241 71.493)"/>
    <path id="Path_260" d="M199.309 302.528s1.645-8.226-3.055-11.046-10.106-6.11-10.106-6.11-1.645-.235-2.35 3.29c0 0-13.4 2.585-14.806 15.276s.94 31.257.94 31.257-2.115 16.216-4.7 24.912c0 0-2.115 1.88 7.286-.94s25.852 7.991 25.852 7.991 1.645-1.645 1.645-2.82 1.88-7.991 1.88-7.991 1.645-28.907 2.35-32.2-2.821-21.147-4.936-21.619z" class="cls-4" data-name="Path 260" transform="translate(-126.962 -198.603)"/>
    <path id="Path_261" d="M235.73 235.67a4.018 4.018 0 0 1 1.89-.5 3.6 3.6 0 0 0 1.869-.557c.91-.7.977-2.049 1.643-2.984.964-1.353 2.887-1.516 4.547-1.448a5.038 5.038 0 0 0 2.964-.447 4.45 4.45 0 0 0 1.571-2.626c.35-1.183.576-2.629-.291-3.507-.6-.609-1.553-.73-2.222-1.265a5.872 5.872 0 0 1-1.356-2.262 6.113 6.113 0 0 0-1.968-2.465 7.526 7.526 0 0 0-4.411-1.057 34.529 34.529 0 0 1-4.6.03 14.071 14.071 0 0 0-3.741-.386 5.349 5.349 0 0 0-3.682 2.833 15.828 15.828 0 0 0-1.443 4.571l-.885 4.273a11.276 11.276 0 0 0-.338 4.022c.439 2.771 2.89 4.973 3.059 7.774a4.772 4.772 0 0 1 2.913-3.464.911.911 0 0 1 .593-.072c.243.078.386.321.539.525.4.535 1.667 1.347 2.384.968.635-.342.159-1.409.965-1.956z" class="cls-9" data-name="Path 261" transform="translate(-166.125 -153.549)"/>
    <path id="Path_262" d="M185.48 393.271s-1.645 10.341 5.17 9.4c0 0 3.525-.47 4 0s17.861-2.585 20.211-5.17c0 0 2.82-.94 4.23.47s15.511 2.82 11.281-1.41-10.811-5.17-10.811-5.17l-8.931.47s-4.7 1.41-7.521 0-10.811-.94-10.811-.94z" class="cls-10" data-name="Path 262" transform="translate(-140.16 -267.254)"/>
    <path id="Path_263" d="M193.688 304.226s-10.576 1.175-10.576 16.451v19.506s5.875-2.585 7.05-2.35 5.875-3.055 5.875-3.055 5.405-12.691 4.935-16.216-.234-13.862-7.284-14.336z" class="cls-4" data-name="Path 263" transform="translate(-138.732 -210.877)"/>
    <ellipse id="Ellipse_95" cx="9.048" cy="4.7" class="cls-9" data-name="Ellipse 95" rx="9.048" ry="4.7" transform="translate(62.828 70.435)"/>
    <ellipse id="Ellipse_96" cx="3.173" cy="7.873" class="cls-9" data-name="Ellipse 96" rx="3.173" ry="7.873" transform="translate(60.243 68.085)"/>
</svg>
