<?xml version="1.0" encoding="utf-8"?>
<!-- Generator: Adobe Illustrator 23.0.1, SVG Export Plug-In . SVG Version: 6.00 Build 0)  -->
<svg version="1.1" id="Layer_1" xmlns="http://www.w3.org/2000/svg" xmlns:xlink="http://www.w3.org/1999/xlink" x="0px" y="0px"
	 viewBox="0 0 576 1083.89" style="enable-background:new 0 0 576 1083.89;" xml:space="preserve">
<style type="text/css">
	.st0{fill:#4492DA;}
</style>
<g>
	<path class="st0" d="M222.22,326.67c0.17,2.69,0.33,4.12,0.33,5.55c0.02,22.16,0.04,44.33,0,66.49
		c-0.02,14.56-6.51,20.98-21.06,20.99c-44.83,0-89.65,0.01-134.48,0c-14.13,0-20.7-6.62-20.7-20.85
		c-0.01-59.66-0.01-119.32,0-178.98c0-13.86,6.67-20.55,20.48-20.55c45.16-0.01,90.32-0.01,135.48,0c13.51,0,20.17,6.64,20.27,20.27
		c0.07,9.33,0.32,18.68-0.14,27.99c-0.17,3.56-1.59,7.3-3.32,10.48c-2.29,4.19-5.45,7.91-9.15,13.1c-0.17-2.99-0.34-4.66-0.35-6.33
		c-0.02-12,0.01-24-0.02-36c-0.03-11.46-5.06-16.58-16.36-16.58c-39.16-0.02-78.32-0.02-117.48,0c-11.33,0.01-16.46,5.17-16.47,16.5
		c-0.01,53.66-0.01,107.32,0,160.98c0,12.07,4.94,17.03,16.95,17.03c38.83,0.01,77.66,0.01,116.48,0c11.97,0,16.87-4.97,16.88-17.06
		c0.01-12.83,0.19-25.67-0.09-38.49c-0.11-4.78,1.06-8.7,4.01-12.38C216.36,335.25,218.86,331.39,222.22,326.67z"/>
	<path class="st0" d="M234.25,247.3c8.26,5.79,15.88,11.13,23.97,16.8c-24.5,34.97-48.89,69.78-73.54,104.97
		c-7.97-5.57-15.81-11.03-24.02-16.76C185.17,317.33,209.58,282.51,234.25,247.3z M235.44,266.02c-0.69-0.49-1.39-0.97-2.08-1.46
		c-18.86,26.91-37.72,53.82-56.57,80.73c0.7,0.49,1.39,0.97,2.09,1.46C197.73,319.84,216.59,292.93,235.44,266.02z M242.72,271.17
		c-0.71-0.44-1.42-0.89-2.13-1.33c-18.76,26.81-37.52,53.63-56.28,80.44c0.67,0.47,1.34,0.93,2.01,1.4
		C205.12,324.84,223.92,298,242.72,271.17z"/>
	<path class="st0" d="M77.27,253.01c0-3.44,0-6.39,0-9.68c38.1,0,76.07,0,114.27,0c0,3.25,0,6.32,0,9.68
		C153.44,253.01,115.59,253.01,77.27,253.01z"/>
	<path class="st0" d="M77.34,280.82c0-3.51,0-6.46,0-9.67c38.12,0,76.01,0,114.19,0c0,3.27,0,6.33,0,9.67
		C153.42,280.82,115.53,280.82,77.34,280.82z"/>
	<path class="st0" d="M190.4,298.91c-2.25,3.26-3.88,5.95-5.88,8.33c-0.81,0.96-2.44,1.71-3.7,1.71
		c-33.16,0.09-66.33,0.07-99.49,0.07c-1.16,0-2.31,0-3.84,0c0-3.43,0-6.63,0-10.12C114.91,298.91,152.19,298.91,190.4,298.91z"/>
	<path class="st0" d="M100.12,353.93c9.06,0.04,16.54,7.42,16.66,16.44c0.12,9.22-7.45,16.77-16.81,16.75
		c-9.35-0.02-16.78-7.58-16.59-16.88C83.57,361.17,91.04,353.89,100.12,353.93z"/>
	<path class="st0" d="M236.44,244.37c1.51-2.23,2.67-4.03,3.93-5.76c3.68-5.07,7.15-5.76,12.32-2.35c3.19,2.1,6.3,4.34,9.4,6.58
		c5.3,3.83,5.87,7.2,2.16,12.64c-1.21,1.78-2.49,3.51-3.96,5.57C252.42,255.54,244.68,250.13,236.44,244.37z"/>
	<path class="st0" d="M182.9,371.69c-8.23,3.03-15.78,5.82-23.75,8.75c0-8.6,0-16.53,0-25.35
		C167.2,360.72,174.74,365.99,182.9,371.69z"/>
	<path class="st0" d="M235.44,266.02c-18.86,26.91-37.71,53.82-56.57,80.73c-0.7-0.49-1.39-0.97-2.09-1.46
		c18.86-26.91,37.72-53.82,56.57-80.73C234.05,265.05,234.75,265.53,235.44,266.02z"/>
	<path class="st0" d="M242.72,271.17c-18.8,26.83-37.6,53.67-56.4,80.5c-0.67-0.47-1.34-0.93-2.01-1.4
		c18.76-26.81,37.52-53.63,56.28-80.44C241.3,270.28,242.01,270.72,242.72,271.17z"/>
</g>
</svg>
