<svg width="49" height="49" viewBox="0 0 49 49" fill="none" xmlns="http://www.w3.org/2000/svg">
<path d="M43.3867 37.6074H41.8867V7.60742C41.8867 7.2096 41.7287 6.82807 41.4474 6.54676C41.1661 6.26546 40.7845 6.10742 40.3867 6.10742H29.8867C29.4889 6.10742 29.1074 6.26546 28.8261 6.54676C28.5448 6.82807 28.3867 7.2096 28.3867 7.60742V15.1074H19.3867C18.9889 15.1074 18.6074 15.2655 18.3261 15.5468C18.0448 15.8281 17.8867 16.2096 17.8867 16.6074V24.1074H8.88672C8.48889 24.1074 8.10736 24.2655 7.82606 24.5468C7.54475 24.8281 7.38672 25.2096 7.38672 25.6074V37.6074H5.88672C5.48889 37.6074 5.10736 37.7655 4.82606 38.0468C4.54475 38.3281 4.38672 38.7096 4.38672 39.1074C4.38672 39.5052 4.54475 39.8868 4.82606 40.1681C5.10736 40.4494 5.48889 40.6074 5.88672 40.6074H43.3867C43.7845 40.6074 44.1661 40.4494 44.4474 40.1681C44.7287 39.8868 44.8867 39.5052 44.8867 39.1074C44.8867 38.7096 44.7287 38.3281 44.4474 38.0468C44.1661 37.7655 43.7845 37.6074 43.3867 37.6074ZM20.8867 18.1074H28.3867V37.6074H20.8867V18.1074ZM10.3867 27.1074H17.8867V37.6074H10.3867V27.1074ZM31.3867 37.6074V9.10742H38.8867V37.6074H31.3867Z" fill="#FCFCFF"/>
</svg>
