<svg width="49" height="49" viewBox="0 0 49 49" fill="none" xmlns="http://www.w3.org/2000/svg">
<path d="M35.1368 22.6446C35.5346 22.6446 35.9161 22.8026 36.1974 23.0839C36.4787 23.3652 36.6368 23.7468 36.6368 24.1446C36.6368 24.5424 36.4787 24.9239 36.1974 25.2052C35.9161 25.4866 35.5346 25.6446 35.1368 25.6446H24.6368C24.2389 25.6446 23.8574 25.4866 23.5761 25.2052C23.2948 24.9239 23.1368 24.5424 23.1368 24.1446V13.6446C23.1368 13.2468 23.2948 12.8652 23.5761 12.5839C23.8574 12.3026 24.2389 12.1446 24.6368 12.1446C25.0346 12.1446 25.4161 12.3026 25.6974 12.5839C25.9787 12.8652 26.1368 13.2468 26.1368 13.6446V22.6446H35.1368ZM37.3647 11.4167C40.3093 14.3614 42.1418 18.236 42.55 22.3803C42.9582 26.5247 41.9167 30.6824 39.6031 34.1449C37.2895 37.6075 33.8468 40.1607 29.8617 41.3695C25.8766 42.5784 21.5957 42.368 17.7483 40.7744C13.9009 39.1807 10.7251 36.3023 8.76206 32.6297C6.79899 28.957 6.17011 24.7172 6.98256 20.6329C7.79501 16.5485 9.99853 12.8722 13.2177 10.2303C16.4368 7.58849 20.4724 6.14456 24.6368 6.14459C27.0015 6.13815 29.344 6.60081 31.5288 7.50577C33.7135 8.41073 35.6971 9.74002 37.3647 11.4167ZM39.6368 24.1446C39.6368 20.6743 38.4336 17.3113 36.2321 14.6286C34.0305 11.946 30.967 10.1097 27.5633 9.43264C24.1597 8.75557 20.6266 9.27961 17.566 10.9155C14.5054 12.5513 12.1067 15.1978 10.7786 18.404C9.45057 21.6101 9.27527 25.1776 10.2826 28.4985C11.29 31.8194 13.4176 34.6883 16.3031 36.6163C19.1885 38.5444 22.6533 39.4123 26.1069 39.0722C29.5605 38.7321 32.7894 37.205 35.2433 34.7511C36.6405 33.3615 37.7483 31.7085 38.5024 29.8879C39.2566 28.0673 39.6421 26.1152 39.6368 24.1446ZM44.7893 10.3558L38.4255 3.99209C38.1442 3.71077 37.7627 3.55273 37.3648 3.55273C36.967 3.55273 36.5855 3.71077 36.3041 3.99209C36.0228 4.2734 35.8648 4.65494 35.8648 5.05277C35.8648 5.45061 36.0228 5.83215 36.3041 6.11346L42.6679 12.4772C42.9492 12.7585 43.3307 12.9166 43.7285 12.9167C44.1264 12.9167 44.5079 12.7587 44.7893 12.4774C45.0706 12.1961 45.2287 11.8146 45.2287 11.4167C45.2288 11.0189 45.0707 10.6374 44.7895 10.356L44.7893 10.3558ZM12.9694 3.99209C12.6881 3.71082 12.3066 3.55281 11.9088 3.55281C11.511 3.55281 11.1295 3.71082 10.8482 3.99209L4.48427 10.3558C4.20296 10.6371 4.04492 11.0187 4.04492 11.4165C4.04492 11.8144 4.20296 12.1959 4.48427 12.4772C4.76558 12.7585 5.14713 12.9166 5.54496 12.9166C5.9428 12.9166 6.32434 12.7585 6.60565 12.4772L12.9694 6.11346C13.1087 5.97417 13.2192 5.80881 13.2946 5.62682C13.37 5.44482 13.4088 5.24976 13.4088 5.05277C13.4088 4.85578 13.37 4.66072 13.2946 4.47873C13.2192 4.29674 13.1087 4.13137 12.9694 3.99209Z" fill="#FCFCFF"/>
</svg>
