<svg width="49" height="49" viewBox="0 0 49 49" fill="none" xmlns="http://www.w3.org/2000/svg">
<path d="M39.6367 5.125H14.1367C12.546 5.12684 11.0209 5.75957 9.89611 6.88439C8.77129 8.00921 8.13855 9.53426 8.13672 11.125V44.125C8.13672 44.5228 8.29475 44.9044 8.57606 45.1857C8.85736 45.467 9.23889 45.625 9.63672 45.625H36.6367C37.0345 45.625 37.4161 45.467 37.6974 45.1857C37.9787 44.9044 38.1367 44.5228 38.1367 44.125C38.1367 43.7272 37.9787 43.3456 37.6974 43.0643C37.4161 42.783 37.0345 42.625 36.6367 42.625H11.1367C11.1376 41.8296 11.454 41.0671 12.0164 40.5047C12.5788 39.9423 13.3413 39.6259 14.1367 39.625H39.6367C40.0345 39.625 40.4161 39.467 40.6974 39.1857C40.9787 38.9044 41.1367 38.5228 41.1367 38.125V6.625C41.1367 6.22718 40.9787 5.84564 40.6974 5.56434C40.4161 5.28304 40.0345 5.125 39.6367 5.125ZM23.1371 8.125H32.1371V21.6254L28.5354 18.925C28.2758 18.7302 27.96 18.6249 27.6354 18.6249C27.3108 18.6249 26.995 18.7302 26.7354 18.925L23.1373 21.6246L23.1371 8.125ZM38.1367 36.625H14.1367C13.0831 36.6237 12.048 36.9016 11.1367 37.4303V11.125C11.1376 10.3296 11.454 9.56708 12.0164 9.00467C12.5788 8.44225 13.3413 8.12589 14.1367 8.125H20.1371V24.625C20.1371 24.9036 20.2146 25.1767 20.3611 25.4137C20.5076 25.6507 20.7171 25.8422 20.9663 25.9668C21.2155 26.0914 21.4945 26.1441 21.7719 26.1191C22.0494 26.094 22.3144 25.9922 22.5373 25.825L27.636 22L32.7375 25.825C32.9603 25.992 33.2253 26.0937 33.5027 26.1187C33.78 26.1436 34.0589 26.0909 34.308 25.9663C34.5571 25.8418 34.7666 25.6503 34.913 25.4134C35.0595 25.1765 35.137 24.9035 35.1371 24.625V8.125H38.1367V36.625Z" fill="#FCFCFF"/>
</svg>
