<svg width="239" height="57" viewBox="0 0 239 57" fill="none" xmlns="http://www.w3.org/2000/svg">
<path d="M61.6836 14.4403H67.0653C69.3602 14.4403 71.0976 14.7636 72.2774 15.41C73.4733 16.0565 74.0713 17.1958 74.0713 18.8281C74.0713 19.814 73.8369 20.6463 73.3683 21.3251C72.9157 22.0039 72.2612 22.416 71.4047 22.5614V22.6826C71.9703 22.8119 72.4875 23.022 72.9562 23.3129C73.441 23.5877 73.8208 23.9998 74.0955 24.5493C74.3703 25.0988 74.5076 25.826 74.5076 26.7311C74.5076 28.2987 73.9339 29.527 72.7865 30.4158C71.6552 31.3047 70.1118 31.7492 68.1562 31.7492H61.6836V14.4403ZM65.3441 21.3008H67.4774C68.5441 21.3008 69.2794 21.1392 69.6835 20.816C70.1037 20.4766 70.3138 19.9756 70.3138 19.313C70.3138 18.6504 70.0713 18.1736 69.5865 17.8827C69.1017 17.5918 68.334 17.4463 67.2835 17.4463H65.3441V21.3008ZM65.3441 24.2099V28.7189H67.7441C68.8431 28.7189 69.6107 28.5088 70.0471 28.0886C70.4835 27.6523 70.7016 27.0785 70.7016 26.3674C70.7016 25.721 70.4754 25.2038 70.0229 24.8159C69.5865 24.4119 68.7865 24.2099 67.6229 24.2099H65.3441Z" fill="#FCFCFF"/>
<path d="M82.5045 18.2463C84.2822 18.2463 85.6398 18.6342 86.5772 19.41C87.5307 20.1695 88.0074 21.3412 88.0074 22.9251V31.7492H85.4863L84.7832 29.9552H84.6863C84.1206 30.6664 83.5227 31.1835 82.8924 31.5067C82.2621 31.83 81.3974 31.9916 80.2985 31.9916C79.1187 31.9916 78.1409 31.6522 77.3652 30.9734C76.5894 30.2946 76.2016 29.2361 76.2016 27.7977C76.2016 26.3917 76.6945 25.3573 77.6803 24.6947C78.6662 24.0321 80.1449 23.6604 82.1166 23.5796L84.4196 23.5069V22.9251C84.4196 22.2301 84.2338 21.721 83.862 21.3978C83.5065 21.0746 83.0055 20.913 82.359 20.913C81.7126 20.913 81.0823 21.0099 80.4682 21.2039C79.854 21.3816 79.2399 21.6079 78.6258 21.8826L77.4379 19.4342C78.1328 19.0786 78.9167 18.7958 79.7894 18.5857C80.6621 18.3595 81.5671 18.2463 82.5045 18.2463ZM84.4196 25.6159L83.0136 25.6644C81.85 25.6967 81.0419 25.9068 80.5894 26.2947C80.1369 26.6826 79.9106 27.1917 79.9106 27.8219C79.9106 28.3714 80.0722 28.7674 80.3954 29.0098C80.7187 29.2361 81.1389 29.3492 81.656 29.3492C82.4318 29.3492 83.0863 29.1229 83.6196 28.6704C84.153 28.2017 84.4196 27.5472 84.4196 26.7068V25.6159Z" fill="#FCFCFF"/>
<path d="M95.8744 31.9916C93.9027 31.9916 92.3754 31.4502 91.2926 30.3674C90.226 29.2846 89.6926 27.5634 89.6926 25.2038C89.6926 23.5877 89.9674 22.2705 90.5169 21.2524C91.0664 20.2342 91.8259 19.4827 92.7956 18.9978C93.7815 18.513 94.9128 18.2706 96.1895 18.2706C97.0946 18.2706 97.8784 18.3595 98.541 18.5372C99.2198 18.715 99.8097 18.9251 100.311 19.1675L99.244 21.9554C98.6784 21.7291 98.145 21.5433 97.644 21.3978C97.1592 21.2523 96.6744 21.1796 96.1895 21.1796C94.3148 21.1796 93.3774 22.5129 93.3774 25.1796C93.3774 26.5048 93.6199 27.4826 94.1047 28.1129C94.6057 28.7431 95.3006 29.0583 96.1895 29.0583C96.9491 29.0583 97.6198 28.9613 98.2016 28.7674C98.7834 28.5573 99.3491 28.2745 99.8986 27.9189V30.9977C99.3491 31.3532 98.7673 31.6037 98.1531 31.7492C97.5552 31.9108 96.7956 31.9916 95.8744 31.9916Z" fill="#FCFCFF"/>
<path d="M106.557 13.3252V21.5675C106.557 22.0685 106.533 22.5695 106.484 23.0705C106.452 23.5553 106.412 24.0483 106.363 24.5493H106.412C106.654 24.2099 106.905 23.8705 107.163 23.5311C107.422 23.1917 107.697 22.8604 107.987 22.5372L111.696 18.513H115.769L110.509 24.2584L116.084 31.7492H111.915L108.109 26.3917L106.557 27.628V31.7492H102.945V13.3252H106.557Z" fill="#FCFCFF"/>
<path d="M123.554 29.1068C123.958 29.1068 124.346 29.0745 124.717 29.0098C125.089 28.929 125.461 28.824 125.832 28.6947V31.3855C125.445 31.5633 124.96 31.7088 124.378 31.8219C123.812 31.935 123.19 31.9916 122.511 31.9916C121.719 31.9916 121.008 31.8623 120.378 31.6037C119.764 31.3451 119.271 30.9007 118.899 30.2704C118.544 29.6401 118.366 28.7512 118.366 27.6038V21.2281H116.645V19.7009L118.633 18.4888L119.675 15.7009H121.978V18.513H125.687V21.2281H121.978V27.6038C121.978 28.1048 122.123 28.4846 122.414 28.7431C122.705 28.9856 123.085 29.1068 123.554 29.1068Z" fill="#FCFCFF"/>
<path d="M140.271 25.1068C140.271 27.3048 139.689 29.0017 138.525 30.1977C137.378 31.3936 135.81 31.9916 133.822 31.9916C132.594 31.9916 131.495 31.7249 130.526 31.1916C129.572 30.6583 128.821 29.8825 128.271 28.8644C127.722 27.83 127.447 26.5775 127.447 25.1068C127.447 22.9089 128.021 21.22 129.168 20.0402C130.315 18.8605 131.891 18.2706 133.895 18.2706C135.14 18.2706 136.239 18.5372 137.192 19.0706C138.146 19.6039 138.897 20.3796 139.447 21.3978C139.996 22.416 140.271 23.6523 140.271 25.1068ZM131.132 25.1068C131.132 26.4159 131.342 27.4098 131.762 28.0886C132.198 28.7512 132.901 29.0825 133.871 29.0825C134.824 29.0825 135.511 28.7512 135.932 28.0886C136.368 27.4098 136.586 26.4159 136.586 25.1068C136.586 23.7978 136.368 22.82 135.932 22.1735C135.511 21.5109 134.816 21.1796 133.847 21.1796C132.893 21.1796 132.198 21.5109 131.762 22.1735C131.342 22.82 131.132 23.7978 131.132 25.1068Z" fill="#FCFCFF"/>
<path d="M152.662 31.7492H142.698V14.4403H152.662V17.4463H146.359V21.2524H152.226V24.2584H146.359V28.7189H152.662V31.7492Z" fill="#FCFCFF"/>
<path d="M158.688 24.9856L154.421 18.513H158.518L161.088 22.7311L163.682 18.513H167.779L163.464 24.9856L167.973 31.7492H163.876L161.088 27.2159L158.3 31.7492H154.203L158.688 24.9856Z" fill="#FCFCFF"/>
<path d="M177.357 18.2706C178.844 18.2706 180.048 18.8524 180.969 20.016C181.891 21.1635 182.351 22.8604 182.351 25.1068C182.351 27.3694 181.874 29.0825 180.921 30.2462C179.967 31.4098 178.747 31.9916 177.26 31.9916C176.307 31.9916 175.547 31.8219 174.982 31.4825C174.416 31.1269 173.955 30.731 173.6 30.2946H173.406C173.535 30.9734 173.6 31.6199 173.6 32.234V37.5673H169.988V18.513H172.921L173.43 20.2342H173.6C173.955 19.7009 174.432 19.2403 175.03 18.8524C175.628 18.4645 176.404 18.2706 177.357 18.2706ZM176.194 21.1554C175.256 21.1554 174.594 21.4544 174.206 22.0523C173.818 22.6341 173.616 23.5149 173.6 24.6947V25.0826C173.6 26.3593 173.786 27.3452 174.157 28.0401C174.545 28.7189 175.24 29.0583 176.242 29.0583C177.066 29.0583 177.672 28.7189 178.06 28.0401C178.464 27.3452 178.666 26.3513 178.666 25.0584C178.666 22.4564 177.842 21.1554 176.194 21.1554Z" fill="#FCFCFF"/>
<path d="M190.056 18.2706C191.882 18.2706 193.328 18.7958 194.395 19.8463C195.462 20.8806 195.995 22.3594 195.995 24.2826V26.028H187.462C187.494 27.0462 187.793 27.8462 188.359 28.428C188.94 29.0098 189.74 29.3007 190.759 29.3007C191.599 29.3007 192.367 29.2199 193.062 29.0583C193.773 28.8805 194.5 28.6139 195.243 28.2583V31.0461C194.581 31.3694 193.894 31.6037 193.183 31.7492C192.472 31.9108 191.607 31.9916 190.589 31.9916C189.264 31.9916 188.092 31.7492 187.074 31.2643C186.056 30.7633 185.256 30.0199 184.674 29.0341C184.092 28.032 183.801 26.7634 183.801 25.228C183.801 23.6927 184.06 22.4079 184.577 21.3736C185.11 20.3392 185.845 19.5635 186.783 19.0463C187.72 18.5292 188.811 18.2706 190.056 18.2706ZM190.08 20.8402C189.369 20.8402 188.787 21.0665 188.334 21.519C187.882 21.9715 187.615 22.6746 187.534 23.6281H192.601C192.585 22.8362 192.367 22.1735 191.946 21.6402C191.542 21.1069 190.92 20.8402 190.08 20.8402Z" fill="#FCFCFF"/>
<path d="M205.469 18.2706C205.647 18.2706 205.857 18.2787 206.099 18.2948C206.342 18.311 206.536 18.3352 206.681 18.3675L206.415 21.7614C206.285 21.7291 206.116 21.7049 205.905 21.6887C205.695 21.6564 205.51 21.6402 205.348 21.6402C204.734 21.6402 204.144 21.7534 203.578 21.9796C203.013 22.1897 202.552 22.5372 202.196 23.022C201.857 23.5069 201.687 24.1695 201.687 25.0099V31.7492H198.075V18.513H200.815L201.348 20.7433H201.518C201.906 20.0645 202.439 19.4827 203.118 18.9978C203.796 18.513 204.58 18.2706 205.469 18.2706Z" fill="#FCFCFF"/>
<path d="M215.023 29.1068C215.427 29.1068 215.815 29.0745 216.187 29.0098C216.558 28.929 216.93 28.824 217.302 28.6947V31.3855C216.914 31.5633 216.429 31.7088 215.847 31.8219C215.282 31.935 214.659 31.9916 213.981 31.9916C213.189 31.9916 212.478 31.8623 211.847 31.6037C211.233 31.3451 210.74 30.9007 210.368 30.2704C210.013 29.6401 209.835 28.7512 209.835 27.6038V21.2281H208.114V19.7009L210.102 18.4888L211.144 15.7009H213.447V18.513H217.156V21.2281H213.447V27.6038C213.447 28.1048 213.593 28.4846 213.884 28.7431C214.174 28.9856 214.554 29.1068 215.023 29.1068Z" fill="#FCFCFF"/>
<path d="M229.195 27.8219C229.195 29.1633 228.718 30.1977 227.764 30.9249C226.827 31.636 225.421 31.9916 223.546 31.9916C222.625 31.9916 221.833 31.9269 221.171 31.7976C220.508 31.6845 219.845 31.4906 219.183 31.2158V28.2341C219.894 28.5573 220.661 28.824 221.486 29.0341C222.31 29.2442 223.037 29.3492 223.668 29.3492C224.362 29.3492 224.863 29.2442 225.171 29.0341C225.478 28.824 225.631 28.5492 225.631 28.2098C225.631 27.9836 225.566 27.7815 225.437 27.6038C225.324 27.426 225.065 27.224 224.661 26.9977C224.257 26.7715 223.627 26.4806 222.771 26.125C221.93 25.7695 221.243 25.422 220.71 25.0826C220.193 24.727 219.805 24.3068 219.546 23.822C219.288 23.321 219.159 22.6988 219.159 21.9554C219.159 20.7271 219.635 19.8059 220.589 19.1918C221.542 18.5776 222.811 18.2706 224.395 18.2706C225.219 18.2706 226.003 18.3514 226.746 18.513C227.49 18.6746 228.257 18.9413 229.049 19.313L227.958 21.9069C227.312 21.6321 226.698 21.4059 226.116 21.2281C225.534 21.0342 224.944 20.9372 224.346 20.9372C223.28 20.9372 222.746 21.2281 222.746 21.8099C222.746 22.02 222.811 22.214 222.94 22.3917C223.086 22.5533 223.352 22.7311 223.74 22.9251C224.144 23.119 224.734 23.3776 225.51 23.7008C226.27 24.0079 226.924 24.3311 227.474 24.6705C228.023 24.9937 228.443 25.4058 228.734 25.9068C229.041 26.4078 229.195 27.0462 229.195 27.8219Z" fill="#FCFCFF"/>
<path d="M197.613 46.6244C197.613 46.2618 197.701 46.007 197.878 45.8601C198.054 45.7131 198.265 45.6396 198.51 45.6396C198.755 45.6396 198.97 45.7131 199.156 45.8601C199.343 46.007 199.436 46.2618 199.436 46.6244C199.436 46.9771 199.343 47.2319 199.156 47.3886C198.97 47.5454 198.755 47.6238 198.51 47.6238C198.265 47.6238 198.054 47.5454 197.878 47.3886C197.701 47.2319 197.613 46.9771 197.613 46.6244Z" fill="#FCFCFF"/>
<path d="M204.897 47.565C204.192 47.565 203.569 47.4229 203.03 47.1388C202.492 46.8546 202.065 46.4137 201.752 45.816C201.448 45.2183 201.296 44.454 201.296 43.5231C201.296 42.553 201.453 41.7643 201.766 41.1568C202.09 40.5492 202.531 40.1034 203.089 39.8192C203.648 39.5351 204.28 39.393 204.985 39.393C205.377 39.393 205.759 39.4371 206.132 39.5253C206.514 39.6037 206.822 39.7017 207.058 39.8192L206.661 40.8922C206.426 40.804 206.151 40.7207 205.838 40.6423C205.524 40.5639 205.23 40.5247 204.956 40.5247C203.408 40.5247 202.634 41.5193 202.634 43.5084C202.634 44.4589 202.82 45.1889 203.192 45.6984C203.574 46.1981 204.138 46.448 204.882 46.448C205.304 46.448 205.681 46.4039 206.014 46.3157C206.347 46.2275 206.651 46.1197 206.925 45.9923V47.1388C206.661 47.276 206.367 47.3788 206.044 47.4474C205.73 47.5258 205.348 47.565 204.897 47.565Z" fill="#FCFCFF"/>
<path d="M215.648 43.4643C215.648 44.7675 215.315 45.7768 214.649 46.4921C213.992 47.2074 213.1 47.565 211.974 47.565C211.278 47.565 210.656 47.4082 210.107 47.0947C209.568 46.7713 209.142 46.3059 208.828 45.6984C208.515 45.0811 208.358 44.3364 208.358 43.4643C208.358 42.1611 208.681 41.1568 209.328 40.4513C209.985 39.7458 210.881 39.393 212.018 39.393C212.723 39.393 213.35 39.5547 213.899 39.878C214.448 40.1916 214.874 40.6521 215.178 41.2596C215.491 41.8574 215.648 42.5922 215.648 43.4643ZM209.695 43.4643C209.695 44.3952 209.877 45.135 210.239 45.6837C210.612 46.2226 211.2 46.4921 212.003 46.4921C212.797 46.4921 213.38 46.2226 213.752 45.6837C214.124 45.135 214.311 44.3952 214.311 43.4643C214.311 42.5335 214.124 41.8035 213.752 41.2743C213.38 40.7452 212.792 40.4807 211.988 40.4807C211.185 40.4807 210.602 40.7452 210.239 41.2743C209.877 41.8035 209.695 42.5335 209.695 43.4643Z" fill="#FCFCFF"/>
<path d="M226.34 39.393C227.232 39.393 227.898 39.6233 228.339 40.0838C228.78 40.5443 229.001 41.2792 229.001 42.2885V47.418H227.722V42.3473C227.722 41.1029 227.188 40.4807 226.12 40.4807C225.356 40.4807 224.807 40.7011 224.474 41.1421C224.15 41.583 223.989 42.2248 223.989 43.0675V47.418H222.71V42.3473C222.71 41.1029 222.171 40.4807 221.093 40.4807C220.3 40.4807 219.751 40.7256 219.447 41.2155C219.143 41.7055 218.991 42.411 218.991 43.332V47.418H217.698V39.54H218.742L218.933 40.6129H219.006C219.251 40.2014 219.579 39.8976 219.991 39.7017C220.412 39.4959 220.858 39.393 221.328 39.393C222.563 39.393 223.366 39.8339 223.739 40.7158H223.812C224.077 40.2651 224.435 39.9319 224.885 39.7164C225.336 39.5008 225.821 39.393 226.34 39.393Z" fill="#FCFCFF"/>
<g clip-path="url(#clip0)">
<path d="M45.0647 32.6007L49.4507 14.9053C49.386 21.6626 49.2403 36.3925 49.2079 42.842L9.79883 8.92578C21.3707 10.3194 37.8141 12.2963 49.4669 13.6899C44.304 13.5927 32.0686 13.3496 26.9058 13.2038L20.1892 13.0255C26.663 18.1138 38.51 27.4314 45.0647 32.6007L26.1986 15.3557L46.845 15.0511L33.9633 18.3829L45.0647 32.6007L36.8492 19.5181L44.6763 17.0605L40.7659 21.0661L45.0647 32.6007Z" fill="#FCFCFF"/>
</g>
<defs>
<clipPath id="clip0">
<rect width="39.668" height="33.9162" fill="white" transform="translate(9.79883 8.92578)"/>
</clipPath>
</defs>
</svg>
