<?xml version="1.0" encoding="utf-8"?>
<!-- Generator: Adobe Illustrator 23.0.1, SVG Export Plug-In . SVG Version: 6.00 Build 0)  -->
<svg version="1.1" id="Layer_1" xmlns="http://www.w3.org/2000/svg" xmlns:xlink="http://www.w3.org/1999/xlink" x="0px" y="0px"
	 viewBox="0 0 127 28" style="enable-background:new 0 0 127 28;" xml:space="preserve">
<style type="text/css">
	.st0{fill:#372E75;}
	.st1{clip-path:url(#SVGID_2_);}
</style>
<path class="st0" d="M30.53,3.99h3.12c1.33,0,2.33,0.23,3.02,0.7c0.69,0.47,1.04,1.29,1.04,2.47c0,0.71-0.14,1.32-0.41,1.81
	c-0.26,0.49-0.64,0.79-1.14,0.89v0.09c0.33,0.09,0.63,0.25,0.9,0.46c0.28,0.2,0.5,0.5,0.66,0.89c0.16,0.4,0.24,0.92,0.24,1.58
	c0,1.13-0.33,2.02-1,2.67c-0.65,0.64-1.55,0.96-2.68,0.96h-3.75V3.99z M32.65,8.95h1.23c0.62,0,1.04-0.12,1.28-0.35
	c0.24-0.25,0.36-0.61,0.36-1.09c0-0.48-0.14-0.82-0.42-1.03c-0.28-0.21-0.73-0.32-1.33-0.32h-1.12V8.95z M32.65,11.06v3.26h1.39
	c0.64,0,1.08-0.15,1.33-0.46c0.25-0.32,0.38-0.73,0.38-1.25c0-0.47-0.13-0.84-0.39-1.12c-0.25-0.29-0.72-0.44-1.39-0.44H32.65z"/>
<path class="st0" d="M42.59,6.74c1.03,0,1.81,0.28,2.36,0.84c0.55,0.55,0.83,1.4,0.83,2.54v6.38h-1.46l-0.41-1.3h-0.06
	c-0.33,0.51-0.67,0.89-1.04,1.12c-0.36,0.23-0.87,0.35-1.5,0.35c-0.68,0-1.25-0.25-1.7-0.74c-0.45-0.49-0.67-1.26-0.67-2.3
	c0-1.02,0.29-1.77,0.86-2.25c0.57-0.48,1.43-0.75,2.57-0.81l1.33-0.05v-0.42c0-0.5-0.11-0.87-0.32-1.11
	c-0.21-0.23-0.5-0.35-0.87-0.35c-0.37,0-0.74,0.07-1.09,0.21c-0.36,0.13-0.71,0.29-1.07,0.49L39.65,7.6
	c0.4-0.26,0.86-0.46,1.36-0.61C41.52,6.83,42.04,6.74,42.59,6.74z M43.7,12.08l-0.81,0.04c-0.67,0.02-1.14,0.18-1.4,0.46
	c-0.26,0.28-0.39,0.65-0.39,1.11c0,0.4,0.09,0.68,0.28,0.86c0.19,0.16,0.43,0.25,0.73,0.25c0.45,0,0.83-0.16,1.14-0.49
	c0.31-0.34,0.46-0.81,0.46-1.42V12.08z"/>
<path class="st0" d="M50.33,16.69c-1.14,0-2.03-0.39-2.65-1.18c-0.62-0.78-0.93-2.03-0.93-3.74c0-1.17,0.16-2.12,0.48-2.86
	c0.32-0.74,0.76-1.28,1.32-1.63c0.57-0.35,1.23-0.53,1.96-0.53c0.52,0,0.98,0.06,1.36,0.19c0.39,0.13,0.73,0.28,1.02,0.46
	l-0.62,2.02c-0.33-0.16-0.64-0.3-0.93-0.4c-0.28-0.11-0.56-0.16-0.84-0.16c-1.09,0-1.63,0.96-1.63,2.89c0,0.96,0.14,1.67,0.42,2.12
	c0.29,0.46,0.69,0.68,1.21,0.68c0.44,0,0.83-0.07,1.16-0.21c0.34-0.15,0.66-0.36,0.98-0.61v2.23c-0.32,0.26-0.65,0.44-1.01,0.54
	C51.3,16.63,50.86,16.69,50.33,16.69z"/>
<path class="st0" d="M56.51,3.18v5.96c0,0.36-0.01,0.72-0.04,1.09c-0.02,0.35-0.04,0.71-0.07,1.07h0.03
	c0.14-0.25,0.29-0.49,0.44-0.74c0.15-0.25,0.31-0.49,0.48-0.72l2.15-2.91h2.36l-3.05,4.16l3.23,5.42h-2.41l-2.2-3.88l-0.9,0.89v2.98
	h-2.09V3.18H56.51z"/>
<path class="st0" d="M66.35,14.6c0.23,0,0.46-0.02,0.67-0.07c0.22-0.06,0.43-0.13,0.65-0.23v1.95c-0.22,0.13-0.51,0.23-0.84,0.32
	c-0.33,0.08-0.69,0.12-1.08,0.12c-0.46,0-0.87-0.09-1.23-0.28c-0.36-0.19-0.64-0.51-0.86-0.96c-0.21-0.46-0.31-1.1-0.31-1.93V8.9h-1
	V7.8l1.15-0.88l0.6-2.02h1.33v2.03h2.15V8.9h-2.15v4.61c0,0.36,0.08,0.64,0.25,0.82C65.86,14.51,66.08,14.6,66.35,14.6z"/>
<path class="st0" d="M76.03,11.71c0,1.59-0.34,2.82-1.01,3.68c-0.66,0.87-1.57,1.3-2.72,1.3c-0.71,0-1.35-0.19-1.91-0.58
	c-0.55-0.39-0.99-0.95-1.3-1.68c-0.32-0.75-0.48-1.65-0.48-2.72c0-1.59,0.33-2.81,1-3.67c0.66-0.85,1.58-1.28,2.74-1.28
	c0.72,0,1.36,0.19,1.91,0.58c0.55,0.39,0.99,0.95,1.31,1.68C75.87,9.76,76.03,10.66,76.03,11.71z M70.74,11.71
	c0,0.95,0.12,1.67,0.36,2.16c0.25,0.48,0.66,0.72,1.22,0.72c0.55,0,0.95-0.24,1.19-0.72c0.25-0.49,0.38-1.21,0.38-2.16
	c0-0.95-0.13-1.65-0.38-2.12c-0.24-0.48-0.65-0.72-1.21-0.72c-0.55,0-0.95,0.24-1.21,0.72C70.86,10.05,70.74,10.76,70.74,11.71z"/>
<path class="st0" d="M83.2,16.51h-5.77V3.99h5.77v2.17h-3.65v2.75h3.4v2.17h-3.4v3.23h3.65V16.51z"/>
<path class="st0" d="M86.69,11.62l-2.47-4.68h2.37l1.49,3.05l1.5-3.05h2.37l-2.5,4.68l2.61,4.89h-2.37l-1.61-3.28l-1.61,3.28h-2.37
	L86.69,11.62z"/>
<path class="st0" d="M97.49,6.76c0.86,0,1.56,0.42,2.09,1.26c0.53,0.83,0.8,2.06,0.8,3.68c0,1.64-0.28,2.88-0.83,3.72
	c-0.55,0.84-1.26,1.26-2.12,1.26c-0.55,0-0.99-0.12-1.32-0.37c-0.33-0.26-0.59-0.54-0.8-0.86h-0.11c0.07,0.49,0.11,0.96,0.11,1.4
	v3.86h-2.09V6.94h1.7l0.29,1.25h0.1c0.21-0.39,0.48-0.72,0.83-1C96.49,6.9,96.94,6.76,97.49,6.76z M96.82,8.85
	c-0.54,0-0.93,0.22-1.15,0.65c-0.22,0.42-0.34,1.06-0.35,1.91v0.28c0,0.92,0.11,1.64,0.32,2.14c0.22,0.49,0.63,0.74,1.21,0.74
	c0.48,0,0.83-0.25,1.05-0.74c0.23-0.5,0.35-1.22,0.35-2.16C98.25,9.79,97.77,8.85,96.82,8.85z"/>
<path class="st0" d="M104.84,6.76c1.06,0,1.89,0.38,2.51,1.14c0.62,0.75,0.93,1.82,0.93,3.21v1.26h-4.94
	c0.02,0.74,0.19,1.32,0.52,1.74c0.34,0.42,0.8,0.63,1.39,0.63c0.49,0,0.93-0.06,1.33-0.18c0.41-0.13,0.83-0.32,1.26-0.58v2.02
	c-0.38,0.23-0.78,0.4-1.19,0.51c-0.41,0.12-0.91,0.18-1.5,0.18c-0.77,0-1.45-0.18-2.03-0.53c-0.59-0.36-1.05-0.9-1.39-1.61
	c-0.34-0.72-0.51-1.64-0.51-2.75c0-1.11,0.15-2.04,0.45-2.79c0.31-0.75,0.73-1.31,1.28-1.68C103.49,6.95,104.12,6.76,104.84,6.76z
	 M104.86,8.62c-0.41,0-0.75,0.16-1.01,0.49c-0.26,0.33-0.42,0.84-0.46,1.53h2.93c-0.01-0.57-0.14-1.05-0.38-1.44
	C105.7,8.81,105.34,8.62,104.86,8.62z"/>
<path class="st0" d="M113.77,6.76c0.1,0,0.22,0.01,0.36,0.02c0.14,0.01,0.25,0.03,0.34,0.05l-0.15,2.46
	c-0.07-0.02-0.17-0.04-0.29-0.05c-0.12-0.02-0.23-0.04-0.32-0.04c-0.36,0-0.7,0.08-1.02,0.25c-0.33,0.15-0.59,0.4-0.8,0.75
	c-0.2,0.35-0.29,0.83-0.29,1.44v4.88h-2.09V6.94h1.59l0.31,1.61h0.1c0.22-0.49,0.53-0.91,0.93-1.26
	C112.8,6.94,113.25,6.76,113.77,6.76z"/>
<path class="st0" d="M119.3,14.6c0.23,0,0.46-0.02,0.67-0.07c0.22-0.06,0.43-0.13,0.65-0.23v1.95c-0.22,0.13-0.51,0.23-0.84,0.32
	c-0.33,0.08-0.69,0.12-1.08,0.12c-0.46,0-0.87-0.09-1.23-0.28c-0.36-0.19-0.64-0.51-0.86-0.96c-0.21-0.46-0.31-1.1-0.31-1.93V8.9h-1
	V7.8l1.15-0.88l0.6-2.02h1.33v2.03h2.15V8.9h-2.15v4.61c0,0.36,0.08,0.64,0.25,0.82C118.81,14.51,119.03,14.6,119.3,14.6z"/>
<path class="st0" d="M127.5,13.67c0,0.97-0.28,1.72-0.83,2.25c-0.54,0.51-1.36,0.77-2.44,0.77c-0.53,0-0.99-0.05-1.38-0.14
	c-0.38-0.08-0.77-0.22-1.15-0.42v-2.16c0.41,0.23,0.86,0.43,1.33,0.58c0.48,0.15,0.9,0.23,1.26,0.23c0.4,0,0.69-0.08,0.87-0.23
	c0.18-0.15,0.27-0.35,0.27-0.6c0-0.16-0.04-0.31-0.11-0.44c-0.07-0.13-0.22-0.27-0.45-0.44c-0.23-0.16-0.6-0.37-1.09-0.63
	c-0.49-0.26-0.88-0.51-1.19-0.75c-0.3-0.26-0.52-0.56-0.67-0.91c-0.15-0.36-0.22-0.81-0.22-1.35c0-0.89,0.28-1.56,0.83-2
	c0.55-0.44,1.29-0.67,2.2-0.67c0.48,0,0.93,0.06,1.36,0.18c0.43,0.12,0.87,0.31,1.33,0.58l-0.63,1.88c-0.37-0.2-0.73-0.36-1.07-0.49
	c-0.34-0.14-0.68-0.21-1.02-0.21c-0.62,0-0.93,0.21-0.93,0.63c0,0.15,0.04,0.29,0.11,0.42c0.08,0.12,0.24,0.25,0.46,0.39
	c0.23,0.14,0.58,0.33,1.02,0.56c0.44,0.22,0.82,0.46,1.14,0.7c0.32,0.23,0.56,0.53,0.73,0.89C127.41,12.65,127.5,13.11,127.5,13.67z
	"/>
<path class="st0" d="M109.22,27.28c0-0.26,0.05-0.45,0.15-0.55c0.1-0.11,0.22-0.16,0.37-0.16c0.14,0,0.27,0.05,0.37,0.16
	c0.11,0.11,0.16,0.29,0.16,0.55c0,0.26-0.05,0.44-0.16,0.55C110,27.94,109.88,28,109.74,28c-0.14,0-0.26-0.06-0.37-0.17
	C109.27,27.72,109.22,27.53,109.22,27.28z"/>
<path class="st0" d="M113.43,27.96c-0.41,0-0.77-0.1-1.08-0.31c-0.31-0.21-0.56-0.52-0.74-0.96c-0.18-0.43-0.26-0.99-0.26-1.66
	c0-0.7,0.09-1.27,0.27-1.71c0.19-0.44,0.44-0.76,0.77-0.97c0.32-0.21,0.69-0.31,1.1-0.31c0.23,0,0.45,0.03,0.66,0.1
	c0.22,0.06,0.4,0.13,0.54,0.21l-0.23,0.78c-0.14-0.06-0.29-0.12-0.48-0.18c-0.18-0.06-0.35-0.09-0.51-0.09
	c-0.9,0-1.34,0.72-1.34,2.16c0,0.69,0.11,1.22,0.32,1.58c0.22,0.36,0.55,0.54,0.98,0.54c0.24,0,0.46-0.03,0.66-0.1
	c0.19-0.06,0.37-0.14,0.53-0.23v0.83c-0.15,0.1-0.32,0.17-0.51,0.22C113.92,27.93,113.7,27.96,113.43,27.96z"/>
<path class="st0" d="M119.66,24.99c0,0.94-0.19,1.67-0.58,2.19c-0.38,0.52-0.9,0.78-1.55,0.78c-0.4,0-0.76-0.11-1.08-0.34
	c-0.31-0.23-0.56-0.57-0.74-1.01c-0.18-0.45-0.27-0.99-0.27-1.62c0-0.94,0.19-1.67,0.56-2.18c0.38-0.51,0.9-0.77,1.56-0.77
	c0.41,0,0.77,0.12,1.09,0.35c0.32,0.23,0.56,0.56,0.74,1C119.57,23.83,119.66,24.36,119.66,24.99z M116.21,24.99
	c0,0.67,0.11,1.21,0.31,1.61c0.22,0.39,0.56,0.58,1.02,0.58c0.46,0,0.8-0.2,1.01-0.58c0.22-0.4,0.32-0.93,0.32-1.61
	c0-0.67-0.11-1.2-0.32-1.58c-0.22-0.38-0.56-0.57-1.02-0.57c-0.47,0-0.8,0.19-1.01,0.57C116.32,23.79,116.21,24.32,116.21,24.99z"/>
<path class="st0" d="M125.85,22.04c0.52,0,0.9,0.17,1.16,0.5c0.26,0.33,0.38,0.86,0.38,1.6v3.71h-0.74v-3.67
	c0-0.9-0.31-1.35-0.93-1.35c-0.44,0-0.76,0.16-0.95,0.48c-0.19,0.32-0.28,0.78-0.28,1.39v3.15h-0.74v-3.67
	c0-0.9-0.31-1.35-0.94-1.35c-0.46,0-0.78,0.18-0.95,0.53c-0.18,0.35-0.26,0.86-0.26,1.53v2.96h-0.75v-5.7h0.6l0.11,0.78h0.04
	c0.14-0.3,0.33-0.52,0.57-0.66c0.24-0.15,0.5-0.22,0.77-0.22c0.71,0,1.18,0.32,1.4,0.96h0.04c0.15-0.33,0.36-0.57,0.62-0.72
	C125.27,22.12,125.55,22.04,125.85,22.04z"/>
<g>
	<defs>
		<rect id="SVGID_1_" x="0.5" width="22.96" height="24.54"/>
	</defs>
	<clipPath id="SVGID_2_">
		<use xlink:href="#SVGID_1_"  style="overflow:visible;"/>
	</clipPath>
	<g class="st1">
		<path class="st0" d="M20.91,17.13l2.54-12.8c-0.04,4.89-0.12,15.55-0.14,20.21L0.5,0c6.7,1.01,16.22,2.44,22.96,3.45
			C20.47,3.38,13.39,3.2,10.4,3.1L6.51,2.97C10.26,6.65,17.12,13.39,20.91,17.13L9.99,4.65l11.95-0.22l-7.46,2.41L20.91,17.13
			l-4.76-9.47l4.53-1.78l-2.26,2.9L20.91,17.13z"/>
	</g>
</g>
</svg>
