<?xml version="1.0" encoding="utf-8"?>
<!-- Generator: Adobe Illustrator 23.0.1, SVG Export Plug-In . SVG Version: 6.00 Build 0)  -->
<svg version="1.1" id="Layer_1" xmlns="http://www.w3.org/2000/svg" xmlns:xlink="http://www.w3.org/1999/xlink" x="0px" y="0px"
	 viewBox="0 0 100 100" style="enable-background:new 0 0 100 100;" xml:space="preserve">
<style type="text/css">
	.st0{fill:#372E75;}
</style>
<g>
	<g>
		<path class="st0" d="M57.43-0.34c3.84,3.03,7.65,6.1,11.53,9.08c4.89,3.75,9.86,7.39,14.75,11.14c0.56,0.43,1.12,1.26,1.13,1.91
			c0.08,6.44,0.04,12.88,0.03,19.32c0,0.2-0.12,0.41-0.2,0.68c-0.9,0-1.77,0-2.88,0c0-6.43,0-12.83,0-19.47
			c-6.36,0-12.49-0.04-18.62,0.02c-2.48,0.02-4.67-0.58-6.09-2.65c-0.74-1.07-1.44-2.41-1.49-3.65c-0.18-4.34-0.07-8.69-0.07-13.27
			c-0.98,0-1.71,0-2.44,0c-13.05,0-26.11,0-39.16,0c-3.64,0-4.73,1.07-4.73,4.57c0,28.21,0,56.42,0,84.63
			c0,3.52,1.06,4.54,4.75,4.55c21.08,0.01,42.16,0.01,63.24,0c3.56,0,4.55-0.99,4.55-4.45c0-4.65,0-9.31,0-14.11
			c1.07,0,1.99,0,3.1,0c0,5.46,0.19,10.93-0.07,16.37c-0.15,3.18-2.98,5.16-6.72,5.28c-2.7,0.09-5.4,0.02-8.1,0.02
			c-18.53,0-37.06,0.01-55.59-0.01c-1.11,0-2.25-0.11-3.33-0.35c-3.29-0.75-4.93-2.8-4.93-6.16c-0.01-28.95,0-57.9-0.02-86.85
			c0-3.72,2.13-5.59,5.43-6.59C26.82-0.34,42.13-0.34,57.43-0.34z M59.02,5.33c0,3.99-0.2,7.59,0.13,11.15
			c0.09,0.98,1.74,2.54,2.74,2.59c4.96,0.27,9.93,0.12,14.9,0.12c0.05-0.14,0.11-0.29,0.16-0.43C71.08,14.36,65.21,9.96,59.02,5.33z
			"/>
		<path class="st0" d="M38.58,79.37c6.9,0,13.8,0.01,20.7-0.01c1.16,0,2.51-0.09,2.59,1.4c0.09,1.66-1.33,1.66-2.58,1.66
			c-13.88,0-27.75,0-41.63,0c-0.15,0-0.3,0-0.45,0c-1.15-0.01-2.33-0.27-2.04-1.64c0.13-0.59,1.31-1.34,2.02-1.35
			C24.33,79.33,31.45,79.37,38.58,79.37z"/>
		<path class="st0" d="M38.36,90.14c-7.05,0-14.09,0.02-21.14-0.03c-0.66,0-1.46-0.3-1.93-0.74c-0.26-0.24-0.15-1.41,0.13-1.56
			c0.74-0.39,1.65-0.61,2.5-0.61c6.9-0.05,13.79-0.03,20.69-0.03c6.82,0,13.64,0.01,20.46,0.01c0.22,0,0.45-0.01,0.67-0.01
			c1.14,0,2.34,0.26,2.09,1.6c-0.1,0.56-1.36,1.29-2.11,1.31c-5.84,0.11-11.69,0.06-17.54,0.06C40.91,90.15,39.63,90.15,38.36,90.14
			z"/>
	</g>
</g>
<g>
	<g>
		<path class="st0" d="M81.08,73.25c-4.05-0.15-7.8-1.9-10.87-5.58c-3.15-3.77-3.81-10.91-0.71-15.57c2.52-3.79,6.1-5.97,10.53-6.45
			c4.07-0.44,7.81,0.61,11.01,3.28c2.13,1.77,3.71,4.02,4.39,6.87c0.36,1.51,0.82,2.99,0.58,4.57c-0.62,4.03-2.2,7.45-5.51,9.9
			C87.8,72.28,84.86,73.22,81.08,73.25z M80.95,53.32c-0.43,0.11-0.82,0.17-1.18,0.3c-1.5,0.55-2.95,2.38-2.3,3.99
			c0.51,1.26,1.46,2.08,2.68,2.6c0.8,0.34,1.63,0.7,2.31,1.24c0.73,0.57,0.54,1.35-0.3,1.76c-0.23,0.11-0.51,0.21-0.74,0.18
			c-0.98-0.15-1.96-0.32-2.92-0.55c-0.46-0.11-0.9-0.33-1.07,0.36c-0.28,1.19,0.05,1.79,1.19,2.1c0.59,0.16,1.22,0.19,1.82,0.3
			c0.19,0.04,0.39,0.14,0.56,0.25c0.35,0.23,0.69,0.48,1.17,0.82c0.13-0.61,0.19-0.9,0.25-1.2c0.24-0.03,0.43-0.03,0.62-0.07
			c1.97-0.52,3.53-2.2,2.79-4.37c-0.44-1.31-1.59-1.97-2.76-2.51c-0.59-0.27-1.25-0.44-1.75-0.84c-0.37-0.3-0.81-0.97-0.72-1.33
			c0.11-0.4,0.77-0.85,1.22-0.88c0.85-0.06,1.72,0.17,2.59,0.24c0.27,0.02,0.71-0.02,0.8-0.19c0.48-0.9-0.05-1.96-1.03-2.13
			c-0.41-0.07-0.84-0.09-1.25-0.16c-0.2-0.04-0.4-0.13-0.57-0.24c-0.35-0.23-0.69-0.49-1.16-0.84C81.07,52.74,81.02,53,80.95,53.32z
			 M81.1,71c2.46,0.06,4.62-0.53,6.69-1.72c3.17-1.82,4.86-4.72,5.65-8.26c0.32-1.44,0.08-2.88-0.32-4.35
			c-1-3.65-3.18-6.12-6.38-7.68c-1.77-0.86-3.64-1.3-5.63-1.08c0,0.52,0,0.95,0,1.37c7.24,0.14,10.76,5.76,10.81,9.85
			c0.03,2.53-0.78,4.69-2.34,6.58c-2.22,2.68-5.13,3.74-8.47,3.8C81.1,70.01,81.1,70.44,81.1,71z"/>
		<path class="st0" d="M64.78,57.89c0,1.07,0,1.98,0,2.97c-0.23,0.03-0.48,0.08-0.72,0.08c-4.31,0.01-8.62,0.01-12.93,0
			c-1.04,0-1.64-0.5-1.72-1.38c-0.07-0.89,0.47-1.65,1.33-1.66C55.39,57.87,60.05,57.89,64.78,57.89z"/>
		<path class="st0" d="M66.49,67.08c-3.08,0-6.05,0.03-9.03-0.02c-0.97-0.01-1.5-0.63-1.49-1.49c0-0.94,0.61-1.51,1.79-1.52
			c2.01-0.03,4.01-0.01,6.02-0.01c0.51,0,1.03,0,1.54,0C65.71,65.03,66.07,65.97,66.49,67.08z"/>
		<path class="st0" d="M66.47,51.76c-0.35,0.95-0.63,1.8-0.99,2.63c-0.09,0.2-0.43,0.39-0.66,0.39c-2.33,0.02-4.67,0.03-7-0.01
			c-1.07-0.02-1.66-0.55-1.74-1.4c-0.08-0.81,0.48-1.57,1.41-1.59C60.46,51.73,63.43,51.76,66.47,51.76z"/>
		<path class="st0" d="M72.18,73.2c-2.41,0-4.59,0.05-6.77-0.03c-0.69-0.02-1.27-0.5-1.33-1.36c-0.06-0.83,0.48-1.35,1.11-1.43
			c1.18-0.15,2.39-0.17,3.57-0.05c0.42,0.04,0.79,0.64,1.18,0.97C70.62,71.89,71.31,72.47,72.18,73.2z"/>
		<path class="st0" d="M72.14,45.63c-1.15,1.01-2.11,1.85-3.07,2.7c-0.65,0.57-4.06,0.33-4.62-0.34c-0.66-0.78-0.1-2.26,1.04-2.33
			C67.63,45.54,69.79,45.63,72.14,45.63z"/>
	</g>
</g>
<path class="st0" d="M23.09,32.95c2.34,0,4.68,0.01,7.03-0.01c0.39,0,0.85-0.09,0.88,1.4C31.03,36,30.55,36,30.12,36
	c-4.71,0-9.42,0-14.13,0c-0.05,0-0.1,0-0.15,0c-0.39-0.01-0.79-0.27-0.69-1.64c0.04-0.59,0.45-1.34,0.69-1.35
	C18.25,32.91,20.67,32.95,23.09,32.95z"/>
<path class="st0" d="M27.63,53.95c3.68,0,7.36,0.01,11.03-0.01c0.62,0,1.34-0.09,1.38,1.4C40.09,57,39.34,57,38.67,57
	c-7.4,0-14.79,0-22.19,0c-0.08,0-0.16,0-0.24,0c-0.61-0.01-1.24-0.27-1.09-1.64c0.07-0.59,0.7-1.34,1.08-1.35
	C20.03,53.91,23.83,53.95,27.63,53.95z"/>
<path class="st0" d="M31.12,62.95c4.7,0,9.41,0.01,14.11-0.01c0.79,0,1.71-0.09,1.77,1.4C47.06,66,46.09,66,45.24,66
	c-9.46,0-18.92,0-28.38,0c-0.1,0-0.2,0-0.31,0c-0.78-0.01-1.59-0.27-1.39-1.64c0.09-0.59,0.89-1.34,1.38-1.35
	C21.4,62.91,26.26,62.95,31.12,62.95z"/>
<path class="st0" d="M37.64,71.95c6.62,0,13.25,0.01,19.87-0.01c1.11,0,2.41-0.09,2.49,1.4C60.08,75,58.72,75,57.52,75
	c-13.32,0-26.64,0-39.96,0c-0.14,0-0.29,0-0.43,0c-1.1-0.01-2.24-0.27-1.96-1.64c0.12-0.59,1.26-1.34,1.94-1.35
	C23.96,71.91,30.8,71.95,37.64,71.95z"/>
<path class="st0" d="M27.63,12.95c3.68,0,7.36,0.01,11.03-0.01c0.62,0,1.34-0.09,1.38,1.4C40.09,16,39.34,16,38.67,16
	c-7.4,0-14.79,0-22.19,0c-0.08,0-0.16,0-0.24,0c-0.61-0.01-1.24-0.27-1.09-1.64c0.07-0.59,0.7-1.34,1.08-1.35
	C20.03,12.91,23.83,12.95,27.63,12.95z"/>
<path class="st0" d="M29.61,44.95c4.26,0,8.52,0.01,12.78-0.01c0.71,0,1.55-0.09,1.6,1.4C44.05,48,43.18,48,42.41,48
	c-8.57,0-17.14,0-25.71,0c-0.09,0-0.19,0-0.28,0c-0.71-0.01-1.44-0.27-1.26-1.64c0.08-0.59,0.81-1.34,1.25-1.35
	C20.81,44.91,25.21,44.95,29.61,44.95z"/>
<path class="st0" d="M46.09,32.95c2.34,0,4.68,0.01,7.03-0.01c0.39,0,0.85-0.09,0.88,1.4C54.03,36,53.55,36,53.12,36
	c-4.71,0-9.42,0-14.13,0c-0.05,0-0.1,0-0.15,0c-0.39-0.01-0.79-0.27-0.69-1.64c0.04-0.59,0.45-1.34,0.69-1.35
	C41.25,32.91,43.67,32.95,46.09,32.95z"/>
<path class="st0" d="M68.09,32.95c2.34,0,4.68,0.01,7.03-0.01c0.39,0,0.85-0.09,0.88,1.4C76.03,36,75.55,36,75.12,36
	c-4.71,0-9.42,0-14.13,0c-0.05,0-0.1,0-0.15,0c-0.39-0.01-0.79-0.27-0.69-1.64c0.04-0.59,0.45-1.34,0.69-1.35
	C63.25,32.91,65.67,32.95,68.09,32.95z"/>
<g>
	<g>
		<g>
			<path class="st0" d="M21.04,26.05c0-0.76-0.36-1.02-1.27-1.38l-0.39-0.16c-1.36-0.55-2.12-1.2-2.12-2.45
				c0-1.23,1.01-2.19,2.76-2.19c1.38,0,2.38,0.65,2.4,1.66c-0.07,0.42-0.38,0.59-0.67,0.59c-0.41,0-0.81-0.17-0.95-0.99l-0.14-0.83
				l0.91,0.53c-0.59-0.26-0.94-0.32-1.41-0.32c-0.77,0-1.34,0.34-1.34,1.14c0,0.63,0.39,0.9,1.18,1.19L20.4,23
				c1.65,0.64,2.27,1.33,2.27,2.53c0,1.29-1.13,2.27-3,2.27c-1.56,0-2.45-0.63-2.46-1.7c0.15-0.4,0.43-0.55,0.73-0.55
				c0.45,0,0.72,0.22,0.8,0.84l0.13,0.99l-0.85-0.6c0.58,0.27,0.97,0.38,1.66,0.38C20.52,27.17,21.04,26.72,21.04,26.05z
				 M19.52,23.83h0.75V29h-0.75V23.83z M19.6,23.83v-5.04h0.75v5.04H19.6z"/>
		</g>
	</g>
</g>
</svg>
