<svg xmlns="http://www.w3.org/2000/svg" width="75.018" height="84.69" viewBox="0 0 75.018 84.69"><g data-name="Group 148" fill="#372E75"><path data-name="Path 87" d="M55.25 49.575c.166-.263.349-.517.497-.786.35-.64.718-1.273 1.026-1.936.28-.604.554-1.2.791-1.826.113-.295.228-.593.344-.886.128-.336.22-.691.325-1.034.199-.632.364-1.267.533-1.91.163-.628.279-1.27.405-1.914.156-.745.25-1.492.352-2.244.092-.641.112-1.297.158-1.944s.03-1.315.04-1.974-.048-1.306-.08-1.956a36.15 36.15 0 0 0-.45-4.064c-.096-.604-.186-1.204-.322-1.806-.14-.648-.259-1.31-.433-1.958l-.591-2.206c-.179-.666-.429-1.319-.646-1.974a31.849 31.849 0 0 0-1.501-3.747c-.584-1.23-1.185-2.45-1.855-3.642a40.414 40.414 0 0 0-1.901-3.003c-.617-.896-1.327-1.73-2.006-2.584-.602-.757-1.257-1.479-1.887-2.216q-1.071-1.26-2.166-2.503a2.006 2.006 0 0 0-.354-.316 1.856 1.856 0 0 0-2.23.025 1.791 1.791 0 0 0-.191 2.54q1.82 2.159 3.634 4.326c.539.644 1.049 1.311 1.568 1.97.497.629.947 1.283 1.4 1.942.406.641.811 1.283 1.169 1.944l.828 1.52c.238.434.44.89.656 1.33.171.343.351.68.499 1.031.241.582.486 1.167.73 1.746.298.713.532 1.448.78 2.177.236.82.502 1.638.7 2.47.23.955.467 1.908.642 2.873.097.515.19 1.026.283 1.541s.135 1.054.202 1.573c.103.806.156 1.612.211 2.42l.02 1.954c.01.646-.057 1.303-.087 1.946-.028.617-.133 1.235-.198 1.851-.06.541-.174 1.079-.27 1.613a34.76 34.76 0 0 1-.997 3.742c-.112.335-.226.671-.344 1.001-.123.37-.301.726-.448 1.082-.212.506-.46.992-.706 1.481-.278.48-.533.97-.842 1.431-.375.559-.746 1.115-1.141 1.66s-.807 1.067-1.225 1.59c-.366.458-.758.894-1.144 1.333a43.988 43.988 0 0 1-4.24 4c-.817.66-1.634 1.316-2.488 1.933s-1.698 1.194-2.575 1.757a71.932 71.932 0 0 1-5.896 3.208 41.72 41.72 0 0 1-6.126 2.328l.078-.02-.15.038-.01.003.009-.002c-.48.136-.96.273-1.442.4-.042-.115-.07-.231-.109-.345-.604-1.715-1.4-3.365-1.892-5.112-.104-.374-.208-.748-.331-1.113a.526.526 0 0 0-.626-.326c-.004.005-.008.011-.02.01a.324.324 0 0 0-.227.105c-.482.534-.952 1.082-1.474 1.58a39.81 39.81 0 0 1-1.831 1.647c.03-.022.053-.044.081-.065a38.502 38.502 0 0 1-2.031 1.588 33.307 33.307 0 0 1-2.354 1.543c-.835.494-1.69.952-2.552 1.396s-1.734.839-2.602 1.253l-.364.17a.45.45 0 0 0-.185.532.487.487 0 0 0 .056.095.5.5 0 0 0 .392.507 2.508 2.508 0 0 1 .46.11l-.046-.017.051.019.072.023-.055-.017c.31.117.616.248.93.355s.63.206.945.312c.875.32 1.729.67 2.622.951.91.286 1.834.534 2.765.76.955.228 1.922.394 2.888.55a53.06 53.06 0 0 0 1.57.233c.254.056.506.125.76.176.775.16 1.553.328 2.335.434a9.512 9.512 0 0 0 1.296.113 3.283 3.283 0 0 0 .689-.075 2.186 2.186 0 0 0 .288 0 1.682 1.682 0 0 0 .59-.196.375.375 0 0 0 .188-.378.923.923 0 0 0-.078-.626 4.234 4.234 0 0 0-.23-.466c-.082-.142-.169-.281-.247-.43l.03.068-.039-.084-.007-.005.006.004c-.03-.065-.06-.13-.093-.193a6.4 6.4 0 0 1-.273-.656 18.11 18.11 0 0 1-.217-.672c-.135-.461-.258-.925-.386-1.387-.116-.41-.259-.813-.387-1.219.9-.202 1.802-.402 2.694-.635 1.246-.325 2.458-.744 3.669-1.167 1.184-.412 2.326-.914 3.467-1.425s2.246-1.063 3.334-1.655c1.18-.648 2.368-1.289 3.487-2.034 1.075-.712 2.147-1.434 3.159-2.234a60.137 60.137 0 0 0 3.189-2.677 32.904 32.904 0 0 0 2.744-2.804 45.34 45.34 0 0 0 1.361-1.633c.409-.513.793-1.047 1.18-1.575.162-.216.288-.433.42-.641z"/><path data-name="Path 88" d="M30.87 61.99l-.097.032z"/><path data-name="Path 89" d="M10.647 70.398l.03.01-.022-.008z"/><path data-name="Path 90" d="M30.006 69.233l-.012-.024z"/></g></svg>