<?xml version="1.0" encoding="utf-8"?>
<!-- Generator: Adobe Illustrator 23.0.1, SVG Export Plug-In . SVG Version: 6.00 Build 0)  -->
<svg version="1.1" id="Layer_1" xmlns="http://www.w3.org/2000/svg" xmlns:xlink="http://www.w3.org/1999/xlink" x="0px" y="0px"
	 viewBox="0 0 200 56" style="enable-background:new 0 0 200 56;" xml:space="preserve">
<style type="text/css">
	.st0{fill:#372E75;}
</style>
<g>
	<path class="st0" d="M39.54,56c-12.4-7.5-24.21-14.54-35.88-21.73c-4.96-3.06-4.86-9.59,0.16-12.68C15.5,14.41,27.3,7.36,39.47,0
		c2.66,2.84,5.19,5.54,8.13,8.68c-6.99,4.33-13.81,8.56-22.06,13.68c59.17,0,116.55,0,174.46,0c0,3.66,0,6.81,0,10.69
		c-57.29,0-114.88,0-172.46,0c-0.22,0.46-0.45,0.92-0.67,1.38c6.6,4.07,13.19,8.14,20.67,12.75C44.95,50.02,42.42,52.82,39.54,56z"
		/>
</g>
</svg>
