<svg xmlns="http://www.w3.org/2000/svg" width="42.072" height="57.572" viewBox="0 0 42.072 57.572"><defs>
<style>.cls-1{fill:#372E75}.cls-2,.cls-4{fill:none}
.cls-2{stroke:#372E75;stroke-width:2px}.cls-3{stroke:none}</style>
</defs><g id="checklist"><g id="Group_21" data-name="Group 21"><g id="Group_20" data-name="Group 20"><path id="Path_64" d="M109.888 4.429h-7.75V3.322a1.107 1.107 0 0 0-1.107-1.107h-6.645a5.533 5.533 0 0 0-8.854 0h-6.645a1.107 1.107 0 0 0-1.107 1.106v1.108h-7.75a1.107 1.107 0 0 0-1.107 1.107v50.929a1.107 1.107 0 0 0 1.107 1.107h39.858A1.107 1.107 0 0 0 111 56.465V5.536a1.107 1.107 0 0 0-1.112-1.107zm-29.893 0h6.13a1.107 1.107 0 0 0 .958-.553 3.32 3.32 0 0 1 5.753 0 1.107 1.107 0 0 0 .958.553h6.13v4.428H79.995zm28.786 46.5h-5.536a1.107 1.107 0 1 0 0 2.214h5.536v2.214H71.137V6.643h6.643v3.321a1.107 1.107 0 0 0 1.107 1.107h22.143a1.107 1.107 0 0 0 1.107-1.107V6.643h6.643v44.286z" class="cls-1" data-name="Path 64" transform="translate(-68.923)"/></g></g><g id="Group_25" data-name="Group 25" transform="translate(19.715 15.5)"><g id="Group_24" data-name="Group 24"><path id="Path_66" d="M241.86 137.846h-14.492a1.13 1.13 0 0 0 0 2.214h14.492a1.13 1.13 0 0 0 0-2.214z" class="cls-1" data-name="Path 66" transform="translate(-226.462 -137.846)"/></g></g><g id="Group_27" data-name="Group 27" transform="translate(19.715 19.929)"><g id="Group_26" data-name="Group 26"><path id="Path_67" d="M234.212 177.231h-6.643a1.107 1.107 0 1 0 0 2.214h6.643a1.107 1.107 0 1 0 0-2.214z" class="cls-1" data-name="Path 67" transform="translate(-226.462 -177.231)"/></g></g><g id="Group_31" data-name="Group 31" transform="translate(5.19 28.786)"><g id="Group_30" data-name="Group 30"><path id="Path_69" d="M257.112 256h-28.847c-1 0-1.8.5-1.8 1.107s.807 1.107 1.8 1.107h28.847c1 0 1.8-.5 1.8-1.107s-.804-1.107-1.8-1.107z" class="cls-1" data-name="Path 69" transform="translate(-226.462 -256)"/></g></g><g id="Group_33" data-name="Group 33" transform="translate(5.19 33.215)"><g id="Group_32" data-name="Group 32"><path id="Path_70" d="M234.212 295.385h-6.643a1.107 1.107 0 0 0 0 2.214h6.643a1.107 1.107 0 1 0 0-2.214z" class="cls-1" data-name="Path 70" transform="translate(-226.462 -295.385)"/></g></g><g id="Group_37" data-name="Group 37" transform="translate(5.19 42.072)"><g id="Group_36" data-name="Group 36"><path id="Path_72" d="M257.112 374.154h-28.847c-1 0-1.8.5-1.8 1.107s.807 1.107 1.8 1.107h28.847c1 0 1.8-.5 1.8-1.107s-.804-1.107-1.8-1.107z" class="cls-1" data-name="Path 72" transform="translate(-226.462 -374.154)"/></g></g><g id="Group_39" data-name="Group 39" transform="translate(5.19 46.501)"><g id="Group_38" data-name="Group 38"><path id="Path_73" d="M234.212 413.538h-6.643a1.107 1.107 0 0 0 0 2.214h6.643a1.107 1.107 0 1 0 0-2.214z" class="cls-1" data-name="Path 73" transform="translate(-226.462 -413.538)"/></g></g><g id="Group_41" data-name="Group 41" transform="translate(29.893 50.929)"><g id="Group_40" data-name="Group 40"><path id="Path_74" d="M336.66 453.247a1.106 1.106 0 1 0 .325.783 1.115 1.115 0 0 0-.325-.783z" class="cls-1" data-name="Path 74" transform="translate(-334.77 -452.923)"/></g></g><g id="Ellipse_72" class="cls-2" data-name="Ellipse 72" transform="translate(5.77 14.5)"><circle cx="4" cy="4" r="4" class="cls-3"/><circle cx="4" cy="4" r="3" class="cls-4"/></g></g></svg>