<?xml version="1.0" encoding="utf-8"?>
<!-- Generator: Adobe Illustrator 23.0.1, SVG Export Plug-In . SVG Version: 6.00 Build 0)  -->
<svg version="1.1" id="Layer_1" xmlns="http://www.w3.org/2000/svg" xmlns:xlink="http://www.w3.org/1999/xlink" x="0px" y="0px"
	 viewBox="0 0 200 200" style="enable-background:new 0 0 200 200;" xml:space="preserve">
<style type="text/css">
	.st0{fill:#372E75;}
</style>
<g>
	<path class="st0" d="M153.52,113.76c0.14,2.23,0.27,3.42,0.27,4.61c0.01,18.4,0.03,36.81,0,55.21
		c-0.02,12.09-5.35,17.42-17.3,17.42c-36.83,0-73.65,0.01-110.48,0c-11.61,0-17-5.49-17.01-17.31C9,124.14,9,74.61,9,25.07
		c0-11.51,5.48-17.06,16.83-17.06c37.1-0.01,74.2-0.01,111.3,0c11.1,0,16.57,5.52,16.65,16.83c0.06,7.75,0.26,15.51-0.11,23.24
		c-0.14,2.96-1.31,6.06-2.73,8.7c-1.88,3.48-4.48,6.57-7.51,10.88c-0.14-2.48-0.28-3.87-0.29-5.26c-0.02-9.96,0.01-19.93-0.02-29.89
		c-0.02-9.51-4.16-13.76-13.44-13.77c-32.17-0.02-64.34-0.02-96.52,0c-9.31,0.01-13.52,4.29-13.53,13.7
		c-0.01,44.56-0.01,89.11,0,133.67c0,10.02,4.06,14.14,13.92,14.14c31.9,0.01,63.8,0.01,95.7,0c9.84,0,13.86-4.12,13.87-14.17
		c0.01-10.65,0.16-21.31-0.08-31.96c-0.09-3.97,0.87-7.22,3.3-10.28C148.71,120.88,150.76,117.67,153.52,113.76z"/>
	<path class="st0" d="M163.41,47.86c6.79,4.81,13.05,9.24,19.69,13.95c-20.13,29.04-40.16,57.94-60.42,87.16
		c-6.55-4.62-12.99-9.16-19.73-13.92C123.09,106.01,143.14,77.09,163.41,47.86z M164.38,63.4c-0.57-0.4-1.14-0.81-1.71-1.21
		c-15.49,22.34-30.98,44.69-46.48,67.03c0.57,0.4,1.14,0.81,1.71,1.21C133.4,108.09,148.89,85.74,164.38,63.4z M170.36,67.67
		c-0.58-0.37-1.17-0.74-1.75-1.11c-15.41,22.26-30.83,44.53-46.24,66.79c0.55,0.39,1.1,0.77,1.65,1.16
		C139.47,112.24,154.92,89.96,170.36,67.67z"/>
	<path class="st0" d="M34.44,52.59c0-2.86,0-5.3,0-8.04c31.3,0,62.49,0,93.88,0c0,2.7,0,5.25,0,8.04
		C97.01,52.59,65.92,52.59,34.44,52.59z"/>
	<path class="st0" d="M34.5,75.69c0-2.91,0-5.36,0-8.03c31.32,0,62.44,0,93.81,0c0,2.71,0,5.25,0,8.03
		C97,75.69,65.87,75.69,34.5,75.69z"/>
	<path class="st0" d="M127.38,90.71c-1.85,2.71-3.18,4.94-4.83,6.91c-0.66,0.79-2,1.42-3.04,1.42c-27.25,0.08-54.49,0.06-81.74,0.06
		c-0.95,0-1.9,0-3.16,0c0-2.85,0-5.51,0-8.4C65.36,90.71,95.99,90.71,127.38,90.71z"/>
	<path class="st0" d="M53.21,136.4c7.44,0.03,13.59,6.16,13.69,13.65c0.1,7.66-6.12,13.93-13.81,13.91
		c-7.68-0.02-13.79-6.3-13.63-14.02C39.62,142.4,45.75,136.36,53.21,136.4z"/>
	<path class="st0" d="M165.21,45.42c1.24-1.85,2.19-3.35,3.23-4.79c3.02-4.21,5.87-4.79,10.12-1.96c2.62,1.75,5.17,3.61,7.72,5.47
		c4.35,3.18,4.82,5.98,1.77,10.5c-1,1.48-2.05,2.91-3.26,4.62C178.33,54.7,171.97,50.2,165.21,45.42z"/>
	<path class="st0" d="M121.22,151.14c-6.76,2.52-12.96,4.83-19.51,7.27c0-7.14,0-13.73,0-21.05
		C108.32,142.03,114.52,146.41,121.22,151.14z"/>
	<path class="st0" d="M164.38,63.4c-15.49,22.34-30.98,44.69-46.47,67.03c-0.57-0.4-1.14-0.81-1.71-1.21
		c15.49-22.34,30.98-44.69,46.48-67.03C163.24,62.59,163.81,62.99,164.38,63.4z"/>
	<path class="st0" d="M170.36,67.67c-15.45,22.28-30.89,44.56-46.34,66.85c-0.55-0.39-1.1-0.77-1.65-1.16
		c15.41-22.26,30.83-44.53,46.24-66.79C169.19,66.93,169.78,67.3,170.36,67.67z"/>
</g>
</svg>
