<svg xmlns="http://www.w3.org/2000/svg" width="23.807" height="19.045" viewBox="0 0 23.807 19.045"><defs>
<style>.cls-1{fill:#372E75}</style></defs><g id="credit-card_1_" data-name="credit-card (1)" transform="translate(0 -54.821)"><g id="Group_315" data-name="Group 315" transform="translate(0 54.821)"><path id="Path_187" d="M23.224 55.4a1.91 1.91 0 0 0-1.4-.583H1.984a1.911 1.911 0 0 0-1.4.583A1.91 1.91 0 0 0 0 56.8v15.082a1.91 1.91 0 0 0 .583 1.4 1.911 1.911 0 0 0 1.4.583h19.84a1.99 1.99 0 0 0 1.984-1.984V56.8a1.911 1.911 0 0 0-.583-1.4zm-1 16.479a.4.4 0 0 1-.4.4H1.984a.4.4 0 0 1-.4-.4v-7.535H22.22v7.539zm0-12.3H1.587V56.8a.4.4 0 0 1 .4-.4h19.836a.4.4 0 0 1 .4.4v2.778z" class="cls-1" data-name="Path 187" transform="translate(0 -54.821)"/><path id="Rectangle_331" d="M0 0h3.174v1.587H0z" class="cls-1" data-name="Rectangle 331" transform="translate(3.174 14.284)"/><path id="Rectangle_332" d="M0 0h4.761v1.587H0z" class="cls-1" data-name="Rectangle 332" transform="translate(7.936 14.284)"/></g></g></svg>