<svg xmlns="http://www.w3.org/2000/svg" width="17.593" height="21.661" viewBox="0 0 17.593 21.661"
><g fill="#fff"><path data-name="Path 160" d="M11.789 7.845a.507.507 0 0 0-.507.507v9.593a.507.507 0 1 0 1.015 0v-9.59a.507.507 0 0 0-.508-.51zm0 0"/><path data-name="Path 161" d="M5.803 7.845a.507.507 0 0 0-.507.507v9.593a.507.507 0 1 0 1.015 0v-9.59a.507.507 0 0 0-.508-.51zm0 0"/><path data-name="Path 162" d="M1.44 6.449v12.5a2.8 2.8 0 0 0 .744 1.93 2.5 2.5 0 0 0 1.813.784h9.6a2.5 2.5 0 0 0 1.813-.784 2.8 2.8 0 0 0 .744-1.93v-12.5a1.938 1.938 0 0 0-.5-3.811h-2.6v-.636a1.993 1.993 0 0 0-2.009-2h-4.5a1.993 1.993 0 0 0-2.01 2v.634h-2.6a1.938 1.938 0 0 0-.5 3.811zm12.155 14.2h-9.6a1.607 1.607 0 0 1-1.542-1.7V6.494h12.684v12.454a1.607 1.607 0 0 1-1.542 1.7zM5.549 2.002a.977.977 0 0 1 .994-.989h4.5a.977.977 0 0 1 1 .989v.634H5.549zM1.938 3.653h13.717a.913.913 0 0 1 0 1.826H1.938a.913.913 0 1 1 0-1.826zm0 0"/><path data-name="Path 163" d="M8.796 7.845a.507.507 0 0 0-.507.507v9.593a.507.507 0 1 0 1.015 0v-9.59a.507.507 0 0 0-.508-.51zm0 0"/></g></svg>