<svg xmlns="http://www.w3.org/2000/svg" width="14.862" height="19.817" viewBox="0 0 14.862 19.817">
<g data-name="Group 299">
<path data-name="Path 175" d="M.968 0h9.421c1.9 1.944 2.349 2.376 4.474 4.286v14.563a.968.968 0 0 1-.968.968H.968A.968.968 0 0 1 0 18.849V.968A.968.968 0 0 1 .968 0z" fill="#372E75"/><g data-name="file (1)"><g data-name="Group 290"><g data-name="Group 289"><path data-name="Path 170" d="M14.86 4.011a.463.463 0 0 0-.135-.323L11.172.136A.462.462 0 0 0 10.844 0H.977A.978.978 0 0 0 0 .977V18.84a.978.978 0 0 0 .977.977h12.906a.978.978 0 0 0 .977-.977V4.016a.033.033 0 0 0 0-.005zm-3.552-2.427l1.968 1.968H11.36a.049.049 0 0 1-.049-.049zm2.624 17.256a.049.049 0 0 1-.049.049H.977a.049.049 0 0 1-.049-.049V.977A.049.049 0 0 1 .977.928h9.4V3.5a.978.978 0 0 0 .977.977h2.575V18.84z" fill="#372E75"/></g></g><g data-name="Group 292"><g data-name="Group 291"><path data-name="Path 171" d="M11.536 6.348H3.324a.464.464 0 0 0 0 .928h8.212a.464.464 0 0 0 0-.928z" fill="#fff"/></g></g><g data-name="Group 294"><g data-name="Group 293"><path data-name="Path 172" d="M11.536 9.148H3.324a.464.464 0 0 0 0 .928h8.212a.464.464 0 0 0 0-.928z" fill="#fff"/></g></g><g data-name="Group 296"><g data-name="Group 295"><path data-name="Path 173" d="M11.536 11.948H3.324a.464.464 0 0 0 0 .928h8.212a.464.464 0 0 0 0-.928z" fill="#fff"/></g></g><g data-name="Group 298"><g data-name="Group 297"><path data-name="Path 174" d="M7.43 14.748H3.324a.464.464 0 0 0 0 .928H7.43a.464.464 0 1 0 0-.928z" fill="#fff"/></g></g></g></g></svg>