<?xml version="1.0" encoding="utf-8"?>
<!-- Generator: Adobe Illustrator 23.0.1, SVG Export Plug-In . SVG Version: 6.00 Build 0)  -->
<svg version="1.1" id="Layer_1" xmlns="http://www.w3.org/2000/svg" xmlns:xlink="http://www.w3.org/1999/xlink" x="0px" y="0px"
	 viewBox="0 0 100 100" style="enable-background:new 0 0 100 100;" xml:space="preserve">
<style type="text/css">
	.st0{fill:#372E75;}
</style>
<g>
	<path class="st0" d="M37.36,33.49c0-8.98,0-17.6,0-26.23c0-6.2,0.88-7.1,6.95-7.1c4.02,0,8.05-0.02,12.07,0
		c4.96,0.03,6.23,1.3,6.24,6.26c0.01,8.87,0,17.73,0,27.06c3.95,0,7.73-0.19,11.47,0.09c1.67,0.12,4.13,0.77,4.67,1.93
		c0.56,1.19-0.38,3.63-1.38,4.97C72.44,47.09,67.3,53.56,62.14,60c-3.07,3.84-6.31,7.55-9.48,11.3c-2.18,2.58-3.95,2.58-6.12-0.14
		c-4.59-5.77-9.07-11.64-13.68-17.39c-3.63-4.52-7.53-8.83-11.04-13.45c-0.98-1.3-1.7-3.65-1.2-5c0.39-1.03,2.85-1.66,4.43-1.76
		C29.04,33.32,33.05,33.49,37.36,33.49z"/>
	<path class="st0" d="M0.02,66.94c5.56,0,10.74,0,16.32,0c0,4.39,0.08,8.69-0.03,12.97c-0.07,2.53,0.82,3.6,3.4,3.59
		c19.92-0.06,39.85-0.07,59.77,0.01c2.78,0.01,3.61-1.18,3.53-3.82c-0.13-4.19-0.03-8.38-0.03-12.72c5.72,0,11.12,0,16.73,0
		c0.09,0.72,0.25,1.46,0.25,2.19c0.02,7.44,0.07,14.89-0.01,22.33c-0.06,5.15-3.39,8.61-8.42,8.62c-27.65,0.05-55.31,0.05-82.96,0
		c-4.94-0.01-8.43-3.32-8.5-8.18C-0.07,83.73,0.02,75.52,0.02,66.94z"/>
</g>
</svg>
