<?xml version="1.0" encoding="utf-8"?>
<!-- Generator: Adobe Illustrator 23.0.1, SVG Export Plug-In . SVG Version: 6.00 Build 0)  -->
<svg version="1.1" id="Layer_1" xmlns="http://www.w3.org/2000/svg" xmlns:xlink="http://www.w3.org/1999/xlink" x="0px" y="0px"
	 viewBox="0 0 100 100" style="enable-background:new 0 0 100 100;" xml:space="preserve">
<style type="text/css">
	path{fill:#372E75;}
	path{font-family:sans-serif;font-weight: 900;}
	path{font-size:15.3756px;}
</style>
<g>
	<g>
		<path d="M89.06,46.41c-0.35,0.02-0.69-0.02-1.03-0.1c-0.01,0.39-0.01,0.78-0.02,1.17c-0.01,0.52-0.76,1.18-1.35,1.49
			c-3.14,1.68-6.33,3.28-9.51,4.89c-0.45,0.23-0.95,0.49-1.43,0.5c-6.58,0.03-13.16,0.02-19.71,0.02c-0.64-4.28-0.64-4.28-5.3-4.28
			c-2.95,0-5.91,0-8.86,0c-4.64,0-4.64,0-5.04,4.31c-4.97,0-10.02-0.35-14.98,0.09c-6.8,0.6-11.19-3.67-16.55-5.98
			c-0.41-0.17-0.6-1.08-0.6-1.64c-0.05-4.02-0.03-8.04-0.03-12.24H75.4c0-0.06-0.01-0.12-0.01-0.18c0.01-1.06,0.14-2.12,0.15-3.18
			c0-0.21,0.04-0.41,0.07-0.61c-9.75,0-19.5,0-29.25,0c-13.47,0-26.94,0-40.41,0c-4.05,0-5.48,1.29-5.48,4.97
			c-0.01,15.39-0.01,30.78,0,46.17c0,4.24,1.6,5.69,6.27,5.69c26.42,0.01,52.84,0.01,79.26,0c4.66,0,6.26-1.45,6.26-5.69
			c0.01-12.26,0-24.51,0-36.77C91.43,45.85,90.3,46.35,89.06,46.41z M41.26,54.07h10.17v5.21H41.26V54.07z M87.93,83.59H4.83V52.77
			c3,1.53,5.79,3.07,8.7,4.39c1.26,0.57,2.75,0.98,4.15,1.01c6.33,0.11,12.65,0.05,18.86,0.05c0.21,0.33,0.35,0.46,0.36,0.59
			c0.3,4.39,0.3,4.39,5.1,4.39c3.22,0,6.43,0.01,9.65,0.01c3.71-0.01,3.99-0.26,4.11-3.58c0.01-0.38,0.08-0.76,0.15-1.41
			c4.82,0,9.59-0.23,14.33,0.06c4.9,0.3,9.23-0.61,13.2-3.23c1.3-0.86,2.82-1.45,4.5-2.3V83.59z"/>
		<path d="M58.89,19.39c-8.5,0-16.63,0-25.04,0c0,1.73,0.22,3.39-0.09,4.98c-0.17,0.86-1.13,2.11-1.93,2.25
			c-1.54,0.26-2.18-0.9-2.16-2.29c0.03-2.21,0-4.41,0.02-6.62c0.01-1.44,0.81-2.19,2.41-2.19c9.46-0.01,18.92,0,28.39-0.01
			c1.71,0,2.57,0.76,2.57,2.31c0,2.21,0.18,4.43-0.09,6.61c-0.1,0.83-1.27,1.54-1.95,2.3c-0.71-0.74-1.85-1.41-2.02-2.24
			C58.66,22.91,58.89,21.22,58.89,19.39z"/>
	</g>
	<g>
		<path d="M86.38,48.83c-2.74,0.15-5.44-0.93-7.73-2.65c-4.08-3.06-5.98-7.2-5.7-12.13c0.21-3.82,1.69-7.14,4.77-9.73
			c0.71-0.59,1.45-1.17,2.25-1.64c3.12-1.8,6.52-2.41,10.03-1.43c4.26,1.19,7.37,3.76,9.16,7.68c1.41,3.09,1.66,6.25,0.84,9.5
			c-0.55,2.2-1.61,4.17-3.18,5.86c-1.51,1.63-3.32,2.84-5.48,3.67C89.82,48.56,88.31,48.82,86.38,48.83z M97.56,35.58
			c0-2.76-0.57-4.66-1.63-6.5c-1.68-2.9-4.38-4.42-7.63-5.18c-1.38-0.32-2.76-0.11-4.17,0.28c-4.2,1.14-6.75,3.78-7.84,7.63
			c-1.31,4.66,0.03,8.74,3.92,11.84c2.21,1.76,4.93,2.54,7.93,2.02c2.22-0.38,4.17-1.13,5.83-2.67
			C96.37,40.74,97.44,38.02,97.56,35.58z"/>
		<path d="M87.68,34.44c2.04,0,3.98-0.01,5.93,0c0.98,0.01,1.42,0.43,1.36,1.22c-0.05,0.68-0.42,1.08-1.16,1.08
			c-2.39,0.01-4.78,0.02-7.17,0c-0.86-0.01-1.19-0.4-1.2-1.39c-0.02-2.17-0.01-4.34-0.01-6.51c0-0.69,0-1.37,0.01-2.06
			c0.01-0.66,0.37-1.05,1.05-1.08c0.68-0.02,1.1,0.35,1.11,1.01c0.03,2.14,0.04,4.28,0.06,6.43C87.68,33.54,87.68,33.95,87.68,34.44
			z"/>
	</g>
</g>
</svg>
