<svg xmlns="http://www.w3.org/2000/svg" width="12" height="21" viewBox="0 0 12 21"><defs>
<style>.cls-1{fill:#fff}</style></defs><g id="facebook-logo_2_" data-name="facebook-logo (2)"><path id="Path_193" d="M33.625 0h-2.878c-3.234 0-5.323 2.028-5.323 5.168v2.383H22.53a.441.441 0 0 0-.453.428v3.452a.441.441 0 0 0 .453.428h2.894v8.712a.441.441 0 0 0 .453.428h3.776a.441.441 0 0 0 .453-.428V11.86h3.384a.441.441 0 0 0 .453-.428V7.979a.417.417 0 0 0-.133-.3.466.466 0 0 0-.32-.126H30.1V5.531c0-.971.245-1.464 1.581-1.464h1.939a.441.441 0 0 0 .452-.428V.433A.441.441 0 0 0 33.625 0z" class="cls-1" data-name="Path 193" transform="translate(-22.077)"/></g></svg>