<?xml version="1.0" encoding="utf-8"?>
<!-- Generator: Adobe Illustrator 23.0.1, SVG Export Plug-In . SVG Version: 6.00 Build 0)  -->
<svg version="1.1" id="Layer_1" xmlns="http://www.w3.org/2000/svg" xmlns:xlink="http://www.w3.org/1999/xlink" x="0px" y="0px"
	 viewBox="0 0 100 100" style="enable-background:new 0 0 100 100;" xml:space="preserve">
<style type="text/css">
	.st0{fill:#372E75;}
	.st1{font-family:-apple-system, BlinkMacSystemFont, 'Segoe UI', Roboto, Oxygen, Ubuntu, Cantarell, 'Open Sans', 'Helvetica Neue', sans-serif;font-weight: bold;}
	.st2{font-size:14.102px;}
</style>
<g>
	<g>
		<path class="st0" d="M89.67,73.4c0.3-0.2,0.48-0.32,0.7-0.46c1.1,1.05,2.19,2.07,3.24,3.12c0.09,0.09,0.04,0.38-0.08,0.46
			c-1.1,0.73-2.21,1.46-3.36,2.15c-0.38,0.23-0.5,0.46-0.5,0.8c0.01,5.54,0,11.09,0.02,16.63c0,1.14-0.35,2.19-1.42,2.99
			c-0.71,0.53-1.65,0.89-2.73,0.89c-3.1,0-6.19-0.01-9.29-0.01c-1.65,0-3.31,0.02-4.96,0.02c-8.11,0-16.22,0-24.33,0
			c-6.05,0-12.1,0-18.15,0c-6.26,0-12.53-0.03-18.79,0.02c-2.66,0.02-4.37-1.41-4.62-3.2c-0.03-0.24-0.03-0.49-0.03-0.74
			c0-5.65,0-11.3,0-16.95c0-15.93,0-31.85,0-47.78c0-9.13,0.01-18.27-0.01-27.4c0-1.27,0.49-2.35,1.72-3.21
			C7.81,0.2,8.76,0.03,9.76,0.03c2.25,0,4.49,0,6.74,0c8.25,0,16.5,0,24.74,0c10,0,20,0,29.99,0c4.58,0,9.17,0.08,13.75-0.03
			c3.02-0.07,4.74,2.1,4.67,3.68c-0.06,1.42,0.01,2.84,0.01,4.27c0,13.61,0,27.21,0,40.82c0,7.99,0,15.97,0,23.96
			C89.67,72.91,89.67,73.1,89.67,73.4z M75.33,82.16c0.87-0.53,1.77-1.04,2.65-1.57c0.59-0.35,1.16-0.71,1.74-1.06
			c2.13-1.31,4.25-2.64,6.4-3.93c0.52-0.31,0.78-0.63,0.78-1.14c-0.02-8.66-0.02-17.31-0.01-25.97c0.02-14.87,0.04-29.74,0.06-44.62
			c0-1.12-0.71-1.62-2.24-1.6c-1.53,0.02-3.07,0.03-4.6,0.04c-2.81,0.01-5.61,0-8.42,0c-10.28,0-20.57,0-30.85-0.01
			c-2.45,0-4.91-0.03-7.36-0.03c-3.7,0-7.41,0.03-11.11,0.03c-4.09,0.01-8.18,0.01-12.27-0.01c-1.12,0-1.8,0.33-1.92,1.37
			C8.14,3.9,8.15,4.13,8.15,4.36c0,8.69,0,17.38,0,26.07c0,10.32,0,20.63-0.01,30.95c0,3.89-0.05,7.78-0.05,11.67
			c0,1.86,0.05,3.72,0.05,5.59c0.01,5.83,0,11.65,0,17.48c0,1.17,0.55,1.57,2.13,1.57c6.38,0,12.76-0.01,19.14,0
			c2.38,0,4.76,0.04,7.14,0.04c2.95,0,5.89-0.04,8.84-0.04c9.48-0.01,18.96,0,28.44,0c1.84,0,3.68,0.03,5.52,0.04
			c1.72,0.01,3.44-0.03,5.16,0.01c1.67,0.04,2.35-0.4,2.35-1.64c0-4.89,0-9.79,0-14.68c0-0.17-0.02-0.33-0.05-0.65
			c-0.57,0.38-1.01,0.68-1.46,0.97c-1.56,1-3.12,2.01-4.69,3c-1.93,1.22-3.87,2.43-5.8,3.66c-0.75,0.47-1.45,0.99-2.2,1.46
			c-0.41,0.25-0.85,0.57-1.34,0.66c-1.57,0.28-3.18,0.48-4.77,0.69c-0.27,0.04-0.57-0.03-0.86-0.04c0.05-0.22,0.06-0.45,0.17-0.65
			c0.68-1.24,1.37-2.47,2.07-3.7c0.07-0.12,0.15-0.26,0.28-0.34c1.53-0.92,3.08-1.83,4.62-2.75c0.48-0.29,0.93-0.61,1.39-0.92
			 M14.27,81.84 M68.34,87.25c-0.65,1.18-1.23,2.25-1.87,3.41c1.56-0.19,2.97-0.36,4.5-0.54C70.08,89.14,69.25,88.24,68.34,87.25z"
			/>
		<path class="st0" d="M94.25,75.94c-1.12-1.09-2.23-2.17-3.32-3.24c0.3-0.23,0.52-0.46,0.81-0.62c0.42-0.25,0.96-0.26,1.27,0.05
			c0.77,0.77,1.47,1.57,2.15,2.38C95.59,75.03,95.28,75.49,94.25,75.94z"/>
		<path class="st0" d="M14.2,62.49"/>
		<path class="st0" d="M14.22,68.19"/>
		<path class="st0" d="M17.77,89.56"/>
		<path class="st0" d="M20.12,89.56"/>
		<path class="st0" d="M22.48,89.56"/>
		<path class="st0" d="M24.83,89.56"/>
		<path class="st0" d="M31.84,89.56"/>
		<path class="st0" d="M34.2,89.56"/>
		<path class="st0" d="M36.55,89.56"/>
		<path class="st0" d="M38.91,89.56"/>
		<path class="st0" d="M45.92,89.56"/>
		<path class="st0" d="M48.28,89.56"/>
		<path class="st0" d="M50.63,89.56"/>
		<path class="st0" d="M57.61,89.72"/>
		<path class="st0" d="M15.09,89.52"/>
	</g>
</g>
<text transform="matrix(1.1343 0 0 1 12.6572 20.4997)" class="st0 st1 st2">Feedback</text>
<path class="st0" d="M22.21,24.65c1.16,0.06,2.34,0.01,3.47,0.21c2.36,0.43,4.63,2.63,4.24,5.1c-0.1,0.66-0.1,1.35,0,2
	c0.38,2.37-2.42,4.8-4.82,4.9c-1.84,0.08-3.68,0.1-5.52,0.02c-2.53-0.11-5.33-2.15-4.99-4.99c0.09-0.75,0.09-1.52,0-2.27
	c-0.31-2.77,2.65-4.8,5.15-4.89c0.82-0.03,1.65,0,2.47,0C22.2,24.7,22.2,24.67,22.21,24.65z M22.28,27.13c-0.58,0-1.16-0.01-1.74,0
	c-2.04,0.04-3.07,0.99-3.09,2.86c-0.01,0.67-0.02,1.34,0,2c0.05,1.3,1.03,2.34,2.46,2.5c1,0.11,2.03,0.07,3.04,0.08
	c3.18,0,3.75-0.51,3.75-3.38C26.7,27.3,26.52,27.13,22.28,27.13z"/>
<polygon class="st0" points="20.84,65.05 18.13,63.76 15.39,65.01 15.94,62.32 13.76,60.4 16.81,60.02 18.2,57.57 19.54,60.04 
	22.58,60.45 20.35,62.35 "/>
<polygon class="st0" points="31.42,65.05 28.71,63.76 25.97,65.01 26.52,62.32 24.34,60.4 27.39,60.02 28.78,57.57 30.12,60.04 
	33.16,60.45 30.93,62.35 "/>
<polygon class="st0" points="42,65.05 39.29,63.76 36.55,65.01 37.1,62.32 34.92,60.4 37.97,60.02 39.36,57.57 40.7,60.04 
	43.74,60.45 41.51,62.35 "/>
<polygon class="st0" points="52.58,65.05 49.87,63.76 47.13,65.01 47.68,62.32 45.5,60.4 48.55,60.02 49.94,57.57 51.28,60.04 
	54.32,60.45 52.09,62.35 "/>
<polygon class="st0" points="63.16,65.05 60.45,63.76 57.71,65.01 58.26,62.32 56.08,60.4 59.13,60.02 60.52,57.57 61.85,60.04 
	64.9,60.45 62.67,62.35 "/>
<path class="st0" d="M51.45,32.46c-4.69,0-9.39,0-14.08,0c-0.47,0-1.03,0.13-1.39-0.04c-0.8-0.37-1.49-0.89-2.23-1.34
	c0.67-0.52,1.29-1.08,2.03-1.54c0.26-0.16,0.78-0.06,1.18-0.06c9.66,0,19.31-0.01,28.97,0.01c0.59,0,1.35-0.04,1.73,0.22
	c0.53,0.37,1.24,1.29,1.07,1.48c-0.51,0.56-1.42,1.2-2.19,1.22c-4.76,0.11-9.52,0.06-14.28,0.06
	C51.98,32.46,51.72,32.46,51.45,32.46z"/>
<path class="st0" d="M30.77,44.42c-4.69,0-9.39,0-14.08,0c-0.47,0-1.03,0.13-1.39-0.04c-0.8-0.37-1.49-0.89-2.23-1.34
	c0.67-0.52,1.29-1.08,2.03-1.54c0.26-0.16,0.78-0.06,1.18-0.06c9.66,0,19.31-0.01,28.97,0.01c0.59,0,1.35-0.04,1.73,0.22
	c0.53,0.37,1.24,1.29,1.07,1.48c-0.51,0.56-1.42,1.2-2.19,1.22c-4.76,0.11-9.52,0.06-14.28,0.06C31.3,44.42,31.03,44.42,30.77,44.42
	z"/>
<path class="st0" d="M46.48,73.32c-10.28,0-20.56,0-30.85,0c-0.71,0-1.54,0.13-2.09-0.07c-0.71-0.26-1.61-0.78-1.65-1.21
	c-0.04-0.45,0.7-1.08,1.36-1.37c0.56-0.24,1.51-0.14,2.29-0.14c20.56-0.01,41.13,0,61.69,0c0.31,0,0.63,0,0.94,0
	c1.57-0.01,2.93,0.25,2.9,1.47c-0.03,1.16-1.35,1.34-2.82,1.33c-5.26-0.01-10.52-0.01-15.78-0.01
	C57.15,73.32,51.81,73.32,46.48,73.32z"/>
<path class="st0" d="M46.48,82.65c-10.28,0-20.56,0-30.85,0c-0.71,0-1.54,0.13-2.09-0.07c-0.71-0.26-1.61-0.78-1.65-1.21
	c-0.04-0.45,0.7-1.08,1.36-1.37c0.56-0.24,1.51-0.14,2.29-0.14c20.56-0.01,41.13,0,61.69,0c0.31,0,0.63,0,0.94,0
	c1.57-0.01,2.93,0.25,2.9,1.47c-0.03,1.16-1.35,1.34-2.82,1.33c-5.26-0.01-10.52-0.01-15.78-0.01
	C57.15,82.65,51.81,82.65,46.48,82.65z"/>
<path class="st0" d="M30.29,91.43c-4.69,0-9.39,0-14.08,0c-0.47,0-1.03,0.13-1.39-0.04c-0.8-0.37-1.49-0.89-2.23-1.34
	c0.67-0.52,1.29-1.08,2.03-1.54c0.26-0.16,0.78-0.06,1.18-0.06c9.66,0,19.31-0.01,28.97,0.01c0.59,0,1.35-0.04,1.73,0.22
	c0.53,0.37,1.24,1.29,1.07,1.48c-0.51,0.56-1.42,1.2-2.19,1.22c-4.76,0.11-9.52,0.06-14.28,0.06
	C30.82,91.43,30.56,91.43,30.29,91.43z"/>
<path class="st0" d="M46.48,52.83c-10.28,0-20.56,0-30.85,0c-0.71,0-1.54,0.13-2.09-0.07c-0.71-0.26-1.61-0.78-1.65-1.21
	c-0.04-0.45,0.7-1.08,1.36-1.37c0.56-0.24,1.51-0.14,2.29-0.14c20.56-0.01,41.13,0,61.69,0c0.31,0,0.63,0,0.94,0
	c1.57-0.01,2.93,0.25,2.9,1.47c-0.03,1.16-1.35,1.34-2.82,1.33c-5.26-0.01-10.52-0.01-15.78-0.01
	C57.15,52.83,51.81,52.83,46.48,52.83z"/>
</svg>
