<?xml version="1.0" encoding="utf-8"?>
<!-- Generator: Adobe Illustrator 23.0.3, SVG Export Plug-In . SVG Version: 6.00 Build 0)  -->
<svg version="1.1" id="Layer_1" xmlns="http://www.w3.org/2000/svg" xmlns:xlink="http://www.w3.org/1999/xlink" x="0px" y="0px"
	 viewBox="0 0 25 25" style="enable-background:new 0 0 25 25;" xml:space="preserve">
<style type="text/css">
	.st0{fill:none;stroke:#372E75;stroke-width:0.5;stroke-miterlimit:10;}
	.st1{fill:none;stroke:#372E75;stroke-width:0.6033;stroke-miterlimit:10;}
	.st2{fill:#372E75;}
	.st3{fill:#6C757D;}
</style>
<g>
	<path class="st0" d="M23.8,17.7v0.7c0,0.2-0.1,0.4-0.2,0.5l-4.7,4.7c-0.1,0.1-0.3,0.2-0.5,0.2h-0.7v-5.4c0-0.4,0.3-0.7,0.7-0.7
		H23.8z"/>
	<path class="st0" d="M21.2,5.9h-7.1V8c0,0.9-0.7,1.7-1.7,1.7S10.8,8.9,10.8,8V5.9H3.8c-1.4,0-2.6,1.2-2.6,2.6v12.7
		c0,1.4,1.2,2.6,2.6,2.6h13v-5.4c0-0.9,0.7-1.7,1.7-1.7h5.4V8.5C23.8,7.1,22.7,5.9,21.2,5.9z M14.4,19.6H5.7c-0.4,0-0.7-0.3-0.7-0.7
		s0.3-0.7,0.7-0.7h8.7c0.4,0,0.7,0.3,0.7,0.7S14.8,19.6,14.4,19.6z M19.3,15.8H5.7c-0.4,0-0.7-0.3-0.7-0.7s0.3-0.7,0.7-0.7h13.7
		c0.4,0,0.7,0.3,0.7,0.7S19.7,15.8,19.3,15.8z M19.3,12H5.7c-0.4,0-0.7-0.3-0.7-0.7s0.3-0.7,0.7-0.7h13.7c0.4,0,0.7,0.3,0.7,0.7
		C20.1,11.7,19.7,12,19.3,12z"/>
	<path class="st1" d="M14.4,3c0,0.8-0.5,1.5-1.2,1.8v3.3c0,0.4-0.3,0.7-0.7,0.7s-0.7-0.3-0.7-0.7V4.8c-0.7-0.3-1.2-1-1.2-1.8
		c0-1.1,0.9-1.9,1.9-1.9S14.4,1.9,14.4,3z"/>
</g>
</svg>
