<?xml version="1.0" encoding="utf-8"?>
<!-- Generator: Adobe Illustrator 23.0.3, SVG Export Plug-In . SVG Version: 6.00 Build 0)  -->
<svg version="1.1" id="Layer_1" xmlns="http://www.w3.org/2000/svg" xmlns:xlink="http://www.w3.org/1999/xlink" x="0px" y="0px"
	 viewBox="0 0 25 25" style="enable-background:new 0 0 25 25;" xml:space="preserve">
<style type="text/css">
	.st0{fill:none;stroke:#372E75;stroke-width:0.5;stroke-miterlimit:10;}
	.st1{fill:none;stroke:#372E75;stroke-width:0.6033;stroke-miterlimit:10;}
	.st2{fill:#372E75;}
	.st3{fill:#372E75;}
	.st4{fill:none;}
	.st5{fill:none;stroke:#372E75;stroke-width:2.3375;}
	.st6{fill:#372E75;}
	.st7{fill:none;stroke:#372E75;stroke-width:1.1687;}
	.st8{fill:none;stroke:#231F20;stroke-width:2.2791;stroke-miterlimit:10;}
	.st9{fill:none;stroke:#212529;stroke-width:2.2791;stroke-miterlimit:10;}
	.st10{fill:none;stroke:#372E75;stroke-width:1.8486;}
	.st11{fill:none;stroke:#372E75;stroke-width:0.5645;stroke-miterlimit:10;}
</style>
<g>
	<g>
		<g>
			<path class="st6" d="M12.5,0.7C7.9,0.7,4.2,4.5,4.2,9c0,1.5,0.4,3,1.2,4.3L12,23.9c0.1,0.2,0.3,0.3,0.6,0.3c0,0,0,0,0,0
				c0.2,0,0.5-0.1,0.6-0.3l6.4-10.7c0.8-1.3,1.2-2.7,1.2-4.2C20.8,4.5,17.1,0.7,12.5,0.7z M18.4,12.5l-5.8,9.7l-6-9.6
				c-0.7-1.1-1-2.3-1-3.6c0-3.8,3.1-6.9,6.9-6.9s6.9,3.1,6.9,6.9C19.4,10.3,19.1,11.5,18.4,12.5z"/>
		</g>
	</g>
	<g>
		<g>
			<path class="st6" d="M12.5,4.9c-2.3,0-4.1,1.9-4.1,4.1c0,2.3,1.8,4.1,4.1,4.1c2.3,0,4.1-1.9,4.1-4.1C16.6,6.7,14.8,4.9,12.5,4.9z
				 M12.5,11.8c-1.5,0-2.8-1.2-2.8-2.8c0-1.5,1.2-2.8,2.8-2.8s2.8,1.2,2.8,2.8C15.3,10.5,14.1,11.8,12.5,11.8z"/>
		</g>
	</g>
</g>
</svg>
