<?xml version="1.0" encoding="utf-8"?>
<!-- Generator: Adobe Illustrator 23.0.3, SVG Export Plug-In . SVG Version: 6.00 Build 0)  -->
<svg version="1.1" id="Layer_1" xmlns="http://www.w3.org/2000/svg" xmlns:xlink="http://www.w3.org/1999/xlink" x="0px" y="0px"
	 viewBox="0 0 25 25" style="enable-background:new 0 0 25 25;" xml:space="preserve">
<style type="text/css">
	.st0{fill:none;stroke:#372E75;stroke-width:0.5;stroke-miterlimit:10;}
	.st1{fill:none;stroke:#372E75;stroke-width:0.6033;stroke-miterlimit:10;}
	.st2{fill:#372E75;}
	.st3{fill:#6C757D;}
</style>
<g id="_x3C_Group_x3E__28_">
	<path class="st0" d="M18.1,3.4v2.8H6.9V3.4H3.5v21h18.1v-21H18.1z M7.6,21.8l-1.9-1.9l1-1l0.9,0.9l2.3-2.3l1,1L7.6,21.8z M7.6,17.7
		l-1.9-1.9l1-1l0.9,0.9l2.3-2.3l1,1L7.6,17.7z M7.6,13.5l-1.9-1.9l1-1l0.9,0.9l2.3-2.3l1,1L7.6,13.5z M18.8,20.2h-7v-1.4h7V20.2z
		 M18.8,16h-7v-1.4h7V16z M18.8,11.8h-7v-1.4h7V11.8z"/>
	<path class="st0" d="M13.9,2c0-0.8-0.6-1.4-1.4-1.4S11.1,1.2,11.1,2c-0.3,0-2.4,0-2.8,0v2.8h8.3c0-0.3,0-2.4,0-2.8
		C16.3,2,14.2,2,13.9,2z"/>
</g>
</svg>
