<?xml version="1.0" encoding="utf-8"?>
<!-- Generator: Adobe Illustrator 23.0.3, SVG Export Plug-In . SVG Version: 6.00 Build 0)  -->
<svg version="1.1" id="Layer_1" xmlns="http://www.w3.org/2000/svg" xmlns:xlink="http://www.w3.org/1999/xlink" x="0px" y="0px"
	 viewBox="0 0 25 25" style="enable-background:new 0 0 25 25;" xml:space="preserve">
<style type="text/css">
	.st0{fill:none;stroke:#372E75;stroke-width:0.5;stroke-miterlimit:10;}
	.st1{fill:none;stroke:#372E75;stroke-width:0.6033;stroke-miterlimit:10;}
	.st2{fill:#372E75;}
	.st3{fill:#372E75;}
	.st4{fill:none;}
	.st5{fill:none;stroke:#372E75;stroke-width:2.3375;}
	.st6{fill:#372E75;}
	.st7{fill:none;stroke:#372E75;stroke-width:1.1687;}
	.st8{fill:none;stroke:#231F20;stroke-width:2.2791;stroke-miterlimit:10;}
	.st9{fill:none;stroke:#212529;stroke-width:2.2791;stroke-miterlimit:10;}
</style>
<g id="Group_315" transform="translate(-1280.555 -136.055)">
	<g id="Ellipse_10" transform="translate(1280.555 149.811) rotate(-45)">
		<circle class="st4" cx="9.5" cy="6.6" r="11.4"/>
		<circle class="st5" cx="9.5" cy="6.6" r="10.2"/>
	</g>
	<g id="Rectangle_271" transform="translate(1299.47 156.116) rotate(-45)">
		<path class="st6" d="M-0.4-1.7h2.8l0,0v7.4c0,0.6-0.5,1.2-1.2,1.2H0.8c-0.6,0-1.2-0.5-1.2-1.2V-1.7L-0.4-1.7z"/>
		<path class="st7" d="M0.8-1.2h0.5c0.3,0,0.6,0.3,0.6,0.6v6.2c0,0.3-0.3,0.6-0.6,0.6H0.8c-0.3,0-0.6-0.3-0.6-0.6v-6.2
			C0.2-0.9,0.5-1.2,0.8-1.2z"/>
	</g>
</g>
</svg>
