<?xml version="1.0" encoding="utf-8"?>
<!-- Generator: Adobe Illustrator 23.0.3, SVG Export Plug-In . SVG Version: 6.00 Build 0)  -->
<svg version="1.1" id="Layer_1" xmlns="http://www.w3.org/2000/svg" xmlns:xlink="http://www.w3.org/1999/xlink" x="0px" y="0px"
	 viewBox="0 0 25 25" style="enable-background:new 0 0 25 25;" xml:space="preserve">
<style type="text/css">
	.st0{fill:none;stroke:#FB3671;stroke-width:0.5;stroke-miterlimit:10;}
	.st1{fill:none;stroke:#FB3671;stroke-width:0.6033;stroke-miterlimit:10;}
	.st2{fill:#FB3671;}
	.st3{fill:#6C757D;}
	.st4{fill:none;}
	.st5{fill:none;stroke:#FB3671;stroke-width:2.3375;}
	.st6{fill:#FB3671;}
	.st7{fill:none;stroke:#FB3671;stroke-width:1.1687;}
	.st8{fill:none;stroke:#231F20;stroke-width:2.2791;stroke-miterlimit:10;}
	.st9{fill:none;stroke:#212529;stroke-width:2.2791;stroke-miterlimit:10;}
	.st10{fill:none;stroke:#FB3671;stroke-width:1.8486;}
</style>
<path class="st10" d="M17.3,2c-1.1,0-2.1,0.2-3.1,0.7C13.6,3.1,13,3.5,12.5,4c-0.5-0.5-1.1-1-1.8-1.3C9.8,2.3,8.8,2,7.7,2
	C4,2,0.9,5,0.9,8.8c0,2.6,1.4,5.4,4.1,8.3c2.3,2.4,5.1,4.4,7,5.7l0.4,0.3l0.4-0.3c1.9-1.3,4.7-3.3,7-5.7c2.7-2.9,4.1-5.7,4.1-8.3
	C24.1,5,21,2,17.3,2z"/>
</svg>
