<?xml version="1.0" encoding="utf-8"?>
<!-- Generator: Adobe Illustrator 23.0.3, SVG Export Plug-In . SVG Version: 6.00 Build 0)  -->
<svg version="1.1" id="Layer_1" xmlns="http://www.w3.org/2000/svg" xmlns:xlink="http://www.w3.org/1999/xlink" x="0px" y="0px"
	 viewBox="0 0 25 25" style="enable-background:new 0 0 25 25;" xml:space="preserve">
<style type="text/css">
	.st0{fill:none;stroke:#372E75;stroke-width:0.5;stroke-miterlimit:10;}
	.st1{fill:none;stroke:#372E75;stroke-width:0.6033;stroke-miterlimit:10;}
	.st2{fill:#372E75;}
	.st3{fill:#6C757D;}
</style>
<g>
	<path class="st2" d="M11,24.8c-0.4,0-0.8,0-1.3,0c0,0-0.1-0.1-0.1-0.1c-0.4-0.4-0.9-0.9-1.3-1.3c0,0-0.1,0-0.1,0
		c-0.4,0.4-0.8,0.8-1.1,1.1c-0.1,0.1-0.2,0.2-0.3,0.3c-0.4,0-0.8,0-1.3,0c-0.1-0.1-0.2-0.2-0.3-0.3c-0.6-0.6-1.2-1.2-1.7-1.7
		c-0.1-0.1-0.2-0.2-0.2-0.2c0-7.4,0-14.8,0-22.2c0.1-0.1,0.1-0.1,0.2-0.2c6,0,12.1,0,18.1,0c0.1,0.1,0.1,0.1,0.2,0.2
		c0,7.4,0,14.8,0,22.2c-0.1,0.1-0.2,0.2-0.2,0.2c-0.3,0.3-0.7,0.7-1,1c-0.3,0.3-0.7,0.7-1,1c-0.4,0-0.8,0-1.3,0
		c-0.1-0.1-0.1-0.1-0.2-0.2c-0.4-0.4-0.8-0.8-1.2-1.2c0,0-0.1,0-0.1,0c-0.4,0.4-0.9,0.9-1.3,1.3c0,0-0.1,0.1-0.1,0.1
		c-0.4,0-0.8,0-1.3,0c0,0-0.1-0.1-0.1-0.1c-0.4-0.4-0.9-0.9-1.3-1.3c0,0-0.1,0-0.1,0c-0.4,0.4-0.9,0.9-1.3,1.3
		C11.1,24.7,11.1,24.8,11,24.8z M21.1,11.4c0-3.5,0-6.9,0-10.4c0,0,0,0,0-0.1c0-0.1-0.1-0.2-0.1-0.2c0,0,0,0-0.1,0
		c-5.6,0-11.2,0-16.8,0c0,0,0,0,0,0C4,0.8,3.9,0.9,3.9,1c0,7,0,13.9,0,20.9c0,0.1,0,0.1,0.1,0.1c0.7,0.7,1.4,1.4,2.1,2.1
		c0.1,0.1,0.2,0.1,0.3,0c0.2-0.2,0.5-0.5,0.7-0.7c0.3-0.3,0.7-0.7,1-1c0,0,0.1-0.1,0.1-0.1c0.1,0,0.3,0,0.4,0.1
		c0.6,0.6,1.1,1.1,1.7,1.7c0.1,0.1,0.2,0.1,0.3,0c0.6-0.6,1.1-1.1,1.7-1.7c0.2-0.2,0.4-0.1,0.5,0c0.6,0.6,1.1,1.1,1.7,1.7
		c0.1,0.1,0.2,0.1,0.3,0c0.3-0.3,0.6-0.6,0.9-0.9c0.3-0.3,0.5-0.5,0.8-0.8c0.1-0.1,0.2-0.1,0.3-0.1c0.1,0,0.2,0.1,0.2,0.1
		c0.6,0.6,1.1,1.1,1.7,1.7c0.1,0.1,0.2,0.1,0.3,0c0.7-0.7,1.4-1.4,2.1-2.1c0.1-0.1,0.1-0.1,0.1-0.2C21.1,18.4,21.1,14.9,21.1,11.4z"
		/>
	<path class="st2" d="M13,7.6c-0.3,0-0.7,0-1,0c-0.1,0-0.3,0.1-0.3,0.3c0,0.2,0.1,0.3,0.3,0.3c0.4,0,0.7,0,1.1,0
		c0.5,0,1.1,0.2,1.5,0.5c0.6,0.4,0.9,0.9,1.1,1.5c0.1,0.3,0.2,0.7,0.1,1c-0.1,0.6-0.2,1.1-0.6,1.5c-0.4,0.5-0.8,0.8-1.4,1
		c0,0,0,0,0,0.1c0,0.2,0,0.3,0,0.5c-0.1,0.5-0.4,0.9-0.8,1.1c-0.2,0.1-0.3,0.1-0.5,0.1c-0.2,0-0.4-0.1-0.5-0.2
		c-0.4-0.3-0.6-0.6-0.6-1.1c0-0.1,0-0.1,0-0.2c0,0,0,0,0,0c-0.1,0-0.2,0-0.4,0c-0.5-0.1-0.8-0.3-1-0.7c-0.2-0.5-0.1-1.1,0.3-1.4
		c0.2-0.2,0.5-0.3,0.8-0.3c0.7,0,1.3,0,2,0c0.1,0,0.1,0,0.2-0.1c0.1-0.1,0.1-0.2,0.1-0.3c0-0.1-0.1-0.2-0.3-0.2c-0.3,0-0.7,0-1,0
		c-0.7,0-1.4-0.3-1.9-0.8c-0.5-0.5-0.8-1-0.9-1.7c-0.1-1,0.3-2.1,1.2-2.7c0.2-0.2,0.5-0.3,0.8-0.4c0,0,0,0,0-0.1c0-0.2,0-0.3,0-0.5
		c0.1-0.5,0.3-0.8,0.8-1c0.5-0.2,1.1-0.1,1.4,0.3c0.2,0.2,0.3,0.5,0.3,0.9c0,0.1,0,0.1,0,0.2c0,0,0,0.1,0.1,0.1c0.1,0,0.2,0,0.4,0
		c0.5,0.1,0.8,0.3,1,0.8c0.2,0.5,0,1.1-0.3,1.4c-0.2,0.2-0.4,0.3-0.7,0.3c-0.1,0-0.1,0-0.2,0C13.7,7.6,13.3,7.6,13,7.6z M12,12.1
		C12,12.1,12,12.1,12,12.1c-0.3,0-0.7,0-1,0c-0.2,0-0.4,0.2-0.4,0.4c0,0.1,0.1,0.3,0.3,0.4c0.1,0,0.1,0,0.2,0c0.2,0,0.5,0,0.7,0
		c0.1,0,0.2,0,0.3,0.1c0,0.1,0.1,0.1,0.1,0.2c0,0.3,0,0.5,0,0.8c0,0.1,0,0.1,0,0.2c0.1,0.2,0.3,0.3,0.5,0.2c0.2-0.1,0.3-0.2,0.3-0.4
		c0-0.3,0-0.5,0-0.8c0-0.2,0.1-0.3,0.3-0.3c0.1,0,0.1,0,0.2,0c0.3-0.1,0.6-0.2,0.9-0.4c0.4-0.4,0.7-0.9,0.7-1.4c0-0.1,0-0.1,0-0.2
		c0-0.1,0-0.2,0-0.3c-0.1-0.4-0.3-0.7-0.6-1c-0.2-0.1-0.4-0.3-0.6-0.3C13.5,9.1,13.2,9,13,9c-0.3,0-0.7,0-1,0c-0.2,0-0.3,0-0.5-0.1
		c-0.2-0.1-0.4-0.2-0.5-0.4c-0.1-0.2-0.2-0.4-0.2-0.6c0-0.1,0-0.2,0.1-0.3c0.1-0.3,0.2-0.5,0.5-0.7c0.2-0.1,0.4-0.2,0.6-0.2
		c0.7,0,1.3,0,2,0c0.1,0,0.2,0,0.3-0.1c0.1-0.1,0.1-0.2,0.1-0.4C14.4,6.1,14.2,6,14,6c-0.3,0-0.5,0-0.8,0c-0.1,0-0.1,0-0.2,0
		c-0.1-0.1-0.2-0.2-0.2-0.3c0-0.3,0-0.6,0-0.8c0-0.1-0.1-0.2-0.2-0.3c-0.1-0.1-0.2-0.1-0.3-0.1c-0.2,0-0.3,0.2-0.3,0.4
		c0,0.3,0,0.5,0,0.8c0,0.1,0,0.1,0,0.2c0,0.1-0.1,0.2-0.2,0.2c-0.1,0-0.2,0-0.3,0.1c-0.3,0.1-0.6,0.2-0.8,0.4
		c-0.4,0.4-0.7,0.9-0.7,1.5c0,0.1,0,0.2,0,0.3c0.1,0.3,0.2,0.6,0.4,0.9c0.2,0.2,0.4,0.4,0.7,0.5c0.2,0.1,0.5,0.2,0.8,0.2
		c0.3,0,0.6,0,0.9,0c0.1,0,0.2,0,0.4,0c0.3,0.1,0.6,0.3,0.7,0.6c0.2,0.3,0.2,0.6,0.1,0.9c-0.1,0.4-0.5,0.7-1,0.7
		C12.7,12.1,12.3,12.1,12,12.1z"/>
	<path class="st2" d="M12.5,19.1c-1.3,0-2.6,0-3.8,0c-0.5,0-0.9-0.2-1.1-0.7c-0.3-0.6-0.1-1.3,0.5-1.6c0.2-0.1,0.4-0.2,0.7-0.2
		c2.6,0,5.1,0,7.7,0c0.6,0,1,0.3,1.2,0.8c0.1,0.4,0.1,0.8-0.1,1.1c-0.3,0.4-0.6,0.6-1.1,0.6C15,19.1,13.8,19.1,12.5,19.1z
		 M12.5,18.3c1.3,0,2.5,0,3.8,0c0.1,0,0.2,0,0.3-0.1c0.2-0.1,0.2-0.3,0.2-0.5c-0.1-0.2-0.2-0.3-0.4-0.3c-2.6,0-5.1,0-7.7,0
		c-0.2,0-0.3,0.1-0.4,0.2c-0.1,0.2,0,0.3,0.1,0.4c0.1,0.1,0.2,0.1,0.4,0.1C10,18.3,11.2,18.3,12.5,18.3z"/>
</g>
</svg>
