<?xml version="1.0" encoding="utf-8"?>
<!-- Generator: Adobe Illustrator 23.0.3, SVG Export Plug-In . SVG Version: 6.00 Build 0)  -->
<svg version="1.1" id="Layer_1" xmlns="http://www.w3.org/2000/svg" xmlns:xlink="http://www.w3.org/1999/xlink" x="0px" y="0px"
	 viewBox="0 0 25 25" style="enable-background:new 0 0 25 25;" xml:space="preserve">
<style type="text/css">
	.st0{fill:none;stroke:#372E75;stroke-width:0.5;stroke-miterlimit:10;}
	.st1{fill:none;stroke:#372E75;stroke-width:0.6033;stroke-miterlimit:10;}
	.st2{fill:#372E75;}
	.st3{fill:#6C757D;}
</style>
<g>
	<g>
		<g>
			<path class="st3" d="M19.8,5V3.1c1.1,0,2.1-0.9,2.1-2.1V0.5c0-0.3-0.2-0.5-0.5-0.5H3.6C3.4,0,3.1,0.2,3.1,0.5V1
				c0,1.1,0.9,2.1,2.1,2.1V5c0,1.9,0.8,3.8,2.2,5l2.7,2.4l-2.7,2.4c-1.4,1.3-2.2,3.1-2.2,5v1.9c-1.1,0-2.1,0.9-2.1,2.1v0.5
				c0,0.3,0.2,0.5,0.5,0.5h17.7c0.3,0,0.5-0.2,0.5-0.5V24c0-1.1-0.9-2.1-2.1-2.1V20c0-1.9-0.8-3.8-2.2-5l-2.7-2.4l2.7-2.4
				C19,8.8,19.8,6.9,19.8,5z M4.2,1h16.7c0,0.6-0.5,1-1,1H5.2C4.6,2.1,4.2,1.6,4.2,1z M20.8,24H4.2c0-0.6,0.5-1,1-1h14.6
				C20.4,22.9,20.8,23.4,20.8,24z M8.9,21.9l3.6-4.9l3.6,4.9H8.9z M16.9,9.3l-3.1,2.8c-0.1,0.1-0.2,0.2-0.2,0.4s0.1,0.3,0.2,0.4
				l3.1,2.8c1.2,1.1,1.9,2.6,1.9,4.3v1.9h-1.3l-4.5-6c-0.2-0.3-0.6-0.3-0.8,0l-4.5,6H6.2V20c0-1.6,0.7-3.2,1.9-4.3l3.1-2.8
				c0.1-0.1,0.2-0.2,0.2-0.4s-0.1-0.3-0.2-0.4L8.1,9.3C6.9,8.2,6.2,6.7,6.2,5V3.1h12.5V5C18.7,6.7,18.1,8.2,16.9,9.3z"/>
			<path class="st3" d="M16.1,7.3H8.9c-0.2,0-0.4,0.1-0.5,0.3C8.4,7.8,8.4,8,8.5,8.2l0.1,0.1c0.1,0.1,0.2,0.2,0.2,0.3l3.3,3
				c0.1,0.1,0.2,0.1,0.3,0.1c0.1,0,0.3,0,0.3-0.1l3.3-3c0.1-0.1,0.2-0.2,0.2-0.3l0.1-0.1c0.1-0.2,0.2-0.4,0.1-0.6
				C16.5,7.4,16.3,7.3,16.1,7.3z M12.5,10.4l-2.3-2.1h4.6L12.5,10.4z"/>
		</g>
	</g>
</g>
</svg>
