<?xml version="1.0" encoding="utf-8"?>
<!-- Generator: Adobe Illustrator 23.0.3, SVG Export Plug-In . SVG Version: 6.00 Build 0)  -->
<svg version="1.1" id="Layer_1" xmlns="http://www.w3.org/2000/svg" xmlns:xlink="http://www.w3.org/1999/xlink" x="0px" y="0px"
	 viewBox="0 0 25 25" style="enable-background:new 0 0 25 25;" xml:space="preserve">
<style type="text/css">
	.st0{fill:none;stroke:#372E75;stroke-width:0.5;stroke-miterlimit:10;}
	.st1{fill:none;stroke:#372E75;stroke-width:0.6033;stroke-miterlimit:10;}
	.st2{fill:#372E75;}
	.st3{fill:#6C757D;}
	.st4{fill:none;}
	.st5{fill:none;stroke:#372E75;stroke-width:2.3375;}
	.st6{fill:#372E75;}
	.st7{fill:none;stroke:#372E75;stroke-width:1.1687;}
	.st8{fill:none;stroke:#231F20;stroke-width:2.2791;stroke-miterlimit:10;}
	.st9{fill:none;stroke:#212529;stroke-width:2.2791;stroke-miterlimit:10;}
	.st10{fill:none;stroke:#372E75;stroke-width:1.8486;}
	.st11{fill:none;stroke:#372E75;stroke-width:0.5645;stroke-miterlimit:10;}
</style>
<g>
	<g id="money_time">
		<g>
			<path class="st11" d="M17.4,2.4c-1.4,0-2.6,0.4-3.7,1.1c0.2-0.9,0.1-1.8-0.3-2.3c-1.3-1.8-3.4,2.1-4.4,1.7S6,0.5,4.6,1.3
				C3.4,2,5.4,6.9,6.3,7.6c0,0,1.5,0.4,3,0.4c0.6,0,1,0,1.4-0.1c-0.1,0.4-0.1,0.7-0.1,1.1C10.2,9,9.7,9,9.3,9C8.1,9,7,8.9,5.9,8.7
				c-1.9,1.5-5.1,6.8-5.1,9.2c0,4.2,3.7,6.4,8.3,6.4s8.3-2.2,8.3-6.4c0-0.5-0.1-1.2-0.4-1.9c0.2,0,0.3,0,0.5,0c3.7,0,6.8-3,6.8-6.8
				C24.2,5.4,21.2,2.4,17.4,2.4z M11.6,19.1c-0.1,0.2-0.2,0.4-0.4,0.5c-0.2,0.2-0.4,0.3-0.6,0.4c-0.2,0.1-0.5,0.2-0.7,0.2v0.6H8.7
				v-0.7C8.6,20,8.5,20,8.5,20c-0.1,0-0.1-0.1-0.2-0.1v0.3H7v-1.9h1.2c0.1,0.1,0.2,0.2,0.3,0.3s0.2,0.2,0.3,0.2
				c0.1,0.1,0.2,0.1,0.4,0.1c0.1,0,0.3,0,0.5,0c0.2,0,0.4,0,0.6-0.1c0.2-0.1,0.2-0.2,0.2-0.4c0-0.1,0-0.2-0.1-0.3
				c-0.1-0.1-0.2-0.2-0.3-0.2s-0.3-0.1-0.4-0.2c-0.1,0-0.3-0.1-0.4-0.1c-0.5-0.1-0.9-0.2-1.2-0.4c-0.3-0.2-0.5-0.3-0.7-0.5
				c-0.2-0.2-0.3-0.4-0.3-0.6C7,16,7,15.8,7,15.7c0-0.2,0-0.4,0.1-0.6c0.1-0.2,0.2-0.4,0.4-0.5c0.2-0.2,0.3-0.3,0.5-0.4
				c0.2-0.1,0.4-0.2,0.7-0.2v-0.6h1.2V14c0.2,0.1,0.3,0.1,0.5,0.2v-0.3h1.2v1.9h-1.3c-0.1-0.1-0.2-0.2-0.3-0.3
				c-0.1-0.1-0.2-0.2-0.3-0.2c-0.1-0.1-0.2-0.1-0.3-0.1c-0.1,0-0.3,0-0.4,0c-0.2,0-0.4,0.1-0.6,0.2c-0.1,0.1-0.2,0.2-0.2,0.4
				c0,0.4,0.4,0.6,1.2,0.8c0.5,0.1,0.9,0.2,1.2,0.4c0.3,0.2,0.5,0.4,0.7,0.6c0.2,0.2,0.3,0.4,0.3,0.6s0.1,0.4,0.1,0.5
				C11.8,18.7,11.7,18.9,11.6,19.1z M18,14.4l-0.6-0.7l-0.6,0.7c-2.4-0.3-4.4-2.2-4.6-4.6L13,9.2l-0.7-0.6c0.3-2.4,2.2-4.3,4.6-4.5
				l0.6,0.7L18,4c2.4,0.3,4.3,2.1,4.6,4.5l-0.8,0.7l0.8,0.7C22.3,12.2,20.4,14.1,18,14.4z"/>
			<path class="st2" d="M18.2,9.9c0-0.1-0.1-0.1-0.1-0.2l-0.7-3.8l-0.7,3.8l0,0c-0.1,0.1-0.2,0.3-0.2,0.5c0,0.5,0.4,0.9,0.9,0.9
				c0.1,0,0.2,0,0.3-0.1v0l2.6,0.3L18.2,9.9L18.2,9.9z"/>
		</g>
	</g>
</g>
</svg>
