<?xml version="1.0" encoding="utf-8"?>
<!-- Generator: Adobe Illustrator 23.0.3, SVG Export Plug-In . SVG Version: 6.00 Build 0)  -->
<svg version="1.1" id="Layer_1" xmlns="http://www.w3.org/2000/svg" xmlns:xlink="http://www.w3.org/1999/xlink" x="0px" y="0px"
	 viewBox="0 0 25 25" style="enable-background:new 0 0 25 25;" xml:space="preserve">
<style type="text/css">
	.st0{fill:none;stroke:#372E75;stroke-width:0.5;stroke-miterlimit:10;}
	.st1{fill:none;stroke:#372E75;stroke-width:0.6033;stroke-miterlimit:10;}
	.st2{fill:#372E75;}
	.st3{fill:#6C757D;}
</style>
<g>
	<path class="st2" d="M21.6,1H3.4C1.5,1,0,2.5,0,4.4v11.1C0,17.4,1.5,19,3.4,19v5l7.2-5h10.9c1.9,0,3.4-1.5,3.4-3.4V4.4
		C25,2.5,23.5,1,21.6,1z M23.5,15.5c0,1.1-0.9,2-2,2H10.2l-5.3,3.7v-3.7H3.4c-1.1,0-2-0.9-2-2V4.4c0-1.1,0.9-2,2-2h18.1
		c1.1,0,2,0.9,2,2V15.5z"/>
	<path class="st2" d="M6.7,6.2h11.6v1.5H6.7V6.2z"/>
	<path class="st2" d="M6.7,9.3h11.6v1.5H6.7V9.3z"/>
	<path class="st2" d="M6.7,12.4h11.6v1.5H6.7V12.4z"/>
</g>
</svg>
