<?xml version="1.0" encoding="utf-8"?>
<!-- Generator: Adobe Illustrator 23.0.3, SVG Export Plug-In . SVG Version: 6.00 Build 0)  -->
<svg version="1.1" id="Layer_1" xmlns="http://www.w3.org/2000/svg" xmlns:xlink="http://www.w3.org/1999/xlink" x="0px" y="0px"
	 viewBox="0 0 25 25" style="enable-background:new 0 0 25 25;" xml:space="preserve">
<style type="text/css">
	.st0{fill:none;stroke:#372E75;stroke-width:0.5;stroke-miterlimit:10;}
	.st1{fill:none;stroke:#372E75;stroke-width:0.6033;stroke-miterlimit:10;}
	.st2{fill:#372E75;}
	.st3{fill:#6C757D;}
</style>
<g>
	<path class="st2" d="M11.2,3.8h3.1c0.2,0,0.3-0.1,0.3-0.3c0-0.2-0.1-0.3-0.3-0.3h-3.1c-0.2,0-0.3,0.1-0.3,0.3
		C10.9,3.6,11,3.8,11.2,3.8z"/>
	<path class="st2" d="M11.2,5h3.1c0.2,0,0.3-0.1,0.3-0.3c0-0.2-0.1-0.3-0.3-0.3h-3.1c-0.2,0-0.3,0.1-0.3,0.3C10.9,4.9,11,5,11.2,5z"
		/>
	<path class="st2" d="M4.8,12.2h0.1c0.2,0,0.3-0.1,0.3-0.3c0-0.2-0.1-0.3-0.3-0.3H4.8c-0.2,0-0.3,0.1-0.3,0.3
		C4.5,12.1,4.6,12.2,4.8,12.2z"/>
	<path class="st2" d="M6.9,11.6H6c-0.2,0-0.3,0.1-0.3,0.3c0,0.2,0.1,0.3,0.3,0.3h0.9c0.2,0,0.3-0.1,0.3-0.3
		C7.2,11.7,7.1,11.6,6.9,11.6z"/>
	<path class="st2" d="M14.3,11.6H8.1c-0.2,0-0.3,0.1-0.3,0.3c0,0.2,0.1,0.3,0.3,0.3h6.2c0.2,0,0.3-0.1,0.3-0.3
		C14.6,11.7,14.5,11.6,14.3,11.6z"/>
	<path class="st2" d="M4.8,9.7h0.1c0.2,0,0.3-0.1,0.3-0.3c0-0.2-0.1-0.3-0.3-0.3H4.8c-0.2,0-0.3,0.1-0.3,0.3
		C4.5,9.6,4.6,9.7,4.8,9.7z"/>
	<path class="st2" d="M6.9,9.1H6c-0.2,0-0.3,0.1-0.3,0.3c0,0.2,0.1,0.3,0.3,0.3h0.9c0.2,0,0.3-0.1,0.3-0.3C7.2,9.3,7.1,9.1,6.9,9.1z
		"/>
	<path class="st2" d="M14.3,9.1H8.1c-0.2,0-0.3,0.1-0.3,0.3c0,0.2,0.1,0.3,0.3,0.3h6.2c0.2,0,0.3-0.1,0.3-0.3
		C14.6,9.3,14.5,9.1,14.3,9.1z"/>
	<path class="st2" d="M4.8,15.1h0.1c0.2,0,0.3-0.1,0.3-0.3c0-0.2-0.1-0.3-0.3-0.3H4.8c-0.2,0-0.3,0.1-0.3,0.3
		C4.5,15,4.6,15.1,4.8,15.1z"/>
	<path class="st2" d="M6.9,14.6H6c-0.2,0-0.3,0.1-0.3,0.3c0,0.2,0.1,0.3,0.3,0.3h0.9c0.2,0,0.3-0.1,0.3-0.3
		C7.2,14.7,7.1,14.6,6.9,14.6z"/>
	<path class="st2" d="M5.5,17.8c0.2,0,0.4,0.2,0.4,0.4c0,0.2,0.1,0.3,0.3,0.3c0.2,0,0.3-0.1,0.3-0.3c0-0.5-0.3-0.9-0.7-1v-0.1
		c0-0.2-0.1-0.3-0.3-0.3c-0.2,0-0.3,0.1-0.3,0.3v0.1c-0.5,0.1-0.8,0.6-0.7,1.1c0.1,0.5,0.5,0.9,1,0.9c0.2,0,0.4,0.2,0.4,0.4
		c0,0.2-0.2,0.4-0.4,0.4c0,0,0,0,0,0c0,0,0,0,0,0c-0.2,0-0.4-0.2-0.4-0.4c0-0.2-0.1-0.3-0.3-0.3c-0.2,0-0.3,0.1-0.3,0.3
		c0,0.5,0.3,0.9,0.7,1v0.2c0,0.2,0.1,0.3,0.3,0.3s0.3-0.1,0.3-0.3v-0.2c0.5-0.1,0.8-0.6,0.7-1.1c-0.1-0.5-0.5-0.9-1-0.9
		c-0.2,0-0.4-0.2-0.4-0.4S5.3,17.8,5.5,17.8z"/>
	<path class="st2" d="M16.1,0c-0.1,0-0.2,0-0.3,0l-1.4,1.1L13,0.1c-0.1-0.1-0.3-0.1-0.4,0l-1.4,1.1L9.7,0.1C9.6,0,9.5,0,9.4,0.1
		L7.9,1.2L6.5,0.1C6.4,0,6.2,0,6.1,0.1L4.7,1.2L3.3,0.1C3.2,0,3.1,0,3,0c-0.1,0-0.2,0.2-0.2,0.3v23.4c0,0.1,0.1,0.2,0.2,0.3
		c0.1,0,0.2,0,0.3,0l1.4-1.1l1.4,1.1c0.1,0.1,0.3,0.1,0.4,0l1.4-1.1l1.4,1.1c0.1,0.1,0.3,0.1,0.4,0l1.4-1.2c1.8,2.2,4.9,2.8,7.5,1.6
		c2.6-1.2,4-4.1,3.4-6.9c-0.6-2.8-2.9-4.9-5.8-5V0.3C16.3,0.2,16.2,0.1,16.1,0z M9.5,23.3l-1.4-1.1c-0.1-0.1-0.3-0.1-0.4,0l-1.4,1.1
		l-1.4-1.1c-0.1-0.1-0.3-0.1-0.4,0l-1.1,0.9V0.9l1.1,0.9c0.1,0.1,0.3,0.1,0.4,0l1.4-1.1l1.4,1.1c0.1,0.1,0.3,0.1,0.4,0l1.4-1.1
		L11,1.8c0.1,0.1,0.3,0.1,0.4,0l1.4-1.1l1.4,1.1c0.1,0.1,0.3,0.1,0.4,0l1.1-0.9v11.6c-1.7,0.1-3.3,0.8-4.4,2.1H8.1
		c-0.2,0-0.3,0.1-0.3,0.3c0,0.2,0.1,0.3,0.3,0.3h2.8c-1.5,2.1-1.5,5,0,7.2L9.5,23.3z M21.6,18.7c0,3.1-2.5,5.7-5.7,5.7
		s-5.7-2.5-5.7-5.7s2.5-5.7,5.7-5.7C19.1,13.1,21.6,15.6,21.6,18.7z"/>
	<path class="st2" d="M8.2,17.8c0.2,0,0.4,0.2,0.4,0.4c0,0.2,0.1,0.3,0.3,0.3c0.2,0,0.3-0.1,0.3-0.3c0-0.5-0.3-0.9-0.7-1v-0.1
		c0-0.2-0.1-0.3-0.3-0.3c-0.2,0-0.3,0.1-0.3,0.3v0.1c-0.5,0.1-0.8,0.6-0.7,1.1c0.1,0.5,0.5,0.9,1,0.9c0.2,0,0.4,0.2,0.4,0.4
		c0,0.2-0.2,0.4-0.4,0.4c0,0,0,0,0,0c0,0,0,0,0,0c-0.2,0-0.4-0.2-0.4-0.4c0-0.2-0.1-0.3-0.3-0.3c-0.2,0-0.3,0.1-0.3,0.3
		c0,0.5,0.3,0.9,0.7,1v0.2c0,0.2,0.1,0.3,0.3,0.3c0.2,0,0.3-0.1,0.3-0.3v-0.2c0.5-0.1,0.8-0.6,0.7-1.1c-0.1-0.5-0.5-0.9-1-0.9
		c-0.2,0-0.3-0.1-0.4-0.2c-0.1-0.1-0.1-0.3,0-0.4C7.9,17.9,8,17.8,8.2,17.8z"/>
	<path class="st2" d="M4.8,7.6h4.9c0.2,0,0.3-0.1,0.3-0.3V3.5c0-0.2-0.1-0.3-0.3-0.3H4.8c-0.2,0-0.3,0.1-0.3,0.3v3.8
		C4.5,7.4,4.6,7.6,4.8,7.6z M5.1,3.8h4.3V7H5.1V3.8z"/>
	<path class="st2" d="M11.2,7.6h3.1c0.2,0,0.3-0.1,0.3-0.3c0-0.2-0.1-0.3-0.3-0.3h-3.1c-0.2,0-0.3,0.1-0.3,0.3
		C10.9,7.4,11,7.6,11.2,7.6z"/>
	<path class="st2" d="M11.2,6.3h3.1c0.2,0,0.3-0.1,0.3-0.3c0-0.2-0.1-0.3-0.3-0.3h-3.1c-0.2,0-0.3,0.1-0.3,0.3
		C10.9,6.2,11,6.3,11.2,6.3z"/>
	<path class="st2" d="M15.7,16v4.7l-1.7-1.6c-0.1-0.1-0.3-0.1-0.4,0s-0.1,0.3,0,0.4l2.2,2.1c0.1,0.1,0.3,0.1,0.4,0l2.2-2.1
		c0.1-0.1,0.1-0.3,0-0.4s-0.3-0.1-0.4,0l-1.7,1.6V16c0-0.2-0.1-0.3-0.3-0.3C15.8,15.8,15.7,15.9,15.7,16z"/>
</g>
</svg>
