<?xml version="1.0" encoding="utf-8"?>
<!-- Generator: Adobe Illustrator 23.0.3, SVG Export Plug-In . SVG Version: 6.00 Build 0)  -->
<svg version="1.1" id="Layer_1" xmlns="http://www.w3.org/2000/svg" xmlns:xlink="http://www.w3.org/1999/xlink" x="0px" y="0px"
	 viewBox="0 0 25 25" style="enable-background:new 0 0 25 25;" xml:space="preserve">
<style type="text/css">
	.st0{fill:none;stroke:#372E75;stroke-width:0.5;stroke-miterlimit:10;}
	.st1{fill:none;stroke:#372E75;stroke-width:0.6033;stroke-miterlimit:10;}
	.st2{fill:#372E75;}
	.st3{fill:#6C757D;}
	.st4{fill:none;}
	.st5{fill:none;stroke:#372E75;stroke-width:2.3375;}
	.st6{fill:#372E75;}
	.st7{fill:none;stroke:#372E75;stroke-width:1.1687;}
	.st8{fill:none;stroke:#231F20;stroke-width:2.2791;stroke-miterlimit:10;}
	.st9{fill:none;stroke:#212529;stroke-width:2.2791;stroke-miterlimit:10;}
	.st10{fill:none;stroke:#372E75;stroke-width:1.8486;}
	.st11{fill:none;stroke:#372E75;stroke-width:0.5645;stroke-miterlimit:10;}
</style>
<g>
	<path class="st6" d="M18.9,13.2c-0.1-0.2-0.1-0.4-0.2-0.7c0.1-0.1,0.3-0.1,0.4-0.2c1.6-0.6,3.2-1.3,4.8-1.9c0.1,0,0.1-0.1,0.2-0.1
		c0.2-0.1,0.4,0,0.4,0.2c0,0.2-0.1,0.3-0.2,0.4c-0.1,0-0.2,0.1-0.3,0.1c-1.4,0.6-2.8,1.1-4.2,1.7c-0.1,0.1-0.2,0.1-0.4,0.2
		c1,2.5,2.1,5.1,3.1,7.6c0.4-0.2,0.9-0.3,1.3-0.5c0.1,0,0.2-0.1,0.3-0.1c0.2-0.1,0.3,0,0.4,0.1c0.1,0.1,0,0.3-0.2,0.4c0,0,0,0,0,0
		c-0.7,0.3-1.3,0.5-2,0.8c-0.3-0.8-0.7-1.6-1-2.4c-0.8,0.3-1.5,0.6-2.3,0.9c-0.1-0.2-0.2-0.3-0.3-0.5c-0.5,0.1-0.9,0.3-1.4,0.4
		c0,0.1,0.1,0.2,0.1,0.2c0.3,0.5,0.1,1.1-0.5,1.4c-0.2,0.1-0.3,0.2-0.5,0.4c-0.2,0.4-0.5,0.6-1,0.6c-0.1,0-0.2,0-0.3,0.2
		c-0.4,0.5-0.9,0.8-1.5,0.6c-0.6,0.6-1,0.6-1.7,0.2c-0.2,0.1-0.5,0.2-0.7,0.2c-0.4,0.1-0.8,0-1.1-0.3c-0.8-0.7-1.5-1.3-2.2-2
		c-0.4-0.4-0.4-0.8-0.3-1.3c0-0.2,0.1-0.3,0.1-0.5c-0.4-0.3-0.7-0.5-1.1-0.8c-0.1,0.3-0.2,0.5-0.4,0.8c-0.8-0.3-1.5-0.6-2.3-0.9
		c-0.3,0.8-0.7,1.6-1,2.4c-0.1,0-0.2-0.1-0.3-0.1c-0.5-0.2-1.1-0.4-1.6-0.6c-0.1,0-0.2-0.1-0.3-0.1c-0.1-0.1-0.1-0.2-0.1-0.3
		c0-0.2,0.2-0.2,0.3-0.2c0.1,0,0.2,0.1,0.3,0.1c0.4,0.2,0.7,0.3,1.1,0.5c0.1,0,0.2,0,0.3,0.1c1-2.5,2.1-5,3.1-7.6
		c-0.2-0.1-0.3-0.2-0.5-0.2C3.7,11.6,2.3,11,1,10.5c-0.1-0.1-0.3-0.1-0.4-0.2c-0.1-0.1-0.1-0.2-0.1-0.3c0-0.1,0.2-0.1,0.3-0.2
		c0.1,0,0.2,0,0.2,0.1c1.7,0.7,3.4,1.4,5.1,2.1c0,0,0.1,0.1,0.2,0.1c-0.1,0.2-0.1,0.4-0.2,0.6c0.3,0.1,0.7,0.3,1,0.4
		c0.6,0.3,1.3,0.5,2,0.4c0.7,0,1.5,0.1,2.2,0.2c0.2,0,0.3,0,0.5-0.1c0.8-0.5,1.7-0.5,2.5-0.2c0.7,0.2,1.5,0.4,2.3,0.6
		c0.2,0.1,0.4,0,0.6,0C17.7,13.7,18.3,13.4,18.9,13.2z M13,22.5c0,0-0.1-0.1-0.1-0.2c-0.5-0.5-0.9-1-1.4-1.5
		c-0.1-0.1-0.1-0.1-0.2-0.2c-0.2-0.2-0.2-0.4-0.1-0.5c0.1-0.1,0.3-0.1,0.5,0.1c0.1,0.1,0.2,0.3,0.4,0.4c0.4,0.5,0.8,0.9,1.2,1.3
		c0.5,0.5,0.8,0.5,1.3,0c-0.2-0.1-0.3-0.3-0.5-0.4c-0.6-0.6-1.2-1.2-1.8-1.8c0,0-0.1-0.1-0.1-0.1c-0.1-0.1-0.2-0.3,0-0.4
		c0.1-0.1,0.3-0.1,0.4,0c0.1,0.1,0.2,0.2,0.4,0.4c0.6,0.6,1.1,1.2,1.7,1.7c0.4,0.4,1,0.4,1.3-0.2c-0.3-0.4-0.7-0.7-1-1.1
		c-0.5-0.6-1.1-1.1-1.6-1.7c-0.2-0.2-0.2-0.4-0.1-0.5c0.1-0.1,0.3-0.1,0.5,0.1c0,0,0.1,0.1,0.1,0.1c0.6,0.6,1.2,1.3,1.8,1.9
		c0.1,0.2,0.3,0.3,0.4,0.5c0.2,0.2,0.4,0.2,0.6,0c0.2-0.2,0.2-0.4,0-0.6c-0.5-0.7-1.1-1.4-1.6-2c-0.1-0.1-0.2-0.2-0.3-0.3
		c-0.6-0.4-1.1-0.8-1.6-1.4c-0.1-0.1-0.1-0.2-0.2-0.3c-0.3-0.3-0.6-0.3-0.8,0c-0.1,0.1-0.1,0.2-0.2,0.3c-0.1,0.2-0.3,0.4-0.4,0.6
		c-0.3,0.4-0.8,0.5-1.2,0.4c-0.6-0.1-0.8-0.5-0.7-1.1c0.1-0.4,0.2-0.7,0.3-1c0.1-0.3,0.3-0.5,0.4-0.7c0.1-0.1,0.1-0.2,0.2-0.3
		c-0.7,0-1.4,0-2-0.1c-0.3,0-0.4,0.1-0.5,0.3c-0.3,0.7-0.6,1.4-0.9,2.2c-0.2,0.4-0.3,0.8-0.5,1.2c0.1,0.1,0.2,0.1,0.2,0.2
		c1.4,1,2.7,2.1,3.9,3.3c0.5,0.4,0.9,0.9,1.4,1.3C12.5,22.8,12.7,22.8,13,22.5z M17.8,17c-0.3-0.8-0.7-1.6-1-2.3
		c-0.1-0.2-0.2-0.2-0.3-0.3c-0.9-0.2-1.9-0.4-2.8-0.7c-0.5-0.1-1-0.1-1.5,0.2c-0.3,0.2-0.6,0.3-0.9,0.4c-0.4,0.2-0.7,0.5-0.9,1
		c-0.1,0.3-0.2,0.6-0.2,0.9c-0.1,0.4,0,0.6,0.4,0.6c0.2,0,0.4-0.1,0.5-0.2c0.2-0.1,0.2-0.4,0.4-0.5c0.1-0.2,0.3-0.4,0.4-0.6
		c0.4-0.4,0.8-0.4,1.2-0.1c0.2,0.2,0.4,0.4,0.6,0.6c0.5,0.6,1.1,1.1,1.8,1.3C16.3,17.6,17.1,17.5,17.8,17z M7.7,14
		c-0.6-0.3-1.2-0.5-1.9-0.8c-0.6,1.5-1.2,3-1.8,4.5c0.6,0.2,1.2,0.5,1.8,0.7C6.4,16.9,7,15.4,7.7,14z M17.3,14.5
		c0.6,1.5,1.3,2.9,1.9,4.4c0.6-0.2,1.2-0.5,1.8-0.7c-0.6-1.5-1.2-3-1.8-4.5C18.5,14,17.9,14.2,17.3,14.5z M11.3,22.5
		c-1.1-1-2.1-2.1-3.3-3c-0.2,0.7-0.2,0.8,0.3,1.2c0.6,0.6,1.3,1.1,1.9,1.7C10.6,22.8,10.8,22.8,11.3,22.5z M18.4,18.6
		c-0.1-0.3-0.3-0.6-0.4-1c-0.6,0.4-1.2,0.5-1.9,0.4c0.3,0.4,0.5,0.7,0.8,1.1C17.4,18.9,17.9,18.7,18.4,18.6z"/>
	<path class="st6" d="M12.6,11.1C10,11,7.9,8.9,7.9,6.3c0-2.4,2.1-4.6,4.7-4.6c2.6,0,4.6,2.1,4.6,4.7C17.3,9,15.2,11.1,12.6,11.1z
		 M12.6,10.5c2.3,0,4.1-1.8,4.1-4.1c0-2.6-2.1-4.2-4.1-4.2c-2.2,0-4.1,1.8-4.1,4C8.5,8.6,10.3,10.5,12.6,10.5z"/>
	<path class="st6" d="M12.2,7.5c0.4-0.5,0.9-1.1,1.3-1.6c0.3-0.3,0.5-0.7,0.8-1c0.1-0.1,0.1-0.2,0.2-0.2c0.1,0,0.2,0,0.3,0
		c0.1,0.1,0.1,0.2,0.1,0.3c0,0.1-0.1,0.1-0.1,0.2c-0.8,1-1.6,2-2.4,2.9c0,0-0.1,0.1-0.1,0.1c-0.2-0.1-0.3-0.3-0.5-0.4
		c-0.4-0.4-0.8-0.7-1.2-1.1c-0.1-0.1-0.2-0.2-0.1-0.4c0.1-0.1,0.3-0.2,0.5,0c0.3,0.3,0.6,0.5,0.9,0.8C12,7.3,12.1,7.4,12.2,7.5z"/>
</g>
</svg>
