<?xml version="1.0" encoding="utf-8"?>
<!-- Generator: Adobe Illustrator 23.0.3, SVG Export Plug-In . SVG Version: 6.00 Build 0)  -->
<svg version="1.1" id="Layer_1" xmlns="http://www.w3.org/2000/svg" xmlns:xlink="http://www.w3.org/1999/xlink" x="0px" y="0px"
	 viewBox="0 0 25 25" style="enable-background:new 0 0 25 25;" xml:space="preserve">
<style type="text/css">
	.st0{fill:none;stroke:#372E75;stroke-width:0.5;stroke-miterlimit:10;}
	.st1{fill:none;stroke:#372E75;stroke-width:0.6033;stroke-miterlimit:10;}
	.st2{fill:#372E75;}
	.st3{fill:#6C757D;}
</style>
<g>
	<path class="st2" d="M6.1,24.8c-0.2,0-0.4-0.1-0.6-0.1c-1.9-0.5-3.3-2.1-3.6-4c-0.1-0.5,0-1.1,0-1.6c0.1-0.9,0.2-1.7,0.4-2.5
		c0.2-0.9,0.5-1.7,0.9-2.5c0.9-1.9,2.1-3.6,3.5-5.2C7.4,8.2,8.1,7.6,8.8,7C8.9,6.9,9,6.9,9.1,6.8C9.1,6.7,9,6.6,9,6.5
		C8.1,5.3,7.3,4,6.4,2.7c0-0.1-0.1-0.1-0.1-0.2C6.2,2.2,6.2,2,6.4,1.7c0.6-0.6,1.2-1.1,2-1.3c0.7-0.2,1.3-0.2,2-0.1
		c0.7,0.1,1.4,0.3,2,0.6c0.3,0.1,0.6,0.1,0.8,0c0.4-0.1,0.8-0.3,1.2-0.5c0.5-0.2,1-0.4,1.6-0.4c0.8,0,1.4,0.3,2,0.8
		c0.1,0.1,0.2,0.1,0.2,0.2c0.2,0.2,0.2,0.4,0.1,0.7c0,0.1-0.1,0.2-0.1,0.2C17.5,3.5,16.7,5,16,6.5c0,0.1-0.1,0.2-0.1,0.3
		c0.1,0.1,0.1,0.1,0.1,0.1c1.4,1.1,2.7,2.4,3.8,3.9c1.4,1.9,2.5,4,3,6.4c0.2,1,0.3,2,0.3,3c0,2.4-1.8,4.4-4.1,4.7c0,0-0.1,0-0.1,0
		C14.6,24.8,10.4,24.8,6.1,24.8z M12.5,23.6L12.5,23.6c1.9,0,3.8,0,5.7,0c0.3,0,0.6,0,0.9-0.1c1.6-0.3,2.8-1.8,2.8-3.4
		c0-0.6,0-1.2-0.1-1.7c-0.2-1.5-0.6-3-1.4-4.4c-1.3-2.5-3.1-4.6-5.4-6.3c-0.1-0.1-0.2-0.1-0.4-0.1c-1.4,0-2.8,0-4.2,0
		c-0.2,0-0.3,0-0.4,0.1C8.3,9,6.8,10.6,5.6,12.4c-0.9,1.3-1.5,2.7-1.9,4.2c-0.2,0.9-0.4,1.8-0.4,2.7c0,0.5,0,1.1,0.1,1.6
		c0.4,1.5,1.7,2.6,3.3,2.6C8.5,23.6,10.5,23.6,12.5,23.6z M17,1.7c-0.3-0.2-0.6-0.3-1-0.3c-0.3,0-0.6,0.1-0.9,0.2
		c-0.5,0.2-0.9,0.4-1.4,0.5c-0.6,0.2-1.2,0.2-1.9,0c-0.4-0.1-0.7-0.3-1.1-0.4c-0.6-0.2-1.1-0.3-1.7-0.2c-0.5,0.1-1,0.3-1.4,0.7
		c0,0,0,0.1,0,0.1c0.8,1.3,1.7,2.5,2.5,3.8c0.1,0.1,0.2,0.1,0.3,0.1c1.3,0,2.6,0,3.9,0c0.2,0,0.2-0.1,0.3-0.2
		c0.7-1.4,1.5-2.8,2.2-4.2C17,1.9,17,1.8,17,1.7z"/>
	<path class="st2" d="M12,12.5c0-0.2,0-0.5,0-0.8c0-0.2,0.1-0.4,0.2-0.5c0.2-0.2,0.4-0.2,0.6-0.1c0.2,0.1,0.4,0.3,0.4,0.5
		c0,0.2,0,0.4,0,0.6c0,0.1,0,0.2,0,0.3c0.1,0,0.2,0,0.3,0c0.3,0,0.6,0,0.9,0c0.4,0,0.6,0.3,0.6,0.6c0,0.3-0.3,0.6-0.6,0.6
		c-0.8,0-1.6,0-2.4,0c-0.4,0-0.8,0.2-0.9,0.6c-0.2,0.6,0.2,1.2,0.8,1.2c0.4,0,0.9,0,1.3,0c0.4,0,0.9,0.1,1.2,0.3
		c1.2,0.7,1.4,2.5,0.4,3.4c-0.4,0.4-0.8,0.6-1.4,0.6c0,0-0.1,0-0.1,0c0,0,0,0-0.1,0c0,0.2,0,0.4,0,0.7c0,0.2,0,0.3-0.1,0.5
		c-0.2,0.2-0.4,0.3-0.7,0.3c-0.3-0.1-0.5-0.3-0.5-0.6c0-0.1,0-0.3,0-0.4c0-0.1,0-0.3,0-0.4c-0.1,0-0.1,0-0.2,0c-0.3,0-0.6,0-0.9,0
		c-0.4,0-0.7-0.3-0.7-0.6c0-0.4,0.3-0.6,0.7-0.6c0.7,0,1.4,0,2.1,0c0.1,0,0.2,0,0.3,0c0.5,0,0.9-0.4,0.9-0.9c0-0.5-0.4-0.9-0.9-0.9
		c-0.4,0-0.9,0-1.3,0c-0.6,0-1.1-0.2-1.6-0.6c-0.9-0.7-1-2.1-0.3-3c0.4-0.5,0.9-0.8,1.6-0.8C11.8,12.6,11.9,12.6,12,12.5
		C12,12.5,12,12.5,12,12.5z"/>
</g>
</svg>
