<?xml version="1.0" encoding="utf-8"?>
<!-- Generator: Adobe Illustrator 23.0.1, SVG Export Plug-In . SVG Version: 6.00 Build 0)  -->
<svg version="1.1" id="Layer_1" xmlns="http://www.w3.org/2000/svg" xmlns:xlink="http://www.w3.org/1999/xlink" x="0px" y="0px"
	 viewBox="0 0 200 200" style="enable-background:new 0 0 200 200;" xml:space="preserve">
<style type="text/css">
	.st0{fill:#372E75;}
</style>
<g>
	<path class="st0" d="M65.68,30.07C71.75,18.4,81.3,16.04,92.99,16.32c26.69,0.65,53.42,0.86,80.09-0.05
		c15.41-0.53,26.6,13.08,26.56,27.08c-0.05,21,0.36,42.02-0.03,63.01c-0.31,16.84-9.57,27.4-26.26,26.72
		c-13.95-0.57-13.75,0.02-19.46,13.45c-2.84,6.7-6.35,13.14-10.07,19.35c-6.12,10.2-14.59,12.03-24.43,5.8
		c-16.38,17.19-22.01,17.56-31.24,2.02c-13.51,2.99-17.59,1.4-21.07-8.18c-19.25,7.94-39.36,3.25-59.07,4.31
		c-5,0.27-7.66-3.58-7.83-10.76c-0.24-10.08-0.09-20.18-0.1-30.27c-0.01-14.21,0.73-28.47-0.24-42.61
		c-0.72-10.55,3.71-17.36,10.45-23.79c10.93-10.43,21.48-21.29,32.6-31.49C49.57,24.82,57.3,25.45,65.68,30.07z M15.16,153.07
		c15.19-1.07,29.6-1.75,43.92-3.35c3.43-0.38,7.07-3.26,9.72-5.96c9.93-10.08,19.66-20.39,29.13-30.95
		c3.94-4.39,7.65-9.27,10.35-14.55c2.53-4.96,0.44-7.15-4.97-6.36c-0.77,0.11-1.61,0.21-2.27,0.59
		c-10.4,5.9-20.78,11.83-31.14,17.79c-3.56,2.05-6.92,4.58-10.63,6.23c-3.63,1.62-7.66,0.65-8.84-3.4
		c-0.88-3.04,0.21-6.84,0.93-10.18c0.22-1.05,2.01-1.84,3.21-2.53c6.4-3.67,7.88-9.29,7.39-16.67c-0.69-10.46-0.28-20.99-0.37-31.49
		c-0.06-6.21-4.93-9.14-10.28-6.15c-1.55,0.87-3.09,1.88-4.35,3.13c-9.27,9.28-18.54,18.56-27.62,28.03c-1.8,1.88-3.97,4.58-4,6.94
		C15.04,106.42,15.16,128.65,15.16,153.07z M117.37,116.04c20.52,0,40.45,0.22,60.36-0.3c2.23-0.06,6.12-4.21,6.24-6.63
		c0.63-12.62,0.29-25.3,0.29-37.8c-36.1,0-71.71,0-107.37,0c0,4.7,0,8.91,0,13.92c5.46-2.73,10.57-4.77,15.17-7.71
		c7.55-4.82,18.84-5.71,23.72-1.25c8.38,7.66,11.09,18.3,7.03,28.23C121.3,108.19,119.43,111.71,117.37,116.04z M184.53,44.22
		c-0.19-6.37-3.12-9.28-8.4-9.29c-30.37-0.08-60.74-0.08-91.11,0c-5.37,0.01-8.08,3.1-8.15,9.3
		C112.75,44.22,148.3,44.22,184.53,44.22z M111.69,133.28c-4.08,9.9-8.24,19.16-11.63,28.72c-0.98,2.76,0.26,6.39,0.48,9.62
		c2.42-1.62,5.71-2.67,7.09-4.98c3.82-6.41,6.96-13.27,10.12-20.09c1.88-4.07,3.29-8.38,5.19-13.28
		C118.36,133.28,115.09,133.28,111.69,133.28z M146.93,134.47c-0.5-0.73-1-1.46-1.5-2.19c-3.56,0.86-8.9,0.51-10.34,2.82
		c-3.66,5.88-5.87,12.86-8.04,19.62c-0.68,2.11,0.65,4.93,1.06,7.43c2.34-1.12,5.77-1.57,6.84-3.47
		C139.34,150.85,143,142.58,146.93,134.47z M96.79,139.47c-0.44-0.26-0.88-0.53-1.32-0.79c-6.54,7.8-13.08,15.61-20.5,24.46
		c6.72,1.37,11.17,0.4,13.42-3.81C91.74,153.04,94.04,146.12,96.79,139.47z"/>
</g>
</svg>
