<svg xmlns="http://www.w3.org/2000/svg" id="Logo_Visa" width="75.656" height="23.196" viewBox="0 0 75.656 23.196">
    <defs>
        <style>
            .cls-1{fill:#372e75}
        </style>
    </defs>
    <path id="polygon10" d="M31.018 22.927L34.848.454h6.125l-3.832 22.473z" class="cls-1" transform="translate(-4.366 -.064)"/>
    <path id="path12" d="M60.988.944A15.8 15.8 0 0 0 55.5 0c-6.054 0-10.318 3.048-10.354 7.416-.034 3.229 3.044 5.03 5.367 6.105 2.384 1.1 3.186 1.8 3.174 2.788-.015 1.505-1.9 2.194-3.665 2.194a12.844 12.844 0 0 1-5.766-1.179l-.789-.358L42.608 22a19.387 19.387 0 0 0 6.823 1.2c6.439 0 10.619-3.013 10.666-7.678.023-2.557-1.609-4.5-5.142-6.106-2.141-1.043-3.455-1.736-3.438-2.789 0-.934 1.11-1.933 3.508-1.933a11.285 11.285 0 0 1 4.584.861l.549.259.83-4.87z" class="cls-1" transform="translate(-5.997)"/>
    <path id="path14" d="M79.488.478h-4.733a3.048 3.048 0 0 0-3.208 1.865l-9.1 20.594h6.432s1.052-2.769 1.29-3.376c.7 0 6.951.01 7.844.01.184.786.745 3.367.745 3.367h5.684L79.488.478m-7.553 14.485c.507-1.295 2.44-6.281 2.44-6.281-.036.059.5-1.3.812-2.145l.413 1.937 1.418 6.49z" class="cls-1" transform="translate(-8.79 -.067)"/>
    <path id="path16" d="M22.563.473l-6 15.325-.639-3.114c-1.113-3.591-4.592-7.484-8.48-9.427l5.483 19.653 6.481-.008L29.051.473h-6.488z" class="cls-1" transform="translate(-1.048 -.067)"/>
    <path id="path18" d="M9.955.457H.078L0 .925c7.684 1.86 12.769 6.355 14.879 11.756L12.732 2.354C12.361.932 11.285.507 9.955.457z" transform="translate(0 -.064)" style="fill:#ef9b11"/>
</svg>
