<svg xmlns="http://www.w3.org/2000/svg" width="24.447" height="16.298" viewBox="0 0 24.447 16.298">
    <g data-name="Group 300" fill="#fff">
        <g data-name="menu (2)">
            <path data-name="Path 149" d="M24.2 1.855c0-.175-.4-.291-1-.291H1.088c-.6 0-1 .116-1 .291v.582c0 .175.4.291 1 .291h22.1c.6 0 1-.116 1-.291z"/>
            <path data-name="Path 150" d="M24.2 8.12c0-.175-.4-.291-1-.291H1.088c-.6 0-1 .116-1 .291v.582c0 .175.4.291 1 .291h22.1c.6 0 1-.116 1-.291z"/>
            <path data-name="Path 151" d="M24.2 14.386c0-.175-.4-.291-1-.291H1.088c-.6 0-1 .116-1 .291v.582c0 .175.4.291 1 .291h22.1c.6 0 1-.116 1-.291z"/>
        </g>
        <g data-name="Ellipse 68" stroke="#fff">
            <circle cx="2.328" cy="2.328" r="2.328" stroke="none"/>
            <circle cx="2.328" cy="2.328" r="1.828" fill="none"/>
        </g>
        <g data-name="Ellipse 69" transform="translate(10.478 5.821)" stroke="#fff">
            <circle cx="2.328" cy="2.328" r="2.328" stroke="none"/>
            <circle cx="2.328" cy="2.328" r="1.828" fill="none"/>
        </g>
        <g data-name="Ellipse 70" transform="translate(19.791 11.641)" stroke="#fff">
            <circle cx="2.328" cy="2.328" r="2.328" stroke="none"/>
            <circle cx="2.328" cy="2.328" r="1.828" fill="none"/>
        </g>
    </g>
</svg>
