<svg xmlns="http://www.w3.org/2000/svg" width="22.294" height="16.966" viewBox="0 0 22.294 16.966">
    <g data-name="Group 274">
        <g data-name="envelope (4)">
            <g data-name="Group 12" fill="#FCFCFF">
                <path data-name="Path 39" d="M19.573 0H2.726A2.729 2.729 0 0 0 0 2.726V14.24a2.729 2.729 0 0 0 2.726 2.726h16.842a2.729 2.729 0 0 0 2.726-2.726V2.731A2.726 2.726 0 0 0 19.573 0zm1.481 14.24a1.482 1.482 0 0 1-1.481 1.481H2.726a1.482 1.482 0 0 1-1.481-1.481V2.731A1.482 1.482 0 0 1 2.726 1.25h16.842a1.482 1.482 0 0 1 1.481 1.481V14.24z"/>
                <path data-name="Path 40" d="M14.06 8.34l5.452-4.89a.624.624 0 1 0-.835-.927l-7.519 6.749-1.467-1.31s-.009-.009-.009-.014a.923.923 0 0 0-.1-.088L3.613 2.518a.624.624 0 0 0-.83.932L8.3 8.381l-5.494 5.143a.625.625 0 0 0-.028.881.637.637 0 0 0 .457.2.624.624 0 0 0 .424-.166l5.577-5.217 1.513 1.352a.621.621 0 0 0 .83 0l1.555-1.393 5.545 5.268a.624.624 0 0 0 .881-.023.625.625 0 0 0-.023-.881z"/>
            </g>
        </g>
    </g>
</svg>
