<svg xmlns="http://www.w3.org/2000/svg" id="PayPal" width="121.082" height="29.567" viewBox="0 0 121.082 29.567">
    <defs>
        <style>
            .cls-1{fill:#253b80}.cls-2{fill:#179bd7}
        </style>
    </defs>
    <path id="Path_181" d="M46 6.749h-6.7a.931.931 0 0 0-.92.786l-2.71 17.182a.558.558 0 0 0 .553.645h3.2a.931.931 0 0 0 .92-.787l.731-4.634a.931.931 0 0 1 .919-.787h2.121c4.414 0 6.961-2.136 7.626-6.368a5.161 5.161 0 0 0-.854-4.326C49.929 7.341 48.24 6.749 46 6.749zm.773 6.275c-.366 2.4-2.2 2.4-3.98 2.4h-1.014l.709-4.49a.558.558 0 0 1 .552-.471h.46c1.21 0 2.351 0 2.941.69a2.233 2.233 0 0 1 .325 1.867zm19.256-.077h-3.212a.558.558 0 0 0-.552.471l-.142.9-.223-.328c-.695-1.008-2.244-1.345-3.79-1.345a7.379 7.379 0 0 0-7.164 6.455 6.056 6.056 0 0 0 1.2 4.929 5.02 5.02 0 0 0 4.041 1.632 6.139 6.139 0 0 0 4.441-1.837l-.143.892a.558.558 0 0 0 .551.647h2.89a.931.931 0 0 0 .92-.787l1.734-10.982a.556.556 0 0 0-.55-.645zm-4.473 6.245a3.576 3.576 0 0 1-3.62 3.064 2.486 2.486 0 0 1-2.658-3.119 3.592 3.592 0 0 1 3.6-3.088 2.707 2.707 0 0 1 2.14.874 2.777 2.777 0 0 1 .536 2.269zm21.561-6.245H79.89a.935.935 0 0 0-.771.409l-4.447 6.551-1.885-6.295a.934.934 0 0 0-.894-.664h-3.168a.558.558 0 0 0-.53.739l3.552 10.422-3.339 4.714a.558.558 0 0 0 .456.882h3.22a.93.93 0 0 0 .765-.4l10.724-15.48a.558.558 0 0 0-.459-.877z" class="cls-1" data-name="Path 181" transform="translate(-.722 -.137)"/>
    <path id="Path_182" d="M94.778 6.749h-6.7a.931.931 0 0 0-.919.786l-2.71 17.182a.557.557 0 0 0 .551.645h3.439a.652.652 0 0 0 .643-.551l.769-4.87a.931.931 0 0 1 .919-.787h2.12c4.415 0 6.961-2.136 7.627-6.368a5.158 5.158 0 0 0-.857-4.326c-.951-1.119-2.639-1.711-4.882-1.711zm.773 6.275c-.365 2.4-2.2 2.4-3.98 2.4h-1.01l.71-4.49a.556.556 0 0 1 .551-.471h.463c1.209 0 2.351 0 2.941.69a2.233 2.233 0 0 1 .325 1.871zm19.255-.077H111.6a.556.556 0 0 0-.551.471l-.142.9-.225-.325c-.695-1.008-2.243-1.345-3.789-1.345A7.378 7.378 0 0 0 99.73 19.1a6.06 6.06 0 0 0 1.194 4.929 5.023 5.023 0 0 0 4.041 1.632 6.139 6.139 0 0 0 4.441-1.837l-.143.892a.558.558 0 0 0 .553.647h2.889a.931.931 0 0 0 .919-.787l1.735-10.982a.559.559 0 0 0-.554-.645zm-4.473 6.245a3.575 3.575 0 0 1-3.62 3.064 2.486 2.486 0 0 1-2.658-3.119 3.593 3.593 0 0 1 3.6-3.088 2.707 2.707 0 0 1 2.14.874 2.763 2.763 0 0 1 .539 2.269zm8.256-11.972l-2.75 17.5a.557.557 0 0 0 .551.645h2.765a.929.929 0 0 0 .92-.787l2.712-17.181a.558.558 0 0 0-.551-.646h-3.1a.559.559 0 0 0-.551.472z" class="cls-2" data-name="Path 182" transform="translate(-1.711 -.137)"/>
    <path id="Path_183" d="M7.14 28.584l.512-3.255-1.141-.029h-5.45L4.849 1.287a.31.31 0 0 1 .308-.263h9.19c3.051 0 5.156.635 6.256 1.888a4.3 4.3 0 0 1 1 1.878 6.781 6.781 0 0 1 .007 2.59l-.012.075v.662l.515.292a3.615 3.615 0 0 1 1.043.8A3.7 3.7 0 0 1 24 11.1a8.032 8.032 0 0 1-.121 2.755 9.7 9.7 0 0 1-1.129 3.119 6.414 6.414 0 0 1-1.788 1.959 7.254 7.254 0 0 1-2.408 1.087 12.009 12.009 0 0 1-3.01.348h-.715a2.151 2.151 0 0 0-2.127 1.815l-.054.293-.905 5.736-.041.211a.181.181 0 0 1-.057.122.152.152 0 0 1-.094.034z" class="cls-1" data-name="Path 183" transform="translate(-.021 -.021)"/>
    <path id="Path_184" d="M22.706 7.667q-.041.263-.094.539c-1.212 6.222-5.358 8.372-10.654 8.372h-2.7a1.309 1.309 0 0 0-1.294 1.109l-1.38 8.755-.384 2.481a.69.69 0 0 0 .681.8h4.779a1.151 1.151 0 0 0 1.136-.97l.047-.243.9-5.714.058-.314a1.15 1.15 0 0 1 1.136-.972h.715c4.633 0 8.26-1.881 9.32-7.325.443-2.274.214-4.173-.958-5.508a4.572 4.572 0 0 0-1.309-1.009z" class="cls-2" data-name="Path 184" transform="translate(-.125 -.155)"/>
    <path id="Path_185" d="M21.475 7.142A9.56 9.56 0 0 0 20.3 6.88a14.974 14.974 0 0 0-2.377-.173h-7.2a1.148 1.148 0 0 0-1.136.972l-1.538 9.705-.049.283a1.309 1.309 0 0 1 1.3-1.109H12c5.3 0 9.442-2.151 10.654-8.372.036-.184.067-.363.094-.539a6.46 6.46 0 0 0-1-.42q-.135-.045-.271-.085z" data-name="Path 185" transform="translate(-.162 -.136)" style="fill:#222d65"/>
    <path id="Path_186" d="M9.419 7.543a1.145 1.145 0 0 1 1.136-.971h7.2a14.974 14.974 0 0 1 2.377.173 9.559 9.559 0 0 1 1.451.346 6.558 6.558 0 0 1 1 .42c.361-2.3 0-3.865-1.246-5.283C19.965.668 17.491 0 14.326 0h-9.19a1.313 1.313 0 0 0-1.3 1.11L.01 25.373a.79.79 0 0 0 .779.913h5.673l1.425-9.038z" class="cls-1" data-name="Path 186"/>
</svg>
