<svg xmlns="http://www.w3.org/2000/svg" width="63.78" height="50.394" viewBox="0 0 63.78 50.394">
    <g id="photo-camera_1_" data-name="photo-camera (1)" transform="translate(0 -35.019)">
        <path id="Path_189" d="M56.408 85.412H7.371A7.378 7.378 0 0 1 0 78.041V48.148a7.378 7.378 0 0 1 7.371-7.371h10.006l.876-2.955a3.635 3.635 0 0 1 3.574-2.8h20.127a3.707 3.707 0 0 1 3.58 2.818l.023.1.8 2.839h10.052a7.378 7.378 0 0 1 7.371 7.371v29.89a7.381 7.381 0 0 1-7.372 7.372zM7.371 43.234a4.919 4.919 0 0 0-4.914 4.914v29.893a4.919 4.919 0 0 0 4.914 4.914h49.037a4.919 4.919 0 0 0 4.914-4.914V48.148a4.919 4.919 0 0 0-4.914-4.914H44.495l-1.345-4.8a1.234 1.234 0 0 0-1.2-.962H21.825a1.22 1.22 0 0 0-1.2.963l-1.42 4.8zm24.521 34.751a15.591 15.591 0 1 1 15.59-15.591 15.609 15.609 0 0 1-15.59 15.591zm0-28.727a13.134 13.134 0 1 0 13.132 13.135 13.15 13.15 0 0 0-13.132-13.135zm22.931-1.464a2.267 2.267 0 1 0 2.265 2.267 2.267 2.267 0 0 0-2.266-2.267z" data-name="Path 189" 
        style="fill:#ced4da"/>
    </g>
</svg>
