<svg id="Layer_1" data-name="Layer 1" xmlns="http://www.w3.org/2000/svg" viewBox="0 0 100 100">
    <defs>
        <style>
            .cls-1{fill:gray}
        </style>
    </defs>
    <title>
        printer
    </title>
    <path class="cls-1" d="M23.91,23.66c0-6.63.12-12.61-.05-18.59C23.76,1.52,24.81,0,28.4,0,42.82.15,57.25.12,71.67,0,75,0,76.16,1.34,76.09,4.75c-.13,6.12,0,12.26,0,18.92,5.09,0,9.6-.08,14.11,0,6.09.13,9.67,3.78,9.74,10.28q.18,17.79,0,35.58c-.07,5.92-3.6,9.65-9.07,10a20.71,20.71,0,0,1-5.62-.06c-1.23-.26-2.27-1.48-3.4-2.27,1.18-.77,2.32-2.12,3.55-2.24C95.63,74,95.64,74.1,95.64,63c0-9,0-18,0-27.06-.06-6-1.68-7.75-7.34-7.75q-38.34-.06-76.67,0C6,28.14,4.37,29.83,4.33,36q-.12,15.78,0,31.57c0,5.77,1.62,7.18,7,7.49,2.34.13,6.5-1.73,6.49,2.35,0,4.25-4.22,2.17-6.47,2.17C3,79.53,0,76.11,0,67.42q0-16,0-32.07c0-8,3.33-11.6,10.84-11.68C15.05,23.62,19.23,23.66,23.91,23.66Zm47.41-.24V5.18H28.61V23.42Z" transform="translate(0 0)"/>
    <path class="cls-1" d="M77.34,63.44c0,10.35-.13,20.7.07,31,.09,4.64-1.33,6-7,5.4a223.7,223.7,0,0,0-41.08,0c-5.25.44-6.94-.6-6.84-5.34.22-10.35.07-20.7.07-31.3a10.08,10.08,0,0,1-3.22-.7c-.8-.49-1.84-1.69-1.72-2.38s1.31-1.68,2.21-2a10.14,10.14,0,0,1,3.27-.13c18,0,36.07-.06,54.11.09a4.61,4.61,0,0,1,1.57.31C80.59,59.08,81,61.6,79,63l-1.64.59C78,62,77.71,63.55,77.34,63.44Zm-50-.41v31.8H72.63V63Z" transform="translate(0 0)"/>
    <path class="cls-1" d="M81.7,39.72c-.62,0-1.34.22-1.85,0l-.56-.3a2.3,2.3,0,0,1,.19-4.14,3.86,3.86,0,0,1,.55-.17,11.46,11.46,0,0,1,5.08,0h0a2.29,2.29,0,0,1,.52,4.16,5.34,5.34,0,0,1-.75.39C84,40,82.78,39.71,81.7,39.72Z" transform="translate(0 0)"/>
    <path class="cls-1" d="M50.17,71.06c4.53,0,9.08-.17,13.59.12a2.56,2.56,0,0,1,1.4.72,2.18,2.18,0,0,1-.27,3.45,2,2,0,0,1-1,.37Q50,76,36.19,75.71a2.31,2.31,0,0,1-.95-4.25,1.9,1.9,0,0,1,.86-.28c4.68-.24,9.38-.1,14.07-.1Z" transform="translate(0 0)"/>
    <path class="cls-1" d="M49.85,88.54c-4.37,0-8.76.18-13.12-.11a1.85,1.85,0,0,1-.46-.08,2.19,2.19,0,0,1,.08-4.19,2.49,2.49,0,0,1,.6-.09q12.88-.3,25.77,0a2.6,2.6,0,0,1,.39,0,2.19,2.19,0,0,1,0,4.24,4.22,4.22,0,0,1-.62.1c-4.2.28-8.43.09-12.65.09Z" transform="translate(0 0)"/>
</svg>
