<?xml version="1.0" encoding="utf-8"?>
<!-- Generator: Adobe Illustrator 23.0.1, SVG Export Plug-In . SVG Version: 6.00 Build 0)  -->
<svg version="1.1" id="Layer_1" xmlns="http://www.w3.org/2000/svg" xmlns:xlink="http://www.w3.org/1999/xlink" x="0px" y="0px"
	 viewBox="0 0 100 100" style="enable-background:new 0 0 100 100;" xml:space="preserve">
<style type="text/css">
	.st0{fill:#FCFCFF;}
</style>
<g>
	<path class="st0" d="M92.82,100c-6.84-21.33-13.69-42.65-20.45-64.01c-0.25-0.78,0.21-2.07,0.77-2.78
		c2.79-3.52,5.72-6.92,8.6-10.37c2.96-3.55,5.92-7.1,8.87-10.65c-0.13-0.18-0.11-0.16-0.24-0.34c-12.52,4.6-25.05,9.2-37.76,13.86
		c12.7,23.63,25.3,47.07,37.9,70.5c-0.33,0.2-0.19,0.11-0.52,0.31C72.8,70.82,55.6,45.11,38.21,19.13
		C59.06,12.83,79.53,6.65,100,0.47C99.96,0.19,99.97,0.28,99.93,0C66.83,0.57,33.74,1.14,0,1.72c29.51,31.5,58.52,62.48,87.54,93.46
		"/>
</g>
</svg>
