<svg xmlns="http://www.w3.org/2000/svg" width="48.603" height="53.911" viewBox="0 0 48.603 53.911">
    <defs>
        <clipPath id="a">
            <circle data-name="Ellipse 36" cx="24.302" cy="24.302" r="24.302" fill="none" stroke="#372E75" stroke-width="2"/>
        </clipPath>
    </defs>
    <g data-name="Group 150">
        <g data-name="Mask Group 8">
            <g data-name="team (3)" clip-path="url(#a)">
                <g data-name="Group 43">
                    <g data-name="Group 42">
                        <path data-name="Path 75" d="M43.735 22.559a14.438 14.438 0 0 0-5.078-.869.74.74 0 0 0 0 1.48 12.777 12.777 0 0 1 4.417.713.74.74 0 0 0 .662-1.324z" fill="#372E75"/>
                    </g>
                </g>
                <g data-name="Group 45">
                    <g data-name="Group 44">
                        <path data-name="Path 76" d="M47.424 33.099l-3.059-.878a.31.31 0 0 1-.224-.3v-1.02a5.563 5.563 0 0 0 .708-.58 5.444 5.444 0 0 0 1.666-3.938v-1.405l.3-.591a4.721 4.721 0 0 0 .5-2.1v-3.814a.74.74 0 0 0-.74-.74h-7.127a4.7 4.7 0 0 0-4.7 4.7v.044a3.925 3.925 0 0 0 .417 1.743l.379.758v1.209a5.774 5.774 0 0 0 2.374 4.668v1.069c0 .165 0 .233-.611.408l-1.491.426-4.315-1.569a.739.739 0 0 0-.2-.567l-1.378-1.448v-2.431c.146-.12.289-.243.429-.374a8.685 8.685 0 0 0 2.736-6.314v-1.941a8.554 8.554 0 0 0 .791-3.6V6.605a.74.74 0 0 0-.74-.74h-11.08a7.078 7.078 0 0 0-7.07 7.07v1.583a8.554 8.554 0 0 0 .791 3.6v1.671a9.042 9.042 0 0 0 3.165 6.9v2.488l-1.38 1.446a.739.739 0 0 0-.2.567l-4.553 1.656a3.881 3.881 0 0 0-.915.479l-.715-.357a5.652 5.652 0 0 0 2.835-2.294.74.74 0 0 0 0-.662 13.146 13.146 0 0 1-.65-4.594 40.023 40.023 0 0 0-.065-1.457 6.437 6.437 0 0 0-6.277-6.226 6.437 6.437 0 0 0-6.277 6.226c-.031.44-.048.934-.065 1.458a13.147 13.147 0 0 1-.65 4.594.74.74 0 0 0 0 .662 5.651 5.651 0 0 0 2.838 2.292l-1.986.993a3.1 3.1 0 0 0-1.72 2.783v5.467a.74.74 0 1 0 1.48 0v-5.467a1.625 1.625 0 0 1 .9-1.461l2.473-1.236.86.817a3.112 3.112 0 0 0 4.29 0l.86-.817.806.4a3.9 3.9 0 0 0-.6 2.066v5.7a.74.74 0 1 0 1.48 0v-5.7a2.432 2.432 0 0 1 1.6-2.279l4.8-1.746 2 3a1.526 1.526 0 0 0 1.123.674q.077.008.153.008a1.525 1.525 0 0 0 1.081-.449l1.222-1.221v7.708a.74.74 0 0 0 1.48 0v-7.708l1.219 1.219a1.525 1.525 0 0 0 1.081.449q.076 0 .153-.007a1.526 1.526 0 0 0 1.123-.674l2-3 4.8 1.746a2.432 2.432 0 0 1 1.6 2.279v5.7a.74.74 0 1 0 1.48 0v-5.7a3.912 3.912 0 0 0-1.095-2.708l.183-.052a4.056 4.056 0 0 0 .689-.249l1.884 1.897v6.815a.74.74 0 1 0 1.48 0v-6.815l1.876-1.876a1.761 1.761 0 0 0 .315.125l3.056.873a1.641 1.641 0 0 1 1.185 1.571v6.122a.74.74 0 1 0 1.48 0v-6.125a3.127 3.127 0 0 0-2.258-2.99zM3.912 31.788a5.32 5.32 0 0 1-2.375-1.525 8.156 8.156 0 0 0 .422-1.772 5.518 5.518 0 0 0 1.953 2.408zm4.239 2a1.633 1.633 0 0 1-2.251 0l-.688-.654a1.531 1.531 0 0 0 .18-.723v-.789a5.5 5.5 0 0 0 3.267 0v.788a1.531 1.531 0 0 0 .18.723zm-1.125-3.4a4.012 4.012 0 0 1-4.007-4.007.735.735 0 0 0-.861-.729c0-.064 0-.127.006-.19.016-.509.032-.989.062-1.4a5.494 5.494 0 0 1 1.5-3.45 4.6 4.6 0 0 1 6.609 0 5.494 5.494 0 0 1 1.5 3.45c.029.412.045.893.062 1.4v.132a6.649 6.649 0 0 0-3.655-2.671 9.288 9.288 0 0 0-2.815-.446.74.74 0 0 0-.512.226l-1.339 1.389a.74.74 0 1 0 1.065 1.027l1.111-1.152c.957.047 4.035.4 5.232 3.041a4 4 0 0 1-3.958 3.385zm3.113 1.4v-.883a5.474 5.474 0 0 0 1.954-2.406 8.147 8.147 0 0 0 .421 1.768 5.345 5.345 0 0 1-2.374 1.523zm7.126-12.003v-1.836a.74.74 0 0 0-.074-.322 7.1 7.1 0 0 1-.718-3.11v-1.582a5.6 5.6 0 0 1 5.59-5.59h10.334v7.172a7.1 7.1 0 0 1-.718 3.11.74.74 0 0 0-.074.322v2.107a7.1 7.1 0 0 1-2.268 5.234 7.359 7.359 0 0 1-.568.481l-.013.009a7.115 7.115 0 0 1-4.8 1.433 7.33 7.33 0 0 1-6.691-7.428zm4.167 14.89a.046.046 0 0 1-.041.015.047.047 0 0 1-.038-.023l-2.3-3.452.741-.778 3.491 2.386zm3.006-2.856l-4.007-2.739v-1.381a8.332 8.332 0 0 0 3.433.991q.293.019.582.019a8.571 8.571 0 0 0 4-.98v1.352zm3.085 2.848a.047.047 0 0 1-.038.023.046.046 0 0 1-.041-.015l-1.852-1.852 3.491-2.387.741.778zm13.513-.624l-1.679-1.679a2.031 2.031 0 0 0 .046-.44v-.312a5.188 5.188 0 0 0 1.465.259h.17a5.5 5.5 0 0 0 1.632-.247v.3a1.769 1.769 0 0 0 .053.431zm2.791-4.781a3.977 3.977 0 0 1-2.914 1.129 4.142 4.142 0 0 1-3.884-4.2v-1.392a.739.739 0 0 0-.078-.331l-.457-.914a2.438 2.438 0 0 1-.256-1.084v-.044a3.22 3.22 0 0 1 3.216-3.216h6.381v3.073a3.233 3.233 0 0 1-.34 1.438l-.374.747a.74.74 0 0 0-.078.331v1.582a3.976 3.976 0 0 1-1.222 2.881z" fill="#372E75"/>
                    </g>
                </g>
                <g data-name="Group 47">
                    <g data-name="Group 46">
                        <path data-name="Path 77" d="M45.778 36.723a.74.74 0 0 0-.74.74v4.746a.74.74 0 1 0 1.48 0v-4.747a.74.74 0 0 0-.74-.739z" fill="#372E75"/>
                    </g>
                </g>
                <g data-name="Group 49">
                    <g data-name="Group 48">
                        <path data-name="Path 78" d="M3.07 37.701a.74.74 0 0 0-.74.74v3.769a.74.74 0 1 0 1.48 0v-3.769a.74.74 0 0 0-.74-.74z" fill="#372E75"/>
                    </g>
                </g>
                <g data-name="Group 51">
                    <g data-name="Group 50">
                        <path data-name="Path 79" d="M30.495 14.785c-2.8-2.8-8.655-2.264-11.043-1.9a1.519 1.519 0 0 0-1.3 1.513v1.7a.74.74 0 1 0 1.48 0v-1.7a.049.049 0 0 1 .039-.05 23.379 23.379 0 0 1 4.808-.235c2.308.154 3.979.733 4.968 1.722a.742.742 0 0 0 1.048-1.05z" fill="#372E75"/>
                    </g>
                </g>
                <g data-name="Group 53">
                    <g data-name="Group 52">
                        <path data-name="Path 80" d="M15.73 38.306a.74.74 0 0 0-.74.74v3.165a.74.74 0 1 0 1.48 0v-3.165a.74.74 0 0 0-.74-.74z" fill="#372E75"/>
                    </g>
                </g>
                <g data-name="Group 55">
                    <g data-name="Group 54">
                        <path data-name="Path 81" d="M33.137 38.306a.74.74 0 0 0-.74.74v3.165a.74.74 0 0 0 1.48 0v-3.165a.74.74 0 0 0-.74-.74z" fill="#372E75"/>
                    </g>
                </g>
            </g>
        </g>
        <g data-name="Ellipse 36" fill="none" stroke="#372E75" stroke-width="2">
            <circle cx="24.302" cy="24.302" r="24.302" stroke="none"/>
            <circle cx="24.302" cy="24.302" r="23.302"/>
        </g>
        <g data-name="Rectangle 274" fill="#372E75" stroke="#372E75">
            <path d="M37.458 44.005l1.981-1.549 6.969 8.915a1.257 1.257 0 0 1-.216 1.765 1.257 1.257 0 0 1-1.765-.216l-6.969-8.915z" stroke="none"/>
            <path d="M38.359 43.936l.795-.622a.252.252 0 0 1 .354.043l6.505 8.321a.757.757 0 0 1-.13 1.063.757.757 0 0 1-1.062-.13l-6.506-8.321a.252.252 0 0 1 .044-.354z" fill="none"/>
        </g>
    </g>
</svg>
