<svg xmlns="http://www.w3.org/2000/svg" width="59.664" height="57.572" viewBox="0 0 59.664 57.572">
    <g data-name="Group 149">
        <g data-name="Group 21">
            <g data-name="Group 20">
                <path data-name="Path 64" d="M40.965 4.429h-7.75V3.322a1.107 1.107 0 0 0-1.107-1.107h-6.645a5.533 5.533 0 0 0-8.854 0H9.964a1.107 1.107 0 0 0-1.107 1.106v1.108h-7.75A1.107 1.107 0 0 0 0 5.536v50.929a1.107 1.107 0 0 0 1.107 1.107h39.858a1.107 1.107 0 0 0 1.112-1.107V5.536a1.107 1.107 0 0 0-1.112-1.107zm-29.893 0h6.13a1.107 1.107 0 0 0 .958-.553 3.32 3.32 0 0 1 5.753 0 1.107 1.107 0 0 0 .958.553h6.13v4.428H11.072zm28.786 46.5h-5.536a1.107 1.107 0 1 0 0 2.214h5.536v2.214H2.214V6.643h6.643v3.321a1.107 1.107 0 0 0 1.107 1.107h22.143a1.107 1.107 0 0 0 1.107-1.107V6.643h6.643v44.286z" 
                fill="#372E75"/>
            </g>
        </g>
        <g data-name="Group 23">
            <g data-name="Group 22">
                <path data-name="Path 65" d="M15.094 14.643a1.107 1.107 0 0 0-1.558.157l-4.545 5.565-2.58-3.329a1.107 1.107 0 1 0-1.75 1.356l3.432 4.429a1.107 1.107 0 0 0 .861.429h.014a1.107 1.107 0 0 0 .858-.407l5.425-6.643a1.107 1.107 0 0 0-.157-1.557z" fill="#372E75"/>
            </g>
        </g>
        <g data-name="Group 25">
            <g data-name="Group 24">
                <path data-name="Path 66" d="M36.537 15.5H18.822a1.107 1.107 0 0 0 0 2.214h17.715a1.107 1.107 0 0 0 0-2.214z" fill="#372E75"/>
            </g>
        </g>
        <g data-name="Group 27">
            <g data-name="Group 26">
                <path data-name="Path 67" d="M25.465 19.929h-6.643a1.107 1.107 0 1 0 0 2.214h6.643a1.107 1.107 0 1 0 0-2.214z" fill="#372E75"/>
            </g>
        </g>
        <g data-name="Group 29">
            <g data-name="Group 28">
                <path data-name="Path 68" d="M15.094 27.925a1.107 1.107 0 0 0-1.558.157l-4.545 5.565-2.58-3.329a1.107 1.107 0 1 0-1.75 1.356l3.432 4.429a1.107 1.107 0 0 0 .861.429h.014a1.107 1.107 0 0 0 .858-.407l5.425-6.643a1.107 1.107 0 0 0-.157-1.557z" fill="#372E75"/>
            </g>
        </g>
        <g data-name="Group 31">
            <g data-name="Group 30">
                <path data-name="Path 69" d="M36.537 28.786H18.822a1.107 1.107 0 1 0 0 2.214h17.715a1.107 1.107 0 0 0 0-2.214z" fill="#372E75"/>
            </g>
        </g>
        <g data-name="Group 33">
            <g data-name="Group 32">
                <path data-name="Path 70" d="M25.465 33.215h-6.643a1.107 1.107 0 0 0 0 2.214h6.643a1.107 1.107 0 1 0 0-2.214z" fill="#372E75"/>
            </g>
        </g>
        <g data-name="Group 35">
            <g data-name="Group 34">
                <path data-name="Path 71" d="M15.094 41.214a1.107 1.107 0 0 0-1.558.157l-4.545 5.565-2.58-3.329a1.107 1.107 0 1 0-1.75 1.356l3.432 4.429a1.107 1.107 0 0 0 .861.429h.014a1.107 1.107 0 0 0 .858-.407l5.425-6.643a1.107 1.107 0 0 0-.157-1.557z" fill="#372E75"/>
            </g>
        </g>
        <g data-name="Group 37">
            <g data-name="Group 36">
                <path data-name="Path 72" d="M36.537 42.072H18.822a1.107 1.107 0 0 0 0 2.214h17.715a1.107 1.107 0 0 0 0-2.214z" fill="#372E75"/>
            </g>
        </g>
        <g data-name="Group 39">
            <g data-name="Group 38">
                <path data-name="Path 73" d="M25.465 46.501h-6.643a1.107 1.107 0 0 0 0 2.214h6.643a1.107 1.107 0 1 0 0-2.214z" fill="#372E75"/>
            </g>
        </g>
        <g data-name="Group 41">
            <g data-name="Group 40">
                <path data-name="Path 74" d="M31.783 51.253a1.106 1.106 0 1 0 .325.783 1.115 1.115 0 0 0-.325-.783z" fill="#372E75"/>
            </g>
        </g>
        <path d="M35.098 25.975a6.313 6.313 0 0 0 2.899-.837l18.598-10.734a.572.572 0 0 0 .209-.78l-.06-.104 1.485-.845a1.715 1.715 0 0 0 .632-2.354l-.509-.861a1.72 1.72 0 0 0-2.335-.626l-1.477.854-.31-.543a2.858 2.858 0 0 0-3.911-1.061l-5.604 3.233a.571.571 0 1 0 .572.99l5.603-3.232a1.714 1.714 0 0 1 2.314.58l-8.381 4.838-1.531.884-.99.572-7.208 4.16a6.312 6.312 0 0 0-2.175 2.091l-1.917 3.04a.572.572 0 0 0 .506.875zm22.27-15.944l.508.86a.572.572 0 0 1-.21.787l-1.491.843-1.07-1.84 1.484-.856a.573.573 0 0 1 .778.209zm-3.6.619l1.76 3.049-7.43 4.289-1.76-3.051zm-8.42 4.86l1.76 3.05-1.485.857-1.76-3.05zm-2.476 1.429l1.76 3.05-7.205 4.155q-.11.063-.222.12l-1.753-3.038c.07-.045.142-.09.214-.132zm-8.988 5.873a5.143 5.143 0 0 1 .668-.846l1.567 2.715a5.138 5.138 0 0 1-1.067.155l-2.505.097zm0 0" fill="#388ccb"/>
    </g>
</svg>
