<svg xmlns="http://www.w3.org/2000/svg" width="48.603" height="53.91" viewBox="0 0 48.603 53.91">
    <g data-name="Group 150">
        <g data-name="Ellipse 36" fill="none" stroke="#372E75" stroke-width="2">
            <circle cx="24.302" cy="24.302" r="24.302" stroke="none"/>
            <circle cx="24.302" cy="24.302" r="23.302"/>
        </g>
        <g data-name="Rectangle 274" fill="#372E75" stroke="#372E75">
            <path d="M37.458 44.005l1.981-1.549 6.969 8.915a1.257 1.257 0 0 1-.216 1.765 1.257 1.257 0 0 1-1.765-.216l-6.969-8.915z" stroke="none"/>
            <path d="M38.359 43.936l.795-.622a.252.252 0 0 1 .354.043l6.505 8.321a.757.757 0 0 1-.13 1.063.757.757 0 0 1-1.062-.13l-6.506-8.321a.252.252 0 0 1 .044-.354z" fill="none"/>
        </g>
        <path d="M37.38 14.482h-6.5v-2a2.5 2.5 0 0 0-2.5-2.5h-8.988a2.5 2.5 0 0 0-2.5 2.5v2h-6.493a1.5 1.5 0 0 0-1.5 1.5v11.119a1.506 1.506 0 0 0 1 1.411v6.954a1.5 1.5 0 0 0 1.5 1.5h24.982a1.5 1.5 0 0 0 1.5-1.5v-6.954a1.506 1.506 0 0 0 1-1.411V15.982a1.5 1.5 0 0 0-1.5-1.5zm-19.487-2a1.5 1.5 0 0 1 1.5-1.5h8.994a1.5 1.5 0 0 1 1.5 1.5v2h-1v-2a.5.5 0 0 0-.5-.5h-8.995a.5.5 0 0 0-.5.5v2h-1zm9.993 2h-7.994v-1.5h7.995zm8.994 20.986a.5.5 0 0 1-.5.5H11.399a.5.5 0 0 1-.5-.5v-6.786l10.993 1.516v1.269a1.5 1.5 0 0 0 1.5 1.5h1a1.5 1.5 0 0 0 1.5-1.5v-1.268l10.988-1.517zm-11.992-4a.5.5 0 0 1-.5.5h-1a.5.5 0 0 1-.5-.5v-3a.5.5 0 0 1 .5-.5h1a.5.5 0 0 1 .5.5zm12.991-4.367a.5.5 0 0 1-.43.5l-.139.019-11.422 1.57v-.72a1.5 1.5 0 0 0-1.5-1.5h-1a1.5 1.5 0 0 0-1.5 1.5v.72l-11.559-1.594a.5.5 0 0 1-.43-.5V15.982a.5.5 0 0 1 .5-.5H37.38a.5.5 0 0 1 .5.5zm0 0" fill="#372E75"/>
    </g>
</svg>
