<svg xmlns="http://www.w3.org/2000/svg" width="46.459" height="56.645" viewBox="0 0 46.459 56.645">
    <defs>
        <style>
            .cls-1{fill:#372E75}
        </style>
    </defs>
    <g id="checklist" transform="translate(-68.923)">
        <g id="Group_21" data-name="Group 21" transform="translate(68.923)">
            <g id="Group_20" data-name="Group 20">
                <path id="Path_64" d="M108.2 4.246h-7.43V3.185a1.062 1.062 0 0 0-1.062-1.062h-6.37a5.3 5.3 0 0 0-8.49 0h-6.371a1.062 1.062 0 0 0-1.062 1.062v1.061h-7.43a1.062 1.062 0 0 0-1.062 1.062V54.14a1.062 1.062 0 0 0 1.062 1.06H108.2a1.062 1.062 0 0 0 1.062-1.062V5.308a1.062 1.062 0 0 0-1.062-1.062zm-28.662 0h5.877a1.062 1.062 0 0 0 .919-.53 3.184 3.184 0 0 1 5.516 0 1.061 1.061 0 0 0 .919.53h5.877v4.247H79.539zm27.6 44.586h-5.308a1.062 1.062 0 1 0 0 2.123h5.308v2.123H71.046V6.369h6.369v3.185a1.062 1.062 0 0 0 1.062 1.062h21.231a1.062 1.062 0 0 0 1.062-1.062V6.369h6.369v42.463z" class="cls-1" data-name="Path 64" transform="translate(-68.923)"/>
            </g>
        </g>
        <g id="Group_25" data-name="Group 25" transform="translate(73.641 14.793)">
            <g id="Group_24" data-name="Group 24">
                <path id="Path_66" d="M255.74 137.846h-27.556c-.951 0-1.722.475-1.722 1.062s.771 1.062 1.722 1.062h27.556c.951 0 1.722-.475 1.722-1.062s-.771-1.062-1.722-1.062z" class="cls-1" data-name="Path 66" transform="translate(-226.462 -137.846)"/>
            </g>
        </g>
        <g id="Group_31" data-name="Group 31" transform="translate(73.641 22.008)">
            <g id="Group_30" data-name="Group 30">
                <path id="Path_69" d="M255.74 256h-27.556c-.951 0-1.722.475-1.722 1.062s.771 1.062 1.722 1.062h27.556c.951 0 1.722-.475 1.722-1.062S256.691 256 255.74 256z" class="cls-1" data-name="Path 69" transform="translate(-226.462 -256)"/>
            </g>
        </g>
        <g id="Group_56" data-name="Group 56" transform="translate(73.641 28.503)">
            <g id="Group_30-2" data-name="Group 30">
                <path id="Path_69-2" d="M255.74 256h-27.556c-.951 0-1.722.475-1.722 1.062s.771 1.062 1.722 1.062h27.556c.951 0 1.722-.475 1.722-1.062S256.691 256 255.74 256z" class="cls-1" data-name="Path 69" transform="translate(-226.462 -256)"/>
            </g>
        </g>
        <g id="Group_37" data-name="Group 37" transform="translate(73.641 34.997)">
            <g id="Group_36" data-name="Group 36">
                <path id="Path_72" d="M255.74 374.154h-27.556c-.951 0-1.722.475-1.722 1.062s.771 1.062 1.722 1.062h27.556c.951 0 1.722-.475 1.722-1.062s-.771-1.062-1.722-1.062z" class="cls-1" data-name="Path 72" transform="translate(-226.462 -374.154)"/>
            </g>
        </g>
        <g id="Group_57" data-name="Group 57" transform="translate(73.641 45.391)">
            <g id="Group_36-2" data-name="Group 36">
                <path id="Path_72-2" d="M241.1 374.154h-13.777c-.475 0-.861.572-.861 1.277s.386 1.277.861 1.277H241.1c.475 0 .861-.572.861-1.277s-.385-1.277-.861-1.277z" class="cls-1" data-name="Path 72" transform="translate(-226.462 -374.154)"/>
            </g>
        </g>
        <g id="Ellipse_17" data-name="Ellipse 17" transform="translate(97.343 38.605)" style="fill:#fff;stroke:#372E75;stroke-width:2px">
            <circle cx="9.02" cy="9.02" r="9.02" style="stroke:none"/>
            <circle cx="9.02" cy="9.02" r="8.02" style="fill:none"/>
        </g>
        <g id="Group_35" data-name="Group 35" transform="translate(101.311 44.329)">
            <g id="Group_34" data-name="Group 34">
                <path id="Path_71" d="M118.533 364.547a1.062 1.062 0 0 0-1.494.151l-4.358 5.336-2.474-3.192a1.062 1.062 0 1 0-1.678 1.3l3.291 4.246a1.061 1.061 0 0 0 .825.411h.014a1.062 1.062 0 0 0 .822-.39l5.2-6.369a1.061 1.061 0 0 0-.148-1.493z" class="cls-1" data-name="Path 71" transform="translate(-108.307 -364.308)"/>
            </g>
        </g>
    </g>
</svg>
