<svg xmlns="http://www.w3.org/2000/svg" width="20" height="16" viewBox="0 0 20 16">
    <g id="twitter-logo-silhouette_1_" data-name="twitter-logo-silhouette (1)">
        <g id="Group_392" data-name="Group 392">
            <path id="Path_194" d="M20 59.334a8.292 8.292 0 0 1-2.356.636 4.069 4.069 0 0 0 1.8-2.234 8.349 8.349 0 0 1-2.607.981 4.121 4.121 0 0 0-2.994-1.276 4.072 4.072 0 0 0-4.1 4.04 3.993 3.993 0 0 0 .106.921 11.708 11.708 0 0 1-8.455-4.222 3.964 3.964 0 0 0-.554 2.03 4.023 4.023 0 0 0 1.825 3.363 4.151 4.151 0 0 1-1.858-.507v.05A4.061 4.061 0 0 0 4.1 67.079a4.216 4.216 0 0 1-1.081.142 4 4 0 0 1-.772-.075 4.1 4.1 0 0 0 3.832 2.806 8.312 8.312 0 0 1-5.1 1.727A8.853 8.853 0 0 1 0 71.623a11.727 11.727 0 0 0 6.29 1.818 11.5 11.5 0 0 0 11.673-11.5l-.014-.523A8.126 8.126 0 0 0 20 59.334z" data-name="Path 194" transform="translate(-.001 -57.441)" 
            style="fill:#372E75"/>
        </g>
    </g>
</svg>
