<svg xmlns="http://www.w3.org/2000/svg" width="20" height="20" viewBox="0 0 20 20">
    <g id="whatsapp" transform="translate(1 1)">
        <g id="Group_396" data-name="Group 396">
            <path id="Path_196" d="M10 0a9.994 9.994 0 0 0-8.1 15.861L.658 19.576 4.5 18.347A10 10 0 1 0 10 0zm5.819 14.121a2.822 2.822 0 0 1-1.962 1.411c-.522.111-1.2.2-3.5-.753a12.527 12.527 0 0 1-4.979-4.4A5.711 5.711 0 0 1 4.19 7.366a3.192 3.192 0 0 1 1.023-2.434 1.453 1.453 0 0 1 1.022-.359c.124 0 .235.006.335.011.294.012.441.03.635.494.241.581.829 2.016.9 2.164a.6.6 0 0 1 .042.541 1.728 1.728 0 0 1-.324.459c-.148.17-.287.3-.435.483-.135.159-.287.329-.117.623a8.876 8.876 0 0 0 1.623 2.016 7.352 7.352 0 0 0 2.345 1.446.632.632 0 0 0 .7-.111 12.1 12.1 0 0 0 .781-1.035.558.558 0 0 1 .718-.217c.27.094 1.7.8 1.992.946s.488.217.559.341a2.49 2.49 0 0 1-.168 1.387z" data-name="Path 196" transform="translate(-1 -1)" 
            style="fill:#fff"/>
        </g>
    </g>
</svg>
