<?xml version="1.0" encoding="utf-8"?>
<!-- Generator: Adobe Illustrator 23.0.1, SVG Export Plug-In . SVG Version: 6.00 Build 0)  -->
<svg version="1.1" id="Layer_1" xmlns="http://www.w3.org/2000/svg" xmlns:xlink="http://www.w3.org/1999/xlink" x="0px" y="0px"
	 viewBox="0 0 256 56" style="enable-background:new 0 0 256 56;" xml:space="preserve">
<style type="text/css">
	.st0{fill:#372E75;}
	.st1{clip-path:url(#SVGID_2_);}
</style>
<path class="st0" d="M60.53,7.98h6.29c2.68,0,4.7,0.46,6.09,1.4c1.39,0.94,2.1,2.58,2.1,4.94c0,1.42-0.28,2.64-0.83,3.62
	c-0.52,0.98-1.29,1.58-2.3,1.78v0.18c0.67,0.18,1.27,0.5,1.81,0.92c0.56,0.4,1.01,1,1.33,1.78c0.32,0.8,0.48,1.84,0.48,3.16
	c0,2.26-0.67,4.04-2.02,5.34c-1.31,1.28-3.12,1.92-5.4,1.92h-7.56C60.53,33.02,60.53,7.98,60.53,7.98z M64.81,17.9h2.48
	c1.25,0,2.1-0.24,2.58-0.7c0.48-0.5,0.73-1.22,0.73-2.18s-0.28-1.64-0.85-2.06c-0.56-0.42-1.47-0.64-2.68-0.64h-2.26V17.9z
	 M64.81,22.12v6.52h2.8c1.29,0,2.18-0.3,2.68-0.92c0.5-0.64,0.77-1.46,0.77-2.5c0-0.94-0.26-1.68-0.79-2.24
	c-0.5-0.58-1.45-0.88-2.8-0.88h-2.66V22.12z"/>
<path class="st0" d="M84.84,13.48c2.08,0,3.65,0.56,4.76,1.68c1.11,1.1,1.67,2.8,1.67,5.08V33h-2.94l-0.83-2.6h-0.12
	c-0.67,1.02-1.35,1.78-2.1,2.24c-0.73,0.46-1.75,0.7-3.02,0.7c-1.37,0-2.52-0.5-3.43-1.48s-1.35-2.52-1.35-4.6
	c0-2.04,0.58-3.54,1.73-4.5c1.15-0.96,2.88-1.5,5.18-1.62l2.68-0.1V20.2c0-1-0.22-1.74-0.65-2.22c-0.42-0.46-1.01-0.7-1.75-0.7
	s-1.49,0.14-2.2,0.42c-0.73,0.26-1.43,0.58-2.16,0.98l-1.41-3.48c0.81-0.52,1.73-0.92,2.74-1.22
	C82.69,13.66,83.73,13.48,84.84,13.48z M87.08,24.16l-1.63,0.08c-1.35,0.04-2.3,0.36-2.82,0.92s-0.79,1.3-0.79,2.22
	c0,0.8,0.18,1.36,0.56,1.72c0.38,0.32,0.87,0.5,1.47,0.5c0.91,0,1.67-0.32,2.3-0.98c0.62-0.68,0.93-1.62,0.93-2.84v-1.62H87.08z"/>
<path class="st0" d="M100.44,33.38c-2.3,0-4.09-0.78-5.34-2.36c-1.25-1.56-1.87-4.06-1.87-7.48c0-2.34,0.32-4.24,0.97-5.72
	c0.65-1.48,1.53-2.56,2.66-3.26c1.15-0.7,2.48-1.06,3.95-1.06c1.05,0,1.98,0.12,2.74,0.38c0.79,0.26,1.47,0.56,2.06,0.92l-1.25,4.04
	c-0.67-0.32-1.29-0.6-1.87-0.8c-0.56-0.22-1.13-0.32-1.69-0.32c-2.2,0-3.29,1.92-3.29,5.78c0,1.92,0.28,3.34,0.85,4.24
	c0.58,0.92,1.39,1.36,2.44,1.36c0.89,0,1.67-0.14,2.34-0.42c0.69-0.3,1.33-0.72,1.98-1.22v4.46c-0.65,0.52-1.31,0.88-2.04,1.08
	C102.4,33.26,101.51,33.38,100.44,33.38z"/>
<path class="st0" d="M112.9,6.36v11.92c0,0.72-0.02,1.44-0.08,2.18c-0.04,0.7-0.08,1.42-0.14,2.14h0.06
	c0.28-0.5,0.58-0.98,0.89-1.48s0.62-0.98,0.97-1.44l4.33-5.82h4.76l-6.15,8.32l6.51,10.84h-4.86l-4.43-7.76l-1.81,1.78V33h-4.21
	V6.36H112.9z"/>
<path class="st0" d="M132.74,29.2c0.46,0,0.93-0.04,1.35-0.14c0.44-0.12,0.87-0.26,1.31-0.46v3.9c-0.44,0.26-1.03,0.46-1.69,0.64
	c-0.67,0.16-1.39,0.24-2.18,0.24c-0.93,0-1.75-0.18-2.48-0.56c-0.73-0.38-1.29-1.02-1.73-1.92c-0.42-0.92-0.62-2.2-0.62-3.86V17.8
	h-2.02v-2.2l2.32-1.76l1.21-4.04h2.68v4.06h4.33v3.94h-4.33v9.22c0,0.72,0.16,1.28,0.5,1.64C131.75,29.02,132.19,29.2,132.74,29.2z"
	/>
<path class="st0" d="M152.25,23.42c0,3.18-0.69,5.64-2.04,7.36c-1.33,1.74-3.16,2.6-5.48,2.6c-1.43,0-2.72-0.38-3.85-1.16
	c-1.11-0.78-2-1.9-2.62-3.36c-0.65-1.5-0.97-3.3-0.97-5.44c0-3.18,0.67-5.62,2.02-7.34c1.33-1.7,3.18-2.56,5.52-2.56
	c1.45,0,2.74,0.38,3.85,1.16s2,1.9,2.64,3.36C151.93,19.52,152.25,21.32,152.25,23.42z M141.59,23.42c0,1.9,0.24,3.34,0.73,4.32
	c0.5,0.96,1.33,1.44,2.46,1.44c1.11,0,1.91-0.48,2.4-1.44c0.5-0.98,0.77-2.42,0.77-4.32s-0.26-3.3-0.77-4.24
	c-0.48-0.96-1.31-1.44-2.44-1.44c-1.11,0-1.91,0.48-2.44,1.44C141.83,20.1,141.59,21.52,141.59,23.42z"/>
<path class="st0" d="M166.7,33.02h-11.63V7.98h11.63v4.34h-7.36v5.5h6.85v4.34h-6.85v6.46h7.36V33.02z"/>
<path class="st0" d="M173.74,23.24l-4.98-9.36h4.78l3,6.1l3.02-6.1h4.78l-5.04,9.36l5.26,9.78h-4.78l-3.25-6.56l-3.25,6.56h-4.78
	L173.74,23.24z"/>
<path class="st0" d="M195.51,13.52c1.73,0,3.14,0.84,4.21,2.52c1.07,1.66,1.61,4.12,1.61,7.36c0,3.28-0.56,5.76-1.67,7.44
	c-1.11,1.68-2.54,2.52-4.27,2.52c-1.11,0-2-0.24-2.66-0.74c-0.67-0.52-1.19-1.08-1.61-1.72h-0.22c0.14,0.98,0.22,1.92,0.22,2.8v7.72
	h-4.21V13.88h3.43l0.58,2.5h0.2c0.42-0.78,0.97-1.44,1.67-2C193.49,13.8,194.4,13.52,195.51,13.52z M194.16,17.7
	c-1.09,0-1.87,0.44-2.32,1.3c-0.44,0.84-0.69,2.12-0.71,3.82v0.56c0,1.84,0.22,3.28,0.65,4.28c0.44,0.98,1.27,1.48,2.44,1.48
	c0.97,0,1.67-0.5,2.12-1.48c0.46-1,0.71-2.44,0.71-4.32C197.04,19.58,196.07,17.7,194.16,17.7z"/>
<path class="st0" d="M210.32,13.52c2.14,0,3.81,0.76,5.06,2.28c1.25,1.5,1.87,3.64,1.87,6.42v2.52h-9.96
	c0.04,1.48,0.38,2.64,1.05,3.48c0.69,0.84,1.61,1.26,2.8,1.26c0.99,0,1.87-0.12,2.68-0.36c0.83-0.26,1.67-0.64,2.54-1.16V32
	c-0.77,0.46-1.57,0.8-2.4,1.02c-0.83,0.24-1.83,0.36-3.02,0.36c-1.55,0-2.92-0.36-4.09-1.06c-1.19-0.72-2.12-1.8-2.8-3.22
	c-0.69-1.44-1.03-3.28-1.03-5.5s0.3-4.08,0.91-5.58c0.62-1.5,1.47-2.62,2.58-3.36C207.6,13.9,208.87,13.52,210.32,13.52z
	 M210.36,17.24c-0.83,0-1.51,0.32-2.04,0.98c-0.52,0.66-0.85,1.68-0.93,3.06h5.91c-0.02-1.14-0.28-2.1-0.77-2.88
	C212.06,17.62,211.33,17.24,210.36,17.24z"/>
<path class="st0" d="M228.32,13.52c0.2,0,0.44,0.02,0.73,0.04c0.28,0.02,0.5,0.06,0.69,0.1l-0.3,4.92c-0.14-0.04-0.34-0.08-0.58-0.1
	c-0.24-0.04-0.46-0.08-0.65-0.08c-0.73,0-1.41,0.16-2.06,0.5c-0.67,0.3-1.19,0.8-1.61,1.5c-0.4,0.7-0.58,1.66-0.58,2.88v9.76h-4.21
	V13.88h3.21l0.62,3.22h0.2c0.44-0.98,1.07-1.82,1.87-2.52C226.37,13.88,227.28,13.52,228.32,13.52z"/>
<path class="st0" d="M239.47,29.2c0.46,0,0.93-0.04,1.35-0.14c0.44-0.12,0.87-0.26,1.31-0.46v3.9c-0.44,0.26-1.03,0.46-1.69,0.64
	c-0.67,0.16-1.39,0.24-2.18,0.24c-0.93,0-1.75-0.18-2.48-0.56c-0.73-0.38-1.29-1.02-1.73-1.92c-0.42-0.92-0.62-2.2-0.62-3.86V17.8
	h-2.02v-2.2l2.32-1.76l1.21-4.04h2.68v4.06h4.33v3.94h-4.33v9.22c0,0.72,0.16,1.28,0.5,1.64C238.48,29.02,238.93,29.2,239.47,29.2z"
	/>
<path class="st0" d="M256,27.34c0,1.94-0.56,3.44-1.67,4.5c-1.09,1.02-2.74,1.54-4.92,1.54c-1.07,0-2-0.1-2.78-0.28
	c-0.77-0.16-1.55-0.44-2.32-0.84v-4.32c0.83,0.46,1.73,0.86,2.68,1.16c0.97,0.3,1.81,0.46,2.54,0.46c0.81,0,1.39-0.16,1.75-0.46
	s0.54-0.7,0.54-1.2c0-0.32-0.08-0.62-0.22-0.88c-0.14-0.26-0.44-0.54-0.91-0.88c-0.46-0.32-1.21-0.74-2.2-1.26
	c-0.99-0.52-1.77-1.02-2.4-1.5c-0.6-0.52-1.05-1.12-1.35-1.82c-0.3-0.72-0.44-1.62-0.44-2.7c0-1.78,0.56-3.12,1.67-4
	c1.11-0.88,2.6-1.34,4.43-1.34c0.97,0,1.87,0.12,2.74,0.36s1.75,0.62,2.68,1.16l-1.27,3.76c-0.75-0.4-1.47-0.72-2.16-0.98
	c-0.69-0.28-1.37-0.42-2.06-0.42c-1.25,0-1.87,0.42-1.87,1.26c0,0.3,0.08,0.58,0.22,0.84c0.16,0.24,0.48,0.5,0.93,0.78
	c0.46,0.28,1.17,0.66,2.06,1.12c0.89,0.44,1.65,0.92,2.3,1.4c0.65,0.46,1.13,1.06,1.47,1.78C255.82,25.3,256,26.22,256,27.34z"/>
<path class="st0" d="M219.15,54.56c0-0.52,0.1-0.9,0.3-1.1c0.2-0.22,0.44-0.32,0.75-0.32c0.28,0,0.54,0.1,0.75,0.32
	c0.22,0.22,0.32,0.58,0.32,1.1c0,0.52-0.1,0.88-0.32,1.1c-0.22,0.22-0.46,0.34-0.75,0.34c-0.28,0-0.52-0.12-0.75-0.34
	C219.25,55.44,219.15,55.06,219.15,54.56z"/>
<path class="st0" d="M227.64,55.92c-0.83,0-1.55-0.2-2.18-0.62c-0.62-0.42-1.13-1.04-1.49-1.92c-0.36-0.86-0.52-1.98-0.52-3.32
	c0-1.4,0.18-2.54,0.54-3.42c0.38-0.88,0.89-1.52,1.55-1.94c0.65-0.42,1.39-0.62,2.22-0.62c0.46,0,0.91,0.06,1.33,0.2
	c0.44,0.12,0.81,0.26,1.09,0.42l-0.46,1.56c-0.28-0.12-0.58-0.24-0.97-0.36c-0.36-0.12-0.71-0.18-1.03-0.18
	c-1.81,0-2.7,1.44-2.7,4.32c0,1.38,0.22,2.44,0.65,3.16c0.44,0.72,1.11,1.08,1.98,1.08c0.48,0,0.93-0.06,1.33-0.2
	c0.38-0.12,0.75-0.28,1.07-0.46v1.66c-0.3,0.2-0.65,0.34-1.03,0.44C228.63,55.86,228.18,55.92,227.64,55.92z"/>
<path class="st0" d="M240.2,49.98c0,1.88-0.38,3.34-1.17,4.38c-0.77,1.04-1.81,1.56-3.12,1.56c-0.81,0-1.53-0.22-2.18-0.68
	c-0.62-0.46-1.13-1.14-1.49-2.02c-0.36-0.9-0.54-1.98-0.54-3.24c0-1.88,0.38-3.34,1.13-4.36c0.77-1.02,1.81-1.54,3.14-1.54
	c0.83,0,1.55,0.24,2.2,0.7s1.13,1.12,1.49,2C240.02,47.66,240.2,48.72,240.2,49.98z M233.24,49.98c0,1.34,0.22,2.42,0.62,3.22
	c0.44,0.78,1.13,1.16,2.06,1.16c0.93,0,1.61-0.4,2.04-1.16c0.44-0.8,0.65-1.86,0.65-3.22c0-1.34-0.22-2.4-0.65-3.16
	c-0.44-0.76-1.13-1.14-2.06-1.14c-0.95,0-1.61,0.38-2.04,1.14C233.46,47.58,233.24,48.64,233.24,49.98z"/>
<path class="st0" d="M252.67,44.08c1.05,0,1.81,0.34,2.34,1c0.52,0.66,0.77,1.72,0.77,3.2v7.42h-1.49v-7.34c0-1.8-0.62-2.7-1.87-2.7
	c-0.89,0-1.53,0.32-1.91,0.96s-0.56,1.56-0.56,2.78v6.3h-1.49v-7.34c0-1.8-0.62-2.7-1.89-2.7c-0.93,0-1.57,0.36-1.91,1.06
	c-0.36,0.7-0.52,1.72-0.52,3.06v5.92h-1.51V44.3h1.21l0.22,1.56h0.08c0.28-0.6,0.67-1.04,1.15-1.32c0.48-0.3,1.01-0.44,1.55-0.44
	c1.43,0,2.38,0.64,2.82,1.92h0.08c0.3-0.66,0.73-1.14,1.25-1.44C251.5,44.24,252.07,44.08,252.67,44.08z"/>
<g>
	<g>
		<defs>
			<rect id="SVGID_1_" width="46.28" height="49.08"/>
		</defs>
		<clipPath id="SVGID_2_">
			<use xlink:href="#SVGID_1_"  style="overflow:visible;"/>
		</clipPath>
		<g class="st1">
			<path class="st0" d="M41.14,34.26l5.12-25.6c-0.08,9.78-0.24,31.1-0.28,40.42L0,0c13.51,2.02,32.7,4.88,46.28,6.9
				c-6.03-0.14-20.3-0.5-26.33-0.7l-7.84-0.26C19.67,13.3,33.5,26.78,41.14,34.26L19.13,9.3l24.09-0.44l-15.04,4.82L41.14,34.26
				l-9.59-18.94l9.13-3.56l-4.56,5.8L41.14,34.26z"/>
		</g>
	</g>
</g>
</svg>
