<?xml version="1.0" encoding="UTF-8"?>
<svg width="35px" height="33px" viewBox="0 0 35 33" version="1.1" xmlns="http://www.w3.org/2000/svg" xmlns:xlink="http://www.w3.org/1999/xlink">
    <!-- Generator: Sketch 52.6 (67491) - http://www.bohemiancoding.com/sketch -->
    <title>star-1</title>
    <desc>Created with Sketch.</desc>
    <g id="Account" stroke="none" stroke-width="1" fill="none" fill-rule="evenodd">
        <g id="Artboard" transform="translate(-1.000000, -1.000000)" fill="#B56E1E">
            <path d="M18.5272774,29.8279531 L10.0320786,33.696215 C9.02681924,34.1539567 7.84082259,33.7101059 7.38308092,32.7048466 C7.21324323,32.3318612 7.16209053,31.9157036 7.2365451,31.5126907 L8.82882395,22.8938924 L2.04185648,15.8634625 C1.27468905,15.0687752 1.29699831,13.8026418 2.09168561,13.0354743 C2.42124914,12.7173235 2.85003801,12.5219447 3.30636745,12.4820011 L12.5333035,11.6743466 L16.718733,2.80981936 C17.1903361,1.8109879 18.3823589,1.38358488 19.3811904,1.855188 C19.800429,2.05313355 20.1378762,2.39058073 20.3358217,2.80981936 L24.5212512,11.6743466 L33.7481873,12.4820011 C34.8485494,12.5783183 35.6624886,13.5484185 35.5661715,14.6487807 C35.5262279,15.1051101 35.3308491,15.533899 35.0126983,15.8634625 L28.2257308,22.8938924 L29.8180096,31.5126907 C30.0186775,32.5988796 29.3008209,33.642083 28.214632,33.8427508 C27.8116191,33.9172054 27.3954615,33.8660527 27.0224762,33.696215 L18.5272774,29.8279531 Z" id="star-1"></path>
        </g>
    </g>
</svg>