<?xml version="1.0" encoding="UTF-8"?>
<svg width="35px" height="33px" viewBox="0 0 35 33" version="1.1" xmlns="http://www.w3.org/2000/svg" xmlns:xlink="http://www.w3.org/1999/xlink">
    <!-- Generator: Sketch 52.6 (67491) - http://www.bohemiancoding.com/sketch -->
    <title>star-4</title>
    <desc>Created with Sketch.</desc>
    <g id="Account" stroke="none" stroke-width="1" fill="none" fill-rule="evenodd">
        <g id="Artboard" transform="translate(-215.000000, -1.000000)" fill="#D60000">
            <path d="M232.527277,29.8279531 L224.032079,33.696215 C223.026819,34.1539567 221.840823,33.7101059 221.383081,32.7048466 C221.213243,32.3318612 221.162091,31.9157036 221.236545,31.5126907 L222.828824,22.8938924 L216.041856,15.8634625 C215.274689,15.0687752 215.296998,13.8026418 216.091686,13.0354743 C216.421249,12.7173235 216.850038,12.5219447 217.306367,12.4820011 L226.533304,11.6743466 L230.718733,2.80981936 C231.190336,1.8109879 232.382359,1.38358488 233.38119,1.855188 C233.800429,2.05313355 234.137876,2.39058073 234.335822,2.80981936 L238.521251,11.6743466 L247.748187,12.4820011 C248.848549,12.5783183 249.662489,13.5484185 249.566171,14.6487807 C249.526228,15.1051101 249.330849,15.533899 249.012698,15.8634625 L242.225731,22.8938924 L243.81801,31.5126907 C244.018677,32.5988796 243.300821,33.642083 242.214632,33.8427508 C241.811619,33.9172054 241.395461,33.8660527 241.022476,33.696215 L232.527277,29.8279531 Z" id="star-4"></path>
        </g>
    </g>
</svg>