<?xml version="1.0" encoding="UTF-8"?>
<svg width="35px" height="33px" viewBox="0 0 35 33" version="1.1" xmlns="http://www.w3.org/2000/svg" xmlns:xlink="http://www.w3.org/1999/xlink">
    <!-- Generator: Sketch 52.6 (67491) - http://www.bohemiancoding.com/sketch -->
    <title>star-2</title>
    <desc>Created with Sketch.</desc>
    <g id="Account" stroke="none" stroke-width="1" fill="none" fill-rule="evenodd">
        <g id="Artboard" transform="translate(-59.000000, -1.000000)" fill="#DBDBDB">
            <path d="M76.5272774,29.8279531 L68.0320786,33.696215 C67.0268192,34.1539567 65.8408226,33.7101059 65.3830809,32.7048466 C65.2132432,32.3318612 65.1620905,31.9157036 65.2365451,31.5126907 L66.8288239,22.8938924 L60.0418565,15.8634625 C59.274689,15.0687752 59.2969983,13.8026418 60.0916856,13.0354743 C60.4212491,12.7173235 60.850038,12.5219447 61.3063675,12.4820011 L70.5333035,11.6743466 L74.718733,2.80981936 C75.1903361,1.8109879 76.3823589,1.38358488 77.3811904,1.855188 C77.800429,2.05313355 78.1378762,2.39058073 78.3358217,2.80981936 L82.5212512,11.6743466 L91.7481873,12.4820011 C92.8485494,12.5783183 93.6624886,13.5484185 93.5661715,14.6487807 C93.5262279,15.1051101 93.3308491,15.533899 93.0126983,15.8634625 L86.2257308,22.8938924 L87.8180096,31.5126907 C88.0186775,32.5988796 87.3008209,33.642083 86.214632,33.8427508 C85.8116191,33.9172054 85.3954615,33.8660527 85.0224762,33.696215 L76.5272774,29.8279531 Z" id="star-2"></path>
        </g>
    </g>
</svg>