<?xml version="1.0" encoding="UTF-8"?>
<svg width="35px" height="33px" viewBox="0 0 35 33" version="1.1" xmlns="http://www.w3.org/2000/svg" xmlns:xlink="http://www.w3.org/1999/xlink">
    <!-- Generator: Sketch 52.6 (67491) - http://www.bohemiancoding.com/sketch -->
    <title>star-3</title>
    <desc>Created with Sketch.</desc>
    <g id="Account" stroke="none" stroke-width="1" fill="none" fill-rule="evenodd">
        <g id="Artboard" transform="translate(-141.000000, -1.000000)" fill="#E4CA14">
            <path d="M158.527277,29.8279531 L150.032079,33.696215 C149.026819,34.1539567 147.840823,33.7101059 147.383081,32.7048466 C147.213243,32.3318612 147.162091,31.9157036 147.236545,31.5126907 L148.828824,22.8938924 L142.041856,15.8634625 C141.274689,15.0687752 141.296998,13.8026418 142.091686,13.0354743 C142.421249,12.7173235 142.850038,12.5219447 143.306367,12.4820011 L152.533304,11.6743466 L156.718733,2.80981936 C157.190336,1.8109879 158.382359,1.38358488 159.38119,1.855188 C159.800429,2.05313355 160.137876,2.39058073 160.335822,2.80981936 L164.521251,11.6743466 L173.748187,12.4820011 C174.848549,12.5783183 175.662489,13.5484185 175.566171,14.6487807 C175.526228,15.1051101 175.330849,15.533899 175.012698,15.8634625 L168.225731,22.8938924 L169.81801,31.5126907 C170.018677,32.5988796 169.300821,33.642083 168.214632,33.8427508 C167.811619,33.9172054 167.395461,33.8660527 167.022476,33.696215 L158.527277,29.8279531 Z" id="star-3"></path>
        </g>
    </g>
</svg>